<svg xmlns="http://www.w3.org/2000/svg" viewBox="0 0 106.96 16.33"><g data-name="Camada 2"><path d="M13.37 1.87A8.07 8.07 0 0 0 8.58 0h-.81A8.12 8.12 0 0 0 0 7.78v.77a8.14 8.14 0 0 0 7.77 7.78h.81a8.45 8.45 0 0 0 2.63-.58q3.27-1.61 3.27-2.93v-.58a2 2 0 0 0-1.92-1.63 3.47 3.47 0 0 0-1 .24 4.69 4.69 0 0 1-3.26 1.59H8l-1-.1c-2.1-.81-3.16-2.17-3.16-4.08v-.19a4 4 0 0 1 .48-1.92A4.1 4.1 0 0 1 8 3.89h.38a4 4 0 0 1 2.35.81 2.84 2.84 0 0 0 1.87 1h.29c1.08-.3 1.63-.89 1.63-1.78v-.41c0-.48-.37-1-1.11-1.64M26.75 0H26a8 8 0 0 0-4.83 1.87 8.07 8.07 0 0 0-2.93 5.91v.77A8.14 8.14 0 0 0 26 16.33h.77a8 8 0 0 0 4.84-1.88 8 8 0 0 0 2.93-5.9v-.77a8.08 8.08 0 0 0-1.87-4.85A8 8 0 0 0 26.75 0m3.88 8.35a4.3 4.3 0 0 1-.28 1.45 4.18 4.18 0 0 1-3.79 2.64h-.38a4.33 4.33 0 0 1-1.44-.29 4.18 4.18 0 0 1-2.64-3.8V8a4.33 4.33 0 0 1 .29-1.44 4.17 4.17 0 0 1 3.79-2.64h.38a4.33 4.33 0 0 1 1.44.26A4.15 4.15 0 0 1 30.63 8zM52.88 0h-.48l-.34.05a2.22 2.22 0 0 0-1.39 2.4v7.2L43 2c-1.17-1.33-2-2-2.58-2h-.67c-1 .42-1.49 1-1.49 1.68v13.11c.4 1 1 1.54 1.68 1.54h.48a1.86 1.86 0 0 0 1-.44q.72-.48.72-2.25v-7l7.67 7.64c1.18 1.34 2 2 2.59 2h.67c1-.42 1.49-1 1.49-1.68V1.54c-.4-1-1-1.54-1.68-1.54m17.17 0H59.83Q58.3.6 58.3 1.68v.48c.06.38.12.58.19.58.27.77 1 1.15 2.35 1.15h2.26v10.23l-.05.33.05.34c.4 1 .95 1.54 1.67 1.54h.53c.77-.24 1.15-.47 1.15-.68.35-.13.53-.92.53-2.35V3.89h2.2l1-.05q1.53-.6 1.53-1.68v-.62c-.4-1-1-1.54-1.67-1.54m11.47 0H77q-1.53.6-1.53 1.68v13.11c.4 1 1 1.54 1.67 1.54h.48c.71-.18 1.06-.35 1.06-.53.44-.21.67-1 .67-2.26v-2h.05l3.16 3.13c.94 1.12 1.73 1.68 2.4 1.68h.48A1.93 1.93 0 0 0 87 14.5v-.19a1.11 1.11 0 0 0-.1-.53c0-.3-.91-1.31-2.73-3Q87 8.74 87 6.05v-.57a5.88 5.88 0 0 0-.91-2.89A5.76 5.76 0 0 0 81.51 0m1.58 6.15c-.39 1-.93 1.49-1.63 1.49h-2.11v-3.8h1.25l1 .05c1 .38 1.49.93 1.49 1.63zm18-3.8C100.54.79 99.79 0 98.86 0h-.38a1.94 1.94 0 0 0-1.2.67C96.44 2.09 95 4.92 93 9.17a38.74 38.74 0 0 0-2.3 5v.44l.09.43c.5.86 1 1.3 1.63 1.3h.38a1 1 0 0 0 .77-.24c.35 0 .89-.88 1.63-2.64h7.14l.53 1c.5 1.25 1.15 1.88 2 1.88h.29l.53-.15c.86-.64 1.29-1.18 1.29-1.63V14q-.33-.83-5.84-11.62m-3.95 7.18a28.49 28.49 0 0 1 1.58-3.22l1.58 3.22z" fill="#ed1b2f" data-name="Isolation Mode"/></g></svg>