<svg version="1.1" id="Layer_1" xmlns="http://www.w3.org/2000/svg" x="0" y="0" viewBox="0 0 294 290" xml:space="preserve"><style>.st2,.st3{fill:#fff}.st3{stroke:#000;stroke-miterlimit:10}.st4,.st6{stroke-linecap:round;stroke-linejoin:round}.st4{fill:none;stroke:#000;stroke-miterlimit:10}.st6{stroke-width:.5}.st10,.st6,.st7,.st9{fill:none;stroke:#000;stroke-miterlimit:10}.st10,.st9{stroke-linecap:round;stroke-linejoin:round}.st9{stroke-width:.617}.st10{stroke-width:.9204}</style><path d="M178.2 142l-34.1 19.7-34.2-19.7 34-19.8zm-49.4 28.6l-34 19.8-34.3-19.8 34.1-19.7zm102.1 1.8l-34 19.8-34.3-19.8 34.1-19.7zm-118 28.6l34.2 19.8 34-19.8-34.2-19.8-34 19.8zm-33.4-1.7l-34 19.8-34.3-19.8 34-19.8zm204.2 3.6l-34 19.8-34.3-19.8 34-19.8zm-151.4 26.9l-34.1 19.7L64 229.8 98 210zm102.1 1.8l-34.1 19.7-34.2-19.7 34-19.8zM185 260.2L151 280l-34.3-19.8 34.1-19.7z" stroke="#000" stroke-width="3" stroke-linecap="round" stroke-linejoin="round" stroke-miterlimit="10"/><path d="M142.2 199.9zM125.9 151l.8.4-13.9 8.1-.8-.4z"/><path class="st2" d="M178.2 140.9l-34.1 19.8-34.2-19.8 34-19.8z"/><path d="M161.5 151.4l.7-.4 17.1 9.9-.7.4z"/><path d="M179.4 140.9c0 .1 0 .2-.1.2l-17 9.9-.7.4-1.6.9-.7.4-1.9 1.1-.7.4-1.7 1-.7.4-2.1 1.2-.7.4-6.8 4c-.1.1-.2.1-.4.1-.1 0-.3 0-.4-.1l-17.1-9.9-.7-.4L109 141c-.1-.1-.1-.1-.1-.2s0-.1.1-.2l34.7-20.2c.1-.1.2-.1.4-.1.1 0 .3 0 .4.1l35 20.2c-.2.1-.1.2-.1.3zm-35.3 19.8l34-19.8-34.3-19.8-34 19.8 34.3 19.8"/><path d="M142.5 173.4v6.2l2 1.1-.7.4-2.1-1.2-.2-.2v-6.5c0-.1.1-.2.2-.2l23.7-13.8-8.8-5.1.7-.4 9.1 5.3c.1.1.1.1.1.2s0 .2-.1.2l-23.9 14z"/><path d="M153.7 179.9c0 .1 0 .2-.1.2l-2.7 1.6-.7-.4 2.5-1.5v-8.2c0-.1.1-.2.1-.2l19.3-11.2-12.9-7.4.7-.4 13.2 7.6c.1.1.2.1.1.2 0 .1 0 .1-.1.2l-19.5 11.3.1 8.2z"/><path d="M139.2 172.7v7.9l2.7 1.6-.7.4-2.9-1.7-.2-.2v-8.2c0-.1.1-.1.1-.2l22.2-12.9-6.5-3.8.7-.4 6.9 4c.1.1.1.1.1.2s0 .2-.1.2l-22.3 13.1zm27.4 1.8l.8.4-14.1 8.2-.7-.5z"/><path d="M136 181.7l1.3.8 2.1 1.2-.7.4-2.1-1.2-1.5-.9c-.1-.1-.2-.1-.2-.2l-.1-10.7c0-.1.1-.2.1-.2l19.8-11.5-3.6-2.1.7-.4 4 2.3.2.2c0 .1-.1.2-.2.2l-20.1 11.7.3 10.4zm33.1-5.8l.7.4-14 8.2-.7-.4z"/><path d="M132.8 173l.1 9.7 4.1 2.4-.7.4-4.3-2.5c-.1-.1-.1-.1-.1-.2l-.1-9.7-3.9-2.2.7-.4 4 2.3c.2.1.2.1.2.2zm39.5 4.7l-14.1 8.2-.7-.4 14-8.2z"/><path d="M129.2 174.4l.1 9 5.4 3.1-.7.4-5.5-3.2c-.1-.1-.1-.1-.1-.2l-.1-9-3.3-1.9.7-.4 3.4 2c0 .1.1.2.1.2zm45.5 4.7c0 .1-.1.1-.1.1l-13.8 8-.7-.4 13.8-8c.1 0 .2-.1.2-.1l.6.4zm-112 8.6l13.9-8 .7.4-13.9 8zm52.5-9.4c.1 0 .2 0 .3.1l16.6 9.6-.7.4-16.6-9.6c-.1 0-.1-.1-.1-.2l.5-.3zm61.2 1.8l.8.5-14.1 8.1-.7-.4z"/><path class="st2" d="M128.8 169.6l-34 19.7-34.3-19.7 34.1-19.8z"/><path d="M122 185.1c.1 0 .3 0 .4.1l7.3 4.2-.7.4-7.2-4.1h-6.2c-.1 0-.3 0-.4-.1l-6.3-3.6.7-.4 6.1 3.5h6.3zm56.8-3.6l.7.4-14 8.2-.8-.5z"/><path d="M130 169.6c0 .1 0 .2-.1.2l-1.2.7-.7.4-2.3 1.4-.7.4-9.7 5.6-.6.3-5 2.9-.7.4-1.8 1.1-.7.4-1.9 1.1-.7.4-1.8 1-.7.4-6.2 3.6c-.1.1-.2.1-.4.1-.1 0-.3 0-.4-.1L77.3 180l-.7-.4-17.1-9.9-.2-.2c0-.1.1-.2.1-.2l34.7-20.2c.1-.1.2-.1.3-.1.1 0 .3 0 .4.1l17.1 9.9.7.4 17.1 9.9c.3.1.3.2.3.3zm-35.2 19.7l34-19.8-34.3-19.8-34 19.8 34.3 19.8"/><path class="st2" d="M230.9 171.4l-34 19.7-34.3-19.7 34.1-19.8z"/><path d="M120.5 187.1c.1 0 .3 0 .4.1l6.3 3.7-.7.4-6.2-3.6H114c-.1 0-.3 0-.4-.1l-7.2-4.2.7-.4 7.1 4.1h6.3zm60.8-4.1l.8.4-14.1 8.1-.7-.4zm33.7-1.5l17.1 9.8-.7.4-17.1-9.8z"/><path d="M232.1 171.4c0 .1-.1.2-.2.2l-17 9.9-.7.4-17 9.9c-.1.1-.2.1-.3.1-.1 0-.3 0-.4-.1l-5-2.9-.7-.4-2.7-1.6-.7-.4-5.3-3.1-.7-.4-1.9-1.1-.7-.4-1.6-.9-.7-.4-1.8-1-.6-.4-1.8-1-.7-.4-1.7-1-.7-.4-1.7-1-.7-.4-5.1-2.9c-.1-.1-.1-.1-.1-.2s0-.2.1-.2l17-9.9.7-.4 17-9.9c.1-.1.2-.1.4-.1.1 0 .3 0 .4.1l35 20.2c-.1-.1-.1 0-.1.1zm-35.2 19.7l34-19.8-34.3-19.8-34 19.8 34.3 19.8m-77.3-1.8c.1 0 .3 0 .4.1l4.8 2.8-.7.4-4.7-2.7h-6.7c-.1 0-.3 0-.4-.1l-8.5-4.9.7-.4 8.4 4.8h6.7z"/><path d="M188.1 186.9l-2 1.2c-.1.1-.2.1-.4.1h-7l-8.3 4.8-.7-.4 8.4-4.9c.1-.1.2-.1.4-.1h7l1.9-1.1.7.4zm-69.7 4.7c.1 0 .3 0 .4.1l3.5 2-.7.4-3.4-2h-6.7c-.1 0-.3 0-.4-.1l-9.8-5.7.7-.4 9.7 5.6 6.7.1z"/><path d="M190.8 188.4l.7.4-2.8 1.6c-.1.1-.2.1-.4.1h-8.9l-6.5 3.8-.7-.4 6.7-3.9c.1-.1.2-.1.4-.1h8.9l2.6-1.5zm-74.4 4.9c.1 0 .3 0 .4.1l3 1.8-.7.4-2.9-1.7H86.7c-.1 0-.3 0-.4-.1l-6.7-3.9-6.6 3.8-.7-.4 6.9-4c.1-.1.2-.1.3-.1.1 0 .3 0 .4.1l6.9 4h29.6zm98.8-8.1l13.6 8-.7.4-13.3-7.7-14.1 8c-.1.1-.2.1-.4.1h-21.8l-3.3 1.9-.7-.4 3.4-2c.1-.1.2-.1.4-.1h21.8l14.3-8.1c.1-.1.2-.1.4-.1h.4z"/><path d="M114.8 195.2c.1 0 .3 0 .4.1l2.2 1.3-.7.4-2.1-1.2H85.7c-.1 0-.3 0-.4-.1l-5.8-3.4-4.5 2.6-.7-.4 4.8-2.8c.1-.1.2-.1.4-.1.1 0 .3 0 .4.1l6 3.5h28.9zm100.1-6.3l10.8 6.2-.7.4-10.4-5.9-10.6 6.1c-.1.1-.2.1-.4.1h-23.1l-2.7 1.5-.7-.4 2.8-1.6c.1-.1.2-.1.4-.1h23.1l10.8-6.3c.1-.1.2-.1.3-.1.2 0 .3 0 .4.1zm-65.3 9c.1.1 0 .2 0 .3v-.3z"/><path d="M113.2 197c.1 0 .3 0 .4.1l1.5.8-.7.4-1.3-.8h-29c-.1 0-.3 0-.4-.1l-4.6-2.6L77 196l-.7-.4 2.4-1.4c.1-.1.2-.1.4-.1.1 0 .3 0 .4.1l4.8 2.7h28.9zm101.8-4.9l7.9 4.5-.7.4-7.5-4.3-8.6 5c-.1.1-.2.1-.4.1h-24l-1.5.8-.7-.4 1.6-.9c.1-.1.2-.1.4-.1h24l8.8-5.1c.1-.1.2-.1.3-.1.2 0 .3 0 .4.1zm-62.3 7.5c-.1 0-.2-.1-.4 0h.4z"/><path class="st2" d="M149.4 197.7l-2.5-1.5 8-.2-2.8 3.6-3.8.1 1.3-1.6c.1-.1.1-.2 0-.3-.1 0-.1 0-.2-.1z"/><path d="M149.5 198.1l-1.3 1.6h-1.1l1.4-1.7.1-.2c.1-.1.4-.2.7-.1h.1l.1.1c.1.1.1.2 0 .3zm-1.5 5.7l1 .6-9.8.3c-.1 0-.3 0-.4-.1h-.1c-.1-.1-.1-.2 0-.3l3.1-4 .1-.2v.1c0 .1.1.1.1.2.1.1.2.1.4.1h.3L140 204l8-.2z"/><path class="st2" d="M148.5 198l-1.4 1.7-4.5.2-2.9-1.7 2.8-3.6zm3.7 2.2l3 1.7-2.8 3.6-2.9-1.7-3.1-1.8 1.4-1.8h4.4z"/><path d="M153 206.1c-.1.1-.2.1-.4.2-.2 0-.3 0-.4-.1l-3.2-1.9-1-.6-2.5-1.5c-.1-.1-.2-.2-.1-.3l1.3-1.7h1.1l-1.4 1.8 3.1 1.8 2.9 1.7 2.8-3.6-3-1.7h.2c.3 0 .5-.1.5-.3 0-.1-.1-.1-.1-.2l.2.1 3.1 1.8c.1.1.2.2.1.3l-3.2 4.2z"/><path d="M182.4 200c0 .1-.1.2-.2.2l-2.1 1.2-.7.4-1.7 1-.7.4-1.9 1.1-.7.4-1.7 1-.7.4-1.7 1-.7.4-1.7 1-.7.4-1.8 1-.7.4-1.7 1-.7.4-1.7 1-.7.4-1.8 1.1-.7.4-1.7 1-.7.4-1.7 1-.7.4-1.7 1-.7.4-2.4 1.4c-.1.1-.2.1-.4.1-.1 0-.3 0-.4-.1l-2-1.1-.7-.4-1.7-1-.7-.4-1.7-1-.7-.4-1.7-1-.7-.4-1.7-1-.7-.4-1.7-1-.7-.4-1.9-1.1-.7-.4-1.6-.9-.7-.4-1.7-1-.7-.4-1.7-1-.7-.4-1.7-1-.7-.4-1.7-1-.7-.4-1.7-1-.7-.4-2.9-1.7c-.1-.1-.1-.1-.1-.2s.1-.2.1-.2l2.4-1.4.7-.4 1.7-1 .7-.4 1.7-1 .7-.4 1.7-1 .7-.4 1.8-1.1.7-.4 1.7-1 .7-.4 1.7-1 .7-.4 1.8-1 .7-.4 1.7-1 .7-.4 1.7-1 .7-.4 1.7-1 .7-.4 1.9-1.1.7-.4 1.7-1 .7-.4 2.1-1.2c.1-.1.2-.1.4-.1.1 0 .3 0 .4.1l2.9 1.7.7.4 1.7 1 .7.4 1.7 1 .7.4 1.7 1 .7.4 1.7 1 .7.4 1.7 1 .7.4 1.6.9.7.4 1.9 1.1.7.4 1.7 1 .7.4 1.7 1 .7.4 1.7 1 .7.4 1.7 1 .7.4 1.7 1 .7.4 2 1.1c.1 0 .2.1.2.2zm-35.2 19.7l34-19.8-34.2-19.8-34 19.8 34.2 19.8"/><path class="st2" d="M145.4 202c-.1.1 0 .2.1.3l2.5 1.5-8 .2 2.8-3.6 3.9-.1-1.3 1.7z"/><path class="st2" d="M112.9 200l34.2 19.8 34-19.8-34.2-19.8-34 19.8zm37.8-15.3l22.7 13.1c2 1.2 2.1 3.1 0 4.3l-22.5 13.1c-2 1.2-5.4 1.2-7.4 0l-22.7-13.1c-2.1-1.2-2.1-3.1 0-4.3l22.5-13.1c2-1.2 5.3-1.2 7.4 0"/><path d="M152.8 199.7c.1.1.1.1.1.2 0 .2-.2.3-.5.3h-.2l-4.4.1h-1.1l-3.9.1h-.3c-.1 0-.3 0-.4-.1-.1 0-.1-.1-.1-.2v-.1s.1-.1.2-.1h.4l4.5-.1h1.1l3.8-.1h.3c.2-.1.3-.1.5 0-.1-.1-.1-.1 0 0-.1 0 0 0 0 0zm-10.4.2z"/><path d="M148.5 198l.1-.2c.1-.1.4-.2.7-.1h.1l-2.5-1.5h-1.1c-.1 0-.3 0-.4-.1-.1 0-.1-.1-.2-.2 0-.2.2-.3.5-.3h.2l-3.2-1.9c-.1-.1-.3-.1-.4-.1-.2 0-.3.1-.4.2l-3.3 4.2c-.1.1 0 .2.1.3l3.1 1.8.2-.2s.1-.1.2-.1h.4l-2.9-1.7 2.8-3.6 6 3.5z"/><path class="st2" d="M172.6 198.2L150 185.1c-.8-.5-1.9-.7-3-.7s-2.2.2-3 .7l-22.5 13.1c-.8.5-1.2 1.1-1.2 1.7 0 .6.4 1.3 1.3 1.7l22.7 13.1c.8.5 1.9.7 3 .7s2.2-.2 3-.7l22.5-13.1c.8-.5 1.2-1.1 1.2-1.7-.1-.6-.5-1.2-1.4-1.7zm-16.3 3.8l-3.3 4.2c-.1.1-.2.1-.4.2-.2 0-.3 0-.4-.1l-3.2-1.9-9.8.3c-.1 0-.3 0-.4-.1h-.1c-.1-.1-.1-.2 0-.3l3.1-4-3.1-1.8c-.1-.1-.2-.2-.1-.3l3.3-4.2c.1-.1.2-.1.4-.2.2 0 .3 0 .4.1l3.2 1.9 9.7-.3c.1 0 .3 0 .4.1h.1c.1.1.1.2 0 .3l-3.1 4 3.1 1.8c.2 0 .3.2.2.3"/><path d="M156.1 195.9c.1-.1.1-.2 0-.3h-.1c-.1-.1-.2-.1-.4-.1l-9.7.3h-.2c-.3 0-.5.1-.5.3 0 0 0 .1.1.1l.1.1c.1 0 .2.1.3.1h1.2l8-.2-2.8 3.6h.5l.2.1 3.3-4zm-13.9 4c-.1 0-.1.1-.2.1 0 0 .1-.1.2-.1zm7.3 3.9zm-37.5-.4l2.7-1.6.7.4-2.9 1.7c-.1.1-.2.1-.4.1h-27c-.1 0-.3 0-.4-.1l-6.9-4 .7-.4 6.7 3.9H112z"/><path d="M113.8 205.2l3.3-1.9.7.4-3.5 2c-.1.1-.2.1-.4.1H84.3c-.1 0-.3 0-.4-.1l-7.9-4.6.7-.4 7.8 4.5h29.3zm103.2-1.6l.7.4-4.1 2.4c-.1.1-.2.1-.4.1h-25.7c-.1 0-.3 0-.4-.1l-7.9-4.6.7-.4 7.7 4.5h25.2l4.2-2.3z"/><path d="M115.5 207l4.1-2.4.7.4-4.3 2.5c-.1.1-.2.1-.3.1H83.5c-.1 0-.3 0-.4-.1l-9.1-5.3.7-.4 9 5.2h31.8zm104.4-1.8l.7.4-4.7 2.7c-.1.1-.2.1-.4.1h-29.4c-.1 0-.3 0-.4-.1l-8.9-5.1.7-.4 8.8 5.1h28.9l4.7-2.7z"/><path d="M117 209l5.1-3 .7.4-5.2 3c-.1.1-.2.1-.4.1h-12.5l-2 1.2-.7-.4 2.2-1.3c.1-.1.2-.1.4-.1l12.4.1z"/><path d="M118.4 211l6.1-3.5.7.4-6.2 3.6c-.1.1-.2.1-.4.1h-12l-1.3.8-.7-.4 1.4-.8c.1-.1.2-.1.4-.1l12-.1zm73.3-1l4.1 2.4-.7.4-3.9-2.3h-6.5c-.1 0-.3 0-.4-.1l-9.9-5.7.7-.4 9.8 5.6h6.5c.1 0 .2.1.3.1z"/><path d="M190.3 212.4l2.7 1.6-.7.4-2.6-1.5h-5.9c-.1 0-.3 0-.4-.1l-11.6-6.7.7-.4 11.4 6.6h5.9c.3 0 .4 0 .5.1zm-70.5.7l7.2-4.2.7.4-7.3 4.3c-.1.1-.2.1-.3.1h-10.5l-.9.5-.7-.4 1.1-.6c.1-.1.2-.1.4-.1h10.3z"/><path d="M188.6 214.7l1.6 1-.7.4-1.5-.9h-5c-.1 0-.3 0-.4-.1l-13.1-7.6.7-.4 12.9 7.5h5c.2 0 .4 0 .5.1zm-15.3-16.9c2 1.2 2.1 3.1 0 4.3l-22.5 13.1c-2 1.2-5.4 1.2-7.4 0l-22.7-13.1c-2.1-1.2-2.1-3.1 0-4.3l22.5-13.1c2-1.2 5.4-1.2 7.4 0l22.7 13.1zm-26.2 17.7c1.1 0 2.2-.2 3-.7l22.5-13.1c.8-.5 1.2-1.1 1.2-1.7 0-.6-.4-1.3-1.3-1.7L150 185.1c-.8-.5-1.9-.7-3-.7s-2.2.2-3 .7l-22.5 13.1c-.8.5-1.2 1.1-1.2 1.7 0 .6.4 1.3 1.3 1.7l22.7 13.1c.7.6 1.7.8 2.8.8"/><path class="st2" d="M79.5 198.2l-34 19.8-34.3-19.8 34-19.7z"/><path d="M115.5 218.2l13.8-8 .7.5-13.7 8zm-52.7-9.5l.7-.4 17.1 9.9-.7.4zm105-.1l17.4 10-.7.4-17.4-10z"/><path d="M80.7 198.2c0 .1 0 .2-.1.2l-1.9 1.1-.7.4-1.3.7-.7.4-1.3.8-.7.4-10.5 6.1-.7.4-17 9.9c-.1.1-.2.1-.4.1-.1 0-.3 0-.3-.1l-35-20.2-.2-.2c0-.1.1-.2.1-.2l34.7-20.2c.1-.1.2-.1.4-.1.1 0 .3 0 .4.1l17.1 9.9.7.4 8.9 5.1.7.4 1.3.8.7.4 1.4.8.7.4 3.4 2c.2.1.3.2.3.2zM45.5 218l34-19.8-34.3-19.8-34 19.8L45.5 218m186-6.1l.7.4-13.9 8.1-.7-.4zm-113.4 7.8l13.8-8 .7.4-13.8 8zm47.2-9.7l17.4 10-.7.4-17.4-10z"/><path class="st2" d="M283.7 201.8l-34 19.8-34.3-19.8 34-19.7z"/><path d="M120.6 221.1l13.7-8 .7.5-13.7 8zm42.3-9.7l17.4 10-.7.4-17.4-10zm122-9.6c0 .1-.1.2-.2.2L250 222.2c-.1.1-.2.1-.3.1-.1 0-.3 0-.4-.1l-17.1-9.9-.7-.4-10.8-6.3-.7-.4-2.2-1.2-.7-.4-2.7-1.6c-.1-.1-.1-.1-.1-.2s0-.2.1-.2l7.9-4.6.7-.4 2.1-1.2.7-.4 2.4-1.4.7-.4 2.5-1.5.7-.4 17-9.9c.1-.1.2-.1.4-.1.1 0 .3 0 .3.1l35 20.2c0 .1.1.1.1.2zm-35.2 19.8l34-19.8-34.2-19.8-34 19.8 34.2 19.8m-126.7 1l13.8-8 .7.4-13.8 8zm37.5-9.8l17.3 10-.7.4-17.3-10zm-35 11.2l13.7-8 .7.4-13.7 8zm23.2 8.3l17-9.9-10.9-6.3.7-.4 11.3 6.5c.1 0 .1.1.1.1l-18.2 10z"/><path d="M138.9 235.4l8.7 5-.7.4-9.1-5.2c-.1-.1-.2-.1-.2-.2s.1-.2.2-.2l22.5-13.1-7.9-4.6.7-.4 8.3 4.8c.1.1.1.1.1.2s-.1.2-.1.2l-22.5 13.1z"/><path d="M133.9 235.4l11.2 6.5-.7.4-11.5-6.7-.2-.2c0-.1.1-.2.2-.2l22.6-13.1-5.5-3.2.7-.4 5.8 3.4c.1.1.1.1.1.2s0 .1-.1.2l-22.6 13.1z"/><path d="M148.8 224.3l-19.3 11.2 13.3 7.7-.7.4-13.7-7.9c-.1-.1-.1-.1-.1-.2s0-.2.1-.2l19.3-11.2-6-3.5-.2-.2c0-.1.1-.2.2-.2l2.4-1.4.7.4-2 1.2 6 3.5c.1.1.1.1.1.2 0 0 0 .1-.1.2z"/><path d="M145 224.1l-20 11.6 15.3 8.9-.7.4-15.7-9.1c-.1-.1-.1-.1-.1-.2s0-.2.1-.2l20-11.6-6.4-3.7c-.1-.1-.2-.1-.2-.2s.1-.2.1-.2l4.2-2.4.7.4-3.8 2.2 6.4 3.7.2.2c.1.1 0 .2-.1.2zm21.9-1.7c0 .1-.1.2-.1.2l-17 9.9 18.1 10.5c.1.1.1.1.1.2s0 .2-.1.2l-4.5 2.6-.7-.4 4.1-2.4-18.1-10.5c-.1-.1-.1-.1-.1-.2s0-.1.1-.1l18.2-10z"/><path d="M174.1 242.9c0 .1-.1.2-.1.2l-7.6 4.4-.7-.4 7.3-4.2-17.6-10.2c-.1-.1-.1-.1-.1-.2s.1-.2.1-.2l16.2-9.4-14.3-8.2.7-.4 14.6 8.4.2.2c0 .1-.1.2-.2.2l-16.2 9.4 17.6 10.2c0 .1.1.2.1.2z"/><path class="st2" d="M132.3 228.7l-34.1 19.8L64 228.7l34-19.8z"/><path d="M168.2 248.7l13.9-8.1.7.4-13.9 8.1zm-51.9-9.9l17.1 9.9-.7.4-17.1-9.9z"/><path d="M133.5 228.7c0 .1-.1.1-.1.2l-17 9.9-.7.4-17 9.9c-.1.1-.2.1-.3.1-.1 0-.3 0-.4-.1l-35-20.2c-.1-.1-.1-.1-.1-.2s0-.2.1-.2l17-9.9.7-.4 17-9.9c.1-.1.2-.1.4-.1.1 0 .3 0 .4.1l3.6 2.1.7.4 2 1.2.7.4 2.5 1.4.7.4 7 4 .7.4 1.9 1.1.7.4 1.7 1 .7.4 1.7 1 .7.4 1.7 1 .7.4 7.1 4.1c.1.2.2.2.2.3zm-35.3 19.8l34-19.8L98 208.9l-34 19.8 34.2 19.8"/><path class="st2" d="M234.4 230.5l-34.1 19.8-34.2-19.8 34-19.8z"/><path d="M235.6 230.5c0 .1-.1.2-.1.2l-34.7 20.2c-.1.1-.2.1-.3.1-.1 0-.3 0-.4-.1L183 241l-.7-.4-17.1-9.9c-.1-.1-.1-.1-.1-.2s0-.2.1-.2l12.1-7 .7-.4 1.7-1 .7-.4 1.7-1 .7-.4 1.8-1 .7-.4 4.3-2.5.7-.4 2.1-1.2.7-.4 2-1.2.7-.4 4-2.3c.1-.1.2-.1.4-.1.1 0 .3 0 .4.1l17.1 9.9.7.4 17.1 9.9c0-.2.1-.1.1 0zm-35.3 19.8l34-19.8-34.2-19.8-34 19.8 34.2 19.8m-14.1 8.9c0 .1 0 .1-.1.2l-34.7 20.2c-.1.1-.2.1-.3.1-.1 0-.3 0-.4-.1l-35-20.2c-.1-.1-.1-.1-.1-.2s0-.2.1-.2l17-9.9.7-.4 6.3-3.7.7-.4 1.7-1 .7-.4 1.6-.9.7-.4 1.8-1 .7-.4 2.8-1.6c.1-.1.2-.1.4-.1.1 0 .3 0 .4.1l11.7 6.7.7.4 2.1 1.2.7.4 1.9 1.1.7.4 17.1 9.9c.1 0 .1.1.1.2zM151 278.9l34-19.8-34.2-19.8-34 19.8 34.2 19.8"/><path class="st2" d="M185 259.2l-34 19.7-34.3-19.7 34.1-19.8z"/><path class="st3" d="M97.1 107.6c0 2.2-1.8 3.9-3.9 3.9h-9.5c-2.2 0-3.9-1.8-3.9-3.9 0-2.2 1.8-3.9 3.9-3.9h9.5c2.1 0 3.9 1.8 3.9 3.9z"/><path class="st4" d="M107.3 100.7c0 10.1-8.2 18.2-18.2 18.2-10.1 0-18.2-8.2-18.2-18.2 0-10.1 8.2-18.2 18.2-18.2s18.2 8.2 18.2 18.2z"/><ellipse transform="rotate(-45.001 148.597 41.088)" cx="148.6" cy="41.1" rx="22.9" ry="22.9" fill="none" stroke="#000" stroke-width="1.07" stroke-linecap="round" stroke-linejoin="round" stroke-miterlimit="10"/><path class="st4" d="M215.7 108.1c0 8.7-7 15.7-15.7 15.7s-15.7-7-15.7-15.7 7-15.7 15.7-15.7 15.7 7 15.7 15.7zm-89.6-42.2c0 8.5-6.9 15.5-15.5 15.5-8.5 0-15.5-6.9-15.5-15.5 0-8.5 6.9-15.5 15.5-15.5s15.5 6.9 15.5 15.5z"/><path class="st6" d="M107.9 100.7h4.5c6.6 0 12 5.4 12 12v87.8m59.6-91.8h-2.2c-6.6 0-12 5.4-12 12v79.8M126.2 66c5.3 1.2 9.3 6 9.3 11.7v118.1m12.7-131.5v126.1"/><path class="st3" d="M95.6 106.2c0 1.9-1.6 3.5-3.5 3.5h-7.4c-1.9 0-3.5-1.6-3.5-3.5v-5.6c0-1.9 1.6-3.5 3.5-3.5h7.4c1.9 0 3.5 1.6 3.5 3.5v5.6z"/><path class="st7" d="M95.6 100h1.2c1.4 0 2.5 1.1 2.5 2.5s-1.1 2.5-2.5 2.5h-1.2"/><path class="st4" d="M90.2 94.3c1.6 1.6 1.6 4.1 0 5.7m0-5.7c-1.6-1.6-1.6-4.1 0-5.7m-3.7 5.7c1.6 1.6 1.6 4.1 0 5.7m0-5.7c-1.6-1.6-1.6-4.1 0-5.7"/><path class="st7" d="M95.6 100.2c0 1.9-1.6 3.5-3.5 3.5h-7.4c-1.9 0-3.5-1.6-3.5-3.5"/><path d="M168 72.3c0 9.8 7.9 17.7 17.7 17.7 9.8 0 17.7-7.9 17.7-17.7 0-9.8-7.9-17.7-17.7-17.7-9.8 0-17.7 8-17.7 17.7z" fill="#fff" stroke="#000" stroke-linecap="round" stroke-linejoin="round" stroke-miterlimit="10"/><path class="st6" d="M167.4 74.5c-4.3 1.8-7.3 6.1-7.3 11v110.2"/><path class="st9" d="M110.6 56.5l-3.7 1.3-3.3 3-2.2 4-.3 5.9.5 1 2.6 1.2 4.8-1.3 3.9-2.9 2.9-3.7 1.5-3.2.3-3.1-2.6-2.2z"/><path class="st9" d="M114.7 56.6l-2.5 1.4-1 4.1-4.8 4.6-4 .8-1.2 1.6"/><path class="st9" d="M101.4 64.8l2.8 8.1 2.2-6.2 6.5 2-1.7-6.6 6.1-.3-6.8-5.2m1.7 1.4l5.4.7m-6.4 3.4l4.6 2.9m-9.4 1.7l2.6 4.9m-7.4.1l.7-4"/><path class="st9" d="M117.6 58.7l-.4 14-13 .2"/><path class="st9" d="M109.1 71.6l8.1 1.1-1.4-7.7m-2.9 3.7l4.3 4"/><path class="st4" d="M193.2 102.2l5.1 5.1-5.1 5.2m6.5 0h7"/><path class="st10" d="M180.5 76.5h-3.2s-2.3-.6-2.3-4.5 2.5-3.9 2.5-3.9h7.9v-1.6h-4.5V64s.5-2.4 4.7-2.4c4.1 0 4.6 2.3 4.6 2.3v6.5s-.3 1.7-1.6 1.7h-6.2c-1.2 0-1.7 1.4-1.7 1.7v6.4s.3 2.4 4.7 2.4 4.9-2.4 4.9-2.4V78h-4.8v-1.4h8.2s2.3-.1 2.3-4.3-2.5-4.4-2.5-4.4h-2.9"/><path class="st10" d="M183.4 64.3c0 .2-.1.3-.3.3-.2 0-.3-.1-.3-.3 0-.2.1-.3.3-.3.2 0 .3.1.3.3zm5.1 15.6c0 .1-.1.2-.2.2s-.2-.1-.2-.2.1-.2.2-.2.2.1.2.2z"/><path d="M158.6 47.5c-.2-.4-.1-1.1-.3-1.5-.1-.2-.4-.5-.4-.6 0-.3 0-.6.1-.9.1-2.2-.5-3.6-1.3-5-.9-1.5-2.1-2.8-2.9-4.4-.8-1.7-.9-4-1.4-5.9-.6-2-1.9-3-4.3-3h-.4c-2 .1-3.2 1.3-3.7 3.1-.4 1.4-.3 3-.3 4.7 0 .6.1 1.2-.1 1.7-.1.4-.4.7-.6 1-1.4 2-2.7 4.2-2.9 7.2v.7c0 .2-.2.3-.4.4-.1.1-.2.3-.3.4-.2.2-.5.6-.8.7-.2.1-.5.1-.7.1-.7.1-1.3.4-1.4 1.1v.4c.1.6.6 1.1.5 1.7 0 .2-.3.4-.4.7-.1.2-.1.4-.1.6-.1 1.5 1.3 1.7 2.4 2 .5.1 1 .2 1.6.4 1 .3 1.9.8 3 .9h.6c1.1-.1 1.7-.8 2-1.8h5.6c.2 1.1.9 1.7 2.1 1.8h.6c.6-.1 1.1-.3 1.6-.6.2-.2.4-.4.6-.5.2-.2.4-.3.7-.5.4-.3.9-.6 1.3-.9.5-.3 1-.5 1.4-.8.4-.3.7-.6.7-1.1 0 0 0 0 0 0v-.2c-.4-1.2-1.8-1.1-2.1-1.9zm-11.2-20.1c1.3-.1 2.5.2 3.1 1 .4.6.6 1.4.8 2.1.2.8.3 1.7.4 2.5.4 1.7.9 2.9 1.7 4.1.8 1.2 1.7 2.2 2.3 3.5.3.6.6 1.3.8 2.1.2.8.1 1.8 0 2.6-.2 0-.3-.1-.5-.2-.5-.2-1.1-.3-1.9-.3-.1-2.2-.5-3.9-1.3-5.4-.7-1.5-1.8-2.7-2.6-4.1.2-.3.2-.7.3-1.1 0-.1.1-.3.2-.4.5-.9.5-2.3.1-3.3-.2-.5-.6-.9-1.1-1.2-.4-.2-1.3-.4-1.9 0-.3.1-.4.3-.5.7-.1-.2-.2-.4-.4-.5-.5-.4-1.4-.4-2-.2.5-1 1.1-1.8 2.5-1.9zm6.8 18.7c.5-.2 1.1 0 1.6.2-.3.4-.6 1.1-1.3.9-.1-.4-.2-.8-.3-1.1zM149.4 33c.2-.5 0-1.3-.5-1.4-.4 0-.6.4-.6.9-.2 0-.4-.1-.6-.2 0-.7.2-1.4.6-1.7.1-.1.3-.2.4-.2 1.2-.1 1.6 1.7 1.2 2.7-.2 0-.3-.1-.5-.1zm.1 1.3c0 .2 0 .3-.1.4-.3.2-.7.4-1 .6-.3.2-.7.5-1.1.6h-.8c-.3-.1-.5-.5-.7-.7-.1-.1-.5-.3-.5-.5s.5-.6.6-.7c.3-.3.7-.5 1.2-.5.6.1 1.1.5 1.6.6.3.1.5.1.8.2zm-3.5-3.9c.8.1 1.1 1 1.1 1.8-.2 0-.4 0-.6.1-.1-.3-.3-.7-.6-.7-.5 0-.7.7-.5 1.2-.1.2-.3.3-.4.4-.6-.9-.2-2.9 1-2.8zm-2.3 7.1c.4-.5.8-1 .9-1.8.2.7-.1 1.1-.4 1.6-.8 1.4-1.7 2.6-2.2 4.2-.3.9-.6 2.1-.2 3.1-.1 0-.1-.1-.2-.1-.1-.1-.3-.2-.6-.2.3-2.9 1.4-4.9 2.7-6.8zm.8 14.8c-.2.3-.8.5-1.4.4-.5-.1-.9-.3-1.4-.5-.9-.4-1.8-.5-2.9-.8-.3-.1-1.3-.2-1.4-.5-.1-.3.2-.6.4-.9.4-.9-.2-1.8-.4-2.5.6-.2 1.2-.1 1.7-.4.2-.1.3-.2.4-.4l.4-.4c.3-.3.5-.6.8-.8.2-.2.6.3.7.5.5.6 1 1.4 1.4 2.1.4.7.8 1.5 1.3 2.1.2.2.4.4.4.7.2.5.1 1.2 0 1.4zm0-3.8c-.4-.5-.6-1-1-1.5.2.1.5.3.9.5.2.1.8.4.8.6 0 .2-.5.3-.7.4zm7.4-.6c0 .3 0 .8-.1 1.1-.1.2-.3.5-.5.7-.9 1.1-3 1.7-4.7.9-.6-.2-1.1-.6-1.4-1.1.7-.2 1.3-.7 1.2-1.6-.1-.8-.8-1.1-1.3-1.4-.8-.4-1.3-.8-1.8-1.5-.2-.3-.4-.8-.5-1.2-.1-.7.2-1.4.4-1.9.2-.6.5-1.1.7-1.6.6-1.2 1.4-2.1 1.8-3.4.1 0 .2.1.4.2.3.1.8.1 1.2.1.8-.1 1.5-.8 2-.9.8 1.3 1.8 2.4 2.5 3.8s1.1 3.1 1.2 5.1c-.8.1-1.1.8-1.2 1.6.1.3.1.7.1 1.1zm6.7 1.9c-1 .6-2.1 1.2-3 1.9-.4.3-.7.7-1.1.9-.4.2-1.5.2-1.8-.1-.2-.2-.3-.8-.2-1.2.1-.7.4-1.3.5-2.1.1-.8.1-1.7.1-2.6.1.3 0 .6 0 1 0 .3.3.5.5.6.3.2.7.4 1.3.3.5 0 .9-.3 1.3-.7.4-.4.6-.9.9-1.3 0 0 0 0 0 0s0 0 0 0c.1.4.1.7.2 1 .2.9 1 1.4 1.8 1.8-.1.3-.3.4-.5.5z" fill-rule="evenodd" clip-rule="evenodd" stroke="#fff" stroke-width=".4" stroke-miterlimit="10"/></svg>