<svg xmlns="http://www.w3.org/2000/svg" xmlns:xlink="http://www.w3.org/1999/xlink" width="109.98" height="134.95"><defs><path id="a" d="M95.564 11.429S79.278-.714 67.065 1.913C41.254 7.464 12.902 39.001 4.134 74.33c-11.956 42.768 20.521 55.318 20.521 55.318s24.29 12.869 49.076-18.998c24.787-31.867 37.764-62.12 21.833-99.221z"/></defs><clipPath id="b"><use xlink:href="#a" overflow="visible"/></clipPath><g clip-path="url(#b)" fill="none" stroke="#FFF" stroke-width="1.18" stroke-linecap="round" stroke-linejoin="round" stroke-miterlimit="10"><path d="M-4.206 105.251l31.799 18.282M-6.254 96.378l31.801 18.284M-6.595 86.824l31.8 18.282M-6.254 75.563l31.801 18.283M-4.889 65.667l31.8 18.282M-2.158 56.111L29.64 74.395M.912 47.239l31.801 18.282M5.009 38.708l31.798 18.283M9.444 31.202l31.799 18.281m-26.34-25.107l31.8 18.283m-26.34-24.765l31.799 18.281M26.846 12.091l31.8 18.283m-24.973-23.4L65.47 25.255M39.472 2.538l31.8 18.281M45.273-.876l31.8 18.283M52.44-2.581l31.799 18.283M59.605-2.923l31.8 18.282M65.065-2.923l31.8 18.282"/></g><path fill="none" stroke="#FFF" stroke-width="1.18" stroke-linecap="round" stroke-linejoin="round" stroke-miterlimit="10" d="M95.564 11.429S79.278-.714 67.065 1.913C41.254 7.464 12.902 39.001 4.134 74.33c-11.956 42.768 20.521 55.318 20.521 55.318s24.29 12.869 49.076-18.998c24.787-31.867 37.764-62.12 21.833-99.221z"/><path stroke="#FFF" stroke-width="1.18" stroke-linecap="round" stroke-linejoin="round" stroke-miterlimit="10" d="M105.926 62.1c-8.585 34.521-36.167 66.199-61.605 70.759S5.219 113.13 13.803 78.612C22.387 44.091 49.97 12.413 75.409 7.854c25.437-4.562 39.101 19.725 30.517 54.246z"/><path stroke="#FFF" stroke-width="1.18" stroke-linecap="round" stroke-linejoin="round" stroke-miterlimit="10" stroke-dasharray="1.1803,3.9345" d="M101.496 60.218c-7.699 31.534-32.441 61.774-55.262 67.546-22.82 5.771-35.077-15.112-27.375-46.646 7.701-31.534 32.443-61.774 55.262-67.545 22.819-5.771 35.075 15.113 27.375 46.645z"/><g stroke="#FFF" stroke-width="1.18" stroke-linecap="round" stroke-linejoin="round" stroke-miterlimit="10"><path d="M58.708 95.733l10.943-22.375 8.755-5.269-4.781-13.781-7.783 4.378-5.027-13.214-10.701 22.213-8.675 5.35 4.54 13.455 8.027-4.215zm-4.702-13.458l11.836-23.589"/><path d="M69.651 73.358l-7.296 3.892-5.026-13.62-7.215 4.055"/></g></svg>