<svg xmlns="http://www.w3.org/2000/svg" width="173.961" height="137.135"><g fill="none" stroke="#000" stroke-width="1.396" stroke-linecap="round" stroke-linejoin="round" stroke-miterlimit="10"><path d="M172.414 30.576l-41.725 24.136m-8.983 14.013l-79.744 46.126m130.452-83.997l-33.532 52.892m-8.424-28.669l-8.593 13.555m16.929 15.092l-90.58 52.297m-.11-.028v-9.769m-.03-.191l-5.976-2.525m-.136-.359v-8.375m72.311-97.154L90.21 31.539M24.374 78.437L1.48 91.681m59.017-34.14l-15.166 8.771m44.646-34.407l-6.808 10.74M7.624 112.542v-8.654m-6.143-3.909v-8.097m49.137 4l-13.961 8.18V77.944l13.961-8.179zM24.374 70.966l14.24-8.377m-14.24 34.318V70.942M76.86 86.979l-9.492 5.417v-8.661l9.492-5.416zm9.493-5.417l-9.493 5.417v-8.66l9.493-5.416zm9.211-5.416l-9.211 5.416v-8.659l9.211-5.415zm9.495-5.417l-9.495 5.417v-8.658l9.495-5.417zm-5.027-5.879l-9.214 5.417v-8.662l9.214-5.416z"/><path d="M95.564 58.828l-9.211 5.416v-8.659l9.211-5.416zM46.149 83.326l-5.583 3.048v-5.002l5.583-3.048zm40.204-19.185L76.86 69.56v-8.662l9.493-5.416z"/><path d="M90.818 70.267l-9.212 5.416v-8.662l9.212-5.416zm-9.212 5.416l-9.492 5.416v-8.661l9.492-5.417zM60.669 51.506l18.39-10.922m-18.39 19.473V51.68m58.627-36.573V6.73m-4.746 19.265V17.62m-4.745 19.542v-8.375M55.643 71.224v-8.376m.278-.181l4.576-2.61m94.698-1.873L41.962 123.479v-3.86L158.941 52.12zM38.674 62.589l11.899 7.103M1.48 91.688l40.342 23.291m19.027-63.14l16.201 9.353m-6.776-15.154l16.202 9.353m-7.26-14.912l16.203 9.354m.308 3.81l4.282 2.474m.55 3.326l4.284 2.475m-49.071 1.039l16.202 9.355m-21.356 10.08v-8.375m.278-.183l4.576-2.608m-4.725 2.898l16.201 9.354M55.772 71.214l15.922 9.192m-21.076 2.415l16.61 9.59M24.544 70.937l11.975 6.914m-12.02 19.302l12.02 6.939m24.087-44.035l16.202 9.353m59.519-27.769l-9.492 5.416v-8.661l9.492-5.416zm9.213-5.416l-9.213 5.416V32.98l9.213-5.416zm9.491-5.416l-9.491 5.416v-8.661l9.491-5.416z"/><path d="M149.169 25.484l-9.213 5.417v-8.66l9.213-5.416zm-4.467-6.3l-9.214 5.416v-8.659l9.214-5.416z"/><path d="M139.956 30.621l-9.214 5.416v-8.659l9.214-5.416zM119.411 6.436l8.784-5.217m-8.784 5.454l16.2 9.354m-20.946 1.577l4.301-2.555m-9.047 13.443l4.302-2.554m.444-8.096l16.2 9.352m-20.668 1.535l16.201 9.353m-12.014-12.144l16.201 9.353m-20.78 1.982l16.872 9.745m-7.266-31.969l16.2 9.354m-7.257-23.288l16.201 9.354m.306 3.809l4.285 2.474m.353 2.124l5.51 3.181M1.481 100.063l40.341 23.291M7.624 112.628l40.34 23.291M149.783 17.562l22.697 13.105M95.564 53.168l25.827 14.91M90.249 31.539l40.074 23.139M37.216 71.781V57.616m2.956 1.124l-5.912 3.628m5.912-6.825l-5.912 3.628"/></g></svg>