<svg xmlns="http://www.w3.org/2000/svg" xmlns:xlink="http://www.w3.org/1999/xlink" width="383" height="267"><path fill="#010101" stroke="#FFF" stroke-width="1.39" stroke-linecap="round" stroke-linejoin="round" stroke-miterlimit="10" d="M190.372 264.071l190.664-110.08L194.687 45.473 1.5 155.481z"/><path fill="#010101" stroke="#FFF" stroke-width="1.39" stroke-linecap="round" stroke-linejoin="round" stroke-miterlimit="10" d="M190.835 252.026L381.5 141.946 195.149 33.428 1.963 143.438z"/><path fill="#010101" stroke="#FFF" stroke-width="1.39" stroke-linecap="round" stroke-linejoin="round" stroke-miterlimit="10" d="M190.835 237.776L381.5 127.696 195.149 19.178 1.963 129.188z"/><defs><path id="a" d="M190.835 237.776L381.5 127.696 195.149 19.178 1.963 129.188z"/></defs><clipPath id="b"><use xlink:href="#a" overflow="visible"/></clipPath><g clip-path="url(#b)" fill="none" stroke="#FFF" stroke-width="1.39" stroke-linecap="round" stroke-linejoin="round" stroke-miterlimit="10"><path d="M29.217 157.537L246.066 33.003M64.533 181.081l216.85-124.534m-176.578 144.36L321.654 76.374M141.359 222.592l216.85-124.533"/></g><g clip-path="url(#b)" fill="none" stroke="#FFF" stroke-width="1.39" stroke-linecap="round" stroke-linejoin="round" stroke-miterlimit="10"><path d="M356.288 157.018L138.765 33.743M321.25 181.844L103.728 58.568m177.506 144.391L63.71 79.684m181.233 146.221L27.42 102.63"/></g><g fill="#010101" stroke="#FFF" stroke-width="1.39" stroke-linecap="round" stroke-linejoin="round" stroke-miterlimit="10"><circle cx="100.913" cy="40.544" r="11.366"/><path d="M103.364 38.525a4.7 4.7 0 0 1 1.649-6.441l28.166-16.678a4.701 4.701 0 0 1 6.442 1.649l.119.199a4.702 4.702 0 0 1-1.649 6.442l-28.165 16.677a4.704 4.704 0 0 1-6.444-1.647l-.118-.201z"/><circle cx="136.838" cy="19.746" r="16.818"/><path d="M140.161 24.428a5.49 5.49 0 0 1 7.52 1.924l46.285 79.594a5.49 5.49 0 0 1-1.924 7.52l-.233.137a5.49 5.49 0 0 1-7.52-1.925l-46.286-79.593a5.49 5.49 0 0 1 1.924-7.52l.234-.137z"/><circle cx="193.561" cy="113.34" r="22.269"/><path d="M296.956 54.031a5.998 5.998 0 0 1-2.104 8.217l-86.974 50.578a5.995 5.995 0 0 1-8.215-2.104l-.151-.254a5.998 5.998 0 0 1 2.102-8.217l86.974-50.578a5.997 5.997 0 0 1 8.217 2.104l.151.254z"/><circle cx="291.882" cy="55.671" r="31.538"/></g></svg>