<svg xmlns="http://www.w3.org/2000/svg" width="91.253" height="138.922" viewBox="180.054 80.854 91.253 138.922"><g fill="#FFF" stroke="#000" stroke-width="1.349" stroke-linecap="round" stroke-linejoin="round" stroke-miterlimit="10"><path d="M248.777 199.352l-22.691-13.215-27.874 15.873 27.251 15.667 27.509-15.883"/><path d="M225.463 213.1l27.509-15.882-26.886-15.657-27.874 15.872z"/><path d="M187.698 208.52l74.55-43.054c1.046-.604 1.871-1.939 1.871-2.985V89m-.912-6.162c-.283-.007-.615.087-.971.292l-78.521 45.351c-1.045.604-1.864 1.94-1.864 2.985v78.551c0 .261.052.479.146.65"/><path d="M187.583 213.493c0 1.045.813 1.403 1.858.8l78.533-45.351c1.046-.604 1.876-1.94 1.876-2.985v-78.55c0-1.045-.848-1.404-1.893-.8l-78.517 45.351c-1.045.604-1.858 1.94-1.858 2.985v78.55z"/><path d="M227.59 170.08l9.379-19.174 7.503-4.514-4.099-11.811-6.669 3.752-4.308-11.324-9.169 19.035-7.434 4.585 3.891 11.532 6.878-3.612zm-4.028-11.531l10.142-20.216"/><path d="M236.969 150.906l-6.252 3.335-4.308-11.671-6.182 3.474m-38.034-15.995l5.847 3.375m-6.065 77.418l5.771 3.332m75.747-131.272l5.61 3.454m-81.352 114.669l81.763-46.808m-16.335 43.205v4.067m-27.969 11.697v4.068"/></g></svg>