<svg xmlns="http://www.w3.org/2000/svg" xmlns:xlink="http://www.w3.org/1999/xlink" width="383" height="288" viewBox="0 8.435 383 288"><path stroke="#FFF" stroke-width="1.39" stroke-linecap="round" stroke-linejoin="round" stroke-miterlimit="10" d="M190.372 291.262l190.665-110.08L194.688 72.664 1.5 182.672z"/><path stroke="#FFF" stroke-width="1.39" stroke-linecap="round" stroke-linejoin="round" stroke-miterlimit="10" d="M190.836 279.217L381.5 169.137 195.15 60.619 1.964 170.628z"/><path stroke="#FFF" stroke-width="1.39" stroke-linecap="round" stroke-linejoin="round" stroke-miterlimit="10" d="M190.836 264.967L381.5 154.887 195.15 46.369 1.964 156.378z"/><defs><path id="a" d="M190.836 264.967L381.5 154.887 195.15 46.369 1.964 156.378z"/></defs><clipPath id="b"><use xlink:href="#a" overflow="visible"/></clipPath><g clip-path="url(#b)" fill="none" stroke="#FFF" stroke-width="1.39" stroke-linecap="round" stroke-linejoin="round" stroke-miterlimit="10"><path d="M29.218 184.728L246.067 60.194M64.533 208.272l216.85-124.534m-176.577 144.36l216.848-124.534M141.36 249.783L358.21 125.25"/></g><g clip-path="url(#b)" fill="none" stroke="#FFF" stroke-width="1.39" stroke-linecap="round" stroke-linejoin="round" stroke-miterlimit="10"><path d="M356.289 184.208L138.766 60.934m182.485 148.101L103.728 85.759M281.234 230.15L63.711 106.875m181.233 146.221L27.421 129.821"/></g><defs><path id="c" d="M248.598 24.251s-19.176-14.297-33.556-11.204c-30.392 6.535-63.771 43.669-74.097 85.266-14.077 50.353 24.163 65.132 24.163 65.132s28.6 15.152 57.783-22.369c29.184-37.522 44.463-73.141 25.707-116.825z"/></defs><use xlink:href="#c" overflow="visible"/><clipPath id="d"><use xlink:href="#c" overflow="visible"/></clipPath><g clip-path="url(#d)" fill="none" stroke="#FFF" stroke-width="1.39" stroke-linecap="round" stroke-linejoin="round" stroke-miterlimit="10"><path d="M131.126 134.718l37.44 21.526m-39.851-31.973l37.441 21.526m-37.843-32.776l37.442 21.526m-37.04-34.784l37.441 21.526m-35.834-33.178l37.442 21.526m-34.227-32.776l37.442 21.526m-33.826-31.972l37.441 21.526M141.975 56.37l37.441 21.526m-32.219-30.365l37.442 21.526m-31.013-29.561l37.441 21.525m-31.013-29.159l37.441 21.525m-29.807-28.355l37.441 21.525m-29.405-27.552l37.441 21.526m-30.611-26.749l37.441 21.526M189.384 9.764l37.441 21.526M197.822 7.755l37.441 21.526M206.259 7.353L243.7 28.879M212.688 7.353l37.441 21.526"/></g><use xlink:href="#c" overflow="visible" fill="none" stroke="#FFF" stroke-width="1.39" stroke-linecap="round" stroke-linejoin="round" stroke-miterlimit="10"/><path stroke="#FFF" stroke-width="1.39" stroke-linecap="round" stroke-linejoin="round" stroke-miterlimit="10" d="M260.797 83.911c-10.108 40.643-42.583 77.943-72.535 83.312-29.952 5.368-46.039-23.228-35.932-63.871 10.107-40.644 42.583-77.944 72.536-83.312 29.951-5.37 46.037 23.227 35.931 63.871z"/><path stroke="#FFF" stroke-width="1.39" stroke-linecap="round" stroke-linejoin="round" stroke-miterlimit="10" stroke-dasharray="1.3898,4.6325" d="M255.582 81.696c-9.067 37.127-38.199 72.732-65.067 79.528-26.868 6.795-41.299-17.793-32.231-54.919 9.066-37.128 38.198-72.734 65.067-79.528 26.867-6.797 41.297 17.792 32.231 54.919z"/><g stroke="#FFF" stroke-width="1.39" stroke-linecap="round" stroke-linejoin="round" stroke-miterlimit="10"><path d="M205.201 123.511l12.886-26.344 10.309-6.204-5.632-16.227-9.163 5.155-5.918-15.559-12.599 26.154-10.214 6.299 5.345 15.844 9.45-4.963zm-5.536-15.845l13.936-27.775"/><path d="M218.087 97.167l-8.591 4.582-5.917-16.036-8.495 4.773"/></g></svg>