<svg xmlns="http://www.w3.org/2000/svg" width="118.833" height="134.836" viewBox="166.094 82.896 118.833 134.836"><path fill="#FFF" stroke="#000" stroke-width="1.486" stroke-linecap="round" stroke-linejoin="round" stroke-miterlimit="10" d="M227.47 216.207l-33.49-18.853-.088-30.096 33.49 18.852z"/><path fill="#FFF" stroke="#000" stroke-width="1.495" stroke-linecap="round" stroke-linejoin="round" stroke-miterlimit="10" d="M256.861 134.584L224.11 115.06l26.44-15.659 32.752 19.525z"/><path fill="#FFF" stroke="#000" stroke-width="1.485" stroke-linecap="round" stroke-linejoin="round" stroke-miterlimit="10" d="M256.312 103.662l.088 31.365 27.186-15.757.095 33.4-27.186 15.758.089 31.362-28.953 16.782-.088-31.362-26.794 15.634-.489-34.265 27.188-15.76-.088-30.375z"/><path fill="#FFF" stroke="#000" stroke-width="1.485" stroke-linecap="round" stroke-linejoin="round" stroke-miterlimit="10" d="M200.743 166.565l-33.062-19.214 26.691-15.411 33.063 19.214z"/><path fill="#FFF" stroke="#000" stroke-width="1.485" stroke-linecap="round" stroke-linejoin="round" stroke-miterlimit="10" d="M200.841 201.285l-33.064-19.38-.096-34.554 33.062 19.379zm26.508-80.801l-33.064-19.214L224.1 84.057l33.062 19.214z"/><path fill="#FFF" stroke="#000" stroke-width="1.485" stroke-linecap="round" stroke-linejoin="round" stroke-miterlimit="10" d="M227.435 151.154l-33.063-19.214-.087-30.67 33.064 19.214z"/></svg>