<svg width="26" height="27" fill="none" xmlns="http://www.w3.org/2000/svg"><g clip-path="url(#clip0)"><path d="M25.037 22.405a3.977 3.977 0 0 1-1.1 2.757 3.686 3.686 0 0 1-2.655 1.143H3.756A3.685 3.685 0 0 1 1.1 25.162 3.977 3.977 0 0 1 0 22.405v-18.2C0 3.17.396 2.178 1.1 1.447A3.686 3.686 0 0 1 3.756.305h17.526c.995 0 1.95.41 2.655 1.142a3.977 3.977 0 0 1 1.1 2.758v18.2z" fill="#fff"/><path d="M16.758 10.002c-2.02.11-3.777.745-5.204 2.183-1.441 1.451-2.1 3.23-1.92 5.436-.79-.101-1.509-.213-2.232-.276-.26-.03-.523.016-.759.133-.702.412-1.375.877-2.17 1.395.147-.688.241-1.29.41-1.87.123-.426.066-.663-.312-.94-2.426-1.78-3.448-4.44-2.683-7.181.708-2.535 2.447-4.073 4.809-4.873 3.224-1.094 6.848.021 8.809 2.68a6.402 6.402 0 0 1 1.252 3.313zm-9.3-.854c.019-.501-.4-.953-.896-.968a.875.875 0 0 0-.653.25.94.94 0 0 0-.289.658.96.96 0 0 0 .246.68.878.878 0 0 0 .64.287c.242.01.478-.08.656-.25a.969.969 0 0 0 .297-.657zm4.852-.968a.916.916 0 0 0-.64.286.987.987 0 0 0-.271.667.974.974 0 0 0 .283.664.904.904 0 0 0 .652.258.874.874 0 0 0 .652-.274.943.943 0 0 0 .265-.676.969.969 0 0 0-.282-.67.9.9 0 0 0-.658-.256h-.001z" fill="#1D1D1B"/><path d="M21.298 23.083c-.64-.295-1.227-.74-1.852-.807-.625-.068-1.277.306-1.928.374-1.983.212-3.761-.363-5.227-1.77-2.787-2.678-2.388-6.782.835-8.977 2.866-1.949 7.069-1.3 9.09 1.406 1.763 2.36 1.556 5.495-.597 7.479-.623.573-.847 1.046-.448 1.802.076.14.085.317.127.493zm-7.283-7.323a.727.727 0 0 0 .532-.226.783.783 0 0 0 .221-.551.807.807 0 0 0-.218-.553.751.751 0 0 0-.53-.23.727.727 0 0 0-.532.227.783.783 0 0 0-.222.55.808.808 0 0 0 .219.553.75.75 0 0 0 .53.23zm4.695-1.56a.736.736 0 0 0-.52.217.793.793 0 0 0-.23.531.797.797 0 0 0 .201.568.72.72 0 0 0 .535.24.72.72 0 0 0 .521-.21.776.776 0 0 0 .227-.531.806.806 0 0 0-.201-.569.75.75 0 0 0-.533-.248v.002z" fill="#1D1D1B"/></g><defs><clipPath id="clip0"><path fill="#fff" d="M0 .305h25.037v26H0z"/></clipPath></defs></svg>