<svg xmlns="http://www.w3.org/2000/svg" width="124.633" height="158.724" viewBox="-3.051 -13.011 124.633 158.724"><path fill="#FFF" stroke="#231F20" stroke-width="1.589" stroke-linecap="round" stroke-linejoin="round" stroke-miterlimit="10" d="M120.3 18.565l-16.8-9.763.186 65.587 16.8 9.763z"/><path fill="#FFF" stroke="#231F20" stroke-width="1.589" stroke-linecap="round" stroke-linejoin="round" stroke-miterlimit="10" d="M120.486 84.152l-16.8-9.763-105.2 60.586 16.801 9.762zm-.186-65.587l-16.8-9.763L-1.441 69.593l16.773 9.569z"/><path fill="#FFF" stroke="#231F20" stroke-width="1.589" stroke-linecap="round" stroke-linejoin="round" stroke-miterlimit="10" d="M15.287 79.152L120.3 18.565l.186 65.587-105.199 60.585"/><path fill="none" stroke="#000" stroke-width="1.589" stroke-linecap="round" stroke-linejoin="round" stroke-miterlimit="10" d="M76.106 81.861l14.992 8.712-.036-12.603m10.717-18.556l10.968-6.333-14.992-8.712"/><path fill="none" stroke="#000" stroke-width="1.589" stroke-linecap="round" stroke-linejoin="round" stroke-miterlimit="10" d="M80.059 71.953l-5.47-3.093.036 12.35 5.468 3.092zm10.969-6.332l-5.469-3.093-10.97 6.332 5.47 3.093z"/><path fill="none" stroke="#000" stroke-width="1.589" stroke-linecap="round" stroke-linejoin="round" stroke-miterlimit="10" d="M90.992 53.012l.036 12.609-10.969 6.332.034 12.349 10.969-6.332.036 12.603 10.751-6.207-.036-12.603 10.969-6.333-.035-12.349-10.968 6.333-.036-12.609z"/><path fill="none" stroke="#000" stroke-width="1.589" stroke-linecap="round" stroke-linejoin="round" stroke-miterlimit="10" d="M90.992 53.012l-5.469-3.093.036 12.609 5.469 3.093z"/><path fill="none" stroke="#000" stroke-width="1.589" stroke-linecap="round" stroke-linejoin="round" stroke-miterlimit="10" d="M101.743 46.805l-5.469-3.093-10.751 6.207 5.469 3.093z"/><g fill="none" stroke="#000" stroke-width="1.589" stroke-miterlimit="10"><path d="M30.877 89.96c.002-.095.007-.19.013-.287.002-.046.007-.092.01-.137l.005-.048c.002-.034.004-.069.008-.104.009-.097.019-.192.032-.291.012-.099.027-.198.042-.298l.052-.3c.02-.104.04-.206.062-.31l.028-.117.013-.057c.011-.046.02-.092.032-.139a9.545 9.545 0 0 1 .153-.555l.009-.03.012-.043c.032-.103.064-.206.099-.309a18.039 18.039 0 0 1 .144-.408l.07-.187c.038-.097.077-.192.117-.289.029-.071.06-.141.09-.211l.016-.035a15.503 15.503 0 0 1 .299-.641l.025-.048.033-.062a9.504 9.504 0 0 1 .288-.532c.025-.044.047-.09.072-.133.01-.019.022-.034.031-.052.011-.017.02-.035.03-.053.045-.076.095-.149.141-.225.087-.143.175-.286.267-.426l.037-.059c.116-.176.237-.347.361-.516l.012-.017.003-.005c.086-.116.174-.231.263-.345.068-.087.138-.172.208-.257l.02-.023.002-.003a11.998 11.998 0 0 1 .461-.526c.012-.012.023-.022.033-.035a8.843 8.843 0 0 1 .46-.467l.076-.071.061-.055a6.968 6.968 0 0 1 .39-.347c.038-.033.077-.063.116-.095l.056-.047.092-.074c.085-.068.173-.135.26-.198.063-.047.128-.092.191-.137l.031-.022.036-.025a9.885 9.885 0 0 1 .502-.319l.058-.034a4.95 4.95 0 0 1 .188-.104 5.668 5.668 0 0 1 .483-.239c.08-.036.159-.07.237-.101.08-.032.161-.062.239-.091l.04-.013.042-.014.156-.051c.083-.024.164-.048.245-.068.041-.01.082-.018.122-.026a6.44 6.44 0 0 1 .382-.071c.055-.007.109-.011.162-.017l.048-.005c.018-.001.036-.005.053-.005.095-.007.188-.01.28-.009.04 0 .079.003.119.006l.097.003c.03.004.062.003.092.005a3.2 3.2 0 0 1 .342.05l.007.002c.029.006.054.017.082.023.111.025.222.053.327.09.009.003.017.009.026.012.148.054.29.12.426.196.009.006.021.009.031.014l3.762 2.187 2.624 1.525a2.951 2.951 0 0 0-.807-.312c-.028-.008-.055-.018-.084-.023a3.163 3.163 0 0 0-.441-.056c-.032-.003-.063-.003-.096-.005a3.53 3.53 0 0 0-.447.009c-.021.001-.04.004-.061.006a4.624 4.624 0 0 0-1.066.233l-.03.01c-.186.063-.375.14-.568.228l-.033.015a7.785 7.785 0 0 0-1.191.689l-.021.015a9.62 9.62 0 0 0-.549.414l-.059.048c-.173.142-.341.29-.508.444l-.055.051c-.166.156-.329.319-.488.488-.017.018-.035.035-.051.054-.17.182-.336.369-.497.563l-.011.013c-.316.383-.614.789-.894 1.21-.082.122-.158.25-.235.375-.07.113-.143.226-.208.34l-.07.125a14.77 14.77 0 0 0-.314.58l-.03.06c-.237.47-.447.949-.625 1.434l-.003.006c-.091.246-.173.493-.248.739l-.001.001c-.073.24-.136.48-.192.72-.003.015-.007.029-.009.044-.111.479-.188.957-.227 1.426l-.004.047a7.623 7.623 0 0 0 .004 1.345l.006.048a5.967 5.967 0 0 0 .097.63 5.37 5.37 0 0 0 .156.581 4.533 4.533 0 0 0 .182.464 3.297 3.297 0 0 0 .65.939c.037.037.073.073.111.108.156.145.321.276.502.382l-6.387-3.712a2.746 2.746 0 0 1-.502-.383 3.103 3.103 0 0 1-.523-.617l-.006-.008a3.856 3.856 0 0 1-.231-.422l-.011-.024a4.036 4.036 0 0 1-.125-.298c-.017-.045-.031-.095-.047-.142-.011-.03-.02-.061-.03-.091-.008-.027-.019-.053-.026-.079a5.358 5.358 0 0 1-.08-.303c-.009-.037-.015-.078-.022-.117a.523.523 0 0 1-.012-.057c-.007-.039-.017-.076-.023-.117a5.774 5.774 0 0 1-.042-.282c-.007-.054-.011-.109-.017-.164l-.005-.048c-.001-.024-.005-.049-.007-.072a6.703 6.703 0 0 1-.024-.564v-.018a3.912 3.912 0 0 1 .001-.265z"/><path d="M43.188 83.67c-3.281 1.896-5.939 6.499-5.928 10.27.01 3.763 2.686 5.287 5.966 3.394 3.281-1.895 5.934-6.496 5.923-10.259-.01-3.77-2.681-5.298-5.961-3.405z"/></g><g fill="#FFF" stroke="#000" stroke-width="1.589" stroke-miterlimit="10"><path d="M55.054 44.799c.07.038.141.075.213.111l.104.05.036.016.079.038c.074.033.148.066.224.098l.234.094c.079.029.158.059.24.087a7.385 7.385 0 0 0 .347.113l.047.014.113.035c.087.025.175.049.264.071.068.018.136.034.204.05a.943.943 0 0 1 .025.006l.037.009a10.309 10.309 0 0 0 .529.107l.053.008.04.007c.055.009.109.019.164.027.087.014.172.025.259.037l.191.023c.011 0 .021.001.032.003l.035.004a14.321 14.321 0 0 0 .556.046c.015.002.03.002.045.002l.06.003c.077.003.154.008.232.01.091.003.183.003.274.003.043 0 .084.004.128.004l.049-.001h.051c.074 0 .149-.006.222-.009.141-.003.281-.007.421-.016.021 0 .04 0 .059-.002.177-.011.352-.026.525-.047l.017-.001h.005a14.152 14.152 0 0 0 .634-.089l.026-.004.001-.001a11.616 11.616 0 0 0 .575-.116c.014-.003.025-.007.039-.009l.055-.014c.064-.015.129-.03.192-.047.096-.024.191-.051.284-.078.028-.009.056-.018.083-.025.021-.008.045-.014.065-.021.046-.014.093-.027.138-.042.095-.031.188-.062.278-.096l.117-.044.056-.021.094-.035c.086-.034.17-.07.253-.106.061-.026.12-.054.18-.082l.028-.014.033-.015a7.98 7.98 0 0 0 .443-.231l.049-.028.155-.092.193-.124c.039-.026.076-.053.115-.081l.035-.025c.011-.006.021-.014.031-.021a6 6 0 0 0 .338-.265l.026-.023.027-.025.103-.092a4.26 4.26 0 0 0 .222-.227l.025-.028.045-.048.141-.171.079-.111c.007-.012.016-.022.023-.033l.026-.037c.044-.066.085-.132.123-.199.018-.029.03-.059.046-.089l.037-.071.035-.069a2.55 2.55 0 0 0 .107-.269l.001-.006c.009-.023.012-.046.019-.069.027-.092.054-.183.071-.275l.002-.023c.022-.13.034-.261.036-.391l.002-.029-.014-3.646-.011-2.543a2.462 2.462 0 0 1-.109.716c-.007.023-.011.046-.019.071a2.828 2.828 0 0 1-.182.415c-.057.109-.12.216-.192.321-.011.015-.021.027-.03.041a3.458 3.458 0 0 1-.289.356 4.51 4.51 0 0 1-.749.655l-.024.018a5.87 5.87 0 0 1-.471.301 7.5 7.5 0 0 1-.527.276l-.019.009a8.696 8.696 0 0 1-.53.226c-.02.007-.039.016-.06.022-.175.066-.353.126-.534.183l-.061.019c-.184.055-.37.105-.56.15-.021.005-.04.011-.06.014-.203.048-.41.091-.617.126l-.014.002c-.411.07-.83.116-1.253.143-.122.008-.246.01-.37.014-.112.003-.224.01-.335.01l-.12-.002c-.184 0-.368-.005-.552-.015l-.057-.002a11.42 11.42 0 0 1-1.302-.146h-.005a11.01 11.01 0 0 1-.641-.13h-.001a9.51 9.51 0 0 1-.603-.161l-.036-.012a8.312 8.312 0 0 1-1.13-.432c-.013-.005-.024-.011-.036-.017-.177-.084-.349-.174-.514-.269s-.317-.194-.462-.296l-.033-.024a5.604 5.604 0 0 1-.37-.292l-.047-.042a4.993 4.993 0 0 1-.355-.357 3.359 3.359 0 0 1-.244-.305l-.017-.022a2.712 2.712 0 0 1-.443-.99 2.337 2.337 0 0 1-.067-.524l.022 6.189c.001.175.028.351.069.524l.031.125c.049.173.111.345.198.513l.003.008c.058.112.125.224.201.333.002.005.006.008.009.011.003.007.009.012.013.018.051.072.104.144.164.215.026.031.056.062.083.093l.054.061.046.052c.059.062.122.124.187.185l.077.065c.011.011.021.022.035.032.025.021.049.044.076.066.061.049.123.1.187.149.036.027.075.054.112.08a.717.717 0 0 0 .033.025l.049.035c.064.043.129.087.195.129a6.914 6.914 0 0 0 .217.13c.072.041.138.077.204.112z"/><path d="M64.768 38.491c-2.747 1.59-7.202 1.594-9.933.01-2.729-1.582-2.717-4.162.031-5.751 2.748-1.59 7.197-1.591 9.926-.01 2.73 1.585 2.723 4.163-.024 5.751z"/></g><g fill="none" stroke="#000" stroke-width="1.589" stroke-miterlimit="10"><path d="M48.623 102.276c.002-.095.007-.191.013-.287.002-.046.007-.092.01-.138l.005-.047c.002-.034.004-.069.008-.104.009-.096.019-.192.032-.29.012-.1.027-.198.042-.298a11.164 11.164 0 0 1 .114-.611l.028-.117c.003-.019.008-.038.013-.057.011-.046.02-.091.032-.138.025-.104.053-.21.083-.315.022-.08.045-.16.07-.24.003-.011.005-.021.009-.03l.012-.044c.032-.102.064-.205.099-.308l.105-.303.023-.061.016-.045.07-.187.117-.288c.029-.071.06-.142.09-.211l.016-.035.016-.039a19.196 19.196 0 0 1 .283-.602l.025-.048.033-.063c.042-.082.084-.164.128-.246.051-.096.105-.19.16-.285.025-.044.047-.09.072-.134.01-.018.022-.034.031-.051l.03-.053c.045-.076.095-.15.141-.226a12.578 12.578 0 0 1 .665-1l.012-.018.003-.004a14.92 14.92 0 0 1 .471-.603l.02-.023.002-.003a9.39 9.39 0 0 1 .461-.525c.012-.013.023-.023.033-.036l.047-.049.163-.171c.082-.084.166-.166.25-.247l.076-.07a3.29 3.29 0 0 0 .06-.056c.042-.039.083-.079.126-.117a8.23 8.23 0 0 1 .265-.23l.116-.095.056-.046.092-.075c.085-.067.173-.135.26-.198.064-.047.128-.092.192-.137l.031-.021c.012-.009.024-.018.036-.025.083-.057.167-.113.251-.166.083-.054.167-.104.251-.154l.059-.034a7.099 7.099 0 0 1 1.147-.534c.013-.005.026-.008.04-.014a.54.54 0 0 0 .043-.013c.052-.018.104-.036.156-.052.083-.024.164-.047.245-.067.041-.01.082-.019.122-.026l.046-.012c.025-.004.05-.011.075-.016a4.17 4.17 0 0 1 .261-.043c.054-.008.109-.012.162-.017l.048-.005.053-.006c.095-.006.188-.009.28-.009.04 0 .079.004.119.006l.096.004c.03.003.062.002.093.005a3.2 3.2 0 0 1 .349.052c.028.006.054.017.081.022.112.025.222.053.328.09.009.003.017.01.026.013.148.054.29.119.426.195.009.007.021.01.031.014l3.762 2.188 2.624 1.525a2.86 2.86 0 0 0-.807-.313c-.028-.008-.055-.017-.084-.023a3.32 3.32 0 0 0-.441-.056l-.097-.005a3.71 3.71 0 0 0-.507.016 4.16 4.16 0 0 0-.54.086 5.014 5.014 0 0 0-.526.147l-.03.009c-.186.063-.376.14-.568.229l-.032.015a7.454 7.454 0 0 0-.592.307 9.281 9.281 0 0 0-1.171.81c-.019.016-.039.031-.058.049-.173.141-.341.289-.508.443l-.055.052c-.166.155-.329.319-.488.487l-.051.054c-.17.182-.337.369-.498.563l-.011.014c-.316.382-.614.789-.894 1.209-.082.123-.158.25-.235.375-.07.114-.143.226-.208.341l-.07.125c-.11.19-.214.384-.314.579l-.03.061c-.237.469-.447.948-.625 1.433l-.003.006c-.091.246-.173.493-.248.74l-.001.001c-.073.24-.137.479-.192.72-.003.014-.007.028-.009.043a10.02 10.02 0 0 0-.232 1.473 8.546 8.546 0 0 0-.027.692c0 .226.012.443.031.653l.006.049c.019.192.046.378.081.556.004.024.01.049.016.074a4.967 4.967 0 0 0 .326 1.013c.004.012.007.021.012.031.071.152.151.295.237.43a3.395 3.395 0 0 0 1.026 1l-6.387-3.712a2.838 2.838 0 0 1-.502-.383c-.037-.035-.074-.07-.111-.108a3.012 3.012 0 0 1-.412-.51c-.002-.003-.005-.004-.006-.008a3.683 3.683 0 0 1-.225-.406c-.003-.005-.004-.011-.006-.016l-.011-.023a4.252 4.252 0 0 1-.125-.299c-.017-.045-.031-.094-.047-.141l-.03-.092c-.008-.027-.019-.052-.026-.079a4.944 4.944 0 0 1-.08-.303c-.009-.037-.015-.077-.023-.117l-.011-.056c-.007-.04-.017-.077-.023-.117a6.161 6.161 0 0 1-.042-.282c-.007-.054-.011-.109-.017-.165l-.005-.048c-.001-.024-.005-.048-.007-.072a6.716 6.716 0 0 1-.024-.564v-.017a3.37 3.37 0 0 1 0-.266z"/><path d="M60.934 95.986c-3.281 1.895-5.938 6.498-5.928 10.269.01 3.763 2.686 5.288 5.966 3.395 3.281-1.896 5.935-6.496 5.923-10.259-.011-3.77-2.682-5.298-5.961-3.405z"/></g><path fill="none" stroke="#231F20" stroke-width="1.589" stroke-linecap="round" stroke-linejoin="round" stroke-miterlimit="10" d="M59.702 35.273v-21.15s1.476-11.068-8.116-11.068c-9.592 0-8.977 8.977-8.977 8.977s1.106 10.699-8.485 10.699-9.837-9.837-9.837-9.837v-24.103"/><path fill="#FFF" stroke="#231F20" stroke-width="1.589" stroke-linecap="round" stroke-linejoin="round" stroke-miterlimit="10" d="M-1.514 134.975V69.593L15.2 79.07v65.553z"/></svg>