<svg xmlns="http://www.w3.org/2000/svg" xmlns:xlink="http://www.w3.org/1999/xlink" width="383" height="278.73"><path fill="#010101" stroke="#FFF" stroke-width="1.39" stroke-linecap="round" stroke-linejoin="round" stroke-miterlimit="10" d="M190.372 275.568l190.664-110.08L194.687 56.969 1.5 166.979z"/><path fill="#010101" stroke="#FFF" stroke-width="1.39" stroke-linecap="round" stroke-linejoin="round" stroke-miterlimit="10" d="M190.835 263.524L381.5 153.443 195.149 44.925 1.963 154.934z"/><path fill="#010101" stroke="#FFF" stroke-width="1.39" stroke-linecap="round" stroke-linejoin="round" stroke-miterlimit="10" d="M190.835 249.274L381.5 139.193 195.149 30.675 1.963 140.685z"/><defs><path id="a" d="M190.835 249.274L381.5 139.193 195.149 30.675 1.963 140.685z"/></defs><clipPath id="b"><use xlink:href="#a" overflow="visible"/></clipPath><g clip-path="url(#b)" fill="none" stroke="#FFF" stroke-width="1.39" stroke-linecap="round" stroke-linejoin="round" stroke-miterlimit="10"><path d="M29.217 169.034L246.066 44.5M64.533 192.578l216.85-124.534m-176.578 144.36L321.654 87.87M141.359 234.089l216.85-124.533"/></g><g clip-path="url(#b)" fill="none" stroke="#FFF" stroke-width="1.39" stroke-linecap="round" stroke-linejoin="round" stroke-miterlimit="10"><path d="M356.288 168.515L138.765 45.24m182.485 148.1L103.728 70.065m177.506 144.392L63.71 91.181m181.233 146.221L27.42 114.127"/></g><g stroke="#FFF" stroke-width="1.39" stroke-linecap="round" stroke-linejoin="round" stroke-miterlimit="10"><path fill="#010101" d="M268.754 46.317l-18.68-10.751.203 72.162 18.485 10.742z"/><path fill="#010101" d="M268.762 118.47l-18.485-10.742-115.745 66.658 18.485 10.742zm-.008-72.153l-18.68-10.751-115.691 66.681 18.429 10.72z"/><path fill="#010101" d="M152.812 112.967l.205 72.161 115.745-66.658V46.308zm0 0l-18.484-10.741.204 72.16 18.485 10.742z"/><path fill="#010101" d="M153.047 113.06l-18.44-10.673v72.005l18.44 10.743z"/><g fill="#010101"><path d="M219.934 115.949l16.494 9.586-.039-13.868m11.791-20.416l12.068-6.968-16.496-9.585"/><path d="M224.282 105.048l-6.016-3.403.038 13.587 6.016 3.403z"/><path d="M236.351 98.082l-6.018-3.404-12.067 6.967 6.016 3.403z"/><path d="M236.312 84.208l.039 13.874-12.069 6.966.038 13.587 12.069-6.968.039 13.868 11.829-6.83-.038-13.867 12.067-6.967-.038-13.588-12.068 6.968-.04-13.872z"/><path d="M236.312 84.208l-6.017-3.403.038 13.873 6.018 3.404z"/><path d="M248.14 77.379l-6.017-3.404-11.828 6.83 6.017 3.403z"/></g><g fill="#010101"><path d="M170.171 124.86c.002-.105.008-.21.014-.315l.011-.152.005-.052c.003-.037.005-.077.009-.115a9.135 9.135 0 0 1 .082-.647l.057-.33c.022-.114.044-.227.069-.341l.031-.128.014-.062c.012-.05.022-.1.035-.152.028-.114.06-.23.092-.346.024-.088.05-.176.076-.265l.011-.033.013-.047c.036-.114.071-.227.109-.339.038-.111.076-.223.116-.333a.774.774 0 0 1 .026-.067 1 1 0 0 1 .018-.05l.077-.205a16.183 16.183 0 0 1 .227-.549l.017-.038.018-.042c.047-.107.096-.213.144-.316l.167-.347.028-.053.035-.07c.047-.09.093-.181.141-.27.056-.106.116-.21.176-.314.027-.048.051-.099.08-.147.011-.02.024-.037.034-.056l.033-.059c.049-.083.104-.165.155-.247a16.006 16.006 0 0 1 .335-.533c.128-.192.261-.382.398-.567l.013-.019.003-.005a13.539 13.539 0 0 1 .519-.663c.007-.009.016-.017.021-.025l.003-.003c.083-.1.167-.198.251-.296.083-.095.168-.189.255-.282l.037-.039.052-.054a10.571 10.571 0 0 1 .455-.459c.027-.027.055-.051.083-.078l.066-.061a8.416 8.416 0 0 1 .429-.382c.042-.036.085-.07.127-.104l.062-.052.102-.082c.094-.075.19-.149.286-.219.07-.052.142-.101.211-.15.011-.009.023-.016.034-.024l.039-.028c.091-.062.184-.124.276-.183.092-.058.184-.114.277-.169l.064-.037c.069-.04.139-.079.207-.115a6.867 6.867 0 0 1 .487-.242c.015-.006.03-.014.044-.021a5.659 5.659 0 0 1 .524-.21c.015-.005.029-.008.043-.015.017-.005.032-.009.047-.015a6.85 6.85 0 0 1 .171-.057 3.206 3.206 0 0 1 .403-.104l.05-.012c.027-.004.055-.012.083-.019.097-.018.192-.034.287-.046.06-.009.119-.013.178-.019a.945.945 0 0 1 .053-.004c.02-.002.04-.006.058-.007.104-.006.207-.009.309-.009.044 0 .087.004.131.006l.105.004c.034.004.069.002.102.006.128.011.253.029.376.054l.007.002c.032.006.06.018.09.025.123.028.244.058.36.099.01.004.019.011.028.014a3.1 3.1 0 0 1 .468.215c.011.007.023.01.035.016l4.139 2.406 2.887 1.678a3.248 3.248 0 0 0-.887-.342c-.031-.009-.061-.02-.092-.026a3.667 3.667 0 0 0-.486-.062c-.036-.003-.071-.003-.106-.005a3.867 3.867 0 0 0-.492.01l-.067.006a4.66 4.66 0 0 0-.595.096 5.433 5.433 0 0 0-.579.162c-.011.004-.022.006-.034.011a6.576 6.576 0 0 0-.661.267c-.214.1-.43.21-.651.338a10.396 10.396 0 0 0-1.287.891l-.064.053c-.19.156-.376.319-.56.489l-.06.057a12.36 12.36 0 0 0-.537.537c-.019.02-.039.039-.056.059-.188.2-.371.407-.547.62l-.012.015c-.348.42-.676.867-.983 1.331-.089.135-.173.275-.258.413-.077.125-.158.247-.23.374-.027.046-.052.093-.077.138-.121.21-.236.423-.346.638l-.034.065a14.969 14.969 0 0 0-.688 1.577l-.004.007c-.1.27-.191.541-.272.813l-.001.001c-.08.265-.15.529-.212.792l-.01.047a11.043 11.043 0 0 0-.255 1.62 8.874 8.874 0 0 0 .005 1.479l.006.054c.021.211.051.416.089.612.004.026.011.055.017.082a5.35 5.35 0 0 0 .373 1.149c.079.167.167.325.26.473a3.59 3.59 0 0 0 .577.679c.171.16.352.305.552.421l-7.027-4.084a3.182 3.182 0 0 1-.675-.54 3.475 3.475 0 0 1-.453-.56c-.003-.003-.005-.005-.006-.008a4.191 4.191 0 0 1-.248-.448l-.007-.018-.012-.026a4.247 4.247 0 0 1-.138-.328c-.019-.05-.034-.104-.051-.156l-.034-.101-.029-.087a5.75 5.75 0 0 1-.088-.333c-.009-.042-.016-.086-.024-.129a1.367 1.367 0 0 1-.013-.062c-.007-.043-.018-.084-.025-.128a8.536 8.536 0 0 1-.047-.311c-.008-.059-.012-.12-.018-.181l-.006-.053-.008-.08a14.303 14.303 0 0 1-.02-.306 8.182 8.182 0 0 1-.006-.314v-.018c.004-.103.005-.201.009-.299z"/><path d="M183.716 117.94c-3.61 2.084-6.534 7.149-6.522 11.298.011 4.14 2.955 5.817 6.564 3.734 3.61-2.084 6.529-7.147 6.517-11.288-.012-4.146-2.951-5.828-6.559-3.744z"/></g><g fill="#010101"><path d="M196.771 75.171c.076.042.154.083.234.122.037.019.076.036.114.055.014.005.026.012.04.018l.086.042c.082.036.163.073.247.108.084.035.171.069.258.104l.264.095c.091.032.184.063.276.092.034.012.07.022.105.033a.395.395 0 0 1 .052.015l.125.037a12.246 12.246 0 0 0 .515.134l.028.006a.808.808 0 0 1 .041.01c.095.022.192.042.29.063.097.019.193.038.291.055l.059.01.044.007a12.932 12.932 0 0 0 .465.071c.071.008.14.018.21.025.012 0 .023.001.035.003.014.001.025.004.038.006a15.758 15.758 0 0 0 .613.049c.016.002.033.002.049.003.022.001.045.001.065.003.085.003.17.009.256.01.1.004.2.004.301.004.047 0 .093.003.142.003l.054-.001h.056c.082 0 .164-.006.244-.009.154-.005.31-.008.463-.018.022 0 .044 0 .065-.002.193-.013.386-.03.577-.053h.019l.005-.001c.133-.016.265-.032.397-.051a7.54 7.54 0 0 0 .301-.048c.01-.002.02-.004.029-.004l.002-.001c.107-.018.215-.038.32-.06.104-.021.208-.042.312-.067.014-.002.027-.007.042-.01a.899.899 0 0 0 .061-.016c.071-.017.143-.033.212-.051.105-.027.21-.057.313-.085.029-.01.061-.02.091-.028.023-.009.048-.015.071-.023.051-.015.102-.029.152-.045a9.16 9.16 0 0 0 .306-.106c.043-.015.084-.032.129-.049l.062-.023.103-.039c.095-.037.188-.077.278-.117l.198-.09.031-.016.036-.016a8.268 8.268 0 0 0 .711-.387c.073-.047.145-.091.213-.138.043-.029.083-.059.128-.088l.038-.028c.011-.007.024-.015.034-.024.065-.046.128-.094.19-.143.062-.049.122-.1.182-.148l.027-.026.032-.027.112-.102c.057-.055.113-.109.166-.165.027-.027.052-.056.079-.084l.028-.032a.795.795 0 0 1 .049-.052c.052-.062.104-.124.154-.188.03-.041.059-.081.087-.122.007-.012.018-.024.026-.036.008-.014.02-.026.028-.04.049-.073.094-.146.136-.22.02-.033.033-.066.051-.098.013-.026.026-.053.04-.078.013-.026.027-.051.039-.077a2.85 2.85 0 0 0 .118-.296l.001-.006c.01-.025.013-.05.021-.075.03-.101.06-.201.078-.303l.003-.026a2.99 2.99 0 0 0 .04-.431l.002-.032-.016-4.01-.012-2.798a2.631 2.631 0 0 1-.12.788c-.009.025-.012.052-.021.078a3.139 3.139 0 0 1-.158.379c-.013.025-.028.051-.041.078-.062.12-.133.238-.211.353l-.034.046a3.726 3.726 0 0 1-.286.357l-.031.035a4.46 4.46 0 0 1-.381.372 5.823 5.823 0 0 1-.442.35c-.008.006-.019.012-.027.019a6.89 6.89 0 0 1-.518.331c-.187.108-.381.21-.58.304l-.021.01a8.747 8.747 0 0 1-.648.273c-.193.074-.39.139-.588.203l-.067.021a11.104 11.104 0 0 1-.681.182c-.223.052-.45.099-.678.139l-.016.001c-.452.078-.913.128-1.378.158-.135.009-.271.012-.407.016-.124.004-.246.01-.369.01-.044 0-.089-.001-.132-.003-.202 0-.405-.004-.606-.015-.021 0-.042-.002-.062-.003a12.314 12.314 0 0 1-1.433-.159l-.006-.001a12.206 12.206 0 0 1-.705-.142h-.001a9.75 9.75 0 0 1-.663-.178l-.04-.012a9.38 9.38 0 0 1-1.243-.475c-.014-.005-.025-.014-.039-.018a7.17 7.17 0 0 1-1.073-.622l-.037-.027a6.442 6.442 0 0 1-.457-.367 3.945 3.945 0 0 1-.392-.392 3.769 3.769 0 0 1-.269-.336l-.019-.024a3.083 3.083 0 0 1-.561-1.666l.025 6.81c.002.193.032.386.076.578.011.045.021.091.034.137.054.191.123.38.219.565.001.004.001.006.003.008.063.124.138.247.222.366.002.005.007.009.01.013.003.008.01.013.014.02.057.08.115.159.181.237.027.034.062.068.091.103l.06.067c.018.018.033.037.051.056a2.269 2.269 0 0 0 .29.276.443.443 0 0 0 .038.036l.083.072c.066.054.135.11.205.164.039.03.083.06.124.088l.035.027.056.039c.069.049.141.095.214.142a7.883 7.883 0 0 0 .24.144c.067.037.139.077.213.115z"/><path d="M207.459 68.231c-3.022 1.751-7.924 1.754-10.93.011-3.001-1.74-2.988-4.578.034-6.327 3.024-1.75 7.919-1.751 10.92-.011 3.006 1.743 2.998 4.58-.024 6.327z"/></g><g fill="#010101"><path d="M189.696 138.41c.003-.104.008-.209.015-.316.002-.05.008-.1.011-.15l.005-.052.009-.114a8.878 8.878 0 0 1 .082-.648c.018-.109.036-.22.057-.33.022-.113.044-.227.069-.341.009-.042.021-.086.031-.128a.623.623 0 0 1 .015-.062c.012-.051.022-.101.035-.152a12.7 12.7 0 0 1 .168-.612c.004-.012.006-.022.011-.033.003-.017.008-.031.013-.048a19.1 19.1 0 0 1 .108-.339c.038-.111.076-.222.116-.333.008-.021.016-.044.026-.066l.018-.05a16.94 16.94 0 0 1 .205-.522 7.03 7.03 0 0 1 .099-.232c.005-.014.012-.026.017-.039l.018-.043a15.173 15.173 0 0 1 .311-.663l.027-.052.036-.069.141-.271c.057-.107.117-.21.177-.314.027-.049.051-.099.079-.146l.034-.056c.012-.02.022-.041.034-.059.049-.083.103-.165.155-.248.096-.157.191-.314.294-.468.014-.022.026-.043.041-.064.127-.194.261-.382.397-.567.004-.008.008-.012.013-.02l.003-.005c.096-.127.192-.254.291-.379.075-.095.149-.189.228-.283.008-.009.016-.018.021-.026l.003-.003c.082-.1.168-.198.252-.295.083-.096.168-.189.255-.282l.037-.04c.019-.019.033-.036.052-.054.06-.063.118-.127.18-.188.09-.093.182-.184.274-.273l.083-.077a1.85 1.85 0 0 1 .067-.061c.044-.043.09-.087.138-.129.097-.086.192-.171.291-.252a2.06 2.06 0 0 1 .127-.104l.062-.052.102-.082c.094-.075.19-.149.286-.218.069-.051.141-.101.211-.15l.034-.024a.55.55 0 0 0 .039-.028c.092-.062.184-.124.276-.183.092-.059.185-.114.277-.169l.063-.038c.069-.041.139-.079.207-.116a6.182 6.182 0 0 1 .487-.24c.014-.008.03-.015.045-.022.088-.039.175-.077.261-.111l.263-.099c.015-.005.029-.008.044-.014l.047-.014a6.075 6.075 0 0 1 .441-.132l.134-.029c.017-.003.035-.008.05-.012.028-.005.057-.013.083-.018.098-.018.192-.035.287-.047.06-.008.119-.013.18-.019l.052-.006.059-.005a4 4 0 0 1 .309-.009c.044 0 .087.003.131.006.035 0 .07.002.105.004.034.003.068.003.102.004a4.12 4.12 0 0 1 .385.057c.031.006.06.018.09.025.123.028.244.059.359.1.011.002.02.01.028.014.164.059.319.131.469.215.011.006.023.01.034.015l4.14 2.406 2.887 1.678a3.315 3.315 0 0 0-.502-.232 3.56 3.56 0 0 0-.386-.111c-.031-.008-.061-.018-.092-.025a3.474 3.474 0 0 0-.592-.067 4.049 4.049 0 0 0-.491.01c-.022.001-.044.004-.066.007a4.66 4.66 0 0 0-.54.083l-.054.012a5.378 5.378 0 0 0-.612.173 6.435 6.435 0 0 0-.661.267c-.214.1-.431.21-.65.337a9.747 9.747 0 0 0-1.287.891c-.022.018-.043.034-.064.053-.19.156-.376.319-.56.489l-.061.056a12.367 12.367 0 0 0-.593.597 13.016 13.016 0 0 0-.56.634c-.349.421-.676.869-.982 1.331-.091.135-.174.275-.259.413-.078.126-.158.249-.231.374l-.075.138c-.121.21-.236.423-.346.638-.012.023-.023.043-.034.067a14.953 14.953 0 0 0-.963 2.396l-.001.001c-.08.265-.149.528-.212.792l-.01.048a11.061 11.061 0 0 0-.249 1.569l-.006.051c-.019.257-.03.51-.029.761.001.25.013.489.034.72l.006.053c.021.211.051.417.088.612l.018.082c.039.187.086.365.14.538l.033.101c.056.166.117.326.188.476.003.013.008.023.014.035a3.547 3.547 0 0 0 .836 1.152c.172.16.353.305.553.421l-7.027-4.084a3.144 3.144 0 0 1-.553-.421c-.041-.039-.082-.078-.122-.119a3.406 3.406 0 0 1-.453-.562c-.002-.003-.005-.004-.007-.008a4.444 4.444 0 0 1-.248-.447l-.007-.017c-.005-.01-.007-.018-.012-.026a4.419 4.419 0 0 1-.138-.328c-.019-.05-.034-.104-.051-.156-.012-.034-.021-.067-.034-.101-.009-.03-.02-.057-.028-.087a4.489 4.489 0 0 1-.088-.333c-.009-.041-.017-.085-.025-.129a1.093 1.093 0 0 1-.013-.061c-.008-.043-.018-.084-.026-.129a8.88 8.88 0 0 1-.047-.311c-.007-.059-.012-.12-.018-.181l-.006-.053c-.002-.026-.006-.053-.007-.08a7.487 7.487 0 0 1-.027-.62v-.019c-.009-.104-.006-.201-.003-.3z"/><path d="M203.241 131.49c-3.611 2.085-6.534 7.15-6.522 11.297.011 4.141 2.955 5.818 6.564 3.735 3.608-2.085 6.528-7.148 6.516-11.288-.012-4.146-2.95-5.827-6.558-3.744z"/></g><path fill="none" d="M202.019 63.866V23.184s1.947-14.601-10.706-14.601c-12.655 0-11.843 11.843-11.843 11.843s1.459 14.114-11.194 14.114c-12.654 0-12.979-12.979-12.979-12.979V7.98"/></g></svg>