<svg xmlns="http://www.w3.org/2000/svg" width="118.833" height="134.836"><path stroke="#FFF" stroke-width="1.486" stroke-linecap="round" stroke-linejoin="round" stroke-miterlimit="10" d="M61.206 133.311l-33.491-18.854-.088-30.096 33.49 18.852z"/><path stroke="#FFF" stroke-width="1.495" stroke-linecap="round" stroke-linejoin="round" stroke-miterlimit="10" d="M90.596 51.688L57.845 32.164l26.44-15.66 32.752 19.525z"/><path stroke="#FFF" stroke-width="1.485" stroke-linecap="round" stroke-linejoin="round" stroke-miterlimit="10" d="M90.047 20.766l.088 31.365 27.187-15.758.095 33.4L90.23 85.531l.09 31.363-28.953 16.782-.088-31.363-26.795 15.634-.488-34.264 27.187-15.761-.088-30.375z"/><path stroke="#FFF" stroke-width="1.485" stroke-linecap="round" stroke-linejoin="round" stroke-miterlimit="10" d="M34.478 83.668L1.417 64.455l26.69-15.412L61.17 68.258zm.098 34.721L1.512 99.009l-.095-34.554 33.061 19.379zm26.508-80.801L28.021 18.373 57.835 1.16l33.063 19.215z"/><path stroke="#FFF" stroke-width="1.485" stroke-linecap="round" stroke-linejoin="round" stroke-miterlimit="10" d="M61.17 68.258L28.107 49.043l-.086-30.67 33.063 19.215z"/></svg>