<svg xmlns="http://www.w3.org/2000/svg" xmlns:xlink="http://www.w3.org/1999/xlink" width="109.98" height="134.95" viewBox="170.86 82.782 109.98 134.95"><defs><path id="a" d="M266.743 94.221s-16.286-12.142-28.499-9.516c-25.812 5.551-54.163 37.089-62.932 72.417-11.956 42.767 20.522 55.318 20.522 55.318s24.29 12.869 49.076-18.998c24.787-31.867 37.764-62.119 21.833-99.221z"/></defs><use xlink:href="#a" overflow="visible" fill="#FFF"/><clipPath id="b"><use xlink:href="#a" overflow="visible"/></clipPath><g clip-path="url(#b)" fill="#FFF" stroke="#000" stroke-width="1.18" stroke-linecap="round" stroke-linejoin="round" stroke-miterlimit="10"><path d="M166.972 188.043l31.799 18.282m-33.846-27.154l31.8 18.282m-32.141-27.837l31.8 18.282m-31.459-29.543l31.8 18.283m-30.435-28.179l31.8 18.282m-29.07-27.837l31.799 18.283m-28.728-27.155l31.8 18.282m-27.704-26.813l31.799 18.282m-27.363-25.789l31.799 18.282m-26.34-25.107l31.8 18.282m-26.34-24.765l31.799 18.282m-25.316-24.084l31.8 18.283m-24.974-23.401l31.798 18.282M210.651 85.33l31.8 18.282m-25.999-21.695l31.8 18.283m-24.633-19.989l31.799 18.283M230.784 79.87l31.8 18.282m-26.34-18.282l31.8 18.282"/></g><use xlink:href="#a" overflow="visible" fill="none" stroke="#000" stroke-width="1.18" stroke-linecap="round" stroke-linejoin="round" stroke-miterlimit="10"/><path fill="#FFF" stroke="#000" stroke-width="1.18" stroke-linecap="round" stroke-linejoin="round" stroke-miterlimit="10" d="M277.104 144.892c-8.585 34.52-36.167 66.199-61.605 70.759-25.439 4.56-39.102-19.728-30.517-54.247 8.584-34.52 36.167-66.199 61.606-70.758 25.437-4.562 39.1 19.726 30.516 54.246z"/><path fill="#FFF" stroke="#000" stroke-width="1.18" stroke-linecap="round" stroke-linejoin="round" stroke-miterlimit="10" stroke-dasharray="1.1803,3.9345" d="M272.675 143.011c-7.7 31.533-32.442 61.773-55.262 67.545-22.82 5.771-35.077-15.112-27.375-46.645 7.701-31.533 32.443-61.774 55.262-67.545 22.819-5.772 35.075 15.112 27.375 46.645z"/><g fill="#FFF" stroke="#000" stroke-width="1.18" stroke-linecap="round" stroke-linejoin="round" stroke-miterlimit="10"><path d="M229.886 178.525l10.944-22.375 8.755-5.269-4.782-13.781-7.783 4.378-5.026-13.214-10.701 22.213-8.675 5.349 4.54 13.456 8.026-4.215zm-4.702-13.458l11.836-23.589"/><path d="M240.83 156.15l-7.296 3.892-5.026-13.619-7.215 4.054"/></g></svg>