<svg xmlns="http://www.w3.org/2000/svg" xmlns:xlink="http://www.w3.org/1999/xlink" width="383" height="303.87"><path fill="#010101" stroke="#FFF" stroke-width="1.39" stroke-linecap="round" stroke-linejoin="round" stroke-miterlimit="10" d="M190.372 301.641l190.665-110.08L194.688 83.043 1.5 193.053z"/><path fill="#010101" stroke="#FFF" stroke-width="1.39" stroke-linecap="round" stroke-linejoin="round" stroke-miterlimit="10" d="M190.836 289.598L381.5 179.516 195.15 70.999 1.964 181.008z"/><path fill="#010101" stroke="#FFF" stroke-width="1.39" stroke-linecap="round" stroke-linejoin="round" stroke-miterlimit="10" d="M190.836 275.348L381.5 165.266 195.15 56.749 1.964 166.758z"/><defs><path id="a" d="M190.836 275.348L381.5 165.266 195.15 56.749 1.964 166.758z"/></defs><clipPath id="b"><use xlink:href="#a" overflow="visible"/></clipPath><g clip-path="url(#b)" fill="none" stroke="#FFF" stroke-width="1.39" stroke-linecap="round" stroke-linejoin="round" stroke-miterlimit="10"><path d="M29.218 195.108L246.067 70.574M64.533 218.651l216.85-124.533M104.806 238.477l216.848-124.533M141.36 260.163l216.85-124.534"/></g><g clip-path="url(#b)" fill="none" stroke="#FFF" stroke-width="1.39" stroke-linecap="round" stroke-linejoin="round" stroke-miterlimit="10"><path d="M356.289 194.588L138.766 71.313m182.485 148.102L103.728 96.139M281.234 240.53L63.711 117.255m181.233 146.22L27.421 140.2"/></g><g stroke="#FFF" stroke-width="1.39" stroke-linecap="round" stroke-linejoin="round" stroke-miterlimit="10"><path d="M223.671 158.319l-28.297-15.841-42.145 25.134 37.475 21.545 37.83-21.842v-6.293z"/><path d="M190.704 182.864l37.83-21.842-36.973-21.532-38.332 21.827z"/><path d="M138.771 176.565l102.521-59.208c1.438-.83 2.572-2.668 2.572-4.105V12.201"/><path d="M138.604 183.905l.564.814-8.24-5.201c-.129-.234-.199-.535-.199-.895V70.601c0-1.438 1.126-3.276 2.563-4.106L241.275 4.129c.489-.283.945-.413 1.334-.403l8.444 4.813-2.465.705"/><path d="M138.61 183.403c0 1.438 1.12 1.93 2.557 1.102l108-62.368c1.438-.83 2.58-2.668 2.58-4.105V10.009c0-1.438-1.166-1.931-2.604-1.101L141.167 71.275c-1.437.831-2.557 2.668-2.557 4.106v108.022z"/><path d="M193.63 123.702l12.897-26.368 10.318-6.209-5.636-16.241-9.172 5.159-5.923-15.572-12.611 26.176-10.222 6.305 5.35 15.86 9.458-4.968zm-5.541-15.858l13.948-27.801"/><path d="M206.527 97.334l-8.597 4.586-5.924-16.05-8.503 4.777m-44.66 75.611l112.44-64.371m-60.926 81.094v5.594"/></g></svg>