<svg xmlns="http://www.w3.org/2000/svg" width="165" height="95" viewBox="109 86 165 95"><g fill="#FFF" stroke="#000" stroke-width="1.318" stroke-linecap="round" stroke-linejoin="round" stroke-miterlimit="10"><circle cx="118.259" cy="113.25" r="7.921"/><path d="M119.968 111.843a3.278 3.278 0 0 1 1.149-4.491l19.63-11.624a3.277 3.277 0 0 1 4.49 1.149l.082.139a3.277 3.277 0 0 1-1.149 4.49l-19.63 11.624a3.278 3.278 0 0 1-4.491-1.149l-.081-.138z"/><circle cx="143.297" cy="98.754" r="11.721"/><path d="M145.614 102.017a3.826 3.826 0 0 1 5.241 1.341l32.259 55.473a3.825 3.825 0 0 1-1.341 5.24l-.162.096a3.824 3.824 0 0 1-5.241-1.341l-32.259-55.472a3.826 3.826 0 0 1 1.341-5.241l.162-.096z"/><circle cx="182.832" cy="163.984" r="15.521"/><path d="M254.893 122.649a4.18 4.18 0 0 1-1.466 5.727l-60.616 35.25a4.178 4.178 0 0 1-5.726-1.466l-.105-.177a4.18 4.18 0 0 1 1.465-5.727l60.616-35.25a4.181 4.181 0 0 1 5.728 1.465l.104.178z"/><circle cx="251.357" cy="123.792" r="21.981"/></g></svg>