<svg xmlns="http://www.w3.org/2000/svg" xmlns:xlink="http://www.w3.org/1999/xlink" width="383" height="267"><path fill="#010101" stroke="#FFF" stroke-width="1.39" stroke-linecap="round" stroke-linejoin="round" stroke-miterlimit="10" d="M190.896 265.202l190.665-110.08-186.35-108.518L2.025 156.613z"/><path fill="#010101" stroke="#FFF" stroke-width="1.39" stroke-linecap="round" stroke-linejoin="round" stroke-miterlimit="10" d="M191.36 253.157l190.665-110.08L195.674 34.559 2.488 144.568z"/><path fill="#010101" stroke="#FFF" stroke-width="1.39" stroke-linecap="round" stroke-linejoin="round" stroke-miterlimit="10" d="M191.36 238.907l190.665-110.079L195.674 20.31 2.488 130.318z"/><defs><path id="a" d="M191.36 238.907l190.665-110.079L195.674 20.31 2.488 130.318z"/></defs><clipPath id="b"><use xlink:href="#a" overflow="visible"/></clipPath><g clip-path="url(#b)" fill="none" stroke="#FFF" stroke-width="1.39" stroke-linecap="round" stroke-linejoin="round" stroke-miterlimit="10"><path d="M29.743 158.669L246.592 34.135M65.058 182.212L281.907 57.679M105.33 202.039L322.178 77.505M141.884 223.723L358.733 99.189"/></g><g clip-path="url(#b)" fill="none" stroke="#FFF" stroke-width="1.39" stroke-linecap="round" stroke-linejoin="round" stroke-miterlimit="10"><path d="M356.813 158.148L139.29 34.874m182.484 148.102L104.253 59.699M281.759 204.09L64.236 80.815m181.233 146.22L27.945 103.761"/></g><path fill="#030303" d="M277.378 12.845a1.077 1.077 0 0 0-.239-.088L256.371.774a.905.905 0 0 0-1.046.107c-.021.012-.048.02-.069.032l-11.273 6.692c-.24.144-.248.382-.288.639-.101.145-.023.319-.023.51v9.911l-5.491 3.179-.093.003a.984.984 0 0 0-.651.1l-30.89 17.857a.9.9 0 0 0-.428.56.91.91 0 0 0-.19.206l-8.346 13.161-4.258-2.457a.891.891 0 0 0-1.039.107c-.023.011-.048.019-.069.033l-23.593 14.011c-.322.191-.343.55-.292.898-.003.031.127.062.127.094v6.877L149.332 84.28l-7.167-4.101 1.674-.985c.374-.216.624-.562.735-.979a1.573 1.573 0 0 0-.17-1.209 1.618 1.618 0 0 0-1.404-.793h-.001c-.282 0-.561.062-.806.204l-7.841 4.521a1.596 1.596 0 0 0-.75.975 1.594 1.594 0 0 0 .396 1.529l-11.75 6.843a.893.893 0 0 0-.618.799c0 .01.135.018.135.027 0 .007.135.014.135.021v9.096l-29.06 16.731c-.248.143-.467.389-.503.653-.002.011-.038.022-.04.034-.003.031-.02.062-.02.094 0 .033-.009.063-.006.095.002.011 0 .022.002.035 0 .002.135.003.135.004-.005.041.122.08.122.121v10.387c0 .018-.132.034-.131.05-.022.331.206.66.511.835l7.5 4.29v10.941c0 .018-.132.034-.131.052-.021.33.069.657.374.833l51.72 29.88c.033.021.05.028.085.044.114.081.24.136.385.158a.903.903 0 0 0 .268.046.877.877 0 0 0 .443-.119l115.964-66.952a.886.886 0 0 0 .659-.404l20.596-32.484.025-.015a.888.888 0 0 0 .313-.305l4.806-7.778c.021-.032.036-.066.053-.099l17.227-27.173c.06-.099.1-.205.12-.312a.89.89 0 0 0-.105-.976.89.89 0 0 0-.619-.427L283.99 21.875c-.108-.062-.203-.1-.203-.114v-.058c0-.099-.158-.194-.19-.285a.915.915 0 0 0-.444-.584l-5.25-3.033"/><path fill="none" stroke="#FFF" stroke-width="1.39" stroke-linecap="round" stroke-linejoin="round" stroke-miterlimit="10" d="M312.352 39.468l-53.529 30.964M247.3 88.407l-102.303 59.175M312.352 39.826l-43.016 67.852M258.528 70.9l-11.024 17.389m21.716 19.359l-116.202 67.091m-.141-.034V162.17m-.039-.24l-7.667-3.241m-.173-.46v-10.743m92.765-124.64l-30.872 17.859m-84.458 60.161l-29.369 16.989m75.711-43.793l-19.456 11.253m57.276-44.141L197.86 54.95m-96.916 89.67v-11.103m-7.879-5.015v-10.385m63.036 5.131l-17.908 10.495v-33.506l17.908-10.496zm-33.668-31.965l15.76-9.178m-15.76 42.458V91.255m67.335 20.572l-12.178 6.948v-11.109l12.178-6.948zm12.177-6.949l-12.177 6.949v-11.109l12.177-6.947zm11.819-6.948l-11.819 6.948V93.771l11.819-6.95zm12.178-6.948l-12.178 6.948V86.821l12.178-6.947zm-6.449-7.545l-11.817 6.947V79.276l11.817-6.948z"/><path fill="none" stroke="#FFF" stroke-width="1.39" stroke-linecap="round" stroke-linejoin="round" stroke-miterlimit="10" d="M213.764 75.713l-11.819 6.948V71.552l11.819-6.948zM150.37 107.14l-7.163 3.91v-6.416l7.163-3.91zm51.575-24.611l-12.177 6.948V78.368l12.177-6.948z"/><path fill="none" stroke="#FFF" stroke-width="1.39" stroke-linecap="round" stroke-linejoin="round" stroke-miterlimit="10" d="M207.676 90.384l-11.819 6.949V86.225l11.819-6.949zm-11.819 6.949l-12.179 6.948V93.172l12.179-6.947zm-26.863-31.015l23.593-14.011m-23.593 24.979V66.542m75.213-46.918V8.879m-6.089 24.711V22.846m-6.09 25.071V37.173m-69.481 54.441V80.868m.358-.231l5.87-3.349m121.486-2.404l-145.263 83.767v-4.952l150.071-86.593zm-150.009 5.439l15.67 9.046m-62.858 28.499l51.754 29.88m24.408-81.002l20.784 12m-8.692-19.441l20.785 11.999m-9.312-19.131l20.783 12m.395 4.888l5.496 3.173m.706 4.267l5.494 3.175m-62.95 1.333l20.784 12m-27.398 12.93V95.194m.358-.231l5.87-3.348m-6.061 3.72l20.785 11.999m-14.338-15.732l20.426 11.793m-27.04 3.098l21.31 12.302m-54.757-27.549l15.36 8.868m-15.419 24.765l15.419 8.901m30.902-56.492l20.784 12m76.355-35.625l-12.179 6.948v-11.11l12.179-6.948zm11.818-6.948l-11.818 6.948v-11.11l11.818-6.947zm12.178-6.948l-12.178 6.948V35.606l12.178-6.949z"/><path fill="none" stroke="#FFF" stroke-width="1.39" stroke-linecap="round" stroke-linejoin="round" stroke-miterlimit="10" d="M282.53 32.937l-11.818 6.947V28.776l11.818-6.948zm-5.731-8.083l-11.82 6.948V20.694l11.82-6.949z"/><path fill="none" stroke="#FFF" stroke-width="1.39" stroke-linecap="round" stroke-linejoin="round" stroke-miterlimit="10" d="M270.712 39.527l-11.82 6.948V35.366l11.82-6.948zM244.354 8.499l11.27-6.691m-11.27 6.996l20.785 12m-26.874 2.022l5.519-3.277m-11.608 17.245l5.519-3.276m.57-10.386l20.785 11.997m-26.514 1.969l20.782 12m-15.411-15.58l20.782 11.999m-26.661 2.545l21.651 12.497m-9.325-41.01l20.785 11.999m-9.312-29.875l20.783 11.999m.394 4.889l5.496 3.173m.455 2.724l7.068 4.082M93.065 128.613l51.753 29.879m-43.874-13.762l51.754 29.88m130.62-151.836l29.12 16.811m-98.674 28.866l33.13 19.128m-39.952-46.874l51.413 29.682"/><path fill="#FFF" d="M135.073 89.411a1.595 1.595 0 0 1-1.538-2.002c.11-.409.373-.752.74-.965l7.843-4.528a1.588 1.588 0 0 1 2.172.582c.212.368.269.797.159 1.207-.11.411-.373.754-.741.966l-7.841 4.527c-.243.14-.517.213-.794.213z"/><path fill="#1D1D1D" d="M142.913 82.398a.896.896 0 0 1 .449 1.671l-7.841 4.528a.893.893 0 0 1-1.223-.328.895.895 0 0 1 .327-1.223l7.842-4.527a.88.88 0 0 1 .446-.121m0-1.39a2.29 2.29 0 0 0-1.141.306l-7.842 4.527a2.272 2.272 0 0 0-1.064 1.388 2.286 2.286 0 0 0 3.346 2.574l7.846-4.531c.528-.305.906-.797 1.064-1.387s.077-1.206-.228-1.734a2.297 2.297 0 0 0-1.981-1.143z"/><path fill="#FFF" d="M135.073 84.039a1.596 1.596 0 0 1-1.378-.795 1.593 1.593 0 0 1 .58-2.171l7.844-4.528c.24-.14.515-.214.794-.214.566 0 1.094.305 1.378.795.438.76.177 1.734-.581 2.173l-7.842 4.527c-.245.14-.519.213-.795.213z"/><path fill="#1D1D1D" d="M142.913 77.025a.896.896 0 0 1 .449 1.671l-7.841 4.527a.895.895 0 1 1-.896-1.551l7.842-4.527a.89.89 0 0 1 .446-.12m0-1.39c-.401 0-.798.107-1.146.31l-7.838 4.524a2.29 2.29 0 0 0-.835 3.123 2.291 2.291 0 0 0 1.979 1.142c.396 0 .79-.105 1.137-.304l7.846-4.53a2.289 2.289 0 0 0 .836-3.121 2.293 2.293 0 0 0-1.979-1.144z"/><path fill="none" stroke="#FFF" stroke-width="1.39" stroke-linecap="round" stroke-linejoin="round" stroke-miterlimit="10" d="M138.909 92.33V80.51"/></svg>