<svg width="310" height="93" fill="none" xmlns="http://www.w3.org/2000/svg"><g filter="url(#filter0_d)"><path fill-rule="evenodd" clip-rule="evenodd" d="M33.053 39.53c-5.04 5.644-4.882 14.433.477 19.878a14.012 14.012 0 0 0 20.008 0c5.519-5.608 5.523-14.762.01-20.375-7.163-6.67 1.039-17.084-.364-11.862-1.103 4.101 1.909 7.63 3.7 9.73l.23.27c.057.067.106.14.147.219 5.999 7.168 5.669 17.974-.99 24.741-7.017 7.13-18.457 7.13-25.474 0-7.006-7.12-7.006-18.712 0-25.832a1.94 1.94 0 0 1 .288-.24c1.71-2.144 3.825-5.298 2.908-8.875-1.369-5.343 6.947 5.684-.94 12.346z" fill="#fff"/><path fill-rule="evenodd" clip-rule="evenodd" d="M34.919 49.215c0 4.857 3.87 8.77 8.615 8.77s8.616-3.913 8.616-8.77c0-4.857-3.871-8.77-8.616-8.77-4.745 0-8.615 3.913-8.615 8.77zm8.615 11.725c-6.393 0-11.552-5.263-11.552-11.725S37.14 37.49 43.534 37.49c6.394 0 11.552 5.263 11.552 11.725S49.928 60.94 43.534 60.94z" fill="#fff"/><path d="M48.969 49.215c0-3.05-2.434-5.523-5.435-5.523-3.002 0-5.435 2.473-5.435 5.523s2.433 5.523 5.435 5.523 5.435-2.472 5.435-5.523z" fill="#fff"/><path fill-rule="evenodd" clip-rule="evenodd" d="M41.998 51.736c0-.668.538-1.209 1.201-1.209.858 0 1.176-.345 1.349-.644.227-.393.265-.865.265-1.007 0-.668.538-1.21 1.201-1.21s1.201.542 1.201 1.21c0 .348-.062 1.306-.59 2.22-.58 1.009-1.67 1.849-3.426 1.849a1.205 1.205 0 0 1-1.201-1.209z" fill="#0C0C0C"/></g><g filter="url(#filter1_d)" fill="#fff"><path d="M86.693 62.042c-2.241 0-3.947-.54-5.116-1.618-1.17-1.099-1.754-2.6-1.754-4.502 0-.588.058-1.206.175-1.853.234-1.413.604-3.158 1.111-5.237.624-2.491 1.715-4.443 3.275-5.855 1.578-1.412 3.664-2.118 6.256-2.118 1.56 0 2.865.245 3.918.735 1.072.49 1.87 1.157 2.397 2 .526.825.79 1.746.79 2.766 0 .353-.03.706-.088 1.06-.059.392-.254.588-.585.588h-1.55c-.467 0-.691-.216-.672-.647.02-.138.03-.324.03-.56 0-2.353-1.453-3.53-4.357-3.53-1.657 0-3.06.47-4.21 1.412-1.15.922-1.959 2.354-2.426 4.296a69.446 69.446 0 0 0-1.053 4.943 10.138 10.138 0 0 0-.175 1.794c0 2.59 1.374 3.884 4.122 3.884 1.481 0 2.738-.304 3.771-.912 1.053-.608 1.9-1.658 2.544-3.148.097-.236.205-.402.322-.5a.829.829 0 0 1 .496-.148h1.55c.175 0 .312.06.41.177.097.098.116.235.058.412-.526 1.863-1.54 3.423-3.04 4.678-1.482 1.255-3.548 1.883-6.199 1.883zm26.519-.294c-.195 0-.341-.06-.438-.177-.078-.137-.098-.304-.059-.5l4.035-19.212a.77.77 0 0 1 .292-.5.775.775 0 0 1 .526-.206h7.134c1.891 0 3.352.382 4.385 1.147 1.053.765 1.579 1.893 1.579 3.384 0 .49-.058 1.03-.175 1.618-.312 1.49-.936 2.716-1.871 3.678-.936.96-2.115 1.627-3.538 2l2.865 7.856a.654.654 0 0 1 .029.323.74.74 0 0 1-.292.412.661.661 0 0 1-.439.177h-1.286c-.292 0-.507-.07-.643-.206a2.04 2.04 0 0 1-.322-.589l-2.689-7.532h-5.234l-1.608 7.65a.832.832 0 0 1-.321.5.854.854 0 0 1-.527.177h-1.403zm9.297-10.74c2.943 0 4.668-1.245 5.175-3.736.078-.333.117-.686.117-1.059 0-1.785-1.247-2.677-3.742-2.677h-4.912l-1.549 7.473h4.911zm23.047 10.74c-.195 0-.341-.06-.439-.177a.622.622 0 0 1-.087-.5l4.034-19.212a.772.772 0 0 1 .293-.5.775.775 0 0 1 .526-.206h12.016c.214 0 .36.069.438.206.098.117.127.284.088.5l-.205 1.06a.753.753 0 0 1-.292.47.851.851 0 0 1-.526.176h-9.97l-1.403 6.561h9.326c.195 0 .341.069.439.206.097.118.127.285.088.5l-.205 1a.886.886 0 0 1-.292.5.78.78 0 0 1-.527.177h-9.326l-1.433 6.797h10.204c.195 0 .341.068.438.206.098.117.127.284.088.5l-.205 1.059a.88.88 0 0 1-.292.5.851.851 0 0 1-.526.177h-12.25zm31.239 0c-.195 0-.341-.06-.438-.177a.618.618 0 0 1-.088-.5l4.034-19.212a.772.772 0 0 1 .293-.5.775.775 0 0 1 .526-.206h12.016c.214 0 .361.069.439.206.097.117.126.284.087.5l-.204 1.06a.754.754 0 0 1-.293.47.851.851 0 0 1-.526.176h-9.969l-1.404 6.561h9.327c.194 0 .341.069.438.206.098.118.127.285.088.5l-.205 1a.88.88 0 0 1-.292.5.78.78 0 0 1-.527.177h-9.326l-1.432 6.797h10.203c.195 0 .341.068.439.206.097.117.126.284.087.5l-.204 1.059a.882.882 0 0 1-.293.5.851.851 0 0 1-.526.177h-12.25zm31.239 0c-.195 0-.341-.06-.438-.177a.618.618 0 0 1-.088-.5l4.035-19.212a.77.77 0 0 1 .292-.5.775.775 0 0 1 .526-.206h7.192c1.93 0 3.431.402 4.503 1.206 1.091.785 1.637 1.942 1.637 3.472 0 .49-.059 1.02-.176 1.588-.428 2.06-1.344 3.62-2.748 4.678-1.384 1.04-3.186 1.56-5.408 1.56h-5.497l-1.579 7.414a.88.88 0 0 1-.292.5.734.734 0 0 1-.497.177h-1.462zm9.268-10.474c1.423 0 2.612-.334 3.567-1 .974-.668 1.588-1.619 1.842-2.855.117-.529.175-1 .175-1.412 0-.823-.273-1.441-.818-1.853-.546-.412-1.482-.618-2.807-.618h-5.263l-1.666 7.738h4.97zm27.47 10.474c-.195 0-.341-.06-.438-.177a.618.618 0 0 1-.088-.5l3.684-17.388h-5.643c-.195 0-.341-.059-.438-.176a.618.618 0 0 1-.088-.5l.234-1.148a.832.832 0 0 1 .263-.5.813.813 0 0 1 .556-.206h14.004c.214 0 .37.069.467.206.098.117.127.284.088.5l-.263 1.147a.88.88 0 0 1-.292.5.737.737 0 0 1-.497.177h-5.614l-3.713 17.388a.88.88 0 0 1-.292.5.736.736 0 0 1-.497.177h-1.433zm31.935.294c-1.521 0-2.807-.216-3.86-.648-1.033-.45-1.812-1.049-2.338-1.794a4.185 4.185 0 0 1-.79-2.471c0-.236.01-.422.029-.56a.825.825 0 0 1 .205-.411.593.593 0 0 1 .439-.177h1.52c.351 0 .565.196.643.588-.019.824.322 1.54 1.023 2.148.721.589 1.793.883 3.216.883 1.657 0 2.982-.294 3.976-.883.994-.588 1.608-1.402 1.842-2.442.039-.137.059-.333.059-.588 0-.53-.185-.971-.556-1.324-.37-.353-.896-.677-1.579-.971-.682-.294-1.695-.657-3.04-1.089-1.754-.549-3.041-1.186-3.859-1.912-.819-.745-1.228-1.706-1.228-2.883 0-.51.049-.971.146-1.383.351-1.608 1.208-2.883 2.573-3.825 1.384-.96 3.177-1.441 5.379-1.441 1.365 0 2.534.235 3.509.706.974.45 1.705 1.05 2.192 1.794.507.726.76 1.471.76 2.236 0 .138-.019.324-.058.56-.078.411-.292.617-.643.617h-1.55a.617.617 0 0 1-.409-.147c-.117-.098-.185-.245-.205-.441.059-.824-.263-1.51-.964-2.06-.702-.568-1.618-.853-2.749-.853-1.345 0-2.485.265-3.42.794-.916.53-1.482 1.295-1.696 2.295a2.83 2.83 0 0 0-.088.677c0 .745.351 1.344 1.053 1.795.701.45 1.929.951 3.684 1.5 1.949.589 3.362 1.246 4.239 1.971.896.726 1.345 1.687 1.345 2.884a6.6 6.6 0 0 1-.147 1.265c-.389 1.843-1.325 3.236-2.806 4.178-1.482.941-3.431 1.412-5.847 1.412z"/></g><defs><filter id="filter0_d" x=".542" y=".755" width="85.983" height="91.724" filterUnits="userSpaceOnUse" color-interpolation-filters="sRGB"><feFlood flood-opacity="0" result="BackgroundImageFix"/><feColorMatrix in="SourceAlpha" values="0 0 0 0 0 0 0 0 0 0 0 0 0 0 0 0 0 0 127 0"/><feOffset/><feGaussianBlur stdDeviation="12.5"/><feColorMatrix values="0 0 0 0 1 0 0 0 0 1 0 0 0 0 1 0 0 0 0.8 0"/><feBlend in2="BackgroundImageFix" result="effect1_dropShadow"/><feBlend in="SourceGraphic" in2="effect1_dropShadow" result="shape"/></filter><filter id="filter1_d" x="56.823" y="17.859" width="253.146" height="67.183" filterUnits="userSpaceOnUse" color-interpolation-filters="sRGB"><feFlood flood-opacity="0" result="BackgroundImageFix"/><feColorMatrix in="SourceAlpha" values="0 0 0 0 0 0 0 0 0 0 0 0 0 0 0 0 0 0 127 0"/><feOffset/><feGaussianBlur stdDeviation="11.5"/><feColorMatrix values="0 0 0 0 1 0 0 0 0 1 0 0 0 0 1 0 0 0 0.8 0"/><feBlend in2="BackgroundImageFix" result="effect1_dropShadow"/><feBlend in="SourceGraphic" in2="effect1_dropShadow" result="shape"/></filter></defs></svg>