<svg xmlns="http://www.w3.org/2000/svg" viewBox="0 0 832.88 577.54"><defs><style>.cls-1{fill:#010101;stroke-miterlimit:10;stroke-width:4px;stroke:#fff}.cls-3{stroke:#fff;fill:none;stroke-linecap:round;stroke-linejoin:round;stroke-width:3.92px}.cls-4{fill:#fff}.cls-5{fill:#1d1d1d}</style></defs><g id="Camada_2" data-name="Camada 2"><g id="Layer_1" data-name="Layer 1"><path class="cls-1" d="M413.74 575.23L825.31 337.6 423.05 103.35 6.03 340.82l407.71 234.41z"/><path class="cls-1" d="M414.74 549.23L826.31 311.6 424.05 77.35 7.03 314.82l407.71 234.41z"/><path class="cls-1" d="M412.74 523.05l411.57-237.63L422.05 51.17 5.03 288.64l407.71 234.41z"/><path class="cls-1" d="M85.38 334.67l82.12-47.41-80.26-46.74L4.03 287.9l81.35 46.77zm83.35-47.33l82.12-47.41-80.26-46.75-83.21 47.39 81.35 46.77zM252.07 240l82.13-47.41-80.27-46.74-83.21 47.38L252.07 240zm83.35-47.33l82.13-47.41-80.27-46.74-83.21 47.38 81.35 46.77zm83.35-47.33l82.12-47.42-80.26-46.74-83.21 47.38 81.35 46.78z"/><path class="cls-1" d="M167.38 380.67l82.12-47.41-80.26-46.74-83.21 47.38 81.35 46.77zm83.35-47.33l82.12-47.41-80.26-46.75-83.21 47.39 81.35 46.77zM334.07 286l82.13-47.41-80.27-46.74-83.21 47.38L334.07 286zm83.35-47.33l82.13-47.41-80.27-46.74-83.21 47.38 81.35 46.77zm83.35-47.33l82.12-47.42-80.26-46.74-83.21 47.38 81.35 46.78z"/><path class="cls-1" d="M249.38 426.67l82.12-47.41-80.26-46.74-83.21 47.38 81.35 46.77zm83.35-47.33l82.12-47.41-80.27-46.75-83.2 47.39 81.35 46.77zM416.07 332l82.13-47.41-80.27-46.74-83.21 47.38L416.07 332zm83.35-47.33l82.13-47.41-80.27-46.74-83.21 47.38 81.35 46.77zm83.35-47.33l82.12-47.42-80.26-46.74-83.21 47.38 81.35 46.78z"/><path class="cls-1" d="M331.38 472.67l82.12-47.41-80.26-46.74-83.21 47.38 81.35 46.77zm83.35-47.33l82.12-47.41-80.27-46.75-83.2 47.39 81.35 46.77zM498.07 378l82.13-47.41-80.27-46.74-83.21 47.38L498.07 378zm83.35-47.33l82.13-47.41-80.27-46.74-83.21 47.38 81.35 46.77zm83.35-47.33l82.12-47.42-80.26-46.74-83.21 47.38 81.35 46.78z"/><path class="cls-1" d="M413.38 518.67l82.12-47.41-80.26-46.74-83.21 47.38 81.35 46.77zm83.35-47.33l82.12-47.41-80.27-46.75-83.2 47.39 81.35 46.77zM580.08 424l82.12-47.41-80.27-46.74-83.21 47.38L580.08 424zm83.34-47.33l82.13-47.41-80.27-46.74-83.21 47.38 81.35 46.77zm83.35-47.33l82.12-47.42-80.26-46.74-83.21 47.38 81.35 46.78z"/><path d="M606 26.66a2 2 0 0 0-.52-.19L560.09.26a2 2 0 0 0-2.29.24l-.16.07L533 15.2c-.53.32-.55.84-.63 1.4-.22.32-.05.7-.05 1.12v21.67l-12 7h-.21a2.21 2.21 0 0 0-1.42.22L451.1 85.63a2 2 0 0 0-.93 1.22 2.57 2.57 0 0 0-.42.45l-18.25 28.79-9.31-5.37a2 2 0 0 0-2.28.23l-.15.07-51.6 30.65a1.76 1.76 0 0 0-.64 2c0 .07.28.14.28.21v15l-41.84 24-15.67-9 3.66-2.16a3.51 3.51 0 0 0 1.23-4.79 3.53 3.53 0 0 0-3.07-1.73 3.47 3.47 0 0 0-1.76.45l-17.15 9.88a3.53 3.53 0 0 0-1.29 4.81 3.39 3.39 0 0 0 .51.67l-25.7 15a1.94 1.94 0 0 0-1.35 1.75s.29 0 .29.06.3 0 .3 0v19.9l-63.56 36.66a2.12 2.12 0 0 0-1.1 1.43s-.09.05-.09.07a1.55 1.55 0 0 0 0 .21v.28h.29c0 .09.27.18.27.27v22.71s-.29.08-.29.12a2.09 2.09 0 0 0 1.12 1.82l16.4 9.39v23.93s-.29.07-.28.11a1.82 1.82 0 0 0 .82 1.82l113.12 65.36.19.09a3.35 3.35 0 0 0 1.42.45 1.88 1.88 0 0 0 1-.26l253.57-146.43a1.93 1.93 0 0 0 1.44-.88l45-71.05h.06a2 2 0 0 0 .69-.66l10.51-17a2.12 2.12 0 0 0 .11-.21l37.68-59.44a1.9 1.9 0 0 0 .27-.68 2.28 2.28 0 0 0-1.59-3.07l-62.52-36.35a2.61 2.61 0 0 1-.45-.25V46c0-.22-.34-.43-.41-.63a2 2 0 0 0-1-1.27l-11.46-6.6" fill="#030303"/><path class="cls-3" d="M682.53 84.89l-117.08 67.73m-25.21 39.31L316.48 321.37m366.05-235.7l-94.09 148.42m-23.64-80.45l-24.11 38.04m47.5 42.34L334.02 380.76m-.3-.07v-27.42m-.08-.53l-16.78-7.08m-.38-1.01v-23.5M519.39 48.54L451.86 87.6M267.13 219.19l-64.24 37.16m165.6-95.79l-42.55 24.61m125.27-96.55l-19.1 30.14M220.13 314.89V290.6m-17.24-10.97v-22.71m137.88 11.22L301.6 291.1v-73.29l39.17-22.96v73.29zm-73.64-69.91l34.47-20.08m-34.47 92.87v-72.86m147.28 45l-26.64 15.2v-24.3l26.64-15.2v24.3zm26.63-15.2l-26.63 15.2v-24.3l26.63-15.2v24.3z"/><path class="cls-3" d="M466.89 212.76l-25.85 15.2v-24.3l25.85-15.19v24.29zm26.64-15.19l-26.64 15.19v-24.29l26.64-15.2v24.3zm-14.1-16.51l-25.86 15.2v-24.3l25.86-15.2v24.3z"/><path class="cls-3" d="M466.89 164.17l-25.85 15.2v-24.3l25.85-15.2v24.3zm-138.65 68.74l-15.67 8.55v-14.03l15.67-8.56v14.04z"/><path class="cls-3" d="M441.04 179.08l-26.63 15.2v-24.3l26.63-15.2v24.3zm12.53 17.18l-25.85 15.2v-24.3l25.85-15.2v24.3z"/><path class="cls-3" d="M427.72 211.46l-26.63 15.2v-24.3l26.63-15.2v24.3zm-58.75-67.84l51.61-30.64m-51.61 54.63v-23.5M533.48 41.49v-23.5m-13.32 54.05v-23.5m-13.32 54.83v-23.5M354.87 198.95v-23.5m.78-.51l12.84-7.33m265.72-5.25L316.49 345.58v-10.83l328.24-189.41-10.52 17.02zM306.1 174.25l34.28 19.79m-137.49 62.33l113.2 65.36m53.39-177.17l45.46 26.24m-19.01-42.52l45.46 26.25m-20.37-41.85l45.46 26.25m.86 10.69l12.02 6.94m1.54 9.34l12.03 6.94m-137.69 2.91L400.7 202m-59.93 28.28v-23.5m.78-.51l12.84-7.32m-13.25 8.14l45.46 26.24m-31.36-34.41l44.67 25.8m-59.14 6.77l46.61 26.91m-119.77-60.26l33.6 19.4m-33.73 54.17l33.73 19.47m67.59-123.57l45.46 26.25m167.01-77.92l-26.64 15.2v-24.3l26.64-15.2v24.3zm25.85-15.2l-25.85 15.2v-24.3l25.85-15.2v24.3zm26.63-15.19l-26.63 15.19v-24.3l26.63-15.19v24.3z"/><path class="cls-3" d="M617.3 70.61L591.45 85.8V61.51l25.85-15.2v24.3zm-12.53-17.68l-25.85 15.2v-24.3l25.85-15.2v24.3z"/><path class="cls-3" d="M591.45 85.02l-25.85 15.2v-24.3l25.85-15.2v24.3zM533.8 17.16l24.65-14.64m-24.65 15.3l45.46 26.25m-58.78 4.42l12.07-7.17m-25.38 37.72l12.07-7.16m1.24-22.72l45.46 26.24m-57.99 4.31l45.46 26.25M519.7 71.88l45.46 26.24m-58.32 5.57l47.35 27.34M533.8 41.32l45.46 26.25M558.89 2.23l45.46 26.24m.87 10.69l12.02 6.95m.99 5.95l15.46 8.93m-430.8 218.89l113.2 65.35m-95.96-30.1l113.2 65.35m285.7-332.1l63.68 36.77m-215.82 63.14l72.47 41.83M451.97 87.6l112.45 64.92"/><path class="cls-4" d="M294.78 193.39a2.75 2.75 0 0 1-2.38-1.39 2.75 2.75 0 0 1 1-3.74l17.16-9.91a2.71 2.71 0 0 1 1.36-.36 2.75 2.75 0 0 1 2.38 1.37 2.7 2.7 0 0 1 .27 2.08 2.66 2.66 0 0 1-1.27 1.66l-17.15 9.9a2.78 2.78 0 0 1-1.37.39z"/><path class="cls-5" d="M311.92 178.79a2 2 0 0 1 1 3.66l-17.16 9.9a1.91 1.91 0 0 1-1 .26 2 2 0 0 1-1-3.65l17.24-9.91a2 2 0 0 1 1-.26m0-1.57a3.55 3.55 0 0 0-1.76.48L293 187.6a3.5 3.5 0 0 0-1.64 2.14 3.52 3.52 0 0 0 3.41 4.44 3.48 3.48 0 0 0 1.75-.47l17.16-9.91a3.5 3.5 0 0 0 1.64-2.14A3.46 3.46 0 0 0 315 179a3.54 3.54 0 0 0-3.06-1.77z"/><path class="cls-4" d="M294.78 181.64a2.74 2.74 0 0 1-1.38-5.11l17.16-9.91a2.69 2.69 0 0 1 1.36-.36 2.74 2.74 0 0 1 1.38 5.11l-17.15 9.91a2.75 2.75 0 0 1-1.37.36z"/><path class="cls-5" d="M311.92 167a2 2 0 0 1 1 3.66l-17.16 9.9a1.91 1.91 0 0 1-1 .26 2 2 0 0 1-1-3.65L311 167.3a1.91 1.91 0 0 1 1-.26m0-1.57a3.55 3.55 0 0 0-1.76.48l-17.24 9.9a3.53 3.53 0 0 0 1.77 6.58 3.58 3.58 0 0 0 1.75-.47l17.16-9.91a3.53 3.53 0 0 0-1.77-6.58z"/><path class="cls-3" d="M303.17 200.51v-25.85"/></g></g></svg>