<svg width="1391" height="424" viewBox="0 0 1391 424" fill="none" xmlns="http://www.w3.org/2000/svg">
<path d="M264.457 10.4821H629.913" stroke="white" stroke-linecap="round" stroke-dasharray="1 3"/>
<path d="M266.444 413.55H632.76" stroke="white" stroke-linecap="round" stroke-dasharray="1 3"/>
<path d="M750.076 413.55H1085.24" stroke="white" stroke-linecap="round" stroke-dasharray="1 3"/>
<path d="M748.09 10.4821H1086.73" stroke="white" stroke-linecap="round" stroke-dasharray="1 3"/>
<path d="M443.213 0.55127L453.065 10.4035L443.213 20.2557" stroke="white"/>
<path d="M443.213 403.619L453.065 413.471L443.213 423.323" stroke="white"/>
<path d="M931 403.619L940.852 413.471L931 423.323" stroke="white"/>
<path d="M928 0.55127L937.852 10.4035L928 20.2557" stroke="white"/>
<path d="M938 293.553L928.148 303.405L938 313.257" stroke="white"/>
<path d="M453.144 293.553L443.291 303.405L453.144 313.257" stroke="white"/>
<path d="M245.589 303.483H1243C1324.19 303.483 1390 237.671 1390 156.486V156.486C1390 75.3019 1324.19 9.48901 1243 9.48901H1204.88" stroke="white" stroke-linecap="round" stroke-dasharray="1 3"/>
<path d="M246 303.127L55.5 303.127C25.4005 303.127 1.00001 327.528 1 357.627V357.627C1 387.727 25.4005 412.127 55.5 412.127L153.362 412.127" stroke="white" stroke-linecap="round" stroke-dasharray="1 3"/>
</svg>
