<?xml version="1.0" encoding="utf-8"?>
<!-- Generator: Adobe Illustrator 22.1.0, SVG Export Plug-In . SVG Version: 6.00 Build 0)  -->
<svg version="1.1" id="Layer_1" xmlns="http://www.w3.org/2000/svg" xmlns:xlink="http://www.w3.org/1999/xlink" x="0px" y="0px"
	 viewBox="0 0 294 290" style="enable-background:new 0 0 294 290;" xml:space="preserve">
<style type="text/css">
	.st0{stroke:#000000;stroke-width:3;stroke-linecap:round;stroke-linejoin:round;stroke-miterlimit:10;}
	.st1{enable-background:new    ;}
	.st2{fill:#FFFFFF;}
	.st3{fill:#FFFFFF;stroke:#000000;stroke-miterlimit:10;}
	.st4{fill:none;stroke:#000000;stroke-linecap:round;stroke-linejoin:round;stroke-miterlimit:10;}
	.st5{fill:none;stroke:#000000;stroke-width:1.0702;stroke-linecap:round;stroke-linejoin:round;stroke-miterlimit:10;}
	.st6{fill:none;stroke:#000000;stroke-width:0.5;stroke-linecap:round;stroke-linejoin:round;stroke-miterlimit:10;}
	.st7{fill:none;stroke:#000000;stroke-miterlimit:10;}
	.st8{fill:#FFFFFF;stroke:#000000;stroke-linecap:round;stroke-linejoin:round;stroke-miterlimit:10;}
	.st9{fill:none;stroke:#000000;stroke-width:0.617;stroke-linecap:round;stroke-linejoin:round;stroke-miterlimit:10;}
	.st10{fill:none;stroke:#000000;stroke-width:0.9204;stroke-linecap:round;stroke-linejoin:round;stroke-miterlimit:10;}
	.st11{fill-rule:evenodd;clip-rule:evenodd;stroke:#FFFFFF;stroke-width:0.4;stroke-miterlimit:10;}
</style>
<g>
	<g>
		<polygon class="st0" points="178.2,142 144.1,161.7 109.9,142 143.9,122.2 		"/>
	</g>
	<g>
		<polygon class="st0" points="128.8,170.6 94.8,190.4 60.5,170.6 94.6,150.9 		"/>
	</g>
	<g>
		<polygon class="st0" points="230.9,172.4 196.9,192.2 162.6,172.4 196.7,152.7 		"/>
	</g>
	<g>
		<path class="st0" d="M112.9,201l34.2,19.8l34-19.8l-34.2-19.8L112.9,201z"/>
	</g>
	<g>
		<polygon class="st0" points="79.5,199.3 45.5,219.1 11.2,199.3 45.2,179.5 		"/>
	</g>
	<g>
		<polygon class="st0" points="283.7,202.9 249.7,222.7 215.4,202.9 249.4,183.1 		"/>
	</g>
	<g>
		<polygon class="st0" points="132.3,229.8 98.2,249.5 64,229.8 98,210 		"/>
	</g>
	<g>
		<polygon class="st0" points="234.4,231.6 200.3,251.3 166.1,231.6 200.1,211.8 		"/>
	</g>
	<g>
		<polygon class="st0" points="185,260.2 151,280 116.7,260.2 150.8,240.5 		"/>
	</g>
</g>
<g>
	<g>
		<path d="M142.2,199.9C142.2,199.9,142.2,199.9,142.2,199.9C142.2,199.9,142.2,199.9,142.2,199.9z"/>
	</g>
	<g class="st1">
		<g>
			<polygon points="125.9,151 126.7,151.4 112.8,159.5 112,159.1 			"/>
		</g>
		<g>
			<polygon class="st2" points="178.2,140.9 144.1,160.7 109.9,140.9 143.9,121.1 			"/>
		</g>
		<g>
			<polygon points="161.5,151.4 162.2,151 179.3,160.9 178.6,161.3 			"/>
		</g>
		<g>
			<path d="M179.4,140.9c0,0.1,0,0.2-0.1,0.2l-17,9.9l-0.7,0.4l-1.6,0.9l-0.7,0.4l-1.9,1.1l-0.7,0.4l-1.7,1l-0.7,0.4l-2.1,1.2
				l-0.7,0.4l-6.8,4c-0.1,0.1-0.2,0.1-0.4,0.1c-0.1,0-0.3,0-0.4-0.1l-17.1-9.9l-0.7-0.4l-17.1-9.9c-0.1-0.1-0.1-0.1-0.1-0.2
				c0-0.1,0-0.1,0.1-0.2l34.7-20.2c0.1-0.1,0.2-0.1,0.4-0.1c0.1,0,0.3,0,0.4,0.1l35,20.2C179.3,140.7,179.4,140.8,179.4,140.9z
				 M144.1,160.7l34-19.8l-34.3-19.8l-34,19.8L144.1,160.7"/>
		</g>
		<g>
			<path d="M142.5,173.4l0,6.2l2,1.1l-0.7,0.4l-2.1-1.2c-0.1-0.1-0.1-0.1-0.2-0.2l0-6.5c0-0.1,0.1-0.2,0.2-0.2l23.7-13.8l-8.8-5.1
				l0.7-0.4l9.1,5.3c0.1,0.1,0.1,0.1,0.1,0.2c0,0.1,0,0.2-0.1,0.2L142.5,173.4z"/>
		</g>
		<g>
			<path d="M153.7,179.9c0,0.1,0,0.2-0.1,0.2l-2.7,1.6l-0.7-0.4l2.5-1.5l0-8.2c0-0.1,0.1-0.2,0.1-0.2l19.3-11.2l-12.9-7.4l0.7-0.4
				l13.2,7.6c0.1,0.1,0.2,0.1,0.1,0.2c0,0.1,0,0.1-0.1,0.2l-19.5,11.3L153.7,179.9z"/>
		</g>
		<g>
			<path d="M139.2,172.7l0,7.9l2.7,1.6l-0.7,0.4l-2.9-1.7c-0.1-0.1-0.1-0.1-0.2-0.2l0-8.2c0-0.1,0.1-0.1,0.1-0.2l22.2-12.9l-6.5-3.8
				l0.7-0.4l6.9,4c0.1,0.1,0.1,0.1,0.1,0.2c0,0.1,0,0.2-0.1,0.2L139.2,172.7z"/>
		</g>
		<g>
			<polygon points="166.6,174.5 167.4,174.9 153.3,183.1 152.6,182.6 			"/>
		</g>
		<g>
			<path d="M136,181.7l1.3,0.8l2.1,1.2l-0.7,0.4l-2.1-1.2l-1.5-0.9c-0.1-0.1-0.2-0.1-0.2-0.2l-0.1-10.7c0-0.1,0.1-0.2,0.1-0.2
				l19.8-11.5l-3.6-2.1l0.7-0.4l4,2.3c0.1,0.1,0.1,0.1,0.2,0.2c0,0.1-0.1,0.2-0.2,0.2l-20.1,11.7L136,181.7z"/>
		</g>
		<g>
			<polygon points="169.1,175.9 169.8,176.3 155.8,184.5 155.1,184.1 			"/>
		</g>
		<g>
			<path d="M132.8,173l0.1,9.7l4.1,2.4l-0.7,0.4l-4.3-2.5c-0.1-0.1-0.1-0.1-0.1-0.2l-0.1-9.7l-3.9-2.2l0.7-0.4l4,2.3
				C132.8,172.9,132.8,172.9,132.8,173z"/>
		</g>
		<g>
			<polygon points="172.3,177.7 158.2,185.9 157.5,185.5 171.5,177.3 			"/>
		</g>
		<g>
			<path d="M129.2,174.4l0.1,9l5.4,3.1l-0.7,0.4l-5.5-3.2c-0.1-0.1-0.1-0.1-0.1-0.2l-0.1-9l-3.3-1.9l0.7-0.4l3.4,2
				C129.1,174.3,129.2,174.4,129.2,174.4z"/>
		</g>
		<g>
			<path d="M174.7,179.1c0,0.1-0.1,0.1-0.1,0.1l-13.8,8l-0.7-0.4l13.8-8c0.1,0,0.2-0.1,0.2-0.1L174.7,179.1z"/>
		</g>
		<g>
			<polygon points="62.7,187.7 76.6,179.7 77.3,180.1 63.4,188.1 			"/>
		</g>
		<g>
			<path d="M115.2,178.3c0.1,0,0.2,0,0.3,0.1l16.6,9.6l-0.7,0.4l-16.6-9.6c-0.1,0-0.1-0.1-0.1-0.2L115.2,178.3z"/>
		</g>
		<g>
			<polygon points="176.4,180.1 177.2,180.6 163.1,188.7 162.4,188.3 			"/>
		</g>
		<g>
			<polygon class="st2" points="128.8,169.6 94.8,189.3 60.5,169.6 94.6,149.8 			"/>
		</g>
		<g>
			<path d="M122,185.1c0.1,0,0.3,0,0.4,0.1l7.3,4.2l-0.7,0.4l-7.2-4.1l-6.2,0c-0.1,0-0.3,0-0.4-0.1l-6.3-3.6l0.7-0.4l6.1,3.5H122z"
				/>
		</g>
		<g>
			<polygon points="178.8,181.5 179.5,181.9 165.5,190.1 164.7,189.6 			"/>
		</g>
		<g>
			<path d="M130,169.6c0,0.1,0,0.2-0.1,0.2l-1.2,0.7l-0.7,0.4l-2.3,1.4l-0.7,0.4l-9.7,5.6l-0.6,0.3l-5,2.9l-0.7,0.4l-1.8,1.1
				l-0.7,0.4l-1.9,1.1l-0.7,0.4l-1.8,1l-0.7,0.4l-6.2,3.6c-0.1,0.1-0.2,0.1-0.4,0.1c-0.1,0-0.3,0-0.4-0.1l-17.1-9.9l-0.7-0.4
				l-17.1-9.9c-0.1-0.1-0.1-0.1-0.2-0.2c0-0.1,0.1-0.2,0.1-0.2l34.7-20.2c0.1-0.1,0.2-0.1,0.3-0.1c0.1,0,0.3,0,0.4,0.1l17.1,9.9
				l0.7,0.4l17.1,9.9C130,169.4,130,169.5,130,169.6z M94.8,189.3l34-19.8l-34.3-19.8l-34,19.8L94.8,189.3"/>
		</g>
		<g>
			<polygon class="st2" points="230.9,171.4 196.9,191.1 162.6,171.4 196.7,151.6 			"/>
		</g>
		<g>
			<path d="M120.5,187.1c0.1,0,0.3,0,0.4,0.1l6.3,3.7l-0.7,0.4l-6.2-3.6l-6.3,0c-0.1,0-0.3,0-0.4-0.1l-7.2-4.2l0.7-0.4l7.1,4.1
				L120.5,187.1z"/>
		</g>
		<g>
			<polygon points="181.3,183 182.1,183.4 168,191.5 167.3,191.1 			"/>
		</g>
		<g>
			<polygon points="215,181.5 232.1,191.3 231.4,191.7 214.3,181.9 			"/>
		</g>
		<g>
			<path d="M232.1,171.4c0,0.1-0.1,0.2-0.2,0.2l-17,9.9l-0.7,0.4l-17,9.9c-0.1,0.1-0.2,0.1-0.3,0.1c-0.1,0-0.3,0-0.4-0.1l-5-2.9
				l-0.7-0.4l-2.7-1.6l-0.7-0.4l-5.3-3.1l-0.7-0.4l-1.9-1.1l-0.7-0.4l-1.6-0.9l-0.7-0.4l-1.8-1l-0.6-0.4l-1.8-1l-0.7-0.4l-1.7-1
				l-0.7-0.4l-1.7-1l-0.7-0.4l-5.1-2.9c-0.1-0.1-0.1-0.1-0.1-0.2c0-0.1,0-0.2,0.1-0.2l17-9.9l0.7-0.4l17-9.9
				c0.1-0.1,0.2-0.1,0.4-0.1c0.1,0,0.3,0,0.4,0.1l35,20.2C232.1,171.2,232.1,171.3,232.1,171.4z M196.9,191.1l34-19.8l-34.3-19.8
				l-34,19.8L196.9,191.1"/>
		</g>
		<g>
			<path d="M119.6,189.3c0.1,0,0.3,0,0.4,0.1l4.8,2.8l-0.7,0.4l-4.7-2.7h-6.7c-0.1,0-0.3,0-0.4-0.1l-8.5-4.9l0.7-0.4l8.4,4.8
				L119.6,189.3z"/>
		</g>
		<g>
			<path d="M188.1,186.9l-2,1.2c-0.1,0.1-0.2,0.1-0.4,0.1l-7,0l-8.3,4.8l-0.7-0.4l8.4-4.9c0.1-0.1,0.2-0.1,0.4-0.1l7,0l1.9-1.1
				L188.1,186.9z"/>
		</g>
		<g>
			<path d="M118.4,191.6c0.1,0,0.3,0,0.4,0.1l3.5,2l-0.7,0.4l-3.4-2l-6.7,0c-0.1,0-0.3,0-0.4-0.1l-9.8-5.7l0.7-0.4l9.7,5.6
				L118.4,191.6z"/>
		</g>
		<g>
			<path d="M190.8,188.4l0.7,0.4l-2.8,1.6c-0.1,0.1-0.2,0.1-0.4,0.1h-8.9l-6.5,3.8l-0.7-0.4l6.7-3.9c0.1-0.1,0.2-0.1,0.4-0.1l8.9,0
				L190.8,188.4z"/>
		</g>
		<g>
			<path d="M116.4,193.3c0.1,0,0.3,0,0.4,0.1l3,1.8l-0.7,0.4l-2.9-1.7H86.7c-0.1,0-0.3,0-0.4-0.1l-6.7-3.9l-6.6,3.8l-0.7-0.4l6.9-4
				c0.1-0.1,0.2-0.1,0.3-0.1c0.1,0,0.3,0,0.4,0.1l6.9,4H116.4z"/>
		</g>
		<g>
			<path d="M215.2,185.2l13.6,8l-0.7,0.4l-13.3-7.7l-14.1,8c-0.1,0.1-0.2,0.1-0.4,0.1h-21.8l-3.3,1.9l-0.7-0.4l3.4-2
				c0.1-0.1,0.2-0.1,0.4-0.1l21.8,0l14.3-8.1c0.1-0.1,0.2-0.1,0.4-0.1C215,185.2,215.1,185.2,215.2,185.2z"/>
		</g>
		<g>
			<path d="M114.8,195.2c0.1,0,0.3,0,0.4,0.1l2.2,1.3l-0.7,0.4l-2.1-1.2l-28.9,0c-0.1,0-0.3,0-0.4-0.1l-5.8-3.4l-4.5,2.6l-0.7-0.4
				l4.8-2.8c0.1-0.1,0.2-0.1,0.4-0.1c0.1,0,0.3,0,0.4,0.1l6,3.5L114.8,195.2z"/>
		</g>
		<g>
			<path d="M214.9,188.9l10.8,6.2l-0.7,0.4l-10.4-5.9l-10.6,6.1c-0.1,0.1-0.2,0.1-0.4,0.1h-23.1l-2.7,1.5l-0.7-0.4l2.8-1.6
				c0.1-0.1,0.2-0.1,0.4-0.1l23.1,0l10.8-6.3c0.1-0.1,0.2-0.1,0.3-0.1C214.7,188.8,214.8,188.8,214.9,188.9z"/>
		</g>
		<g>
			<path d="M149.6,197.9c0.1,0.1,0,0.2,0,0.3l0,0C149.6,198,149.6,197.9,149.6,197.9z"/>
		</g>
		<g>
			<path d="M113.2,197c0.1,0,0.3,0,0.4,0.1l1.5,0.8l-0.7,0.4l-1.3-0.8H84.1c-0.1,0-0.3,0-0.4-0.1l-4.6-2.6l-2.1,1.2l-0.7-0.4
				l2.4-1.4c0.1-0.1,0.2-0.1,0.4-0.1c0.1,0,0.3,0,0.4,0.1l4.8,2.7H113.2z"/>
		</g>
		<g>
			<path d="M215,192.1l7.9,4.5l-0.7,0.4l-7.5-4.3l-8.6,5c-0.1,0.1-0.2,0.1-0.4,0.1h-24l-1.5,0.8l-0.7-0.4l1.6-0.9
				c0.1-0.1,0.2-0.1,0.4-0.1l24,0l8.8-5.1c0.1-0.1,0.2-0.1,0.3-0.1C214.8,192,214.9,192,215,192.1z"/>
		</g>
		<g>
			<path d="M152.7,199.6c-0.1,0-0.2-0.1-0.4,0l0.1,0C152.5,199.6,152.6,199.6,152.7,199.6z"/>
		</g>
		<g>
			<path class="st2" d="M149.4,197.7C149.4,197.7,149.4,197.7,149.4,197.7l-2.5-1.5l8-0.2l-2.8,3.6l-3.8,0.1l1.3-1.6
				c0.1-0.1,0.1-0.2,0-0.3C149.5,197.8,149.5,197.8,149.4,197.7z"/>
		</g>
		<g>
			<path d="M149.5,198.1l-1.3,1.6l-1.1,0l1.4-1.7l0.1-0.2c0.1-0.1,0.4-0.2,0.7-0.1c0,0,0.1,0,0.1,0c0,0,0,0,0,0c0,0,0.1,0.1,0.1,0.1
				c0,0,0,0,0,0C149.6,197.9,149.6,198,149.5,198.1L149.5,198.1z"/>
		</g>
		<g>
			<path d="M148,203.8l1,0.6l-9.8,0.3c-0.1,0-0.3,0-0.4-0.1c0,0,0,0-0.1,0c-0.1-0.1-0.1-0.2,0-0.3l3.1-4l0.1-0.2c0,0,0,0.1,0,0.1
				c0,0.1,0.1,0.1,0.1,0.2c0.1,0.1,0.2,0.1,0.4,0.1l0.3,0L140,204L148,203.8z"/>
		</g>
		<g>
			<polygon class="st2" points="148.5,198 147.1,199.7 142.6,199.9 139.7,198.2 142.5,194.6 			"/>
		</g>
		<g>
			<path class="st2" d="M152.2,200.2l3,1.7l-2.8,3.6l-2.9-1.7c0,0,0,0,0,0c0,0,0,0,0,0l-3.1-1.8l1.4-1.8L152.2,200.2z"/>
		</g>
		<g>
			<path d="M153,206.1c-0.1,0.1-0.2,0.1-0.4,0.2c-0.2,0-0.3,0-0.4-0.1l-3.2-1.9l-1-0.6l-2.5-1.5c-0.1-0.1-0.2-0.2-0.1-0.3l1.3-1.7
				l1.1,0l-1.4,1.8l3.1,1.8l0,0l2.9,1.7l2.8-3.6l-3-1.7l0.2,0c0.3,0,0.5-0.1,0.5-0.3c0-0.1-0.1-0.1-0.1-0.2l0.2,0.1l3.1,1.8
				c0.1,0.1,0.2,0.2,0.1,0.3L153,206.1z"/>
		</g>
		<g>
			<path d="M182.4,200c0,0.1-0.1,0.2-0.2,0.2l-2.1,1.2l-0.7,0.4l-1.7,1l-0.7,0.4l-1.9,1.1l-0.7,0.4l-1.7,1l-0.7,0.4l-1.7,1l-0.7,0.4
				l-1.7,1l-0.7,0.4l-1.8,1l-0.7,0.4l-1.7,1l-0.7,0.4l-1.7,1l-0.7,0.4l-1.8,1.1l-0.7,0.4l-1.7,1l-0.7,0.4l-1.7,1l-0.7,0.4l-1.7,1
				l-0.7,0.4l-2.4,1.4c-0.1,0.1-0.2,0.1-0.4,0.1c-0.1,0-0.3,0-0.4-0.1l-2-1.1l-0.7-0.4l-1.7-1l-0.7-0.4l-1.7-1l-0.7-0.4l-1.7-1
				l-0.7-0.4l-1.7-1l-0.7-0.4l-1.7-1l-0.7-0.4l-1.9-1.1l-0.7-0.4l-1.6-0.9l-0.7-0.4l-1.7-1l-0.7-0.4l-1.7-1l-0.7-0.4l-1.7-1
				l-0.7-0.4l-1.7-1l-0.7-0.4l-1.7-1l-0.7-0.4l-2.9-1.7c-0.1-0.1-0.1-0.1-0.1-0.2c0-0.1,0.1-0.2,0.1-0.2l2.4-1.4l0.7-0.4l1.7-1
				l0.7-0.4l1.7-1l0.7-0.4l1.7-1l0.7-0.4l1.8-1.1l0.7-0.4l1.7-1l0.7-0.4l1.7-1l0.7-0.4l1.8-1l0.7-0.4l1.7-1l0.7-0.4l1.7-1l0.7-0.4
				l1.7-1l0.7-0.4l1.9-1.1l0.7-0.4l1.7-1l0.7-0.4l2.1-1.2c0.1-0.1,0.2-0.1,0.4-0.1c0.1,0,0.3,0,0.4,0.1l2.9,1.7l0.7,0.4l1.7,1
				l0.7,0.4l1.7,1l0.7,0.4l1.7,1l0.7,0.4l1.7,1l0.7,0.4l1.7,1l0.7,0.4l1.6,0.9l0.7,0.4l1.9,1.1l0.7,0.4l1.7,1l0.7,0.4l1.7,1l0.7,0.4
				l1.7,1l0.7,0.4l1.7,1l0.7,0.4l1.7,1l0.7,0.4l2,1.1C182.3,199.8,182.4,199.9,182.4,200z M147.2,219.7l34-19.8l-34.2-19.8l-34,19.8
				L147.2,219.7"/>
		</g>
		<g>
			<path class="st2" d="M145.4,202c-0.1,0.1,0,0.2,0.1,0.3l2.5,1.5l-8,0.2l2.8-3.6l3.9-0.1L145.4,202z"/>
		</g>
		<g>
			<path class="st2" d="M112.9,200l34.2,19.8l34-19.8l-34.2-19.8L112.9,200z M150.7,184.7l22.7,13.1c2,1.2,2.1,3.1,0,4.3l-22.5,13.1
				c-2,1.2-5.4,1.2-7.4,0l-22.7-13.1c-2.1-1.2-2.1-3.1,0-4.3l22.5-13.1C145.3,183.5,148.6,183.5,150.7,184.7"/>
		</g>
		<g>
			<path d="M152.8,199.7C152.8,199.7,152.8,199.7,152.8,199.7c0.1,0.1,0.1,0.1,0.1,0.2c0,0.2-0.2,0.3-0.5,0.3l-0.2,0l-4.4,0.1
				l-1.1,0l-3.9,0.1l-0.3,0c-0.1,0-0.3,0-0.4-0.1c-0.1,0-0.1-0.1-0.1-0.2c0,0,0-0.1,0-0.1c0,0,0,0,0,0c0,0,0.1-0.1,0.2-0.1
				c0,0,0,0,0,0c0,0,0,0,0,0c0,0,0,0,0,0c0,0,0,0,0.1,0c0,0,0,0,0.1,0l0.2,0l4.5-0.1l1.1,0l3.8-0.1l0.2,0l0.1,0
				C152.5,199.6,152.6,199.6,152.8,199.7C152.7,199.6,152.7,199.6,152.8,199.7C152.7,199.7,152.8,199.7,152.8,199.7z"/>
		</g>
		<g>
			<path d="M142.4,199.9C142.4,199.9,142.4,199.9,142.4,199.9C142.4,199.9,142.4,199.9,142.4,199.9L142.4,199.9z"/>
		</g>
		<g>
			<path d="M148.5,198l0.1-0.2c0.1-0.1,0.4-0.2,0.7-0.1c0,0,0.1,0,0.1,0l-2.5-1.5l-1.1,0c-0.1,0-0.3,0-0.4-0.1
				c-0.1,0-0.1-0.1-0.2-0.2c0-0.2,0.2-0.3,0.5-0.3l0.2,0l-3.2-1.9c-0.1-0.1-0.3-0.1-0.4-0.1c-0.2,0-0.3,0.1-0.4,0.2l-3.3,4.2
				c-0.1,0.1,0,0.2,0.1,0.3l3.1,1.8l0.2-0.2c0,0,0,0,0,0c0,0,0.1-0.1,0.2-0.1c0,0,0,0,0.1,0c0,0,0,0,0,0c0,0,0,0,0,0c0,0,0,0,0.1,0
				l0.2,0l-2.9-1.7l2.8-3.6L148.5,198z"/>
		</g>
		<g>
			<path class="st2" d="M172.6,198.2L150,185.1c-0.8-0.5-1.9-0.7-3-0.7c-1.1,0-2.2,0.2-3,0.7l-22.5,13.1c-0.8,0.5-1.2,1.1-1.2,1.7
				c0,0.6,0.4,1.3,1.3,1.7l22.7,13.1c0.8,0.5,1.9,0.7,3,0.7c1.1,0,2.2-0.2,3-0.7l22.5-13.1c0.8-0.5,1.2-1.1,1.2-1.7
				C173.9,199.3,173.5,198.7,172.6,198.2z M156.3,202l-3.3,4.2c-0.1,0.1-0.2,0.1-0.4,0.2c-0.2,0-0.3,0-0.4-0.1l-3.2-1.9l-9.8,0.3
				c-0.1,0-0.3,0-0.4-0.1c0,0,0,0-0.1,0c-0.1-0.1-0.1-0.2,0-0.3l3.1-4l-3.1-1.8c-0.1-0.1-0.2-0.2-0.1-0.3l3.3-4.2
				c0.1-0.1,0.2-0.1,0.4-0.2c0.2,0,0.3,0,0.4,0.1l3.2,1.9l9.7-0.3c0.1,0,0.3,0,0.4,0.1c0,0,0,0,0.1,0c0.1,0.1,0.1,0.2,0,0.3l-3.1,4
				l3.1,1.8C156.3,201.7,156.4,201.9,156.3,202"/>
		</g>
		<g>
			<path d="M156.1,195.9c0.1-0.1,0.1-0.2,0-0.3c0,0,0,0-0.1,0c-0.1-0.1-0.2-0.1-0.4-0.1l-9.7,0.3l-0.2,0c-0.3,0-0.5,0.1-0.5,0.3
				c0,0,0,0,0,0c0,0,0,0.1,0.1,0.1c0,0,0.1,0.1,0.1,0.1c0.1,0,0.2,0.1,0.3,0.1c0,0,0,0,0.1,0l1.1,0l8-0.2l-2.8,3.6l0.2,0
				c0.1,0,0.2,0,0.2,0c0,0,0,0,0,0c0,0,0,0,0,0c0,0,0.1,0,0.1,0c0,0,0,0,0,0c0,0,0,0,0,0c0,0,0,0,0,0l0.2,0.1L156.1,195.9z"/>
		</g>
		<g>
			<path d="M142.2,199.9c-0.1,0-0.1,0.1-0.2,0.1C142,200,142.1,199.9,142.2,199.9z"/>
		</g>
		<g>
			<path d="M149.5,203.8C149.5,203.8,149.5,203.8,149.5,203.8L149.5,203.8C149.5,203.8,149.5,203.8,149.5,203.8z"/>
		</g>
		<g>
			<path d="M112,203.4l2.7-1.6l0.7,0.4l-2.9,1.7c-0.1,0.1-0.2,0.1-0.4,0.1h-27c-0.1,0-0.3,0-0.4-0.1l-6.9-4l0.7-0.4l6.7,3.9H112z"/>
		</g>
		<g>
			<path d="M113.8,205.2l3.3-1.9l0.7,0.4l-3.5,2c-0.1,0.1-0.2,0.1-0.4,0.1H84.3c-0.1,0-0.3,0-0.4-0.1l-7.9-4.6l0.7-0.4l7.8,4.5
				L113.8,205.2z"/>
		</g>
		<g>
			<path d="M217,203.6l0.7,0.4l-4.1,2.4c-0.1,0.1-0.2,0.1-0.4,0.1l-25.7,0c-0.1,0-0.3,0-0.4-0.1l-7.9-4.6l0.7-0.4l7.7,4.5l25.2,0
				L217,203.6z"/>
		</g>
		<g>
			<path d="M115.5,207l4.1-2.4l0.7,0.4l-4.3,2.5c-0.1,0.1-0.2,0.1-0.3,0.1l-32.2,0c-0.1,0-0.3,0-0.4-0.1l-9.1-5.3l0.7-0.4l9,5.2
				H115.5z"/>
		</g>
		<g>
			<path d="M219.9,205.2l0.7,0.4l-4.7,2.7c-0.1,0.1-0.2,0.1-0.4,0.1l-29.4,0c-0.1,0-0.3,0-0.4-0.1l-8.9-5.1l0.7-0.4l8.8,5.1h28.9
				L219.9,205.2z"/>
		</g>
		<g>
			<path d="M117,209l5.1-3l0.7,0.4l-5.2,3c-0.1,0.1-0.2,0.1-0.4,0.1h-12.5l-2,1.2l-0.7-0.4l2.2-1.3c0.1-0.1,0.2-0.1,0.4-0.1L117,209
				z"/>
		</g>
		<g>
			<path d="M118.4,211l6.1-3.5l0.7,0.4l-6.2,3.6c-0.1,0.1-0.2,0.1-0.4,0.1l-12,0l-1.3,0.8l-0.7-0.4l1.4-0.8c0.1-0.1,0.2-0.1,0.4-0.1
				L118.4,211z"/>
		</g>
		<g>
			<path d="M191.7,210l4.1,2.4l-0.7,0.4l-3.9-2.3l-6.5,0c-0.1,0-0.3,0-0.4-0.1l-9.9-5.7l0.7-0.4l9.8,5.6l6.5,0
				C191.5,209.9,191.6,210,191.7,210z"/>
		</g>
		<g>
			<path d="M190.3,212.4l2.7,1.6l-0.7,0.4l-2.6-1.5h-5.9c-0.1,0-0.3,0-0.4-0.1l-11.6-6.7l0.7-0.4l11.4,6.6l5.9,0
				C190.1,212.3,190.2,212.3,190.3,212.4z"/>
		</g>
		<g>
			<path d="M119.8,213.1l7.2-4.2l0.7,0.4l-7.3,4.3c-0.1,0.1-0.2,0.1-0.3,0.1l-10.5,0l-0.9,0.5l-0.7-0.4l1.1-0.6
				c0.1-0.1,0.2-0.1,0.4-0.1L119.8,213.1z"/>
		</g>
		<g>
			<path d="M188.6,214.7l1.6,1l-0.7,0.4l-1.5-0.9h-5c-0.1,0-0.3,0-0.4-0.1l-13.1-7.6l0.7-0.4l12.9,7.5l5,0
				C188.3,214.6,188.5,214.6,188.6,214.7z"/>
		</g>
		<g>
			<path d="M173.3,197.8c2,1.2,2.1,3.1,0,4.3l-22.5,13.1c-2,1.2-5.4,1.2-7.4,0l-22.7-13.1c-2.1-1.2-2.1-3.1,0-4.3l22.5-13.1
				c2-1.2,5.4-1.2,7.4,0L173.3,197.8z M147.1,215.5c1.1,0,2.2-0.2,3-0.7l22.5-13.1c0.8-0.5,1.2-1.1,1.2-1.7c0-0.6-0.4-1.3-1.3-1.7
				L150,185.1c-0.8-0.5-1.9-0.7-3-0.7c-1.1,0-2.2,0.2-3,0.7l-22.5,13.1c-0.8,0.5-1.2,1.1-1.2,1.7c0,0.6,0.4,1.3,1.3,1.7l22.7,13.1
				C145,215.3,146,215.5,147.1,215.5"/>
		</g>
		<g>
			<polygon class="st2" points="79.5,198.2 45.5,218 11.2,198.2 45.2,178.5 			"/>
		</g>
		<g>
			<polygon points="115.5,218.2 129.3,210.2 130,210.7 116.3,218.7 			"/>
		</g>
		<g>
			<polygon points="62.8,208.7 63.5,208.3 80.6,218.2 79.9,218.6 			"/>
		</g>
		<g>
			<polygon points="167.8,208.6 185.2,218.6 184.5,219 167.1,209 			"/>
		</g>
		<g>
			<path d="M80.7,198.2c0,0.1,0,0.2-0.1,0.2l-1.9,1.1l-0.7,0.4l-1.3,0.7l-0.7,0.4l-1.3,0.8l-0.7,0.4l-10.5,6.1l-0.7,0.4l-17,9.9
				c-0.1,0.1-0.2,0.1-0.4,0.1c-0.1,0-0.3,0-0.3-0.1l-35-20.2c-0.1-0.1-0.1-0.1-0.2-0.2c0-0.1,0.1-0.2,0.1-0.2l34.7-20.2
				c0.1-0.1,0.2-0.1,0.4-0.1c0.1,0,0.3,0,0.4,0.1l17.1,9.9l0.7,0.4l8.9,5.1l0.7,0.4l1.3,0.8l0.7,0.4l1.4,0.8l0.7,0.4l3.4,2
				C80.6,198.1,80.7,198.2,80.7,198.2z M45.5,218l34-19.8l-34.3-19.8l-34,19.8L45.5,218"/>
		</g>
		<g>
			<polygon points="231.5,211.9 232.2,212.3 218.3,220.4 217.6,220 			"/>
		</g>
		<g>
			<polygon points="118.1,219.7 131.9,211.7 132.6,212.1 118.8,220.1 			"/>
		</g>
		<g>
			<polygon points="165.3,210 182.7,220 182,220.4 164.6,210.4 			"/>
		</g>
		<g>
			<polygon class="st2" points="283.7,201.8 249.7,221.6 215.4,201.8 249.4,182.1 			"/>
		</g>
		<g>
			<polygon points="120.6,221.1 134.3,213.1 135,213.6 121.3,221.6 			"/>
		</g>
		<g>
			<polygon points="162.9,211.4 180.3,221.4 179.6,221.8 162.2,211.8 			"/>
		</g>
		<g>
			<path d="M284.9,201.8c0,0.1-0.1,0.2-0.2,0.2L250,222.2c-0.1,0.1-0.2,0.1-0.3,0.1c-0.1,0-0.3,0-0.4-0.1l-17.1-9.9l-0.7-0.4
				l-10.8-6.3l-0.7-0.4l-2.2-1.2l-0.7-0.4l-2.7-1.6c-0.1-0.1-0.1-0.1-0.1-0.2c0-0.1,0-0.2,0.1-0.2l7.9-4.6l0.7-0.4l2.1-1.2l0.7-0.4
				l2.4-1.4l0.7-0.4l2.5-1.5l0.7-0.4l17-9.9c0.1-0.1,0.2-0.1,0.4-0.1c0.1,0,0.3,0,0.3,0.1l35,20.2
				C284.8,201.7,284.9,201.7,284.9,201.8z M249.7,221.6l34-19.8l-34.2-19.8l-34,19.8L249.7,221.6"/>
		</g>
		<g>
			<polygon points="123,222.6 136.8,214.6 137.5,215 123.7,223 			"/>
		</g>
		<g>
			<polygon points="160.5,212.8 177.8,222.8 177.1,223.2 159.8,213.2 			"/>
		</g>
		<g>
			<polygon points="125.5,224 139.2,216 139.9,216.4 126.2,224.4 			"/>
		</g>
		<g>
			<path d="M148.7,232.3C148.7,232.3,148.7,232.3,148.7,232.3l17-9.9l-10.9-6.3l0.7-0.4l11.3,6.5c0.1,0,0.1,0.1,0.1,0.1L148.7,232.3
				z"/>
		</g>
		<g>
			<path d="M138.9,235.4l8.7,5l-0.7,0.4l-9.1-5.2c-0.1-0.1-0.2-0.1-0.2-0.2c0-0.1,0.1-0.2,0.2-0.2l22.5-13.1l-7.9-4.6l0.7-0.4
				l8.3,4.8c0.1,0.1,0.1,0.1,0.1,0.2c0,0.1-0.1,0.2-0.1,0.2L138.9,235.4z"/>
		</g>
		<g>
			<path d="M133.9,235.4l11.2,6.5l-0.7,0.4l-11.5-6.7c-0.1-0.1-0.1-0.1-0.2-0.2c0-0.1,0.1-0.2,0.2-0.2l22.6-13.1l-5.5-3.2l0.7-0.4
				l5.8,3.4c0.1,0.1,0.1,0.1,0.1,0.2c0,0.1,0,0.1-0.1,0.2L133.9,235.4z"/>
		</g>
		<g>
			<path d="M148.8,224.3l-19.3,11.2l13.3,7.7l-0.7,0.4l-13.7-7.9c-0.1-0.1-0.1-0.1-0.1-0.2c0-0.1,0-0.2,0.1-0.2l19.3-11.2l-6-3.5
				c-0.1-0.1-0.1-0.1-0.2-0.2c0-0.1,0.1-0.2,0.2-0.2l2.4-1.4l0.7,0.4l-2,1.2l6,3.5c0.1,0.1,0.1,0.1,0.1,0.2
				C148.9,224.1,148.9,224.2,148.8,224.3z"/>
		</g>
		<g>
			<path d="M145,224.1l-20,11.6l15.3,8.9l-0.7,0.4l-15.7-9.1c-0.1-0.1-0.1-0.1-0.1-0.2c0-0.1,0-0.2,0.1-0.2l20-11.6l-6.4-3.7
				c-0.1-0.1-0.2-0.1-0.2-0.2c0-0.1,0.1-0.2,0.1-0.2l4.2-2.4l0.7,0.4l-3.8,2.2l6.4,3.7c0.1,0.1,0.1,0.1,0.2,0.2
				C145.2,224,145.1,224.1,145,224.1z"/>
		</g>
		<g>
			<path d="M166.9,222.4c0,0.1-0.1,0.2-0.1,0.2l-17,9.9l18.1,10.5c0.1,0.1,0.1,0.1,0.1,0.2c0,0.1,0,0.2-0.1,0.2l-4.5,2.6l-0.7-0.4
				l4.1-2.4l-18.1-10.5c-0.1-0.1-0.1-0.1-0.1-0.2c0-0.1,0-0.1,0.1-0.1L166.9,222.4C166.9,222.4,166.9,222.4,166.9,222.4z"/>
		</g>
		<g>
			<path d="M174.1,242.9c0,0.1-0.1,0.2-0.1,0.2l-7.6,4.4l-0.7-0.4l7.3-4.2l-17.6-10.2c-0.1-0.1-0.1-0.1-0.1-0.2
				c0-0.1,0.1-0.2,0.1-0.2l16.2-9.4l-14.3-8.2l0.7-0.4l14.6,8.4c0.1,0.1,0.1,0.1,0.2,0.2c0,0.1-0.1,0.2-0.2,0.2l-16.2,9.4l17.6,10.2
				C174,242.8,174.1,242.9,174.1,242.9z"/>
		</g>
		<g>
			<polygon class="st2" points="132.3,228.7 98.2,248.5 64,228.7 98,208.9 			"/>
		</g>
		<g>
			<polygon points="168.2,248.7 182.1,240.6 182.8,241 168.9,249.1 			"/>
		</g>
		<g>
			<polygon points="116.3,238.8 133.4,248.7 132.7,249.1 115.6,239.2 			"/>
		</g>
		<g>
			<path d="M133.5,228.7c0,0.1-0.1,0.1-0.1,0.2l-17,9.9l-0.7,0.4l-17,9.9c-0.1,0.1-0.2,0.1-0.3,0.1c-0.1,0-0.3,0-0.4-0.1l-35-20.2
				c-0.1-0.1-0.1-0.1-0.1-0.2c0-0.1,0-0.2,0.1-0.2l17-9.9l0.7-0.4l17-9.9c0.1-0.1,0.2-0.1,0.4-0.1c0.1,0,0.3,0,0.4,0.1l3.6,2.1
				l0.7,0.4l2,1.2l0.7,0.4l2.5,1.4l0.7,0.4l7,4l0.7,0.4l1.9,1.1l0.7,0.4l1.7,1l0.7,0.4l1.7,1l0.7,0.4l1.7,1l0.7,0.4l7.1,4.1
				C133.4,228.6,133.5,228.6,133.5,228.7z M98.2,248.5l34-19.8L98,208.9l-34,19.8L98.2,248.5"/>
		</g>
		<g>
			<polygon class="st2" points="234.4,230.5 200.3,250.3 166.1,230.5 200.1,210.7 			"/>
		</g>
		<g>
			<path d="M235.6,230.5c0,0.1-0.1,0.2-0.1,0.2l-34.7,20.2c-0.1,0.1-0.2,0.1-0.3,0.1c-0.1,0-0.3,0-0.4-0.1l-17.1-9.9l-0.7-0.4
				l-17.1-9.9c-0.1-0.1-0.1-0.1-0.1-0.2c0-0.1,0-0.2,0.1-0.2l12.1-7l0.7-0.4l1.7-1l0.7-0.4l1.7-1l0.7-0.4l1.8-1l0.7-0.4l4.3-2.5
				l0.7-0.4l2.1-1.2l0.7-0.4l2-1.2l0.7-0.4l4-2.3c0.1-0.1,0.2-0.1,0.4-0.1c0.1,0,0.3,0,0.4,0.1l17.1,9.9l0.7,0.4l17.1,9.9
				C235.5,230.3,235.6,230.4,235.6,230.5z M200.3,250.3l34-19.8l-34.2-19.8l-34,19.8L200.3,250.3"/>
		</g>
		<g>
			<path d="M186.2,259.2c0,0.1,0,0.1-0.1,0.2l-34.7,20.2c-0.1,0.1-0.2,0.1-0.3,0.1c-0.1,0-0.3,0-0.4-0.1l-35-20.2
				c-0.1-0.1-0.1-0.1-0.1-0.2c0-0.1,0-0.2,0.1-0.2l17-9.9l0.7-0.4l6.3-3.7l0.7-0.4l1.7-1l0.7-0.4l1.6-0.9l0.7-0.4l1.8-1l0.7-0.4
				l2.8-1.6c0.1-0.1,0.2-0.1,0.4-0.1c0.1,0,0.3,0,0.4,0.1l11.7,6.7l0.7,0.4l2.1,1.2l0.7,0.4l1.9,1.1l0.7,0.4l17.1,9.9
				C186.2,259,186.2,259.1,186.2,259.2z M151,278.9l34-19.8l-34.2-19.8l-34,19.8L151,278.9"/>
		</g>
		<g>
			<polygon class="st2" points="185,259.2 151,278.9 116.7,259.2 150.8,239.4 			"/>
		</g>
	</g>
</g>
<g>
	<path class="st3" d="M97.1,107.6c0,2.2-1.8,3.9-3.9,3.9h-9.5c-2.2,0-3.9-1.8-3.9-3.9v0c0-2.2,1.8-3.9,3.9-3.9h9.5
		C95.3,103.7,97.1,105.5,97.1,107.6L97.1,107.6z"/>
	<path class="st4" d="M107.3,100.7c0,10.1-8.2,18.2-18.2,18.2c-10.1,0-18.2-8.2-18.2-18.2c0-10.1,8.2-18.2,18.2-18.2
		C99.1,82.5,107.3,90.7,107.3,100.7z"/>
	
		<ellipse transform="matrix(0.7071 -0.7071 0.7071 0.7071 14.4705 117.1077)" class="st5" cx="148.6" cy="41.1" rx="22.9" ry="22.9"/>
	<path class="st4" d="M215.7,108.1c0,8.7-7,15.7-15.7,15.7s-15.7-7-15.7-15.7c0-8.7,7-15.7,15.7-15.7S215.7,99.4,215.7,108.1z"/>
	<path class="st4" d="M126.1,65.9c0,8.5-6.9,15.5-15.5,15.5c-8.5,0-15.5-6.9-15.5-15.5c0-8.5,6.9-15.5,15.5-15.5
		C119.2,50.4,126.1,57.3,126.1,65.9z"/>
	<path class="st6" d="M107.9,100.7h4.5c6.6,0,12,5.4,12,12v87.8"/>
	<path class="st6" d="M184,108.7h-2.2c-6.6,0-12,5.4-12,12v79.8"/>
	<path class="st6" d="M126.2,66c5.3,1.2,9.3,6,9.3,11.7v118.1"/>
	<line class="st6" x1="148.2" y1="64.3" x2="148.2" y2="190.4"/>
	<path class="st3" d="M95.6,106.2c0,1.9-1.6,3.5-3.5,3.5h-7.4c-1.9,0-3.5-1.6-3.5-3.5v-5.6c0-1.9,1.6-3.5,3.5-3.5h7.4
		c1.9,0,3.5,1.6,3.5,3.5V106.2z"/>
	<path class="st7" d="M95.6,100h1.2c1.4,0,2.5,1.1,2.5,2.5l0,0c0,1.4-1.1,2.5-2.5,2.5h-1.2"/>
	<path class="st4" d="M90.2,94.3c1.6,1.6,1.6,4.1,0,5.7l0,0"/>
	<path class="st4" d="M90.2,94.3c-1.6-1.6-1.6-4.1,0-5.7l0,0"/>
	<path class="st4" d="M86.5,94.3c1.6,1.6,1.6,4.1,0,5.7l0,0"/>
	<path class="st4" d="M86.5,94.3c-1.6-1.6-1.6-4.1,0-5.7l0,0"/>
	<path class="st7" d="M95.6,100.2c0,1.9-1.6,3.5-3.5,3.5h-7.4c-1.9,0-3.5-1.6-3.5-3.5"/>
	<path class="st8" d="M168,72.3c0,9.8,7.9,17.7,17.7,17.7c9.8,0,17.7-7.9,17.7-17.7c0-9.8-7.9-17.7-17.7-17.7
		C175.9,54.6,168,62.6,168,72.3z"/>
	<path class="st6" d="M167.4,74.5c-4.3,1.8-7.3,6.1-7.3,11v110.2"/>
	<g>
		<polygon class="st9" points="110.6,56.5 106.9,57.8 103.6,60.8 101.4,64.8 101.1,70.7 101.6,71.7 104.2,72.9 109,71.6 112.9,68.7 
			115.8,65 117.3,61.8 117.6,58.7 115,56.5 		"/>
		<polyline class="st9" points="114.7,56.6 112.2,58 111.2,62.1 106.4,66.7 102.4,67.5 101.2,69.1 		"/>
		<polyline class="st9" points="101.4,64.8 104.2,72.9 106.4,66.7 112.9,68.7 111.2,62.1 117.3,61.8 110.5,56.6 		"/>
		<line class="st9" x1="112.2" y1="58" x2="117.6" y2="58.7"/>
		<line class="st9" x1="111.2" y1="62.1" x2="115.8" y2="65"/>
		<line class="st9" x1="106.4" y1="66.7" x2="109" y2="71.6"/>
		<line class="st9" x1="101.6" y1="71.7" x2="102.3" y2="67.7"/>
		<polyline class="st9" points="117.6,58.7 117.2,72.7 104.2,72.9 		"/>
		<polyline class="st9" points="109.1,71.6 117.2,72.7 115.8,65 		"/>
		<line class="st9" x1="112.9" y1="68.7" x2="117.2" y2="72.7"/>
	</g>
</g>
<polyline class="st4" points="193.2,102.2 198.3,107.3 193.2,112.5 "/>
<line class="st4" x1="199.7" y1="112.5" x2="206.7" y2="112.5"/>
<g>
	<path class="st10" d="M180.5,76.5h-3.2c0,0-2.3-0.6-2.3-4.5c0-3.9,2.5-3.9,2.5-3.9h7.9v-1.6h-4.5v-2.5c0,0,0.5-2.4,4.7-2.4
		c4.1,0,4.6,2.3,4.6,2.3v6.5c0,0-0.3,1.7-1.6,1.7c-1.3,0-5,0-6.2,0c-1.2,0-1.7,1.4-1.7,1.7c0,0.3,0,6.4,0,6.4s0.3,2.4,4.7,2.4
		c4.4,0,4.9-2.4,4.9-2.4V78h-4.8v-1.4h8.2c0,0,2.3-0.1,2.3-4.3c0-4.2-2.5-4.4-2.5-4.4h-2.9"/>
	<path class="st10" d="M183.4,64.3c0,0.2-0.1,0.3-0.3,0.3c-0.2,0-0.3-0.1-0.3-0.3c0-0.2,0.1-0.3,0.3-0.3
		C183.3,64,183.4,64.1,183.4,64.3z"/>
	<path class="st10" d="M188.5,79.9c0,0.1-0.1,0.2-0.2,0.2c-0.1,0-0.2-0.1-0.2-0.2c0-0.1,0.1-0.2,0.2-0.2
		C188.4,79.7,188.5,79.8,188.5,79.9z"/>
</g>
<path class="st11" d="M158.6,47.5c-0.2-0.4-0.1-1.1-0.3-1.5c-0.1-0.2-0.4-0.5-0.4-0.6c0-0.3,0-0.6,0.1-0.9c0.1-2.2-0.5-3.6-1.3-5
	c-0.9-1.5-2.1-2.8-2.9-4.4c-0.8-1.7-0.9-4-1.4-5.9c-0.6-2-1.9-3-4.3-3c-0.1,0-0.3,0-0.4,0c-2,0.1-3.2,1.3-3.7,3.1
	c-0.4,1.4-0.3,3-0.3,4.7c0,0.6,0.1,1.2-0.1,1.7c-0.1,0.4-0.4,0.7-0.6,1c-1.4,2-2.7,4.2-2.9,7.2c0,0.2,0,0.5,0,0.7
	c0,0.2-0.2,0.3-0.4,0.4c-0.1,0.1-0.2,0.3-0.3,0.4c-0.2,0.2-0.5,0.6-0.8,0.7c-0.2,0.1-0.5,0.1-0.7,0.1c-0.7,0.1-1.3,0.4-1.4,1.1
	c0,0.1,0,0.3,0,0.4c0.1,0.6,0.6,1.1,0.5,1.7c0,0.2-0.3,0.4-0.4,0.7c-0.1,0.2-0.1,0.4-0.1,0.6c-0.1,1.5,1.3,1.7,2.4,2
	c0.5,0.1,1,0.2,1.6,0.4c1,0.3,1.9,0.8,3,0.9c0.2,0,0.4,0,0.6,0c1.1-0.1,1.7-0.8,2-1.8c1.9,0,3.7,0,5.6,0c0.2,1.1,0.9,1.7,2.1,1.8
	c0.2,0,0.4,0,0.6,0c0.6-0.1,1.1-0.3,1.6-0.6c0.2-0.2,0.4-0.4,0.6-0.5c0.2-0.2,0.4-0.3,0.7-0.5c0.4-0.3,0.9-0.6,1.3-0.9
	c0.5-0.3,1-0.5,1.4-0.8c0.4-0.3,0.7-0.6,0.7-1.1c0,0,0,0,0,0c0-0.1,0-0.1,0-0.2C160.3,48.2,158.9,48.3,158.6,47.5z M147.4,27.4
	c1.3-0.1,2.5,0.2,3.1,1c0.4,0.6,0.6,1.4,0.8,2.1c0.2,0.8,0.3,1.7,0.4,2.5c0.4,1.7,0.9,2.9,1.7,4.1c0.8,1.2,1.7,2.2,2.3,3.5
	c0.3,0.6,0.6,1.3,0.8,2.1c0.2,0.8,0.1,1.8,0,2.6c-0.2,0-0.3-0.1-0.5-0.2c-0.5-0.2-1.1-0.3-1.9-0.3c-0.1-2.2-0.5-3.9-1.3-5.4
	c-0.7-1.5-1.8-2.7-2.6-4.1c0.2-0.3,0.2-0.7,0.3-1.1c0-0.1,0.1-0.3,0.2-0.4c0.5-0.9,0.5-2.3,0.1-3.3c-0.2-0.5-0.6-0.9-1.1-1.2
	c-0.4-0.2-1.3-0.4-1.9,0c-0.3,0.1-0.4,0.3-0.5,0.7c-0.1-0.2-0.2-0.4-0.4-0.5c-0.5-0.4-1.4-0.4-2-0.2C145.4,28.3,146,27.5,147.4,27.4
	z M154.2,46.1c0.5-0.2,1.1,0,1.6,0.2c-0.3,0.4-0.6,1.1-1.3,0.9C154.4,46.8,154.3,46.4,154.2,46.1z M149.4,33c0.2-0.5,0-1.3-0.5-1.4
	c-0.4,0-0.6,0.4-0.6,0.9c-0.2,0-0.4-0.1-0.6-0.2c0-0.7,0.2-1.4,0.6-1.7c0.1-0.1,0.3-0.2,0.4-0.2c1.2-0.1,1.6,1.7,1.2,2.7
	C149.7,33.1,149.6,33,149.4,33z M149.5,34.3c0,0.2,0,0.3-0.1,0.4c-0.3,0.2-0.7,0.4-1,0.6c-0.3,0.2-0.7,0.5-1.1,0.6
	c-0.2,0-0.5,0-0.8,0c-0.3-0.1-0.5-0.5-0.7-0.7c-0.1-0.1-0.5-0.3-0.5-0.5c0-0.2,0.5-0.6,0.6-0.7c0.3-0.3,0.7-0.5,1.2-0.5
	c0.6,0.1,1.1,0.5,1.6,0.6C149,34.2,149.2,34.2,149.5,34.3z M146,30.4c0.8,0.1,1.1,1,1.1,1.8c-0.2,0-0.4,0-0.6,0.1
	c-0.1-0.3-0.3-0.7-0.6-0.7c-0.5,0-0.7,0.7-0.5,1.2c-0.1,0.2-0.3,0.3-0.4,0.4C144.4,32.3,144.8,30.3,146,30.4z M143.7,37.5
	c0.4-0.5,0.8-1,0.9-1.8c0.2,0.7-0.1,1.1-0.4,1.6c-0.8,1.4-1.7,2.6-2.2,4.2c-0.3,0.9-0.6,2.1-0.2,3.1c-0.1,0-0.1-0.1-0.2-0.1
	c-0.1-0.1-0.3-0.2-0.6-0.2C141.3,41.4,142.4,39.4,143.7,37.5z M144.5,52.3c-0.2,0.3-0.8,0.5-1.4,0.4c-0.5-0.1-0.9-0.3-1.4-0.5
	c-0.9-0.4-1.8-0.5-2.9-0.8c-0.3-0.1-1.3-0.2-1.4-0.5c-0.1-0.3,0.2-0.6,0.4-0.9c0.4-0.9-0.2-1.8-0.4-2.5c0.6-0.2,1.2-0.1,1.7-0.4
	c0.2-0.1,0.3-0.2,0.4-0.4c0.1-0.1,0.3-0.3,0.4-0.4c0.3-0.3,0.5-0.6,0.8-0.8c0.2-0.2,0.6,0.3,0.7,0.5c0.5,0.6,1,1.4,1.4,2.1
	c0.4,0.7,0.8,1.5,1.3,2.1c0.2,0.2,0.4,0.4,0.4,0.7C144.7,51.4,144.6,52.1,144.5,52.3z M144.5,48.5c-0.4-0.5-0.6-1-1-1.5
	c0.2,0.1,0.5,0.3,0.9,0.5c0.2,0.1,0.8,0.4,0.8,0.6C145.2,48.3,144.7,48.4,144.5,48.5z M151.9,47.9c0,0.3,0,0.8-0.1,1.1
	c-0.1,0.2-0.3,0.5-0.5,0.7c-0.9,1.1-3,1.7-4.7,0.9c-0.6-0.2-1.1-0.6-1.4-1.1c0.7-0.2,1.3-0.7,1.2-1.6c-0.1-0.8-0.8-1.1-1.3-1.4
	c-0.8-0.4-1.3-0.8-1.8-1.5c-0.2-0.3-0.4-0.8-0.5-1.2c-0.1-0.7,0.2-1.4,0.4-1.9c0.2-0.6,0.5-1.1,0.7-1.6c0.6-1.2,1.4-2.1,1.8-3.4
	c0.1,0,0.2,0.1,0.4,0.2c0.3,0.1,0.8,0.1,1.2,0.1c0.8-0.1,1.5-0.8,2-0.9c0.8,1.3,1.8,2.4,2.5,3.8c0.7,1.4,1.1,3.1,1.2,5.1
	c-0.8,0.1-1.1,0.8-1.2,1.6C151.9,47.1,151.9,47.5,151.9,47.9z M158.6,49.8c-1,0.6-2.1,1.2-3,1.9c-0.4,0.3-0.7,0.7-1.1,0.9
	c-0.4,0.2-1.5,0.2-1.8-0.1c-0.2-0.2-0.3-0.8-0.2-1.2c0.1-0.7,0.4-1.3,0.5-2.1c0.1-0.8,0.1-1.7,0.1-2.6c0.1,0.3,0,0.6,0,1
	c0,0.3,0.3,0.5,0.5,0.6c0.3,0.2,0.7,0.4,1.3,0.3c0.5,0,0.9-0.3,1.3-0.7c0.4-0.4,0.6-0.9,0.9-1.3c0,0,0,0,0,0c0,0,0,0,0,0
	c0.1,0.4,0.1,0.7,0.2,1c0.2,0.9,1,1.4,1.8,1.8C159,49.6,158.8,49.7,158.6,49.8z"/>
</svg>
