<?xml version="1.0" encoding="utf-8"?>
<!-- Generator: Adobe Illustrator 22.1.0, SVG Export Plug-In . SVG Version: 6.00 Build 0)  -->
<svg version="1.1" id="Layer_1" xmlns="http://www.w3.org/2000/svg" xmlns:xlink="http://www.w3.org/1999/xlink" x="0px" y="0px"
	 viewBox="0 0 390 571.5" style="enable-background:new 0 0 390 571.5;" xml:space="preserve">
<style type="text/css">
	.st0{stroke:#FFFFFF;stroke-linecap:round;stroke-linejoin:round;stroke-miterlimit:10;}
	.st1{fill:none;stroke:#FFFFFF;stroke-linecap:round;stroke-linejoin:round;stroke-miterlimit:10;}
	
		.st2{fill-rule:evenodd;clip-rule:evenodd;fill:#FFFFFF;stroke:#000000;stroke-width:0.6202;stroke-linecap:round;stroke-linejoin:round;stroke-miterlimit:10;}
	.st3{fill:#FFFFFF;}
	.st4{font-family:'Rubik-Regular';}
	.st5{font-size:7.4513px;}
</style>
<polygon class="st0" points="185,560.9 359.3,460.3 189,361.1 12.4,461.7 "/>
<polygon class="st0" points="185.4,461.5 359.7,360.9 189.4,261.8 12.8,362.3 "/>
<line class="st0" x1="113.6" y1="304.6" x2="262.6" y2="220.2"/>
<line class="st0" x1="149.8" y1="325.3" x2="299.2" y2="240.4"/>
<line class="st0" x1="115" y1="221.2" x2="259.7" y2="304.1"/>
<line class="st0" x1="77.9" y1="242.4" x2="222.5" y2="325.3"/>
<polygon class="st1" points="188.8,179.2 333.9,261.2 185.9,345.5 40.3,263.1 "/>
<g>
	<polygon class="st0" points="40.3,280.7 68.9,264.3 41,248 12,264.5 	"/>
	<polygon class="st0" points="77.4,259.7 106,243.2 78.1,226.9 49.2,243.4 	"/>
	<polygon class="st0" points="114.6,238.6 143.1,222.1 115.2,205.8 86.3,222.3 	"/>
	<polygon class="st0" points="151.7,217.5 180.3,201 152.4,184.7 123.4,201.2 	"/>
	<polygon class="st0" points="188.9,196.4 217.4,179.9 189.5,163.6 160.6,180.1 	"/>
	<polygon class="st0" points="76.8,301.7 105.4,285.2 77.5,269 48.6,285.4 	"/>
	<polygon class="st0" points="114,280.2 142.5,263.7 114.6,247.4 85.7,263.9 	"/>
	<polygon class="st0" points="151.1,259.1 179.7,242.6 151.8,226.3 122.8,242.8 	"/>
	<polygon class="st0" points="188.3,238 216.8,221.5 188.9,205.2 160,221.7 	"/>
	<polygon class="st0" points="225.4,216.9 253.9,200.4 226,184.1 197.1,200.6 	"/>
	<polygon class="st0" points="113.4,321.7 141.9,305.3 114,289 85.1,305.5 	"/>
	<polygon class="st0" points="150.5,300.6 179.1,284.2 151.2,267.9 122.2,284.4 	"/>
	<polygon class="st0" points="187.7,279.6 216.2,263.1 188.3,246.8 159.4,263.3 	"/>
	<polygon class="st0" points="224.8,258.5 253.3,242 225.4,225.7 196.5,242.2 	"/>
	<polygon class="st0" points="261.9,237.4 290.5,220.9 262.6,204.6 233.6,221.1 	"/>
	<polygon class="st0" points="149.9,342.2 178.5,325.7 150.6,309.5 121.6,326 	"/>
	<polygon class="st0" points="187.1,321.1 215.6,304.7 187.7,288.4 158.8,304.9 	"/>
	<polygon class="st0" points="224.2,300.1 252.7,283.6 224.8,267.3 195.9,283.8 	"/>
	<polygon class="st0" points="261.3,279 289.9,262.5 262,246.2 233,262.7 	"/>
	<polygon class="st0" points="298.5,257.9 327,241.4 299.1,225.1 270.2,241.6 	"/>
	<polygon class="st0" points="186.5,362.7 215,346.2 187.1,330 158.2,346.5 	"/>
	<polygon class="st0" points="223.6,341.6 252.1,325.2 224.2,308.9 195.3,325.4 	"/>
	<polygon class="st0" points="260.7,320.5 289.3,304.1 261.4,287.8 232.4,304.3 	"/>
	<polygon class="st0" points="297.9,299.5 326.4,283 298.5,266.7 269.6,283.2 	"/>
	<polygon class="st0" points="335,278.4 363.6,261.9 335.7,245.6 306.7,262.1 	"/>
</g>
<g>
	<g>
		<polygon class="st0" points="188.2,182 216.7,165.5 188.8,149.3 159.9,165.7 		"/>
		<g>
			<line class="st0" x1="189.5" y1="153.5" x2="167.9" y2="165.8"/>
			<line class="st0" x1="194.9" y1="156.5" x2="173.3" y2="168.8"/>
			<line class="st0" x1="200.3" y1="159.5" x2="178.7" y2="171.8"/>
			<line class="st0" x1="205.6" y1="162.5" x2="184.1" y2="174.8"/>
		</g>
		<polygon class="st0" points="188.2,166.3 216.7,149.8 188.8,133.5 159.9,150 		"/>
		<g>
			<line class="st0" x1="190.3" y1="138.1" x2="168.7" y2="150.4"/>
			<line class="st0" x1="195.6" y1="141.1" x2="174.1" y2="153.4"/>
			<line class="st0" x1="201" y1="144.1" x2="179.4" y2="156.4"/>
			<line class="st0" x1="206.4" y1="147.1" x2="184.8" y2="159.4"/>
		</g>
		<g>
			<polyline class="st0" points="212.7,132.1 188.8,118.1 159.6,134.8 188.2,151.2 217,134.6 			"/>
			<polygon class="st0" points="188.2,146.4 217,129.8 188.8,113.3 159.6,130 			"/>
			<path class="st0" d="M142.5,143.2c0,1.1,0.9,1.5,2,0.8l82.3-47.5c1.1-0.6,2-2,2-3.1V11c0-1.1-0.9-1.5-2-0.8l-82.3,47.5
				c-1.1,0.6-2,2-2,3.1V143.2z"/>
			<polygon points="227.5,10.8 232.8,12.9 212.7,26.8 210.1,22.4 			"/>
			<polygon points="148.4,146.6 143.1,143.7 144,115.3 148,115.7 			"/>
			<path class="st0" d="M148.5,146.8c0,1.1,0.9,1.5,1.9,0.8l82.3-47.5c1.1-0.6,2-2,2-3.1V14.7c0-1.1-0.9-1.5-2-0.8l-82.3,47.5
				c-1.1,0.6-1.9,2-1.9,3.1V146.8z"/>
			<line class="st0" x1="142.8" y1="59.3" x2="148.9" y2="62.9"/>
			<line class="st0" x1="142.6" y1="144" x2="148.6" y2="147.5"/>
			<line class="st0" x1="227.5" y1="9.9" x2="233.9" y2="13.6"/>
			<line class="st0" x1="148.6" y1="133.7" x2="234.3" y2="84.7"/>
			<line class="st0" x1="217.2" y1="130" x2="217.2" y2="134.2"/>
			<line class="st0" x1="187.9" y1="146.5" x2="187.9" y2="150.8"/>
		</g>
		<path class="st0" d="M148.5,146.8c0,1.1,0.9,1.5,1.9,0.8l82.3-47.5c1.1-0.6,2-2,2-3.1V14.7c0-1.1-0.9-1.5-2-0.8l-82.3,47.5
			c-1.1,0.6-1.9,2-1.9,3.1V146.8z"/>
	</g>
	<path class="st0" d="M174,107.6c0,0.4,0.3,0.6,0.8,0.3l33.5-19.3c0.4-0.3,0.8-0.8,0.8-1.3V53.8c0-0.4-0.4-0.6-0.8-0.3l-33.5,19.3
		c-0.4,0.3-0.8,0.8-0.8,1.3V107.6z"/>
	<path class="st0" d="M176.8,102.1c0,0.3,0.3,0.5,0.6,0.3l27.8-15.8c1-0.9,0.6-0.6,0.6-1V59.8c0-0.3-0.3-0.5-0.6-0.3l-27.8,15.8
		c-0.3,0.2-0.6,0.6-0.6,1V102.1z"/>
	<polyline class="st0" points="178.2,70.6 178.2,63.1 171.4,58.2 171.4,50.2 	"/>
	<polyline class="st0" points="183.2,67.5 183.2,60 176.4,55.1 176.4,47.1 	"/>
	<polyline class="st0" points="188.2,64.4 188.2,56.9 181.4,51.9 181.4,44 	"/>
	<polyline class="st0" points="192.9,62.3 192.9,44.2 213.8,32 213.8,25.1 	"/>
	<polyline class="st0" points="198.3,59.3 198.3,46.9 221.5,33.2 221.5,20.2 	"/>
	<polyline class="st1" points="202.9,56.4 202.9,49.2 229,34.2 229,15.9 	"/>
	<polyline class="st0" points="173.9,75.7 155.1,86.9 148.4,86.9 	"/>
	<polyline class="st0" points="173.9,81.7 155.7,92.2 148.4,92.2 	"/>
	<polyline class="st0" points="173.9,87.6 156.3,97.2 156.3,130.9 148.5,135.5 	"/>
	<polyline class="st1" points="173.9,93.5 161.7,100.6 161.7,134.4 148.5,142.2 	"/>
	<polyline class="st1" points="173.9,99.5 165.8,104 165.8,138.7 	"/>
	<polyline class="st1" points="173.9,105.4 170.5,107.5 170.5,135.4 	"/>
	<polyline class="st0" points="209.3,56.8 216.5,52.6 227.4,53.3 234.5,49.1 	"/>
	<polyline class="st0" points="209.3,62.4 216.5,58.3 227.8,59.1 234.6,55.2 	"/>
	<polyline class="st0" points="209.3,68.1 216.5,63.9 228.1,64.8 234.3,61.1 	"/>
	<polyline class="st0" points="209.3,73.8 216.5,69.6 228.5,70.6 228.5,101.9 	"/>
	<polyline class="st0" points="209.3,79.4 216.5,75.3 222.9,75.8 223.1,105.8 	"/>
	<polyline class="st0" points="209.3,85.1 216.5,80.9 216.5,108.8 	"/>
	<polyline class="st0" points="180.4,105.2 180.4,116.6 176.4,121.4 176.4,132.2 	"/>
	<polyline class="st0" points="185.6,102.4 185.6,116.4 181.7,120.9 181.7,128.7 	"/>
	<line class="st0" x1="190.8" y1="99.6" x2="190.8" y2="124.2"/>
	<line class="st0" x1="196" y1="96.9" x2="196" y2="120.9"/>
	<line class="st0" x1="201.2" y1="93.5" x2="201.2" y2="118.3"/>
	<line class="st0" x1="206.4" y1="90.2" x2="206.4" y2="115.3"/>
	<line class="st1" x1="174.1" y1="73.4" x2="176.7" y2="75.7"/>
	<line class="st1" x1="205.5" y1="59.6" x2="208.6" y2="53.8"/>
	<line class="st1" x1="176.7" y1="102.2" x2="174.3" y2="107.9"/>
	<line class="st1" x1="205.5" y1="86.2" x2="208.6" y2="87.8"/>
</g>
<path class="st0" d="M222.4,196c0,1.1,0.9,1.5,1.9,0.8l82.3-47.5c1.1-0.6,2-2,2-3.1V63.8c0-1.1-0.9-1.5-2-0.8l-82.3,47.5
	c-1.1,0.6-1.9,2-1.9,3.1V196z"/>
<path class="st0" d="M295.9,244.1c0,1.1,0.9,1.5,1.9,0.8l82.3-47.5c1.1-0.6,2-2,2-3.1v-82.3c0-1.1-0.9-1.5-2-0.8l-82.3,47.5
	c-1.1,0.6-1.9,2-1.9,3.1V244.1z"/>
<g>
	<polygon class="st0" points="337.9,198.6 347.7,178.5 355.5,173.8 351.3,161.4 344.3,165.3 339.7,153.4 330.1,173.4 322.3,178.2 
		326.4,190.3 333.6,186.5 	"/>
	<line class="st0" x1="333.6" y1="186.5" x2="344.3" y2="165.3"/>
	<polyline class="st0" points="347.7,178.5 341.1,182 336.6,169.8 330.1,173.4 	"/>
</g>
<line class="st0" x1="296.1" y1="231" x2="381.8" y2="182"/>
<path class="st2" d="M284.1,128.7c-0.3-0.5-0.2-1.6-0.4-2.1c-0.1-0.3-0.5-0.4-0.5-0.6c0-0.4,0.1-1,0.1-1.4c0.2-3.6-0.7-5.3-1.8-6.8
	c-1.2-1.6-2.9-2.7-4-4.6c-1.1-2-1.2-5.7-1.9-8.2c-0.8-2.6-2.6-3.1-5.9-1.2c-0.2,0.1-0.4,0.2-0.6,0.4c-2.8,1.9-4.4,4.7-5.1,8
	c-0.5,2.5-0.4,5.1-0.4,7.8c0,0.9,0.1,1.8-0.1,2.7c-0.1,0.7-0.5,1.5-0.9,2.2c-1.9,4.3-3.6,8.9-4,13.9c0,0.4,0,0.8-0.1,1.2
	c0,0.3-0.3,0.6-0.5,0.9c-0.2,0.3-0.3,0.6-0.5,0.9c-0.3,0.6-0.7,1.4-1,1.7c-0.3,0.3-0.7,0.5-1,0.8c-1,0.8-1.7,1.8-2,3
	c0,0.2,0,0.4,0,0.6c0.1,1,0.8,1.2,0.7,2.3c0,0.4-0.4,0.9-0.5,1.4c-0.1,0.3-0.2,0.7-0.2,1c-0.2,2.4,1.8,1.6,3.3,1.1
	c0.7-0.3,1.4-0.6,2.2-0.8c1.3-0.4,2.6-0.3,4.1-1c0.3-0.2,0.5-0.3,0.8-0.5c1.5-1.2,2.4-2.7,2.7-4.5c2.5-1.6,5.1-3.1,7.6-4.7
	c0.2,1.7,1.2,2,2.9,1.1c0.3-0.2,0.5-0.3,0.8-0.5c0.9-0.6,1.6-1.4,2.2-2.3c0.3-0.4,0.5-0.9,0.8-1.3c0.3-0.4,0.6-0.9,0.9-1.3
	c0.6-0.9,1.2-1.7,1.9-2.6c0.6-0.8,1.3-1.6,1.9-2.5c0.5-0.8,1-1.5,1-2.4c0,0,0,0,0,0c0-0.1,0-0.2,0-0.3
	C286.5,128.3,284.6,129.6,284.1,128.7z M268.9,106.2c1.8-1.2,3.5-1.8,4.2-1c0.6,0.5,0.8,1.7,1,2.8c0.3,1.1,0.4,2.4,0.6,3.6
	c0.5,2.3,1.2,3.9,2.3,5.1c1.1,1.2,2.3,2.2,3.2,3.6c0.4,0.7,0.9,1.5,1.1,2.6c0.3,1.1,0.2,2.7,0,4.2c-0.2,0.2-0.4,0.1-0.6,0.1
	c-0.7,0.1-1.6,0.4-2.6,1.1c-0.1-3.4-0.7-5.7-1.7-7.5c-1-1.8-2.5-2.7-3.6-4.3c0.3-0.7,0.2-1.3,0.4-2c0-0.2,0.2-0.5,0.3-0.8
	c0.6-1.7,0.7-4.1,0.1-5.2c-0.3-0.6-0.9-1-1.5-1c-0.6,0-1.8,0.5-2.6,1.6c-0.4,0.5-0.6,0.9-0.8,1.5c-0.2-0.1-0.3-0.4-0.5-0.5
	c-0.6-0.2-1.9,0.5-2.7,1.4C266,109.2,266.9,107.5,268.9,106.2z M278.1,130.2c0.7-0.7,1.6-0.9,2.1-1c-0.4,0.9-0.8,2.2-1.9,2.6
	C278.5,131,278.3,130.5,278.1,130.2z M271.6,113.4c0.3-1,0-2.1-0.7-1.8c-0.6,0.3-0.9,1.2-0.9,2c-0.2,0.1-0.6,0.1-0.8,0.2
	c0-1.2,0.3-2.4,0.9-3.3c0.2-0.2,0.4-0.5,0.6-0.7c1.6-1.2,2.2,1.3,1.6,3.3C272,113.3,271.8,113.3,271.6,113.4z M271.6,115.4
	c0,0.3-0.1,0.5-0.1,0.7c-0.4,0.6-0.9,1.1-1.4,1.8c-0.4,0.6-1,1.4-1.5,1.8c-0.3,0.3-0.8,0.5-1.1,0.6c-0.4,0.1-0.7-0.4-1-0.5
	c-0.2-0.1-0.7,0-0.7-0.4c0-0.3,0.7-1.3,0.9-1.6c0.4-0.7,0.9-1.4,1.6-1.8c0.9-0.4,1.5-0.2,2.2-0.4C271,115.6,271.3,115.4,271.6,115.4
	z M266.8,112.2c1-0.5,1.5,0.7,1.5,1.9c-0.3,0.2-0.6,0.4-0.9,0.6c-0.1-0.5-0.4-0.9-0.8-0.5c-0.6,0.4-0.9,1.6-0.7,2.4
	c-0.2,0.3-0.4,0.7-0.6,1C264.7,116.5,265.2,113,266.8,112.2z M263.7,125.4c0.5-1.1,1.1-2.3,1.3-3.6c0.2,0.9-0.1,1.9-0.5,2.8
	c-1.1,2.9-2.3,5.6-3,8.6c-0.4,1.6-0.8,3.9-0.3,5.1c-0.1,0.1-0.2,0-0.3,0c-0.2,0-0.5-0.1-0.8,0.1
	C260.4,133.5,261.9,129.4,263.7,125.4z M264.8,148.3c-0.3,0.7-1.1,1.4-1.9,1.8c-0.6,0.3-1.3,0.3-1.9,0.4c-1.3,0.2-2.4,0.6-4,1.2
	c-0.4,0.1-1.7,0.7-1.9,0.4c-0.1-0.4,0.3-1.2,0.5-1.7c0.6-1.8-0.2-2.7-0.5-3.7c0.8-0.9,1.6-1.2,2.3-2c0.2-0.3,0.4-0.6,0.6-1
	c0.2-0.3,0.4-0.7,0.6-1c0.4-0.7,0.7-1.4,1.1-1.9c0.3-0.5,0.8,0.1,1,0.2c0.7,0.5,1.4,1.4,1.9,2.1c0.6,0.7,1.1,1.6,1.8,2.2
	c0.2,0.2,0.5,0.4,0.6,0.7C265.2,146.5,265,147.7,264.8,148.3z M264.9,142.1c-0.5-0.4-0.9-1.1-1.4-1.6c0.3,0,0.7,0,1.2,0.1
	c0.3,0,1.1-0.1,1.1,0.3C265.9,141.2,265.1,141.8,264.9,142.1z M275,134.9c0,0.6,0,1.2-0.1,1.7c-0.1,0.4-0.5,1.1-0.7,1.6
	c-1.3,2.5-4,5.1-6.5,5.5c-0.8,0.1-1.5,0-1.9-0.6c1-1,1.8-2.2,1.7-3.6c-0.1-1.2-1-1.1-1.8-1.2c-1,0-1.8-0.1-2.5-0.9
	c-0.3-0.3-0.6-0.8-0.6-1.5c-0.1-1.1,0.3-2.3,0.5-3.4c0.3-1.1,0.6-2.2,1-3.1c0.9-2.5,1.9-4.6,2.5-7c0.2-0.1,0.3,0,0.6-0.1
	c0.5-0.2,1.1-0.5,1.6-0.9c1.1-0.8,2-2.5,2.7-3.1c1,1.5,2.5,2.3,3.4,4c1,1.7,1.5,3.9,1.6,7.2c-1.1,0.8-1.6,2.2-1.6,3.6
	C275,133.7,275,134.3,275,134.9z M284.1,132.3c-1.4,1.8-2.8,3.7-4.1,5.6c-0.5,0.7-0.9,1.7-1.5,2.3c-0.6,0.7-2.1,1.6-2.4,1.3
	c-0.2-0.2-0.4-1.1-0.3-1.8c0.2-1.1,0.6-2.5,0.7-3.8c0.1-1.4,0.1-2.7,0.1-4.2c0.2,0.4,0,1,0.1,1.5c0.1,0.4,0.4,0.5,0.7,0.6
	c0.4,0.1,1,0,1.7-0.6c0.7-0.5,1.3-1.3,1.7-2.1c0.6-1,0.8-2,1.2-2.8c0,0,0,0,0,0c0,0,0,0,0,0c0.2,0.5,0.2,1,0.3,1.5
	c0.3,1.3,1.4,1.5,2.5,1.3C284.7,131.6,284.4,132,284.1,132.3z"/>
<text transform="matrix(0.8355 -0.4548 1.703000e-02 0.9999 181.7422 90.1718)" class="st3 st4 st5">RISC-V</text>
</svg>
