<svg xmlns="http://www.w3.org/2000/svg" viewBox="0 0 249.38 142.35"><defs><style>.cls-1{fill:#fff;stroke:#000;stroke-linecap:round;stroke-linejoin:round;stroke-width:2px;}</style></defs><title>Ativo 8</title><g id="Camada_2" data-name="Camada 2"><g id="Layer_1" data-name="Layer 1"><path class="cls-1" d="M25,40.79a12,12,0,1,1-12-12A12,12,0,0,1,25,40.79Z"/><path class="cls-1" d="M15.62,38.65a5,5,0,0,1,1.74-6.81L47.15,14.2A5,5,0,0,1,54,15.94l.12.21A5,5,0,0,1,52.35,23L22.56,40.61a5,5,0,0,1-6.82-1.74Z"/><path class="cls-1" d="M68.81,18.79A17.79,17.79,0,1,1,51,1,17.79,17.79,0,0,1,68.81,18.79Z"/><path class="cls-1" d="M54.54,23.74a5.8,5.8,0,0,1,8,2l49,84.19a5.79,5.79,0,0,1-2,8l-.24.15a5.8,5.8,0,0,1-8-2l-49-84.19a5.79,5.79,0,0,1,2-7.95Z"/><circle class="cls-1" cx="111.02" cy="117.79" r="23.56" transform="translate(-29.32 198.44) rotate(-76.58)"/><path class="cls-1" d="M220.39,55.05a6.36,6.36,0,0,1-2.23,8.7l-92,53.5a6.34,6.34,0,0,1-8.69-2.23l-.16-.27a6.34,6.34,0,0,1,2.22-8.69l92-53.5a6.35,6.35,0,0,1,8.69,2.23Z"/><circle class="cls-1" cx="215.02" cy="56.79" r="33.36" transform="translate(109.68 252.65) rotate(-76.52)"/></g></g></svg>