<?xml version="1.0" encoding="utf-8"?>
<!-- Generator: Adobe Illustrator 15.0.0, SVG Export Plug-In . SVG Version: 6.00 Build 0)  -->
<!DOCTYPE svg PUBLIC "-//W3C//DTD SVG 1.1//EN" "http://www.w3.org/Graphics/SVG/1.1/DTD/svg11.dtd">
<svg version="1.1" id="Layer_1" xmlns="http://www.w3.org/2000/svg" xmlns:xlink="http://www.w3.org/1999/xlink" x="0px" y="0px"
	 width="383px" height="278.73px" viewBox="0 0 383 278.73" enable-background="new 0 0 383 278.73" xml:space="preserve">
<g>
	<g>
		
			<polygon fill="#010101" stroke="#FFFFFF" stroke-width="1.3898" stroke-linecap="round" stroke-linejoin="round" stroke-miterlimit="10" points="
			190.372,275.568 381.036,165.488 194.687,56.969 1.5,166.979 		"/>
		
			<polygon fill="#010101" stroke="#FFFFFF" stroke-width="1.3898" stroke-linecap="round" stroke-linejoin="round" stroke-miterlimit="10" points="
			190.835,263.524 381.5,153.443 195.149,44.925 1.963,154.934 		"/>
		
			<polygon fill="#010101" stroke="#FFFFFF" stroke-width="1.3898" stroke-linecap="round" stroke-linejoin="round" stroke-miterlimit="10" points="
			190.835,249.274 381.5,139.193 195.149,30.675 1.963,140.685 		"/>
		<g>
			<defs>
				<polygon id="SVGID_1_" points="190.835,249.274 381.5,139.193 195.149,30.675 1.963,140.685 				"/>
			</defs>
			<clipPath id="SVGID_2_">
				<use xlink:href="#SVGID_1_"  overflow="visible"/>
			</clipPath>
			<g clip-path="url(#SVGID_2_)">
				
					<line fill="none" stroke="#FFFFFF" stroke-width="1.3898" stroke-linecap="round" stroke-linejoin="round" stroke-miterlimit="10" x1="29.217" y1="169.034" x2="246.066" y2="44.5"/>
				
					<line fill="none" stroke="#FFFFFF" stroke-width="1.3898" stroke-linecap="round" stroke-linejoin="round" stroke-miterlimit="10" x1="64.533" y1="192.578" x2="281.383" y2="68.044"/>
				
					<line fill="none" stroke="#FFFFFF" stroke-width="1.3898" stroke-linecap="round" stroke-linejoin="round" stroke-miterlimit="10" x1="104.805" y1="212.404" x2="321.654" y2="87.87"/>
				
					<line fill="none" stroke="#FFFFFF" stroke-width="1.3898" stroke-linecap="round" stroke-linejoin="round" stroke-miterlimit="10" x1="141.359" y1="234.089" x2="358.209" y2="109.556"/>
			</g>
			<g clip-path="url(#SVGID_2_)">
				
					<line fill="none" stroke="#FFFFFF" stroke-width="1.3898" stroke-linecap="round" stroke-linejoin="round" stroke-miterlimit="10" x1="356.288" y1="168.515" x2="138.765" y2="45.24"/>
				
					<line fill="none" stroke="#FFFFFF" stroke-width="1.3898" stroke-linecap="round" stroke-linejoin="round" stroke-miterlimit="10" x1="321.25" y1="193.34" x2="103.728" y2="70.065"/>
				
					<line fill="none" stroke="#FFFFFF" stroke-width="1.3898" stroke-linecap="round" stroke-linejoin="round" stroke-miterlimit="10" x1="281.234" y1="214.457" x2="63.71" y2="91.181"/>
				
					<line fill="none" stroke="#FFFFFF" stroke-width="1.3898" stroke-linecap="round" stroke-linejoin="round" stroke-miterlimit="10" x1="244.943" y1="237.402" x2="27.42" y2="114.127"/>
			</g>
		</g>
	</g>
	<g>
		<g enable-background="new    ">
			<g>
				
					<polygon fill="#010101" stroke="#FFFFFF" stroke-width="1.3898" stroke-linecap="round" stroke-linejoin="round" stroke-miterlimit="10" points="
					268.754,46.317 250.074,35.566 250.277,107.728 268.762,118.47 				"/>
			</g>
			<g>
				
					<polygon fill="#010101" stroke="#FFFFFF" stroke-width="1.3898" stroke-linecap="round" stroke-linejoin="round" stroke-miterlimit="10" points="
					268.762,118.47 250.277,107.728 134.532,174.386 153.017,185.128 				"/>
			</g>
			<g>
				
					<polygon fill="#010101" stroke="#FFFFFF" stroke-width="1.3898" stroke-linecap="round" stroke-linejoin="round" stroke-miterlimit="10" points="
					268.754,46.317 250.074,35.566 134.383,102.247 152.812,112.967 				"/>
			</g>
			<g>
				
					<polygon fill="#010101" stroke="#FFFFFF" stroke-width="1.3898" stroke-linecap="round" stroke-linejoin="round" stroke-miterlimit="10" points="
					152.812,112.967 153.017,185.128 268.762,118.47 268.762,46.308 				"/>
			</g>
			<g>
				
					<polygon fill="#010101" stroke="#FFFFFF" stroke-width="1.3898" stroke-linecap="round" stroke-linejoin="round" stroke-miterlimit="10" points="
					152.812,112.967 134.328,102.226 134.532,174.386 153.017,185.128 				"/>
			</g>
			<g>
				
					<polygon fill="#010101" stroke="#FFFFFF" stroke-width="1.3898" stroke-linecap="round" stroke-linejoin="round" stroke-miterlimit="10" points="
					153.047,113.06 134.607,102.387 134.607,174.392 153.047,185.135 				"/>
			</g>
		</g>
		<g>
			<g enable-background="new    ">
				<g>
					
						<polyline fill="#010101" stroke="#FFFFFF" stroke-width="1.3898" stroke-linecap="round" stroke-linejoin="round" stroke-miterlimit="10" points="
						219.934,115.949 236.428,125.535 236.389,111.667 					"/>
				</g>
				<g>
					
						<polyline fill="#010101" stroke="#FFFFFF" stroke-width="1.3898" stroke-linecap="round" stroke-linejoin="round" stroke-miterlimit="10" points="
						248.18,91.251 260.248,84.283 243.752,74.698 					"/>
				</g>
				<g>
					
						<polygon fill="#010101" stroke="#FFFFFF" stroke-width="1.3898" stroke-linecap="round" stroke-linejoin="round" stroke-miterlimit="10" points="
						224.282,105.048 218.266,101.645 218.304,115.232 224.32,118.635 					"/>
				</g>
				<g>
					
						<polygon fill="#010101" stroke="#FFFFFF" stroke-width="1.3898" stroke-linecap="round" stroke-linejoin="round" stroke-miterlimit="10" points="
						236.351,98.082 230.333,94.678 218.266,101.645 224.282,105.048 					"/>
				</g>
				<g>
					
						<polygon fill="#010101" stroke="#FFFFFF" stroke-width="1.3898" stroke-linecap="round" stroke-linejoin="round" stroke-miterlimit="10" points="
						236.312,84.208 236.351,98.082 224.282,105.048 224.32,118.635 236.389,111.667 236.428,125.535 248.257,118.705 
						248.219,104.838 260.286,97.871 260.248,84.283 248.18,91.251 248.14,77.379 					"/>
				</g>
				<g>
					
						<polygon fill="#010101" stroke="#FFFFFF" stroke-width="1.3898" stroke-linecap="round" stroke-linejoin="round" stroke-miterlimit="10" points="
						236.312,84.208 230.295,80.805 230.333,94.678 236.351,98.082 					"/>
				</g>
				<g>
					
						<polygon fill="#010101" stroke="#FFFFFF" stroke-width="1.3898" stroke-linecap="round" stroke-linejoin="round" stroke-miterlimit="10" points="
						248.14,77.379 242.123,73.975 230.295,80.805 236.312,84.208 					"/>
				</g>
			</g>
		</g>
		<g>
			<g enable-background="new    ">
				
					<path fill="#010101" stroke="#FFFFFF" stroke-width="1.3898" stroke-linecap="round" stroke-linejoin="round" stroke-miterlimit="10" d="
					M170.171,124.86c0.002-0.105,0.008-0.21,0.014-0.315c0.003-0.051,0.008-0.101,0.011-0.152c0.002-0.018,0.003-0.035,0.005-0.052
					c0.003-0.037,0.005-0.077,0.009-0.115c0.01-0.105,0.021-0.212,0.035-0.319c0.014-0.109,0.03-0.218,0.047-0.328
					c0.018-0.109,0.037-0.22,0.057-0.33c0.022-0.114,0.044-0.227,0.069-0.341c0.01-0.042,0.02-0.085,0.031-0.128
					c0.004-0.021,0.009-0.042,0.014-0.062c0.012-0.05,0.022-0.1,0.035-0.152c0.028-0.114,0.06-0.23,0.092-0.346
					c0.024-0.088,0.05-0.176,0.076-0.265c0.004-0.012,0.006-0.021,0.011-0.033c0.004-0.016,0.008-0.032,0.013-0.047
					c0.036-0.114,0.071-0.227,0.109-0.339c0.038-0.111,0.076-0.223,0.116-0.333c0.008-0.023,0.016-0.045,0.026-0.067
					c0.006-0.018,0.011-0.032,0.018-0.05c0.026-0.068,0.051-0.136,0.077-0.205c0.041-0.105,0.084-0.211,0.128-0.317
					c0.032-0.079,0.065-0.155,0.099-0.232c0.006-0.014,0.012-0.025,0.017-0.038c0.007-0.014,0.012-0.028,0.018-0.042
					c0.047-0.107,0.096-0.213,0.144-0.316c0.056-0.117,0.111-0.232,0.167-0.347c0.009-0.018,0.019-0.037,0.028-0.053
					c0.012-0.024,0.024-0.047,0.035-0.07c0.047-0.09,0.093-0.181,0.141-0.27c0.056-0.106,0.116-0.21,0.176-0.314
					c0.027-0.048,0.051-0.099,0.08-0.147c0.011-0.02,0.024-0.037,0.034-0.056c0.012-0.02,0.022-0.04,0.033-0.059
					c0.049-0.083,0.104-0.165,0.155-0.247c0.096-0.158,0.193-0.314,0.294-0.468c0.013-0.023,0.026-0.045,0.041-0.065
					c0.128-0.192,0.261-0.382,0.398-0.567c0.004-0.006,0.007-0.012,0.013-0.019c0.001-0.001,0.002-0.003,0.003-0.005
					c0.095-0.128,0.191-0.255,0.29-0.379c0.075-0.095,0.15-0.189,0.229-0.284c0.007-0.009,0.016-0.017,0.021-0.025
					c0.002-0.002,0.002-0.003,0.003-0.003c0.083-0.1,0.167-0.198,0.251-0.296c0.083-0.095,0.168-0.189,0.255-0.282
					c0.013-0.013,0.026-0.026,0.037-0.039c0.018-0.019,0.035-0.036,0.052-0.054c0.059-0.063,0.119-0.126,0.18-0.188
					c0.09-0.093,0.183-0.183,0.275-0.271c0.027-0.027,0.055-0.051,0.083-0.078c0.023-0.021,0.044-0.042,0.066-0.061
					c0.045-0.043,0.092-0.087,0.138-0.129c0.097-0.087,0.193-0.171,0.291-0.253c0.042-0.036,0.085-0.07,0.127-0.104
					c0.021-0.018,0.041-0.035,0.062-0.052c0.034-0.027,0.068-0.054,0.102-0.082c0.094-0.075,0.19-0.149,0.286-0.219
					c0.07-0.052,0.142-0.101,0.211-0.15c0.011-0.009,0.023-0.016,0.034-0.024c0.013-0.009,0.026-0.019,0.039-0.028
					c0.091-0.062,0.184-0.124,0.276-0.183c0.092-0.058,0.184-0.114,0.277-0.169c0.021-0.013,0.043-0.024,0.064-0.037
					c0.069-0.04,0.139-0.079,0.207-0.115c0.09-0.049,0.179-0.096,0.267-0.139c0.056-0.027,0.111-0.053,0.169-0.078
					c0.016-0.009,0.033-0.017,0.051-0.025c0.015-0.006,0.03-0.014,0.044-0.021c0.088-0.04,0.175-0.077,0.261-0.111
					c0.088-0.035,0.177-0.068,0.263-0.099c0.015-0.005,0.029-0.008,0.043-0.015c0.017-0.005,0.032-0.009,0.047-0.015
					c0.057-0.02,0.115-0.039,0.171-0.057c0.091-0.027,0.18-0.052,0.269-0.075c0.045-0.011,0.089-0.02,0.134-0.029
					c0.016-0.004,0.034-0.008,0.05-0.012c0.027-0.004,0.055-0.012,0.083-0.019c0.097-0.018,0.192-0.034,0.287-0.046
					c0.06-0.009,0.119-0.013,0.178-0.019c0.018-0.002,0.035-0.003,0.053-0.004c0.02-0.002,0.04-0.006,0.058-0.007
					c0.104-0.006,0.207-0.009,0.309-0.009c0.044,0,0.087,0.004,0.131,0.006c0.035,0.001,0.071,0.002,0.105,0.004
					c0.034,0.004,0.069,0.002,0.102,0.006c0.128,0.011,0.253,0.029,0.376,0.054c0.002,0,0.005,0.002,0.007,0.002
					c0.032,0.006,0.06,0.018,0.09,0.025c0.123,0.028,0.244,0.058,0.36,0.099c0.01,0.004,0.019,0.011,0.028,0.014
					c0.163,0.059,0.319,0.131,0.468,0.215c0.011,0.007,0.023,0.01,0.035,0.016l4.139,2.406c1.016,0.591,2.013,1.171,2.887,1.678
					c-0.16-0.091-0.327-0.168-0.501-0.231c-0.125-0.046-0.255-0.082-0.386-0.111c-0.031-0.009-0.061-0.02-0.092-0.026
					c-0.158-0.032-0.32-0.051-0.486-0.062c-0.036-0.003-0.071-0.003-0.106-0.005c-0.162-0.007-0.325-0.004-0.492,0.01
					c-0.023,0.002-0.044,0.004-0.067,0.006c-0.176,0.017-0.355,0.043-0.54,0.083c-0.017,0.003-0.036,0.007-0.055,0.013
					c-0.189,0.042-0.383,0.095-0.579,0.162c-0.011,0.004-0.022,0.006-0.034,0.011c-0.204,0.07-0.413,0.153-0.625,0.251
					c-0.012,0.004-0.024,0.01-0.036,0.016c-0.214,0.1-0.43,0.21-0.651,0.338c-0.222,0.129-0.442,0.27-0.659,0.419
					c-0.009,0.005-0.017,0.011-0.024,0.017c-0.204,0.143-0.405,0.294-0.604,0.455c-0.021,0.017-0.042,0.034-0.064,0.053
					c-0.19,0.156-0.376,0.319-0.56,0.489c-0.02,0.019-0.04,0.038-0.06,0.057c-0.183,0.172-0.362,0.351-0.537,0.537
					c-0.019,0.02-0.039,0.039-0.056,0.059c-0.188,0.2-0.371,0.407-0.547,0.62c-0.004,0.005-0.008,0.01-0.012,0.015
					c-0.348,0.42-0.676,0.867-0.983,1.331c-0.089,0.135-0.173,0.275-0.258,0.413c-0.077,0.125-0.158,0.247-0.23,0.374
					c-0.027,0.046-0.052,0.093-0.077,0.138c-0.121,0.21-0.236,0.423-0.346,0.638c-0.012,0.021-0.022,0.044-0.034,0.065
					c-0.261,0.517-0.492,1.044-0.688,1.577c-0.001,0.002-0.003,0.004-0.004,0.007c-0.1,0.27-0.191,0.541-0.272,0.813
					c-0.001,0-0.001,0.001-0.001,0.001c-0.08,0.265-0.15,0.529-0.212,0.792c-0.003,0.015-0.007,0.031-0.01,0.047
					c-0.122,0.527-0.207,1.053-0.25,1.569c-0.001,0.016-0.003,0.034-0.005,0.051c-0.02,0.256-0.031,0.51-0.029,0.761
					c0,0.249,0.013,0.487,0.034,0.718c0.002,0.018,0.004,0.036,0.006,0.054c0.021,0.211,0.051,0.416,0.089,0.612
					c0.004,0.026,0.011,0.055,0.017,0.082c0.038,0.187,0.085,0.366,0.139,0.538c0.011,0.034,0.022,0.067,0.033,0.1
					c0.057,0.166,0.118,0.327,0.187,0.477c0.004,0.012,0.009,0.023,0.014,0.034c0.079,0.167,0.167,0.325,0.26,0.473
					c0.135,0.209,0.289,0.392,0.454,0.561c0.041,0.041,0.081,0.08,0.123,0.118c0.171,0.16,0.352,0.305,0.552,0.421l-7.027-4.084
					c-0.199-0.116-0.38-0.261-0.553-0.421c-0.041-0.039-0.081-0.078-0.122-0.119c-0.165-0.167-0.319-0.352-0.453-0.56
					c-0.003-0.003-0.005-0.005-0.006-0.008c-0.09-0.142-0.173-0.29-0.248-0.448c-0.003-0.006-0.005-0.012-0.007-0.018
					c-0.005-0.009-0.007-0.017-0.012-0.026c-0.049-0.105-0.096-0.214-0.138-0.328c-0.019-0.05-0.034-0.104-0.051-0.156
					c-0.012-0.034-0.022-0.066-0.034-0.101c-0.009-0.03-0.02-0.057-0.029-0.087c-0.032-0.107-0.061-0.218-0.088-0.333
					c-0.009-0.042-0.016-0.086-0.024-0.129c-0.005-0.021-0.009-0.041-0.013-0.062c-0.007-0.043-0.018-0.084-0.025-0.128
					c-0.017-0.1-0.033-0.205-0.047-0.311c-0.008-0.059-0.012-0.12-0.018-0.181c-0.002-0.018-0.004-0.036-0.006-0.053
					c-0.002-0.027-0.006-0.053-0.008-0.08c-0.008-0.101-0.014-0.202-0.02-0.306c-0.004-0.104-0.006-0.209-0.006-0.314
					c0-0.007,0-0.012,0-0.018C170.166,125.056,170.167,124.958,170.171,124.86z"/>
				<g>
					
						<path fill="#010101" stroke="#FFFFFF" stroke-width="1.3898" stroke-linecap="round" stroke-linejoin="round" stroke-miterlimit="10" d="
						M183.716,117.94c-3.61,2.084-6.534,7.149-6.522,11.298c0.011,4.14,2.955,5.817,6.564,3.734
						c3.61-2.084,6.529-7.147,6.517-11.288C190.263,117.538,187.324,115.856,183.716,117.94z"/>
				</g>
			</g>
		</g>
		<g>
			<g enable-background="new    ">
				
					<path fill="#010101" stroke="#FFFFFF" stroke-width="1.3898" stroke-linecap="round" stroke-linejoin="round" stroke-miterlimit="10" d="
					M196.771,75.171c0.076,0.042,0.154,0.083,0.234,0.122c0.037,0.019,0.076,0.036,0.114,0.055c0.014,0.005,0.026,0.012,0.04,0.018
					c0.029,0.015,0.057,0.028,0.086,0.042c0.082,0.036,0.163,0.073,0.247,0.108c0.084,0.035,0.171,0.069,0.258,0.104
					c0.087,0.031,0.174,0.063,0.264,0.095c0.091,0.032,0.184,0.063,0.276,0.092c0.034,0.012,0.07,0.022,0.105,0.033
					c0.018,0.004,0.036,0.009,0.052,0.015c0.042,0.012,0.083,0.025,0.125,0.037c0.096,0.028,0.192,0.055,0.291,0.079
					c0.074,0.019,0.148,0.037,0.224,0.055c0.01,0.003,0.019,0.004,0.028,0.006c0.014,0.003,0.026,0.006,0.041,0.01
					c0.095,0.022,0.192,0.042,0.29,0.063c0.097,0.019,0.193,0.038,0.291,0.055c0.02,0.003,0.04,0.006,0.059,0.01
					c0.016,0.002,0.028,0.005,0.044,0.007c0.061,0.011,0.12,0.021,0.181,0.03c0.095,0.015,0.188,0.028,0.284,0.041
					c0.071,0.008,0.14,0.018,0.21,0.025c0.012,0,0.023,0.001,0.035,0.003c0.014,0.001,0.025,0.004,0.038,0.006
					c0.098,0.01,0.195,0.019,0.291,0.027c0.106,0.008,0.214,0.016,0.322,0.022c0.016,0.002,0.033,0.002,0.049,0.003
					c0.022,0.001,0.045,0.001,0.065,0.003c0.085,0.003,0.17,0.009,0.256,0.01c0.1,0.004,0.2,0.004,0.301,0.004
					c0.047,0,0.093,0.003,0.142,0.003c0.018,0,0.036-0.001,0.054-0.001c0.019,0,0.038,0,0.056,0c0.082,0,0.164-0.006,0.244-0.009
					c0.154-0.005,0.31-0.008,0.463-0.018c0.022,0,0.044,0,0.065-0.002c0.193-0.013,0.386-0.03,0.577-0.053c0.007,0,0.013,0,0.019,0
					c0.002,0,0.003,0,0.005-0.001c0.133-0.016,0.265-0.032,0.397-0.051c0.101-0.014,0.201-0.03,0.301-0.048
					c0.01-0.002,0.02-0.004,0.029-0.004c0-0.001,0.001-0.001,0.002-0.001c0.107-0.018,0.215-0.038,0.32-0.06
					c0.104-0.021,0.208-0.042,0.312-0.067c0.014-0.002,0.027-0.007,0.042-0.01c0.021-0.005,0.042-0.01,0.061-0.016
					c0.071-0.017,0.143-0.033,0.212-0.051c0.105-0.027,0.21-0.057,0.313-0.085c0.029-0.01,0.061-0.02,0.091-0.028
					c0.023-0.009,0.048-0.015,0.071-0.023c0.051-0.015,0.102-0.029,0.152-0.045c0.104-0.034,0.205-0.069,0.306-0.106
					c0.043-0.015,0.084-0.032,0.129-0.049c0.021-0.007,0.042-0.015,0.062-0.023c0.035-0.014,0.068-0.025,0.103-0.039
					c0.095-0.037,0.188-0.077,0.278-0.117c0.066-0.03,0.132-0.06,0.198-0.09c0.01-0.005,0.021-0.01,0.031-0.016
					c0.012-0.005,0.025-0.011,0.036-0.016c0.083-0.04,0.167-0.082,0.249-0.125c0.08-0.042,0.159-0.085,0.238-0.13
					c0.018-0.01,0.036-0.021,0.053-0.032c0.06-0.034,0.116-0.066,0.171-0.1c0.073-0.047,0.145-0.091,0.213-0.138
					c0.043-0.029,0.083-0.059,0.128-0.088c0.013-0.009,0.026-0.02,0.038-0.028c0.011-0.007,0.024-0.015,0.034-0.024
					c0.065-0.046,0.128-0.094,0.19-0.143c0.062-0.049,0.122-0.1,0.182-0.148c0.01-0.009,0.019-0.018,0.027-0.026
					c0.012-0.01,0.021-0.019,0.032-0.027c0.037-0.034,0.076-0.069,0.112-0.102c0.057-0.055,0.113-0.109,0.166-0.165
					c0.027-0.027,0.052-0.056,0.079-0.084c0.008-0.01,0.019-0.021,0.028-0.032c0.015-0.018,0.032-0.035,0.049-0.052
					c0.052-0.062,0.104-0.124,0.154-0.188c0.03-0.041,0.059-0.081,0.087-0.122c0.007-0.012,0.018-0.024,0.026-0.036
					c0.008-0.014,0.02-0.026,0.028-0.04c0.049-0.073,0.094-0.146,0.136-0.22c0.02-0.033,0.033-0.066,0.051-0.098
					c0.013-0.026,0.026-0.053,0.04-0.078c0.013-0.026,0.027-0.051,0.039-0.077c0.045-0.098,0.085-0.196,0.118-0.296
					c0.001-0.001,0.001-0.004,0.001-0.006c0.01-0.025,0.013-0.05,0.021-0.075c0.03-0.101,0.06-0.201,0.078-0.303
					c0.001-0.008,0.001-0.017,0.003-0.026c0.024-0.144,0.037-0.287,0.04-0.431c0-0.009,0.002-0.021,0.002-0.032l-0.016-4.01
					c-0.004-0.984-0.008-1.951-0.012-2.798c0.001,0.155-0.015,0.307-0.041,0.46c-0.018,0.111-0.047,0.219-0.079,0.328
					c-0.009,0.025-0.012,0.052-0.021,0.078c-0.042,0.127-0.097,0.253-0.158,0.379c-0.013,0.025-0.028,0.051-0.041,0.078
					c-0.062,0.12-0.133,0.238-0.211,0.353c-0.012,0.016-0.023,0.03-0.034,0.046c-0.087,0.121-0.179,0.241-0.286,0.357
					c-0.01,0.011-0.021,0.023-0.031,0.035c-0.109,0.119-0.229,0.238-0.36,0.352c-0.007,0.007-0.013,0.013-0.021,0.02
					c-0.136,0.119-0.283,0.236-0.442,0.35c-0.008,0.006-0.019,0.012-0.027,0.019c-0.162,0.114-0.333,0.224-0.518,0.331
					c-0.187,0.108-0.381,0.21-0.58,0.304c-0.008,0.004-0.016,0.007-0.021,0.01c-0.188,0.089-0.385,0.171-0.584,0.248
					c-0.021,0.009-0.043,0.018-0.064,0.025c-0.193,0.074-0.39,0.139-0.588,0.203c-0.023,0.007-0.045,0.014-0.067,0.021
					c-0.202,0.06-0.407,0.117-0.615,0.166c-0.022,0.004-0.045,0.01-0.066,0.016c-0.223,0.052-0.45,0.099-0.678,0.139
					c-0.006,0-0.01,0.001-0.016,0.001c-0.452,0.078-0.913,0.128-1.378,0.158c-0.135,0.009-0.271,0.012-0.407,0.016
					c-0.124,0.004-0.246,0.01-0.369,0.01c-0.044,0-0.089-0.001-0.132-0.003c-0.202,0-0.405-0.004-0.606-0.015
					c-0.021,0-0.042-0.002-0.062-0.003c-0.485-0.025-0.963-0.079-1.433-0.159c-0.002,0-0.004,0-0.006-0.001
					c-0.239-0.041-0.473-0.088-0.705-0.142h-0.001c-0.226-0.052-0.447-0.112-0.663-0.178c-0.013-0.004-0.027-0.008-0.04-0.012
					c-0.435-0.133-0.851-0.291-1.243-0.475c-0.014-0.005-0.025-0.014-0.039-0.018c-0.194-0.094-0.384-0.191-0.565-0.297
					c-0.181-0.105-0.349-0.214-0.508-0.325c-0.012-0.008-0.024-0.018-0.037-0.027c-0.144-0.104-0.278-0.211-0.406-0.32
					c-0.017-0.015-0.034-0.031-0.051-0.047c-0.121-0.105-0.23-0.214-0.332-0.326c-0.021-0.022-0.041-0.044-0.06-0.066
					c-0.098-0.11-0.188-0.221-0.269-0.336c-0.006-0.007-0.013-0.015-0.019-0.024c-0.088-0.126-0.166-0.255-0.233-0.386
					c-0.096-0.186-0.164-0.374-0.219-0.564c-0.013-0.047-0.024-0.091-0.034-0.139c-0.043-0.191-0.073-0.383-0.075-0.577l0.025,6.81
					c0.002,0.193,0.032,0.386,0.076,0.578c0.011,0.045,0.021,0.091,0.034,0.137c0.054,0.191,0.123,0.38,0.219,0.565
					c0.001,0.004,0.001,0.006,0.003,0.008c0.063,0.124,0.138,0.247,0.222,0.366c0.002,0.005,0.007,0.009,0.01,0.013
					c0.003,0.008,0.01,0.013,0.014,0.02c0.057,0.08,0.115,0.159,0.181,0.237c0.027,0.034,0.062,0.068,0.091,0.103
					c0.021,0.022,0.038,0.043,0.06,0.067c0.018,0.018,0.033,0.037,0.051,0.056c0.064,0.069,0.134,0.137,0.205,0.204
					c0.026,0.023,0.055,0.048,0.085,0.072c0.012,0.013,0.023,0.023,0.038,0.036c0.027,0.023,0.053,0.047,0.083,0.072
					c0.066,0.054,0.135,0.11,0.205,0.164c0.039,0.03,0.083,0.06,0.124,0.088c0.012,0.01,0.024,0.019,0.035,0.027
					c0.02,0.013,0.036,0.026,0.056,0.039c0.069,0.049,0.141,0.095,0.214,0.142c0.073,0.046,0.148,0.092,0.225,0.137
					c0.006,0.002,0.01,0.004,0.015,0.007C196.625,75.093,196.697,75.133,196.771,75.171z"/>
				<g>
					
						<path fill="#010101" stroke="#FFFFFF" stroke-width="1.3898" stroke-linecap="round" stroke-linejoin="round" stroke-miterlimit="10" d="
						M207.459,68.231c-3.022,1.751-7.924,1.754-10.93,0.011c-3.001-1.74-2.988-4.578,0.034-6.327
						c3.024-1.75,7.919-1.751,10.92-0.011C210.489,63.647,210.481,66.484,207.459,68.231z"/>
				</g>
			</g>
		</g>
		<g>
			<g enable-background="new    ">
				
					<path fill="#010101" stroke="#FFFFFF" stroke-width="1.3898" stroke-linecap="round" stroke-linejoin="round" stroke-miterlimit="10" d="
					M189.696,138.41c0.003-0.104,0.008-0.209,0.015-0.316c0.002-0.05,0.008-0.1,0.011-0.15c0.002-0.018,0.003-0.035,0.005-0.052
					c0.002-0.038,0.005-0.076,0.009-0.114c0.01-0.106,0.021-0.212,0.035-0.319c0.014-0.11,0.03-0.219,0.047-0.329
					c0.018-0.109,0.036-0.22,0.057-0.33c0.022-0.113,0.044-0.227,0.069-0.341c0.009-0.042,0.021-0.086,0.031-0.128
					c0.004-0.021,0.009-0.042,0.015-0.062c0.012-0.051,0.022-0.101,0.035-0.152c0.028-0.114,0.059-0.23,0.091-0.346
					c0.025-0.089,0.051-0.178,0.077-0.266c0.004-0.012,0.006-0.022,0.011-0.033c0.003-0.017,0.008-0.031,0.013-0.048
					c0.035-0.113,0.071-0.227,0.108-0.339c0.038-0.111,0.076-0.222,0.116-0.333c0.008-0.021,0.016-0.044,0.026-0.066
					c0.006-0.017,0.011-0.032,0.018-0.05c0.025-0.068,0.051-0.136,0.077-0.204c0.041-0.107,0.084-0.213,0.128-0.318
					c0.032-0.079,0.065-0.156,0.099-0.232c0.005-0.014,0.012-0.026,0.017-0.039c0.006-0.015,0.012-0.028,0.018-0.043
					c0.047-0.106,0.095-0.212,0.144-0.316c0.055-0.117,0.111-0.233,0.167-0.347c0.008-0.017,0.019-0.035,0.027-0.052
					c0.012-0.025,0.025-0.047,0.036-0.069c0.047-0.091,0.094-0.182,0.141-0.271c0.057-0.107,0.117-0.21,0.177-0.314
					c0.027-0.049,0.051-0.099,0.079-0.146c0.011-0.02,0.024-0.039,0.034-0.056c0.012-0.02,0.022-0.041,0.034-0.059
					c0.049-0.083,0.103-0.165,0.155-0.248c0.096-0.157,0.191-0.314,0.294-0.468c0.014-0.022,0.026-0.043,0.041-0.064
					c0.127-0.194,0.261-0.382,0.397-0.567c0.004-0.008,0.008-0.012,0.013-0.02c0.001-0.002,0.002-0.003,0.003-0.005
					c0.096-0.127,0.192-0.254,0.291-0.379c0.075-0.095,0.149-0.189,0.228-0.283c0.008-0.009,0.016-0.018,0.021-0.026
					c0.002-0.002,0.002-0.003,0.003-0.003c0.082-0.1,0.168-0.198,0.252-0.295c0.083-0.096,0.168-0.189,0.255-0.282
					c0.013-0.014,0.025-0.026,0.037-0.04c0.019-0.019,0.033-0.036,0.052-0.054c0.06-0.063,0.118-0.127,0.18-0.188
					c0.09-0.093,0.182-0.184,0.274-0.273c0.027-0.026,0.056-0.051,0.083-0.077c0.022-0.021,0.045-0.042,0.067-0.061
					c0.044-0.043,0.09-0.087,0.138-0.129c0.097-0.086,0.192-0.171,0.291-0.252c0.041-0.037,0.084-0.071,0.127-0.104
					c0.021-0.018,0.041-0.034,0.062-0.052c0.034-0.027,0.067-0.054,0.102-0.082c0.094-0.075,0.19-0.149,0.286-0.218
					c0.069-0.051,0.141-0.101,0.211-0.15c0.012-0.008,0.023-0.016,0.034-0.024c0.014-0.009,0.026-0.018,0.039-0.028
					c0.092-0.062,0.184-0.124,0.276-0.183c0.092-0.059,0.185-0.114,0.277-0.169c0.021-0.013,0.043-0.025,0.063-0.038
					c0.069-0.041,0.139-0.079,0.207-0.116c0.089-0.048,0.179-0.096,0.267-0.138c0.056-0.028,0.111-0.053,0.169-0.078
					c0.016-0.009,0.034-0.017,0.051-0.024c0.014-0.008,0.03-0.015,0.045-0.022c0.088-0.039,0.175-0.077,0.261-0.111
					c0.088-0.034,0.177-0.067,0.263-0.099c0.015-0.005,0.029-0.008,0.044-0.014c0.016-0.005,0.031-0.009,0.047-0.014
					c0.057-0.021,0.115-0.04,0.172-0.057c0.091-0.028,0.18-0.052,0.269-0.075c0.045-0.01,0.09-0.02,0.134-0.029
					c0.017-0.003,0.035-0.008,0.05-0.012c0.028-0.005,0.057-0.013,0.083-0.018c0.098-0.018,0.192-0.035,0.287-0.047
					c0.06-0.008,0.119-0.013,0.18-0.019c0.017-0.002,0.034-0.004,0.052-0.006c0.02-0.001,0.039-0.004,0.059-0.005
					c0.104-0.007,0.206-0.01,0.309-0.009c0.044,0,0.087,0.003,0.131,0.006c0.035,0,0.07,0.002,0.105,0.004
					c0.034,0.003,0.068,0.003,0.102,0.004c0.129,0.013,0.254,0.031,0.377,0.055c0.002,0,0.005,0.001,0.008,0.002
					c0.031,0.006,0.06,0.018,0.09,0.025c0.123,0.028,0.244,0.059,0.359,0.1c0.011,0.002,0.02,0.01,0.028,0.014
					c0.164,0.059,0.319,0.131,0.469,0.215c0.011,0.006,0.023,0.01,0.034,0.015l4.14,2.406c1.016,0.591,2.013,1.17,2.887,1.678
					c-0.16-0.092-0.327-0.167-0.502-0.232c-0.125-0.044-0.255-0.081-0.386-0.111c-0.031-0.008-0.061-0.018-0.092-0.025
					c-0.157-0.033-0.319-0.051-0.485-0.062c-0.036-0.003-0.071-0.004-0.107-0.005c-0.161-0.006-0.324-0.004-0.491,0.01
					c-0.022,0.001-0.044,0.004-0.066,0.007c-0.176,0.017-0.355,0.043-0.54,0.083c-0.017,0.003-0.035,0.008-0.054,0.012
					c-0.19,0.042-0.383,0.096-0.579,0.163c-0.011,0.003-0.021,0.006-0.033,0.01c-0.204,0.069-0.413,0.153-0.626,0.251
					c-0.012,0.005-0.023,0.01-0.035,0.016c-0.214,0.1-0.431,0.21-0.65,0.337c-0.223,0.129-0.443,0.27-0.66,0.42
					c-0.009,0.005-0.016,0.01-0.023,0.016c-0.203,0.142-0.405,0.294-0.604,0.455c-0.022,0.018-0.043,0.034-0.064,0.053
					c-0.19,0.156-0.376,0.319-0.56,0.489c-0.02,0.019-0.04,0.037-0.061,0.056c-0.183,0.172-0.361,0.352-0.536,0.538
					c-0.02,0.019-0.039,0.039-0.057,0.059c-0.187,0.2-0.371,0.406-0.547,0.62c-0.005,0.005-0.009,0.009-0.013,0.014
					c-0.349,0.421-0.676,0.869-0.982,1.331c-0.091,0.135-0.174,0.275-0.259,0.413c-0.078,0.126-0.158,0.249-0.231,0.374
					c-0.026,0.046-0.051,0.093-0.075,0.138c-0.121,0.21-0.236,0.423-0.346,0.638c-0.012,0.023-0.023,0.043-0.034,0.067
					c-0.261,0.517-0.492,1.043-0.688,1.576c-0.001,0.001-0.002,0.004-0.003,0.007c-0.1,0.271-0.19,0.542-0.272,0.813
					c-0.001,0-0.001,0.001-0.001,0.001c-0.08,0.265-0.149,0.528-0.212,0.792c-0.003,0.016-0.007,0.032-0.01,0.048
					c-0.122,0.527-0.206,1.054-0.249,1.569c-0.002,0.017-0.004,0.034-0.006,0.051c-0.019,0.257-0.03,0.51-0.029,0.761
					c0.001,0.25,0.013,0.489,0.034,0.72c0.002,0.017,0.003,0.035,0.006,0.053c0.021,0.211,0.051,0.417,0.088,0.612
					c0.006,0.027,0.012,0.054,0.018,0.082c0.039,0.187,0.086,0.365,0.14,0.538c0.011,0.035,0.022,0.067,0.033,0.101
					c0.056,0.166,0.117,0.326,0.188,0.476c0.003,0.013,0.008,0.023,0.014,0.035c0.078,0.167,0.166,0.324,0.26,0.472
					c0.135,0.209,0.289,0.393,0.455,0.562c0.039,0.04,0.079,0.08,0.121,0.118c0.172,0.16,0.353,0.305,0.553,0.421l-7.027-4.084
					c-0.199-0.115-0.381-0.262-0.553-0.421c-0.041-0.039-0.082-0.078-0.122-0.119c-0.165-0.167-0.319-0.352-0.453-0.562
					c-0.002-0.003-0.005-0.004-0.007-0.008c-0.089-0.141-0.172-0.289-0.248-0.447c-0.003-0.005-0.005-0.011-0.007-0.017
					c-0.005-0.01-0.007-0.018-0.012-0.026c-0.049-0.106-0.096-0.214-0.138-0.328c-0.019-0.05-0.034-0.104-0.051-0.156
					c-0.012-0.034-0.021-0.067-0.034-0.101c-0.009-0.03-0.02-0.057-0.028-0.087c-0.033-0.107-0.062-0.218-0.088-0.333
					c-0.009-0.041-0.017-0.085-0.025-0.129c-0.005-0.02-0.009-0.04-0.013-0.061c-0.008-0.043-0.018-0.084-0.026-0.129
					c-0.017-0.101-0.033-0.205-0.047-0.311c-0.007-0.059-0.012-0.12-0.018-0.181c-0.002-0.017-0.004-0.035-0.006-0.053
					c-0.002-0.026-0.006-0.053-0.007-0.08c-0.009-0.101-0.015-0.202-0.02-0.306c-0.005-0.103-0.007-0.209-0.007-0.314
					c0-0.006,0-0.013,0-0.019C189.69,138.606,189.693,138.509,189.696,138.41z"/>
				<g>
					
						<path fill="#010101" stroke="#FFFFFF" stroke-width="1.3898" stroke-linecap="round" stroke-linejoin="round" stroke-miterlimit="10" d="
						M203.241,131.49c-3.611,2.085-6.534,7.15-6.522,11.297c0.011,4.141,2.955,5.818,6.564,3.735
						c3.608-2.085,6.528-7.148,6.516-11.288C209.787,131.088,206.849,129.407,203.241,131.49z"/>
				</g>
			</g>
		</g>
		
			<path fill="none" stroke="#FFFFFF" stroke-width="1.3898" stroke-linecap="round" stroke-linejoin="round" stroke-miterlimit="10" d="
			M202.019,63.866V23.184c0,0,1.947-14.601-10.706-14.601c-12.655,0-11.843,11.843-11.843,11.843s1.459,14.114-11.194,14.114
			c-12.654,0-12.979-12.979-12.979-12.979V7.98"/>
	</g>
</g>
</svg>
