<?xml version="1.0" encoding="utf-8"?>
<!-- Generator: Adobe Illustrator 15.0.0, SVG Export Plug-In . SVG Version: 6.00 Build 0)  -->
<!DOCTYPE svg PUBLIC "-//W3C//DTD SVG 1.1//EN" "http://www.w3.org/Graphics/SVG/1.1/DTD/svg11.dtd">
<svg version="1.1" id="Layer_1" xmlns="http://www.w3.org/2000/svg" xmlns:xlink="http://www.w3.org/1999/xlink" x="0px" y="0px"
	 width="109.98px" height="134.95px" viewBox="170.86 82.782 109.98 134.95" enable-background="new 170.86 82.782 109.98 134.95"
	 xml:space="preserve">
<g>
	<defs>
		<path id="SVGID_1_" d="M266.743,94.221c0,0-16.286-12.142-28.499-9.516c-25.812,5.551-54.163,37.089-62.932,72.417
			c-11.956,42.767,20.522,55.318,20.522,55.318s24.29,12.869,49.076-18.998C269.697,161.575,282.674,131.323,266.743,94.221z"/>
	</defs>
	<use xlink:href="#SVGID_1_"  overflow="visible" fill="#FFFFFF"/>
	<clipPath id="SVGID_2_">
		<use xlink:href="#SVGID_1_"  overflow="visible"/>
	</clipPath>
	<g clip-path="url(#SVGID_2_)">
		
			<line fill="#FFFFFF" stroke="#000000" stroke-width="1.1803" stroke-linecap="round" stroke-linejoin="round" stroke-miterlimit="10" x1="166.972" y1="188.043" x2="198.771" y2="206.325"/>
		
			<line fill="#FFFFFF" stroke="#000000" stroke-width="1.1803" stroke-linecap="round" stroke-linejoin="round" stroke-miterlimit="10" x1="164.925" y1="179.171" x2="196.725" y2="197.453"/>
		
			<line fill="#FFFFFF" stroke="#000000" stroke-width="1.1803" stroke-linecap="round" stroke-linejoin="round" stroke-miterlimit="10" x1="164.584" y1="169.616" x2="196.384" y2="187.898"/>
		
			<line fill="#FFFFFF" stroke="#000000" stroke-width="1.1803" stroke-linecap="round" stroke-linejoin="round" stroke-miterlimit="10" x1="164.925" y1="158.355" x2="196.725" y2="176.638"/>
		
			<line fill="#FFFFFF" stroke="#000000" stroke-width="1.1803" stroke-linecap="round" stroke-linejoin="round" stroke-miterlimit="10" x1="166.29" y1="148.459" x2="198.09" y2="166.741"/>
		
			<line fill="#FFFFFF" stroke="#000000" stroke-width="1.1803" stroke-linecap="round" stroke-linejoin="round" stroke-miterlimit="10" x1="169.02" y1="138.904" x2="200.819" y2="157.187"/>
		
			<line fill="#FFFFFF" stroke="#000000" stroke-width="1.1803" stroke-linecap="round" stroke-linejoin="round" stroke-miterlimit="10" x1="172.091" y1="130.032" x2="203.891" y2="148.314"/>
		
			<line fill="#FFFFFF" stroke="#000000" stroke-width="1.1803" stroke-linecap="round" stroke-linejoin="round" stroke-miterlimit="10" x1="176.187" y1="121.501" x2="207.986" y2="139.783"/>
		
			<line fill="#FFFFFF" stroke="#000000" stroke-width="1.1803" stroke-linecap="round" stroke-linejoin="round" stroke-miterlimit="10" x1="180.623" y1="113.994" x2="212.422" y2="132.276"/>
		
			<line fill="#FFFFFF" stroke="#000000" stroke-width="1.1803" stroke-linecap="round" stroke-linejoin="round" stroke-miterlimit="10" x1="186.082" y1="107.169" x2="217.882" y2="125.451"/>
		
			<line fill="#FFFFFF" stroke="#000000" stroke-width="1.1803" stroke-linecap="round" stroke-linejoin="round" stroke-miterlimit="10" x1="191.542" y1="100.686" x2="223.341" y2="118.968"/>
		
			<line fill="#FFFFFF" stroke="#000000" stroke-width="1.1803" stroke-linecap="round" stroke-linejoin="round" stroke-miterlimit="10" x1="198.025" y1="94.884" x2="229.825" y2="113.167"/>
		
			<line fill="#FFFFFF" stroke="#000000" stroke-width="1.1803" stroke-linecap="round" stroke-linejoin="round" stroke-miterlimit="10" x1="204.851" y1="89.766" x2="236.649" y2="108.048"/>
		
			<line fill="#FFFFFF" stroke="#000000" stroke-width="1.1803" stroke-linecap="round" stroke-linejoin="round" stroke-miterlimit="10" x1="210.651" y1="85.33" x2="242.451" y2="103.612"/>
		
			<line fill="#FFFFFF" stroke="#000000" stroke-width="1.1803" stroke-linecap="round" stroke-linejoin="round" stroke-miterlimit="10" x1="216.452" y1="81.917" x2="248.252" y2="100.2"/>
		
			<line fill="#FFFFFF" stroke="#000000" stroke-width="1.1803" stroke-linecap="round" stroke-linejoin="round" stroke-miterlimit="10" x1="223.619" y1="80.211" x2="255.418" y2="98.494"/>
		
			<line fill="#FFFFFF" stroke="#000000" stroke-width="1.1803" stroke-linecap="round" stroke-linejoin="round" stroke-miterlimit="10" x1="230.784" y1="79.87" x2="262.584" y2="98.152"/>
		
			<line fill="#FFFFFF" stroke="#000000" stroke-width="1.1803" stroke-linecap="round" stroke-linejoin="round" stroke-miterlimit="10" x1="236.244" y1="79.87" x2="268.044" y2="98.152"/>
	</g>
	
		<use xlink:href="#SVGID_1_"  overflow="visible" fill="none" stroke="#000000" stroke-width="1.1803" stroke-linecap="round" stroke-linejoin="round" stroke-miterlimit="10"/>
</g>
<path fill="#FFFFFF" stroke="#000000" stroke-width="1.1803" stroke-linecap="round" stroke-linejoin="round" stroke-miterlimit="10" d="
	M277.104,144.892c-8.585,34.52-36.167,66.199-61.605,70.759c-25.439,4.56-39.102-19.728-30.517-54.247
	c8.584-34.52,36.167-66.199,61.606-70.758C272.025,86.084,285.688,110.372,277.104,144.892z"/>
<path fill="#FFFFFF" stroke="#000000" stroke-width="1.1803" stroke-linecap="round" stroke-linejoin="round" stroke-miterlimit="10" stroke-dasharray="1.1803,3.9345" d="
	M272.675,143.011c-7.7,31.533-32.442,61.773-55.262,67.545c-22.82,5.771-35.077-15.112-27.375-46.645
	c7.701-31.533,32.443-61.774,55.262-67.545C268.119,90.594,280.375,111.478,272.675,143.011z"/>
<g>
	
		<polygon fill="#FFFFFF" stroke="#000000" stroke-width="1.1803" stroke-linecap="round" stroke-linejoin="round" stroke-miterlimit="10" points="
		229.886,178.525 240.83,156.15 249.585,150.881 244.803,137.1 237.02,141.478 231.994,128.264 221.293,150.477 212.618,155.826 
		217.158,169.282 225.184,165.067 	"/>
	
		<line fill="#FFFFFF" stroke="#000000" stroke-width="1.1803" stroke-linecap="round" stroke-linejoin="round" stroke-miterlimit="10" x1="225.184" y1="165.067" x2="237.02" y2="141.478"/>
	
		<polyline fill="#FFFFFF" stroke="#000000" stroke-width="1.1803" stroke-linecap="round" stroke-linejoin="round" stroke-miterlimit="10" points="
		240.83,156.15 233.534,160.042 228.508,146.423 221.293,150.477 	"/>
</g>
</svg>
