<?xml version="1.0" encoding="utf-8"?>
<!-- Generator: Adobe Illustrator 15.0.0, SVG Export Plug-In . SVG Version: 6.00 Build 0)  -->
<!DOCTYPE svg PUBLIC "-//W3C//DTD SVG 1.1//EN" "http://www.w3.org/Graphics/SVG/1.1/DTD/svg11.dtd">
<svg version="1.1" id="Layer_1" xmlns="http://www.w3.org/2000/svg" xmlns:xlink="http://www.w3.org/1999/xlink" x="0px" y="0px"
	 width="173.961px" height="137.135px" viewBox="0 0 173.961 137.135" enable-background="new 0 0 173.961 137.135"
	 xml:space="preserve">
<g>
	
		<line fill="none" stroke="#000000" stroke-width="1.3959" stroke-linecap="round" stroke-linejoin="round" stroke-miterlimit="10" x1="172.414" y1="30.576" x2="130.689" y2="54.712"/>
	
		<line fill="none" stroke="#000000" stroke-width="1.3959" stroke-linecap="round" stroke-linejoin="round" stroke-miterlimit="10" x1="121.706" y1="68.725" x2="41.962" y2="114.851"/>
	
		<line fill="none" stroke="#000000" stroke-width="1.3959" stroke-linecap="round" stroke-linejoin="round" stroke-miterlimit="10" x1="172.414" y1="30.854" x2="138.882" y2="83.746"/>
	
		<line fill="none" stroke="#000000" stroke-width="1.3959" stroke-linecap="round" stroke-linejoin="round" stroke-miterlimit="10" x1="130.458" y1="55.077" x2="121.865" y2="68.632"/>
	
		<line fill="none" stroke="#000000" stroke-width="1.3959" stroke-linecap="round" stroke-linejoin="round" stroke-miterlimit="10" x1="138.794" y1="83.724" x2="48.214" y2="136.021"/>
	
		<line fill="none" stroke="#000000" stroke-width="1.3959" stroke-linecap="round" stroke-linejoin="round" stroke-miterlimit="10" x1="48.104" y1="135.993" x2="48.104" y2="126.224"/>
	
		<line fill="none" stroke="#000000" stroke-width="1.3959" stroke-linecap="round" stroke-linejoin="round" stroke-miterlimit="10" x1="48.074" y1="126.033" x2="42.098" y2="123.508"/>
	
		<line fill="none" stroke="#000000" stroke-width="1.3959" stroke-linecap="round" stroke-linejoin="round" stroke-miterlimit="10" x1="41.962" y1="123.149" x2="41.962" y2="114.774"/>
	
		<line fill="none" stroke="#000000" stroke-width="1.3959" stroke-linecap="round" stroke-linejoin="round" stroke-miterlimit="10" x1="114.273" y1="17.62" x2="90.21" y2="31.539"/>
	
		<line fill="none" stroke="#000000" stroke-width="1.3959" stroke-linecap="round" stroke-linejoin="round" stroke-miterlimit="10" x1="24.374" y1="78.437" x2="1.48" y2="91.681"/>
	
		<line fill="none" stroke="#000000" stroke-width="1.3959" stroke-linecap="round" stroke-linejoin="round" stroke-miterlimit="10" x1="60.497" y1="57.541" x2="45.331" y2="66.312"/>
	
		<line fill="none" stroke="#000000" stroke-width="1.3959" stroke-linecap="round" stroke-linejoin="round" stroke-miterlimit="10" x1="89.977" y1="31.905" x2="83.169" y2="42.645"/>
	
		<line fill="none" stroke="#000000" stroke-width="1.3959" stroke-linecap="round" stroke-linejoin="round" stroke-miterlimit="10" x1="7.624" y1="112.542" x2="7.624" y2="103.888"/>
	
		<line fill="none" stroke="#000000" stroke-width="1.3959" stroke-linecap="round" stroke-linejoin="round" stroke-miterlimit="10" x1="1.481" y1="99.979" x2="1.481" y2="91.882"/>
	
		<polygon fill="none" stroke="#000000" stroke-width="1.3959" stroke-linecap="round" stroke-linejoin="round" stroke-miterlimit="10" points="
		50.618,95.882 36.657,104.062 36.657,77.944 50.618,69.765 	"/>
	
		<line fill="none" stroke="#000000" stroke-width="1.3959" stroke-linecap="round" stroke-linejoin="round" stroke-miterlimit="10" x1="24.374" y1="70.966" x2="38.614" y2="62.589"/>
	
		<line fill="none" stroke="#000000" stroke-width="1.3959" stroke-linecap="round" stroke-linejoin="round" stroke-miterlimit="10" x1="24.374" y1="96.907" x2="24.374" y2="70.942"/>
	
		<polygon fill="none" stroke="#000000" stroke-width="1.3959" stroke-linecap="round" stroke-linejoin="round" stroke-miterlimit="10" points="
		76.86,86.979 67.368,92.396 67.368,83.735 76.86,78.319 	"/>
	
		<polygon fill="none" stroke="#000000" stroke-width="1.3959" stroke-linecap="round" stroke-linejoin="round" stroke-miterlimit="10" points="
		86.353,81.562 76.86,86.979 76.86,78.319 86.353,72.903 	"/>
	
		<polygon fill="none" stroke="#000000" stroke-width="1.3959" stroke-linecap="round" stroke-linejoin="round" stroke-miterlimit="10" points="
		95.564,76.146 86.353,81.562 86.353,72.903 95.564,67.488 	"/>
	
		<polygon fill="none" stroke="#000000" stroke-width="1.3959" stroke-linecap="round" stroke-linejoin="round" stroke-miterlimit="10" points="
		105.059,70.729 95.564,76.146 95.564,67.488 105.059,62.071 	"/>
	
		<polygon fill="none" stroke="#000000" stroke-width="1.3959" stroke-linecap="round" stroke-linejoin="round" stroke-miterlimit="10" points="
		100.032,64.85 90.818,70.267 90.818,61.605 100.032,56.189 	"/>
	
		<polygon fill="none" stroke="#000000" stroke-width="1.3959" stroke-linecap="round" stroke-linejoin="round" stroke-miterlimit="10" points="
		95.564,58.828 86.353,64.244 86.353,55.585 95.564,50.169 	"/>
	
		<polygon fill="none" stroke="#000000" stroke-width="1.3959" stroke-linecap="round" stroke-linejoin="round" stroke-miterlimit="10" points="
		46.149,83.326 40.566,86.374 40.566,81.372 46.149,78.324 	"/>
	
		<polygon fill="none" stroke="#000000" stroke-width="1.3959" stroke-linecap="round" stroke-linejoin="round" stroke-miterlimit="10" points="
		86.353,64.141 76.86,69.56 76.86,60.898 86.353,55.482 	"/>
	
		<polygon fill="none" stroke="#000000" stroke-width="1.3959" stroke-linecap="round" stroke-linejoin="round" stroke-miterlimit="10" points="
		90.818,70.267 81.606,75.683 81.606,67.021 90.818,61.605 	"/>
	
		<polygon fill="none" stroke="#000000" stroke-width="1.3959" stroke-linecap="round" stroke-linejoin="round" stroke-miterlimit="10" points="
		81.606,75.683 72.114,81.099 72.114,72.438 81.606,67.021 	"/>
	
		<line fill="none" stroke="#000000" stroke-width="1.3959" stroke-linecap="round" stroke-linejoin="round" stroke-miterlimit="10" x1="60.669" y1="51.506" x2="79.059" y2="40.584"/>
	
		<line fill="none" stroke="#000000" stroke-width="1.3959" stroke-linecap="round" stroke-linejoin="round" stroke-miterlimit="10" x1="60.669" y1="60.057" x2="60.669" y2="51.68"/>
	
		<line fill="none" stroke="#000000" stroke-width="1.3959" stroke-linecap="round" stroke-linejoin="round" stroke-miterlimit="10" x1="119.296" y1="15.107" x2="119.296" y2="6.73"/>
	
		<line fill="none" stroke="#000000" stroke-width="1.3959" stroke-linecap="round" stroke-linejoin="round" stroke-miterlimit="10" x1="114.55" y1="25.995" x2="114.55" y2="17.62"/>
	
		<line fill="none" stroke="#000000" stroke-width="1.3959" stroke-linecap="round" stroke-linejoin="round" stroke-miterlimit="10" x1="109.805" y1="37.162" x2="109.805" y2="28.787"/>
	
		<line fill="none" stroke="#000000" stroke-width="1.3959" stroke-linecap="round" stroke-linejoin="round" stroke-miterlimit="10" x1="55.643" y1="71.224" x2="55.643" y2="62.848"/>
	
		<path fill="none" stroke="#000000" stroke-width="1.3959" stroke-linecap="round" stroke-linejoin="round" stroke-miterlimit="10" d="
		M68.206,57.311"/>
	
		<line fill="none" stroke="#000000" stroke-width="1.3959" stroke-linecap="round" stroke-linejoin="round" stroke-miterlimit="10" x1="55.921" y1="62.667" x2="60.497" y2="60.057"/>
	
		<polygon fill="none" stroke="#000000" stroke-width="1.3959" stroke-linecap="round" stroke-linejoin="round" stroke-miterlimit="10" points="
		155.195,58.184 41.962,123.479 41.962,119.619 158.941,52.12 	"/>
	
		<line fill="none" stroke="#000000" stroke-width="1.3959" stroke-linecap="round" stroke-linejoin="round" stroke-miterlimit="10" x1="38.674" y1="62.589" x2="50.573" y2="69.692"/>
	
		<line fill="none" stroke="#000000" stroke-width="1.3959" stroke-linecap="round" stroke-linejoin="round" stroke-miterlimit="10" x1="1.48" y1="91.688" x2="41.822" y2="114.979"/>
	
		<line fill="none" stroke="#000000" stroke-width="1.3959" stroke-linecap="round" stroke-linejoin="round" stroke-miterlimit="10" x1="60.849" y1="51.839" x2="77.05" y2="61.192"/>
	
		<line fill="none" stroke="#000000" stroke-width="1.3959" stroke-linecap="round" stroke-linejoin="round" stroke-miterlimit="10" x1="70.274" y1="46.038" x2="86.476" y2="55.391"/>
	
		<line fill="none" stroke="#000000" stroke-width="1.3959" stroke-linecap="round" stroke-linejoin="round" stroke-miterlimit="10" x1="79.216" y1="40.479" x2="95.419" y2="49.833"/>
	
		<line fill="none" stroke="#000000" stroke-width="1.3959" stroke-linecap="round" stroke-linejoin="round" stroke-miterlimit="10" x1="95.727" y1="53.643" x2="100.009" y2="56.117"/>
	
		<line fill="none" stroke="#000000" stroke-width="1.3959" stroke-linecap="round" stroke-linejoin="round" stroke-miterlimit="10" x1="100.559" y1="59.443" x2="104.843" y2="61.918"/>
	
		<line fill="none" stroke="#000000" stroke-width="1.3959" stroke-linecap="round" stroke-linejoin="round" stroke-miterlimit="10" x1="55.772" y1="62.957" x2="71.974" y2="72.312"/>
	
		<line fill="none" stroke="#000000" stroke-width="1.3959" stroke-linecap="round" stroke-linejoin="round" stroke-miterlimit="10" x1="50.618" y1="82.392" x2="50.618" y2="74.017"/>
	
		<line fill="none" stroke="#000000" stroke-width="1.3959" stroke-linecap="round" stroke-linejoin="round" stroke-miterlimit="10" x1="50.896" y1="73.834" x2="55.472" y2="71.226"/>
	
		<line fill="none" stroke="#000000" stroke-width="1.3959" stroke-linecap="round" stroke-linejoin="round" stroke-miterlimit="10" x1="50.747" y1="74.124" x2="66.948" y2="83.478"/>
	
		<line fill="none" stroke="#000000" stroke-width="1.3959" stroke-linecap="round" stroke-linejoin="round" stroke-miterlimit="10" x1="55.772" y1="71.214" x2="71.694" y2="80.406"/>
	
		<line fill="none" stroke="#000000" stroke-width="1.3959" stroke-linecap="round" stroke-linejoin="round" stroke-miterlimit="10" x1="50.618" y1="82.821" x2="67.228" y2="92.411"/>
	
		<line fill="none" stroke="#000000" stroke-width="1.3959" stroke-linecap="round" stroke-linejoin="round" stroke-miterlimit="10" x1="24.544" y1="70.937" x2="36.519" y2="77.851"/>
	
		<line fill="none" stroke="#000000" stroke-width="1.3959" stroke-linecap="round" stroke-linejoin="round" stroke-miterlimit="10" x1="24.499" y1="97.153" x2="36.519" y2="104.092"/>
	
		<line fill="none" stroke="#000000" stroke-width="1.3959" stroke-linecap="round" stroke-linejoin="round" stroke-miterlimit="10" x1="60.606" y1="60.057" x2="76.808" y2="69.41"/>
	
		<polygon fill="none" stroke="#000000" stroke-width="1.3959" stroke-linecap="round" stroke-linejoin="round" stroke-miterlimit="10" points="
		136.327,41.641 126.835,47.057 126.835,38.396 136.327,32.98 	"/>
	
		<polygon fill="none" stroke="#000000" stroke-width="1.3959" stroke-linecap="round" stroke-linejoin="round" stroke-miterlimit="10" points="
		145.54,36.225 136.327,41.641 136.327,32.98 145.54,27.564 	"/>
	
		<polygon fill="none" stroke="#000000" stroke-width="1.3959" stroke-linecap="round" stroke-linejoin="round" stroke-miterlimit="10" points="
		155.031,30.809 145.54,36.225 145.54,27.564 155.031,22.148 	"/>
	
		<polygon fill="none" stroke="#000000" stroke-width="1.3959" stroke-linecap="round" stroke-linejoin="round" stroke-miterlimit="10" points="
		149.169,25.484 139.956,30.901 139.956,22.241 149.169,16.825 	"/>
	
		<polygon fill="none" stroke="#000000" stroke-width="1.3959" stroke-linecap="round" stroke-linejoin="round" stroke-miterlimit="10" points="
		144.702,19.184 135.488,24.6 135.488,15.941 144.702,10.525 	"/>
	
		<polygon fill="none" stroke="#000000" stroke-width="1.3959" stroke-linecap="round" stroke-linejoin="round" stroke-miterlimit="10" points="
		139.956,30.621 130.742,36.037 130.742,27.378 139.956,21.962 	"/>
	
		<line fill="none" stroke="#000000" stroke-width="1.3959" stroke-linecap="round" stroke-linejoin="round" stroke-miterlimit="10" x1="119.411" y1="6.436" x2="128.195" y2="1.219"/>
	
		<path fill="none" stroke="#000000" stroke-width="1.3959" stroke-linecap="round" stroke-linejoin="round" stroke-miterlimit="10" d="
		M122.367,14.596"/>
	
		<line fill="none" stroke="#000000" stroke-width="1.3959" stroke-linecap="round" stroke-linejoin="round" stroke-miterlimit="10" x1="119.411" y1="6.673" x2="135.611" y2="16.027"/>
	
		<line fill="none" stroke="#000000" stroke-width="1.3959" stroke-linecap="round" stroke-linejoin="round" stroke-miterlimit="10" x1="114.665" y1="17.604" x2="118.966" y2="15.049"/>
	
		<line fill="none" stroke="#000000" stroke-width="1.3959" stroke-linecap="round" stroke-linejoin="round" stroke-miterlimit="10" x1="109.919" y1="28.492" x2="114.221" y2="25.938"/>
	
		<line fill="none" stroke="#000000" stroke-width="1.3959" stroke-linecap="round" stroke-linejoin="round" stroke-miterlimit="10" x1="114.665" y1="17.842" x2="130.865" y2="27.194"/>
	
		<line fill="none" stroke="#000000" stroke-width="1.3959" stroke-linecap="round" stroke-linejoin="round" stroke-miterlimit="10" x1="110.197" y1="28.729" x2="126.398" y2="38.082"/>
	
		<line fill="none" stroke="#000000" stroke-width="1.3959" stroke-linecap="round" stroke-linejoin="round" stroke-miterlimit="10" x1="114.384" y1="25.938" x2="130.585" y2="35.291"/>
	
		<line fill="none" stroke="#000000" stroke-width="1.3959" stroke-linecap="round" stroke-linejoin="round" stroke-miterlimit="10" x1="109.805" y1="37.273" x2="126.677" y2="47.018"/>
	
		<line fill="none" stroke="#000000" stroke-width="1.3959" stroke-linecap="round" stroke-linejoin="round" stroke-miterlimit="10" x1="119.411" y1="15.049" x2="135.611" y2="24.403"/>
	
		<line fill="none" stroke="#000000" stroke-width="1.3959" stroke-linecap="round" stroke-linejoin="round" stroke-miterlimit="10" x1="128.354" y1="1.115" x2="144.555" y2="10.469"/>
	
		<line fill="none" stroke="#000000" stroke-width="1.3959" stroke-linecap="round" stroke-linejoin="round" stroke-miterlimit="10" x1="144.861" y1="14.278" x2="149.146" y2="16.752"/>
	
		<line fill="none" stroke="#000000" stroke-width="1.3959" stroke-linecap="round" stroke-linejoin="round" stroke-miterlimit="10" x1="149.499" y1="18.876" x2="155.009" y2="22.057"/>
	
		<line fill="none" stroke="#000000" stroke-width="1.3959" stroke-linecap="round" stroke-linejoin="round" stroke-miterlimit="10" x1="1.481" y1="100.063" x2="41.822" y2="123.354"/>
	
		<line fill="none" stroke="#000000" stroke-width="1.3959" stroke-linecap="round" stroke-linejoin="round" stroke-miterlimit="10" x1="7.624" y1="112.628" x2="47.964" y2="135.919"/>
	
		<line fill="none" stroke="#000000" stroke-width="1.3959" stroke-linecap="round" stroke-linejoin="round" stroke-miterlimit="10" x1="149.783" y1="17.562" x2="172.48" y2="30.667"/>
	
		<line fill="none" stroke="#000000" stroke-width="1.3959" stroke-linecap="round" stroke-linejoin="round" stroke-miterlimit="10" x1="95.564" y1="53.168" x2="121.391" y2="68.078"/>
	
		<line fill="none" stroke="#000000" stroke-width="1.3959" stroke-linecap="round" stroke-linejoin="round" stroke-miterlimit="10" x1="90.249" y1="31.539" x2="130.323" y2="54.678"/>
	
		<line fill="none" stroke="#000000" stroke-width="1.3959" stroke-linecap="round" stroke-linejoin="round" stroke-miterlimit="10" x1="37.216" y1="71.781" x2="37.216" y2="57.616"/>
	
		<line fill="none" stroke="#000000" stroke-width="1.3959" stroke-linecap="round" stroke-linejoin="round" stroke-miterlimit="10" x1="40.172" y1="58.74" x2="34.26" y2="62.368"/>
	
		<line fill="none" stroke="#000000" stroke-width="1.3959" stroke-linecap="round" stroke-linejoin="round" stroke-miterlimit="10" x1="40.172" y1="55.543" x2="34.26" y2="59.171"/>
</g>
</svg>
