<?xml version="1.0" encoding="utf-8"?>
<!-- Generator: Adobe Illustrator 15.0.0, SVG Export Plug-In . SVG Version: 6.00 Build 0)  -->
<!DOCTYPE svg PUBLIC "-//W3C//DTD SVG 1.1//EN" "http://www.w3.org/Graphics/SVG/1.1/DTD/svg11.dtd">
<svg version="1.1" id="Layer_1" xmlns="http://www.w3.org/2000/svg" xmlns:xlink="http://www.w3.org/1999/xlink" x="0px" y="0px"
	 width="124.633px" height="158.724px" viewBox="-3.051 -13.011 124.633 158.724"
	 enable-background="new -3.051 -13.011 124.633 158.724" xml:space="preserve">
<g enable-background="new    ">
	<g>
		
			<polygon fill="#FFFFFF" stroke="#231F20" stroke-width="1.5892" stroke-linecap="round" stroke-linejoin="round" stroke-miterlimit="10" points="
			120.3,18.565 103.5,8.802 103.686,74.389 120.486,84.152 		"/>
	</g>
	<g>
		
			<polygon fill="#FFFFFF" stroke="#231F20" stroke-width="1.5892" stroke-linecap="round" stroke-linejoin="round" stroke-miterlimit="10" points="
			120.486,84.152 103.686,74.389 -1.514,134.975 15.287,144.737 		"/>
	</g>
	<g>
		
			<polygon fill="#FFFFFF" stroke="#231F20" stroke-width="1.5892" stroke-linecap="round" stroke-linejoin="round" stroke-miterlimit="10" points="
			120.3,18.565 103.5,8.802 -1.441,69.593 15.332,79.162 		"/>
	</g>
	<g>
		
			<polyline fill="#FFFFFF" stroke="#231F20" stroke-width="1.5892" stroke-linecap="round" stroke-linejoin="round" stroke-miterlimit="10" points="
			15.287,79.152 120.3,18.565 120.486,84.152 15.287,144.737 		"/>
	</g>
</g>
<g>
	<g enable-background="new    ">
		<g>
			
				<polyline fill="none" stroke="#000000" stroke-width="1.5892" stroke-linecap="round" stroke-linejoin="round" stroke-miterlimit="10" points="
				76.106,81.861 91.098,90.573 91.062,77.97 			"/>
		</g>
		<g>
			
				<polyline fill="none" stroke="#000000" stroke-width="1.5892" stroke-linecap="round" stroke-linejoin="round" stroke-miterlimit="10" points="
				101.779,59.414 112.747,53.081 97.755,44.369 			"/>
		</g>
		<g>
			
				<polygon fill="none" stroke="#000000" stroke-width="1.5892" stroke-linecap="round" stroke-linejoin="round" stroke-miterlimit="10" points="
				80.059,71.953 74.589,68.86 74.625,81.21 80.093,84.302 			"/>
		</g>
		<g>
			
				<polygon fill="none" stroke="#000000" stroke-width="1.5892" stroke-linecap="round" stroke-linejoin="round" stroke-miterlimit="10" points="
				91.028,65.621 85.559,62.528 74.589,68.86 80.059,71.953 			"/>
		</g>
		<g>
			
				<polygon fill="none" stroke="#000000" stroke-width="1.5892" stroke-linecap="round" stroke-linejoin="round" stroke-miterlimit="10" points="
				90.992,53.012 91.028,65.621 80.059,71.953 80.093,84.302 91.062,77.97 91.098,90.573 101.849,84.366 101.813,71.763 
				112.782,65.43 112.747,53.081 101.779,59.414 101.743,46.805 			"/>
		</g>
		<g>
			
				<polygon fill="none" stroke="#000000" stroke-width="1.5892" stroke-linecap="round" stroke-linejoin="round" stroke-miterlimit="10" points="
				90.992,53.012 85.523,49.919 85.559,62.528 91.028,65.621 			"/>
		</g>
		<g>
			
				<polygon fill="none" stroke="#000000" stroke-width="1.5892" stroke-linecap="round" stroke-linejoin="round" stroke-miterlimit="10" points="
				101.743,46.805 96.274,43.712 85.523,49.919 90.992,53.012 			"/>
		</g>
	</g>
</g>
<g>
	<g enable-background="new    ">
		<path fill="none" stroke="#000000" stroke-width="1.5892" stroke-miterlimit="10" d="M30.877,89.96
			c0.002-0.095,0.007-0.19,0.013-0.287c0.002-0.046,0.007-0.092,0.01-0.137c0.002-0.017,0.003-0.032,0.005-0.048
			c0.002-0.034,0.004-0.069,0.008-0.104c0.009-0.097,0.019-0.192,0.032-0.291c0.012-0.099,0.027-0.198,0.042-0.298
			c0.017-0.099,0.034-0.2,0.052-0.3c0.02-0.104,0.04-0.206,0.062-0.31c0.009-0.039,0.019-0.079,0.028-0.117
			c0.004-0.019,0.008-0.038,0.013-0.057c0.011-0.046,0.02-0.092,0.032-0.139c0.025-0.104,0.053-0.209,0.083-0.314
			c0.022-0.081,0.046-0.161,0.07-0.241c0.003-0.011,0.005-0.02,0.009-0.03c0.004-0.015,0.008-0.028,0.012-0.043
			c0.032-0.103,0.064-0.206,0.099-0.309c0.034-0.101,0.069-0.201,0.105-0.302c0.007-0.021,0.015-0.041,0.023-0.061
			c0.005-0.016,0.01-0.03,0.016-0.045c0.023-0.062,0.046-0.125,0.07-0.187c0.038-0.097,0.077-0.192,0.117-0.289
			c0.029-0.071,0.06-0.141,0.09-0.211c0.005-0.013,0.011-0.023,0.016-0.035c0.006-0.013,0.011-0.025,0.016-0.038
			c0.043-0.098,0.087-0.193,0.131-0.288c0.05-0.105,0.101-0.211,0.152-0.315c0.008-0.016,0.017-0.032,0.025-0.048
			c0.011-0.021,0.022-0.042,0.033-0.062c0.042-0.083,0.084-0.165,0.128-0.246c0.051-0.097,0.105-0.191,0.16-0.286
			c0.025-0.044,0.047-0.09,0.072-0.133c0.01-0.019,0.022-0.034,0.031-0.052c0.011-0.017,0.02-0.035,0.03-0.053
			c0.045-0.076,0.095-0.149,0.141-0.225c0.087-0.143,0.175-0.286,0.267-0.426c0.012-0.02,0.024-0.04,0.037-0.059
			c0.116-0.176,0.237-0.347,0.361-0.516c0.004-0.006,0.007-0.011,0.012-0.017c0.001-0.002,0.002-0.003,0.003-0.005
			c0.086-0.116,0.174-0.231,0.263-0.345c0.068-0.087,0.138-0.172,0.208-0.257c0.006-0.008,0.014-0.016,0.02-0.023
			c0.001-0.002,0.001-0.003,0.002-0.003c0.075-0.091,0.152-0.181,0.229-0.269c0.076-0.087,0.153-0.173,0.232-0.257
			c0.012-0.012,0.023-0.022,0.033-0.035c0.016-0.018,0.031-0.033,0.047-0.049c0.054-0.058,0.108-0.115,0.163-0.171
			c0.082-0.085,0.166-0.167,0.25-0.247c0.025-0.024,0.051-0.047,0.076-0.071c0.021-0.019,0.04-0.037,0.061-0.055
			c0.041-0.04,0.083-0.079,0.125-0.118c0.088-0.078,0.175-0.155,0.265-0.229c0.038-0.033,0.077-0.063,0.116-0.095
			c0.019-0.016,0.037-0.031,0.056-0.047c0.031-0.024,0.062-0.05,0.092-0.074c0.085-0.068,0.173-0.135,0.26-0.198
			c0.063-0.047,0.128-0.092,0.191-0.137c0.011-0.008,0.022-0.015,0.031-0.022c0.012-0.008,0.024-0.017,0.036-0.025
			c0.083-0.057,0.167-0.112,0.251-0.166c0.083-0.054,0.167-0.104,0.251-0.153c0.019-0.012,0.039-0.022,0.058-0.034
			c0.062-0.036,0.125-0.071,0.188-0.104c0.082-0.045,0.163-0.087,0.243-0.126c0.05-0.025,0.101-0.048,0.153-0.071
			c0.015-0.008,0.031-0.016,0.046-0.022c0.013-0.007,0.027-0.014,0.041-0.02c0.08-0.036,0.159-0.07,0.237-0.101
			c0.08-0.032,0.161-0.062,0.239-0.091c0.013-0.004,0.026-0.008,0.04-0.013c0.015-0.005,0.028-0.009,0.042-0.014
			c0.052-0.018,0.104-0.035,0.156-0.051c0.083-0.024,0.164-0.048,0.245-0.068c0.041-0.01,0.082-0.018,0.122-0.026
			c0.015-0.004,0.031-0.008,0.046-0.011c0.025-0.005,0.05-0.011,0.075-0.017c0.088-0.016,0.175-0.031,0.261-0.043
			c0.055-0.007,0.109-0.011,0.162-0.017c0.017-0.002,0.032-0.003,0.048-0.005c0.018-0.001,0.036-0.005,0.053-0.005
			c0.095-0.007,0.188-0.01,0.28-0.009c0.04,0,0.079,0.003,0.119,0.006c0.032,0,0.064,0.002,0.097,0.003
			c0.03,0.004,0.062,0.003,0.092,0.005c0.116,0.011,0.23,0.027,0.342,0.05c0.002,0,0.005,0.002,0.007,0.002
			c0.029,0.006,0.054,0.017,0.082,0.023c0.111,0.025,0.222,0.053,0.327,0.09c0.009,0.003,0.017,0.009,0.026,0.012
			c0.148,0.054,0.29,0.12,0.426,0.196c0.009,0.006,0.021,0.009,0.031,0.014l3.762,2.187c0.923,0.537,1.83,1.063,2.624,1.525
			c-0.145-0.084-0.297-0.152-0.456-0.211c-0.113-0.041-0.231-0.073-0.351-0.101c-0.028-0.008-0.055-0.018-0.084-0.023
			c-0.143-0.029-0.29-0.047-0.441-0.056c-0.032-0.003-0.063-0.003-0.096-0.005c-0.147-0.006-0.295-0.004-0.447,0.009
			c-0.021,0.001-0.04,0.004-0.061,0.006c-0.16,0.016-0.323,0.04-0.49,0.075c-0.016,0.003-0.033,0.007-0.05,0.011
			c-0.172,0.039-0.348,0.087-0.526,0.147c-0.01,0.003-0.02,0.007-0.03,0.01c-0.186,0.063-0.375,0.14-0.568,0.228
			c-0.011,0.005-0.022,0.01-0.033,0.015c-0.195,0.091-0.391,0.192-0.591,0.307c-0.203,0.118-0.403,0.245-0.6,0.382
			c-0.008,0.005-0.015,0.011-0.021,0.015c-0.186,0.13-0.369,0.268-0.549,0.414c-0.02,0.016-0.039,0.031-0.059,0.048
			c-0.173,0.142-0.341,0.29-0.508,0.444c-0.019,0.017-0.037,0.034-0.055,0.051c-0.166,0.156-0.329,0.319-0.488,0.488
			c-0.017,0.018-0.035,0.035-0.051,0.054c-0.17,0.182-0.336,0.369-0.497,0.563c-0.004,0.004-0.007,0.008-0.011,0.013
			c-0.316,0.383-0.614,0.789-0.894,1.21c-0.082,0.122-0.158,0.25-0.235,0.375c-0.07,0.113-0.143,0.226-0.208,0.34
			c-0.024,0.042-0.047,0.084-0.07,0.125c-0.109,0.191-0.214,0.385-0.314,0.58c-0.01,0.021-0.02,0.039-0.03,0.06
			c-0.237,0.47-0.447,0.949-0.625,1.434c0,0.001-0.002,0.004-0.003,0.006c-0.091,0.246-0.173,0.493-0.248,0.739
			c-0.001,0-0.001,0.001-0.001,0.001c-0.073,0.24-0.136,0.48-0.192,0.72c-0.003,0.015-0.007,0.029-0.009,0.044
			c-0.111,0.479-0.188,0.957-0.227,1.426c-0.001,0.016-0.003,0.031-0.004,0.047c-0.018,0.233-0.028,0.464-0.027,0.692
			c0.001,0.226,0.012,0.442,0.031,0.653c0.002,0.016,0.003,0.031,0.006,0.048c0.019,0.192,0.046,0.378,0.081,0.557
			c0.004,0.023,0.01,0.049,0.016,0.073c0.035,0.17,0.078,0.332,0.126,0.489c0.01,0.031,0.02,0.062,0.03,0.092
			c0.051,0.15,0.107,0.296,0.17,0.433c0.004,0.011,0.008,0.021,0.012,0.031c0.071,0.151,0.151,0.295,0.237,0.429
			c0.123,0.19,0.263,0.356,0.413,0.51c0.037,0.037,0.073,0.073,0.111,0.108c0.156,0.145,0.321,0.276,0.502,0.382l-6.387-3.712
			c-0.181-0.104-0.346-0.237-0.502-0.383c-0.037-0.034-0.074-0.07-0.111-0.107c-0.15-0.152-0.29-0.319-0.412-0.51
			c-0.002-0.003-0.004-0.005-0.006-0.008c-0.081-0.128-0.157-0.263-0.225-0.406c-0.003-0.006-0.005-0.012-0.006-0.016
			c-0.005-0.009-0.007-0.017-0.011-0.024c-0.044-0.096-0.087-0.194-0.125-0.298c-0.017-0.045-0.031-0.095-0.047-0.142
			c-0.011-0.03-0.02-0.061-0.03-0.091c-0.008-0.027-0.019-0.053-0.026-0.079c-0.029-0.099-0.056-0.199-0.08-0.303
			c-0.009-0.037-0.015-0.078-0.022-0.117c-0.005-0.019-0.009-0.037-0.012-0.057c-0.007-0.039-0.017-0.076-0.023-0.117
			c-0.016-0.091-0.03-0.186-0.042-0.282c-0.007-0.054-0.011-0.109-0.017-0.164c-0.002-0.017-0.004-0.033-0.005-0.048
			c-0.001-0.024-0.005-0.049-0.007-0.072c-0.008-0.092-0.013-0.185-0.018-0.279c-0.004-0.094-0.006-0.189-0.006-0.285
			c0-0.006,0-0.011,0-0.018C30.873,90.139,30.874,90.05,30.877,89.96z"/>
		<g>
			<path fill="none" stroke="#000000" stroke-width="1.5892" stroke-miterlimit="10" d="M43.188,83.67
				c-3.281,1.896-5.939,6.499-5.928,10.27c0.01,3.763,2.686,5.287,5.966,3.394c3.281-1.895,5.934-6.496,5.923-10.259
				C49.139,83.305,46.468,81.777,43.188,83.67z"/>
		</g>
	</g>
</g>
<g>
	<g enable-background="new    ">
		<path fill="#FFFFFF" stroke="#000000" stroke-width="1.5892" stroke-miterlimit="10" d="M55.054,44.799
			c0.07,0.038,0.141,0.075,0.213,0.111c0.034,0.017,0.07,0.033,0.104,0.05c0.012,0.005,0.023,0.011,0.036,0.016
			c0.026,0.013,0.052,0.026,0.079,0.038c0.074,0.033,0.148,0.066,0.224,0.098c0.077,0.032,0.156,0.063,0.234,0.094
			c0.079,0.029,0.158,0.059,0.24,0.087c0.083,0.029,0.167,0.058,0.251,0.084c0.031,0.01,0.064,0.02,0.096,0.029
			c0.016,0.005,0.032,0.009,0.047,0.014c0.037,0.011,0.075,0.023,0.113,0.035c0.087,0.025,0.175,0.049,0.264,0.071
			c0.068,0.018,0.136,0.034,0.204,0.05c0.009,0.002,0.017,0.004,0.025,0.006c0.013,0.003,0.024,0.006,0.037,0.009
			c0.087,0.02,0.176,0.039,0.265,0.057c0.088,0.018,0.175,0.035,0.264,0.05c0.018,0.003,0.036,0.006,0.053,0.008
			c0.013,0.002,0.026,0.005,0.04,0.007c0.055,0.009,0.109,0.019,0.164,0.027c0.087,0.014,0.172,0.025,0.259,0.037
			c0.064,0.008,0.127,0.016,0.191,0.023c0.011,0,0.021,0.001,0.032,0.003c0.012,0.001,0.023,0.003,0.035,0.004
			c0.088,0.01,0.177,0.018,0.264,0.025c0.097,0.008,0.195,0.015,0.292,0.021c0.015,0.002,0.03,0.002,0.045,0.002
			c0.02,0.001,0.04,0.001,0.06,0.003c0.077,0.003,0.154,0.008,0.232,0.01c0.091,0.003,0.183,0.003,0.274,0.003
			c0.043,0,0.084,0.004,0.128,0.004c0.017,0,0.033-0.001,0.049-0.001c0.017,0,0.035,0.001,0.051,0c0.074,0,0.149-0.006,0.222-0.009
			c0.141-0.003,0.281-0.007,0.421-0.016c0.021,0,0.04,0,0.059-0.002c0.177-0.011,0.352-0.026,0.525-0.047
			c0.006,0,0.012,0,0.017-0.001c0.002,0,0.003,0,0.005,0c0.121-0.014,0.24-0.029,0.36-0.046c0.092-0.013,0.184-0.027,0.274-0.043
			c0.009-0.001,0.017-0.003,0.026-0.004c0-0.001,0.001-0.001,0.001-0.001c0.099-0.017,0.195-0.035,0.291-0.054
			c0.096-0.019,0.189-0.039,0.284-0.062c0.014-0.003,0.025-0.007,0.039-0.009c0.019-0.004,0.037-0.009,0.055-0.014
			c0.064-0.015,0.129-0.03,0.192-0.047c0.096-0.024,0.191-0.051,0.284-0.078c0.028-0.009,0.056-0.018,0.083-0.025
			c0.021-0.008,0.045-0.014,0.065-0.021c0.046-0.014,0.093-0.027,0.138-0.042c0.095-0.031,0.188-0.062,0.278-0.096
			c0.039-0.014,0.077-0.029,0.117-0.044c0.02-0.007,0.038-0.014,0.056-0.021c0.032-0.012,0.062-0.023,0.094-0.035
			c0.086-0.034,0.17-0.07,0.253-0.106c0.061-0.026,0.12-0.054,0.18-0.082c0.009-0.004,0.02-0.01,0.028-0.014
			c0.011-0.005,0.023-0.01,0.033-0.015c0.076-0.036,0.151-0.074,0.227-0.113c0.072-0.038,0.145-0.078,0.216-0.118
			c0.017-0.009,0.033-0.019,0.049-0.028c0.053-0.031,0.105-0.062,0.155-0.092c0.066-0.042,0.131-0.083,0.193-0.124
			c0.039-0.026,0.076-0.053,0.115-0.081c0.012-0.008,0.024-0.016,0.035-0.025c0.011-0.006,0.021-0.014,0.031-0.021
			c0.059-0.043,0.117-0.086,0.173-0.13c0.057-0.044,0.112-0.09,0.165-0.135c0.01-0.008,0.018-0.016,0.026-0.023
			c0.01-0.009,0.019-0.017,0.027-0.025c0.034-0.031,0.07-0.062,0.103-0.092c0.052-0.049,0.103-0.099,0.151-0.149
			c0.025-0.025,0.048-0.051,0.071-0.078c0.008-0.009,0.018-0.02,0.025-0.028c0.015-0.017,0.03-0.032,0.045-0.048
			c0.048-0.057,0.095-0.114,0.141-0.171c0.027-0.037,0.053-0.074,0.079-0.111c0.007-0.012,0.016-0.022,0.023-0.033
			c0.008-0.013,0.018-0.024,0.026-0.037c0.044-0.066,0.085-0.132,0.123-0.199c0.018-0.029,0.03-0.059,0.046-0.089
			c0.012-0.023,0.024-0.047,0.037-0.071c0.012-0.023,0.024-0.046,0.035-0.069c0.041-0.089,0.077-0.178,0.107-0.269
			c0.001-0.001,0.001-0.004,0.001-0.006c0.009-0.023,0.012-0.046,0.019-0.069c0.027-0.092,0.054-0.183,0.071-0.275
			c0.001-0.007,0.001-0.016,0.002-0.023c0.022-0.13,0.034-0.261,0.036-0.391c0-0.009,0.002-0.019,0.002-0.029l-0.014-3.646
			c-0.004-0.895-0.008-1.773-0.011-2.543c0.001,0.141-0.014,0.279-0.037,0.419c-0.017,0.1-0.043,0.199-0.072,0.297
			c-0.007,0.023-0.011,0.046-0.019,0.071c-0.039,0.116-0.089,0.23-0.145,0.344c-0.012,0.024-0.024,0.047-0.037,0.071
			c-0.057,0.109-0.12,0.216-0.192,0.321c-0.011,0.015-0.021,0.027-0.03,0.041c-0.078,0.11-0.163,0.218-0.26,0.325
			c-0.009,0.01-0.019,0.021-0.029,0.031c-0.1,0.109-0.208,0.216-0.326,0.321c-0.007,0.006-0.013,0.011-0.021,0.017
			c-0.123,0.108-0.258,0.215-0.402,0.317c-0.008,0.006-0.017,0.012-0.024,0.018c-0.146,0.104-0.303,0.204-0.471,0.301
			c-0.17,0.098-0.346,0.19-0.527,0.276c-0.007,0.004-0.014,0.006-0.019,0.009c-0.172,0.081-0.349,0.155-0.53,0.226
			c-0.02,0.007-0.039,0.016-0.06,0.022c-0.175,0.066-0.353,0.126-0.534,0.183c-0.021,0.007-0.041,0.013-0.061,0.019
			c-0.184,0.055-0.37,0.105-0.56,0.15c-0.021,0.005-0.04,0.011-0.06,0.014c-0.203,0.048-0.41,0.091-0.617,0.126
			c-0.005,0.001-0.009,0.002-0.014,0.002c-0.411,0.07-0.83,0.116-1.253,0.143c-0.122,0.008-0.246,0.01-0.37,0.014
			c-0.112,0.003-0.224,0.01-0.335,0.01c-0.04,0-0.081-0.001-0.12-0.002c-0.184,0-0.368-0.005-0.552-0.015
			c-0.019,0-0.038-0.001-0.057-0.002c-0.44-0.024-0.875-0.073-1.302-0.146c-0.001,0-0.004,0-0.005,0
			c-0.217-0.037-0.43-0.081-0.641-0.13c0,0.001-0.001,0-0.001,0c-0.205-0.047-0.406-0.102-0.603-0.161
			c-0.012-0.004-0.024-0.007-0.036-0.012c-0.395-0.12-0.774-0.264-1.13-0.432c-0.013-0.005-0.024-0.011-0.036-0.017
			c-0.177-0.084-0.349-0.174-0.514-0.269s-0.317-0.194-0.462-0.296c-0.01-0.007-0.022-0.015-0.033-0.024
			c-0.131-0.095-0.254-0.192-0.37-0.292c-0.016-0.013-0.031-0.028-0.047-0.042c-0.108-0.097-0.208-0.196-0.302-0.296
			c-0.019-0.021-0.037-0.041-0.053-0.061c-0.089-0.1-0.172-0.202-0.244-0.305c-0.006-0.007-0.012-0.014-0.017-0.022
			c-0.081-0.115-0.151-0.232-0.213-0.351c-0.087-0.168-0.149-0.34-0.198-0.513c-0.012-0.042-0.022-0.083-0.032-0.126
			c-0.04-0.174-0.067-0.348-0.067-0.524l0.022,6.189c0.001,0.175,0.028,0.351,0.069,0.524c0.01,0.042,0.02,0.083,0.031,0.125
			c0.049,0.173,0.111,0.345,0.198,0.513c0.002,0.003,0.002,0.005,0.003,0.008c0.058,0.112,0.125,0.224,0.201,0.333
			c0.002,0.005,0.006,0.008,0.009,0.011c0.003,0.007,0.009,0.012,0.013,0.018c0.051,0.072,0.104,0.144,0.164,0.215
			c0.026,0.031,0.056,0.062,0.083,0.093c0.018,0.021,0.035,0.04,0.054,0.061c0.016,0.018,0.03,0.035,0.046,0.052
			c0.059,0.062,0.122,0.124,0.187,0.185c0.024,0.021,0.05,0.043,0.077,0.065c0.011,0.011,0.021,0.022,0.035,0.032
			c0.025,0.021,0.049,0.044,0.076,0.066c0.061,0.049,0.123,0.1,0.187,0.149c0.036,0.027,0.075,0.054,0.112,0.08
			c0.011,0.009,0.022,0.017,0.033,0.025c0.017,0.011,0.032,0.024,0.049,0.035c0.064,0.043,0.129,0.087,0.195,0.129
			c0.067,0.042,0.135,0.084,0.204,0.124c0.005,0.002,0.009,0.004,0.013,0.006C54.922,44.728,54.988,44.764,55.054,44.799z"/>
		<g>
			<path fill="#FFFFFF" stroke="#000000" stroke-width="1.5892" stroke-miterlimit="10" d="M64.768,38.491
				c-2.747,1.59-7.202,1.594-9.933,0.01c-2.729-1.582-2.717-4.162,0.031-5.751c2.748-1.59,7.197-1.591,9.926-0.01
				C67.522,34.325,67.515,36.903,64.768,38.491z"/>
		</g>
	</g>
</g>
<g>
	<g enable-background="new    ">
		<path fill="none" stroke="#000000" stroke-width="1.5892" stroke-miterlimit="10" d="M48.623,102.276
			c0.002-0.095,0.007-0.191,0.013-0.287c0.002-0.046,0.007-0.092,0.01-0.138c0.002-0.017,0.003-0.032,0.005-0.047
			c0.002-0.034,0.004-0.069,0.008-0.104c0.009-0.096,0.019-0.192,0.032-0.29c0.012-0.1,0.027-0.198,0.042-0.298
			c0.016-0.1,0.033-0.2,0.052-0.301c0.02-0.103,0.04-0.205,0.062-0.31c0.009-0.038,0.019-0.078,0.028-0.117
			c0.003-0.019,0.008-0.038,0.013-0.057c0.011-0.046,0.02-0.091,0.032-0.138c0.025-0.104,0.053-0.21,0.083-0.315
			c0.022-0.08,0.045-0.16,0.07-0.24c0.003-0.011,0.005-0.021,0.009-0.03c0.004-0.015,0.008-0.028,0.012-0.044
			c0.032-0.102,0.064-0.205,0.099-0.308c0.034-0.101,0.069-0.202,0.105-0.303c0.007-0.021,0.015-0.04,0.023-0.061
			c0.005-0.016,0.01-0.029,0.016-0.045c0.023-0.062,0.046-0.124,0.07-0.187c0.038-0.096,0.077-0.192,0.117-0.288
			c0.029-0.071,0.06-0.142,0.09-0.211c0.005-0.013,0.011-0.023,0.016-0.035c0.006-0.014,0.011-0.025,0.016-0.039
			c0.043-0.097,0.087-0.193,0.131-0.288c0.049-0.105,0.101-0.211,0.152-0.314c0.008-0.017,0.017-0.033,0.025-0.048
			c0.011-0.022,0.022-0.042,0.033-0.063c0.042-0.082,0.084-0.164,0.128-0.246c0.051-0.096,0.105-0.19,0.16-0.285
			c0.025-0.044,0.047-0.09,0.072-0.134c0.01-0.018,0.022-0.034,0.031-0.051c0.011-0.018,0.02-0.036,0.03-0.053
			c0.045-0.076,0.095-0.15,0.141-0.226c0.087-0.143,0.174-0.285,0.267-0.425c0.012-0.021,0.024-0.04,0.037-0.06
			c0.116-0.175,0.237-0.347,0.361-0.515c0.004-0.006,0.007-0.011,0.012-0.018c0.001-0.001,0.001-0.003,0.003-0.004
			c0.086-0.117,0.174-0.231,0.263-0.345c0.068-0.087,0.138-0.173,0.208-0.258c0.006-0.008,0.014-0.016,0.02-0.023
			c0.001-0.001,0.001-0.002,0.002-0.003c0.075-0.091,0.152-0.18,0.229-0.269c0.076-0.087,0.153-0.172,0.232-0.256
			c0.012-0.013,0.023-0.023,0.033-0.036c0.016-0.017,0.031-0.032,0.047-0.049c0.054-0.058,0.108-0.114,0.163-0.171
			c0.082-0.084,0.166-0.166,0.25-0.247c0.025-0.024,0.051-0.047,0.076-0.07c0.021-0.019,0.04-0.037,0.06-0.056
			c0.042-0.039,0.083-0.079,0.126-0.117c0.087-0.079,0.175-0.155,0.265-0.23c0.038-0.032,0.077-0.063,0.116-0.095
			c0.019-0.015,0.037-0.03,0.056-0.046c0.031-0.025,0.062-0.05,0.092-0.075c0.085-0.067,0.173-0.135,0.26-0.198
			c0.064-0.047,0.128-0.092,0.192-0.137c0.011-0.008,0.022-0.015,0.031-0.021c0.012-0.009,0.024-0.018,0.036-0.025
			c0.083-0.057,0.167-0.113,0.251-0.166c0.083-0.054,0.167-0.104,0.251-0.154c0.02-0.012,0.039-0.022,0.059-0.034
			c0.062-0.036,0.125-0.071,0.188-0.104c0.082-0.044,0.163-0.087,0.243-0.126c0.05-0.025,0.101-0.048,0.153-0.071
			c0.015-0.008,0.031-0.016,0.046-0.022c0.013-0.006,0.027-0.013,0.041-0.02c0.08-0.035,0.159-0.069,0.237-0.101
			c0.08-0.031,0.161-0.062,0.239-0.09c0.013-0.005,0.026-0.008,0.04-0.014c0.015-0.004,0.029-0.008,0.043-0.013
			c0.052-0.018,0.104-0.036,0.156-0.052c0.083-0.024,0.164-0.047,0.245-0.067c0.041-0.01,0.082-0.019,0.122-0.026
			c0.015-0.004,0.031-0.008,0.046-0.012c0.025-0.004,0.05-0.011,0.075-0.016c0.088-0.017,0.175-0.032,0.261-0.043
			c0.054-0.008,0.109-0.012,0.162-0.017c0.017-0.002,0.032-0.004,0.048-0.005c0.018-0.002,0.036-0.005,0.053-0.006
			c0.095-0.006,0.188-0.009,0.28-0.009c0.04,0,0.079,0.004,0.119,0.006c0.032,0.001,0.064,0.002,0.096,0.004
			c0.03,0.003,0.062,0.002,0.093,0.005c0.116,0.011,0.23,0.027,0.342,0.05c0.002,0,0.005,0.001,0.007,0.002
			c0.028,0.006,0.054,0.017,0.081,0.022c0.112,0.025,0.222,0.053,0.328,0.09c0.009,0.003,0.017,0.01,0.026,0.013
			c0.148,0.054,0.29,0.119,0.426,0.195c0.009,0.007,0.021,0.01,0.031,0.014l3.762,2.188c0.923,0.536,1.829,1.063,2.624,1.525
			c-0.145-0.084-0.297-0.153-0.456-0.211c-0.113-0.042-0.231-0.074-0.351-0.102c-0.028-0.008-0.055-0.017-0.084-0.023
			c-0.143-0.029-0.29-0.046-0.441-0.056c-0.032-0.002-0.063-0.003-0.097-0.005c-0.146-0.006-0.295-0.003-0.446,0.009
			c-0.021,0.002-0.041,0.004-0.061,0.007c-0.16,0.015-0.323,0.039-0.49,0.075c-0.016,0.003-0.033,0.007-0.05,0.011
			c-0.173,0.038-0.348,0.087-0.526,0.147c-0.01,0.003-0.02,0.006-0.03,0.009c-0.186,0.063-0.376,0.14-0.568,0.229
			c-0.011,0.005-0.021,0.009-0.032,0.015c-0.195,0.091-0.392,0.191-0.592,0.307c-0.202,0.118-0.402,0.245-0.6,0.382
			c-0.008,0.005-0.015,0.01-0.021,0.015c-0.186,0.13-0.369,0.268-0.55,0.413c-0.019,0.016-0.039,0.031-0.058,0.049
			c-0.173,0.141-0.341,0.289-0.508,0.443c-0.019,0.018-0.036,0.034-0.055,0.052c-0.166,0.155-0.329,0.319-0.488,0.487
			c-0.017,0.019-0.035,0.036-0.051,0.054c-0.17,0.182-0.337,0.369-0.498,0.563c-0.003,0.005-0.007,0.009-0.011,0.014
			c-0.316,0.382-0.614,0.789-0.894,1.209c-0.082,0.123-0.158,0.25-0.235,0.375c-0.07,0.114-0.143,0.226-0.208,0.341
			c-0.024,0.042-0.047,0.084-0.07,0.125c-0.11,0.19-0.214,0.384-0.314,0.579c-0.01,0.021-0.02,0.04-0.03,0.061
			c-0.237,0.469-0.447,0.948-0.625,1.433c-0.001,0.002-0.002,0.005-0.003,0.006c-0.091,0.246-0.173,0.493-0.248,0.74
			c-0.001,0-0.001,0.001-0.001,0.001c-0.073,0.24-0.137,0.479-0.192,0.72c-0.003,0.014-0.007,0.028-0.009,0.043
			c-0.111,0.479-0.188,0.958-0.227,1.427c-0.001,0.016-0.003,0.031-0.005,0.046c-0.018,0.234-0.028,0.465-0.027,0.692
			c0,0.226,0.012,0.443,0.031,0.653c0.002,0.016,0.003,0.032,0.006,0.049c0.019,0.192,0.046,0.378,0.081,0.556
			c0.004,0.024,0.01,0.049,0.016,0.074c0.035,0.17,0.077,0.332,0.126,0.488c0.01,0.031,0.02,0.062,0.03,0.092
			c0.051,0.15,0.107,0.297,0.17,0.433c0.004,0.012,0.007,0.021,0.012,0.031c0.071,0.152,0.151,0.295,0.237,0.43
			c0.123,0.189,0.263,0.355,0.413,0.51c0.037,0.037,0.073,0.072,0.111,0.107c0.156,0.146,0.321,0.277,0.502,0.383l-6.387-3.712
			c-0.181-0.105-0.346-0.238-0.502-0.383c-0.037-0.035-0.074-0.07-0.111-0.108c-0.15-0.151-0.291-0.319-0.412-0.51
			c-0.002-0.003-0.005-0.004-0.006-0.008c-0.082-0.128-0.157-0.263-0.225-0.406c-0.003-0.005-0.004-0.011-0.006-0.016
			c-0.005-0.009-0.007-0.016-0.011-0.023c-0.044-0.097-0.087-0.195-0.125-0.299c-0.017-0.045-0.031-0.094-0.047-0.141
			c-0.011-0.031-0.02-0.061-0.03-0.092c-0.008-0.027-0.019-0.052-0.026-0.079c-0.029-0.098-0.056-0.198-0.08-0.303
			c-0.009-0.037-0.015-0.077-0.023-0.117c-0.004-0.019-0.008-0.036-0.011-0.056c-0.007-0.04-0.017-0.077-0.023-0.117
			c-0.016-0.092-0.03-0.187-0.042-0.282c-0.007-0.054-0.011-0.109-0.017-0.165c-0.002-0.016-0.004-0.032-0.005-0.048
			c-0.001-0.024-0.005-0.048-0.007-0.072c-0.008-0.092-0.013-0.184-0.018-0.278c-0.004-0.094-0.006-0.189-0.006-0.286
			c0-0.006,0-0.011,0-0.017C48.619,102.454,48.62,102.365,48.623,102.276z"/>
		<g>
			<path fill="none" stroke="#000000" stroke-width="1.5892" stroke-miterlimit="10" d="M60.934,95.986
				c-3.281,1.895-5.938,6.498-5.928,10.269c0.01,3.763,2.686,5.288,5.966,3.395c3.281-1.896,5.935-6.496,5.923-10.259
				C66.884,95.621,64.213,94.093,60.934,95.986z"/>
		</g>
	</g>
</g>
<path fill="none" stroke="#231F20" stroke-width="1.5892" stroke-linecap="round" stroke-linejoin="round" stroke-miterlimit="10" d="
	M59.702,35.273V14.123c0,0,1.476-11.068-8.116-11.068c-9.592,0-8.977,8.977-8.977,8.977s1.106,10.699-8.485,10.699
	c-9.591,0-9.837-9.837-9.837-9.837v-24.103"/>
<polygon fill="#FFFFFF" stroke="#231F20" stroke-width="1.5892" stroke-linecap="round" stroke-linejoin="round" stroke-miterlimit="10" points="
	-1.514,134.975 -1.514,69.593 15.2,79.07 15.2,144.623 "/>
</svg>
