<?xml version="1.0" encoding="utf-8"?>
<!-- Generator: Adobe Illustrator 15.0.0, SVG Export Plug-In . SVG Version: 6.00 Build 0)  -->
<!DOCTYPE svg PUBLIC "-//W3C//DTD SVG 1.1//EN" "http://www.w3.org/Graphics/SVG/1.1/DTD/svg11.dtd">
<svg version="1.1" id="Layer_1" xmlns="http://www.w3.org/2000/svg" xmlns:xlink="http://www.w3.org/1999/xlink" x="0px" y="0px"
	 width="383px" height="267px" viewBox="0 0 383 267" enable-background="new 0 0 383 267" xml:space="preserve">
<g>
	<g>
		
			<polygon fill="#010101" stroke="#FFFFFF" stroke-width="1.3898" stroke-linecap="round" stroke-linejoin="round" stroke-miterlimit="10" points="
			190.896,265.202 381.561,155.122 195.211,46.604 2.025,156.613 		"/>
		
			<polygon fill="#010101" stroke="#FFFFFF" stroke-width="1.3898" stroke-linecap="round" stroke-linejoin="round" stroke-miterlimit="10" points="
			191.36,253.157 382.025,143.077 195.674,34.559 2.488,144.568 		"/>
		
			<polygon fill="#010101" stroke="#FFFFFF" stroke-width="1.3898" stroke-linecap="round" stroke-linejoin="round" stroke-miterlimit="10" points="
			191.36,238.907 382.025,128.828 195.674,20.31 2.488,130.318 		"/>
		<g>
			<defs>
				<polygon id="SVGID_1_" points="191.36,238.907 382.025,128.828 195.674,20.31 2.488,130.318 				"/>
			</defs>
			<clipPath id="SVGID_2_">
				<use xlink:href="#SVGID_1_"  overflow="visible"/>
			</clipPath>
			<g clip-path="url(#SVGID_2_)">
				
					<line fill="none" stroke="#FFFFFF" stroke-width="1.3898" stroke-linecap="round" stroke-linejoin="round" stroke-miterlimit="10" x1="29.743" y1="158.669" x2="246.592" y2="34.135"/>
				
					<line fill="none" stroke="#FFFFFF" stroke-width="1.3898" stroke-linecap="round" stroke-linejoin="round" stroke-miterlimit="10" x1="65.058" y1="182.212" x2="281.907" y2="57.679"/>
				
					<line fill="none" stroke="#FFFFFF" stroke-width="1.3898" stroke-linecap="round" stroke-linejoin="round" stroke-miterlimit="10" x1="105.33" y1="202.039" x2="322.178" y2="77.505"/>
				
					<line fill="none" stroke="#FFFFFF" stroke-width="1.3898" stroke-linecap="round" stroke-linejoin="round" stroke-miterlimit="10" x1="141.884" y1="223.723" x2="358.733" y2="99.189"/>
			</g>
			<g clip-path="url(#SVGID_2_)">
				
					<line fill="none" stroke="#FFFFFF" stroke-width="1.3898" stroke-linecap="round" stroke-linejoin="round" stroke-miterlimit="10" x1="356.813" y1="158.148" x2="139.29" y2="34.874"/>
				
					<line fill="none" stroke="#FFFFFF" stroke-width="1.3898" stroke-linecap="round" stroke-linejoin="round" stroke-miterlimit="10" x1="321.774" y1="182.976" x2="104.253" y2="59.699"/>
				
					<line fill="none" stroke="#FFFFFF" stroke-width="1.3898" stroke-linecap="round" stroke-linejoin="round" stroke-miterlimit="10" x1="281.759" y1="204.09" x2="64.236" y2="80.815"/>
				
					<line fill="none" stroke="#FFFFFF" stroke-width="1.3898" stroke-linecap="round" stroke-linejoin="round" stroke-miterlimit="10" x1="245.469" y1="227.035" x2="27.945" y2="103.761"/>
			</g>
		</g>
	</g>
	<g>
		<g>
			<path fill="#030303" d="M277.378,12.845c-0.068-0.04-0.167-0.068-0.239-0.088L256.371,0.774
				c-0.342-0.197-0.764-0.141-1.046,0.107c-0.021,0.012-0.048,0.02-0.069,0.032l-11.273,6.692c-0.24,0.144-0.248,0.382-0.288,0.639
				c-0.101,0.145-0.023,0.319-0.023,0.51v9.911l-5.491,3.179c-0.008,0.001-0.085,0.002-0.093,0.003
				c-0.206-0.039-0.458-0.012-0.651,0.1l-30.89,17.857c-0.22,0.126-0.372,0.333-0.428,0.56c-0.07,0.06-0.14,0.125-0.19,0.206
				l-8.346,13.161l-4.258-2.457c-0.342-0.199-0.758-0.141-1.039,0.107c-0.023,0.011-0.048,0.019-0.069,0.033l-23.593,14.011
				c-0.322,0.191-0.343,0.55-0.292,0.898c-0.003,0.031,0.127,0.062,0.127,0.094v6.877L149.332,84.28l-7.167-4.101l1.674-0.985
				c0.374-0.216,0.624-0.562,0.735-0.979c0.111-0.416,0.045-0.836-0.17-1.209c-0.287-0.497-0.83-0.793-1.404-0.793h-0.001
				c-0.282,0-0.561,0.062-0.806,0.204l-7.841,4.521c-0.372,0.216-0.639,0.559-0.75,0.975s-0.055,0.85,0.161,1.221
				c0.065,0.114,0.145,0.216,0.235,0.308l-11.75,6.843c-0.344,0.111-0.597,0.423-0.618,0.799c0,0.01,0.135,0.018,0.135,0.027
				c0,0.007,0.135,0.014,0.135,0.021v9.096l-29.06,16.731c-0.248,0.143-0.467,0.389-0.503,0.653
				c-0.002,0.011-0.038,0.022-0.04,0.034c-0.003,0.031-0.02,0.062-0.02,0.094c0,0.033-0.009,0.063-0.006,0.095
				c0.002,0.011,0,0.022,0.002,0.035c0,0.002,0.135,0.003,0.135,0.004c-0.005,0.041,0.122,0.08,0.122,0.121v10.387
				c0,0.018-0.132,0.034-0.131,0.05c-0.022,0.331,0.206,0.66,0.511,0.835l7.5,4.29v10.941c0,0.018-0.132,0.034-0.131,0.052
				c-0.021,0.33,0.069,0.657,0.374,0.833l51.72,29.88c0.033,0.021,0.05,0.028,0.085,0.044c0.114,0.081,0.24,0.136,0.385,0.158
				c0.089,0.027,0.174,0.046,0.268,0.046c0.151,0,0.304-0.038,0.443-0.119l115.964-66.952c0.26-0.029,0.509-0.165,0.659-0.404
				l20.596-32.484l0.025-0.015c0.127-0.073,0.236-0.179,0.313-0.305l4.806-7.778c0.021-0.032,0.036-0.066,0.053-0.099l17.227-27.173
				c0.06-0.099,0.1-0.205,0.12-0.312c0.168-0.326,0.117-0.708-0.105-0.976c-0.139-0.237-0.369-0.383-0.619-0.427l-28.603-16.592
				c-0.108-0.062-0.203-0.1-0.203-0.114v-0.058c0-0.099-0.158-0.194-0.19-0.285c-0.052-0.237-0.215-0.452-0.444-0.584l-5.25-3.033"
				/>
		</g>
		<g>
			
				<line fill="none" stroke="#FFFFFF" stroke-width="1.3898" stroke-linecap="round" stroke-linejoin="round" stroke-miterlimit="10" x1="312.352" y1="39.468" x2="258.823" y2="70.432"/>
			
				<line fill="none" stroke="#FFFFFF" stroke-width="1.3898" stroke-linecap="round" stroke-linejoin="round" stroke-miterlimit="10" x1="247.3" y1="88.407" x2="144.997" y2="147.582"/>
			
				<line fill="none" stroke="#FFFFFF" stroke-width="1.3898" stroke-linecap="round" stroke-linejoin="round" stroke-miterlimit="10" x1="312.352" y1="39.826" x2="269.336" y2="107.678"/>
			
				<line fill="none" stroke="#FFFFFF" stroke-width="1.3898" stroke-linecap="round" stroke-linejoin="round" stroke-miterlimit="10" x1="258.528" y1="70.9" x2="247.504" y2="88.289"/>
			
				<line fill="none" stroke="#FFFFFF" stroke-width="1.3898" stroke-linecap="round" stroke-linejoin="round" stroke-miterlimit="10" x1="269.22" y1="107.648" x2="153.018" y2="174.739"/>
			
				<line fill="none" stroke="#FFFFFF" stroke-width="1.3898" stroke-linecap="round" stroke-linejoin="round" stroke-miterlimit="10" x1="152.877" y1="174.705" x2="152.877" y2="162.17"/>
			
				<line fill="none" stroke="#FFFFFF" stroke-width="1.3898" stroke-linecap="round" stroke-linejoin="round" stroke-miterlimit="10" x1="152.838" y1="161.93" x2="145.171" y2="158.689"/>
			
				<line fill="none" stroke="#FFFFFF" stroke-width="1.3898" stroke-linecap="round" stroke-linejoin="round" stroke-miterlimit="10" x1="144.998" y1="158.229" x2="144.998" y2="147.486"/>
			
				<line fill="none" stroke="#FFFFFF" stroke-width="1.3898" stroke-linecap="round" stroke-linejoin="round" stroke-miterlimit="10" x1="237.763" y1="22.846" x2="206.891" y2="40.705"/>
			
				<line fill="none" stroke="#FFFFFF" stroke-width="1.3898" stroke-linecap="round" stroke-linejoin="round" stroke-miterlimit="10" x1="122.433" y1="100.866" x2="93.064" y2="117.855"/>
			
				<line fill="none" stroke="#FFFFFF" stroke-width="1.3898" stroke-linecap="round" stroke-linejoin="round" stroke-miterlimit="10" x1="168.775" y1="74.062" x2="149.319" y2="85.315"/>
			
				<line fill="none" stroke="#FFFFFF" stroke-width="1.3898" stroke-linecap="round" stroke-linejoin="round" stroke-miterlimit="10" x1="206.595" y1="41.174" x2="197.86" y2="54.95"/>
			
				<line fill="none" stroke="#FFFFFF" stroke-width="1.3898" stroke-linecap="round" stroke-linejoin="round" stroke-miterlimit="10" x1="100.944" y1="144.62" x2="100.944" y2="133.517"/>
			
				<line fill="none" stroke="#FFFFFF" stroke-width="1.3898" stroke-linecap="round" stroke-linejoin="round" stroke-miterlimit="10" x1="93.065" y1="128.502" x2="93.065" y2="118.117"/>
			
				<polygon fill="none" stroke="#FFFFFF" stroke-width="1.3898" stroke-linecap="round" stroke-linejoin="round" stroke-miterlimit="10" points="
				156.101,123.248 138.193,133.743 138.193,100.237 156.101,89.741 			"/>
			
				<line fill="none" stroke="#FFFFFF" stroke-width="1.3898" stroke-linecap="round" stroke-linejoin="round" stroke-miterlimit="10" x1="122.433" y1="91.283" x2="138.193" y2="82.105"/>
			
				<line fill="none" stroke="#FFFFFF" stroke-width="1.3898" stroke-linecap="round" stroke-linejoin="round" stroke-miterlimit="10" x1="122.433" y1="124.563" x2="122.433" y2="91.255"/>
			
				<polygon fill="none" stroke="#FFFFFF" stroke-width="1.3898" stroke-linecap="round" stroke-linejoin="round" stroke-miterlimit="10" points="
				189.768,111.827 177.59,118.775 177.59,107.666 189.768,100.718 			"/>
			
				<polygon fill="none" stroke="#FFFFFF" stroke-width="1.3898" stroke-linecap="round" stroke-linejoin="round" stroke-miterlimit="10" points="
				201.945,104.878 189.768,111.827 189.768,100.718 201.945,93.771 			"/>
			
				<polygon fill="none" stroke="#FFFFFF" stroke-width="1.3898" stroke-linecap="round" stroke-linejoin="round" stroke-miterlimit="10" points="
				213.764,97.93 201.945,104.878 201.945,93.771 213.764,86.821 			"/>
			
				<polygon fill="none" stroke="#FFFFFF" stroke-width="1.3898" stroke-linecap="round" stroke-linejoin="round" stroke-miterlimit="10" points="
				225.942,90.982 213.764,97.93 213.764,86.821 225.942,79.874 			"/>
			
				<polygon fill="none" stroke="#FFFFFF" stroke-width="1.3898" stroke-linecap="round" stroke-linejoin="round" stroke-miterlimit="10" points="
				219.493,83.437 207.676,90.384 207.676,79.276 219.493,72.328 			"/>
			
				<polygon fill="none" stroke="#FFFFFF" stroke-width="1.3898" stroke-linecap="round" stroke-linejoin="round" stroke-miterlimit="10" points="
				213.764,75.713 201.945,82.661 201.945,71.552 213.764,64.604 			"/>
			
				<polygon fill="none" stroke="#FFFFFF" stroke-width="1.3898" stroke-linecap="round" stroke-linejoin="round" stroke-miterlimit="10" points="
				150.37,107.14 143.207,111.05 143.207,104.634 150.37,100.724 			"/>
			
				<polygon fill="none" stroke="#FFFFFF" stroke-width="1.3898" stroke-linecap="round" stroke-linejoin="round" stroke-miterlimit="10" points="
				201.945,82.529 189.768,89.477 189.768,78.368 201.945,71.42 			"/>
			
				<polygon fill="none" stroke="#FFFFFF" stroke-width="1.3898" stroke-linecap="round" stroke-linejoin="round" stroke-miterlimit="10" points="
				207.676,90.384 195.857,97.333 195.857,86.225 207.676,79.276 			"/>
			
				<polygon fill="none" stroke="#FFFFFF" stroke-width="1.3898" stroke-linecap="round" stroke-linejoin="round" stroke-miterlimit="10" points="
				195.857,97.333 183.678,104.281 183.678,93.172 195.857,86.225 			"/>
			
				<line fill="none" stroke="#FFFFFF" stroke-width="1.3898" stroke-linecap="round" stroke-linejoin="round" stroke-miterlimit="10" x1="168.994" y1="66.318" x2="192.587" y2="52.307"/>
			
				<line fill="none" stroke="#FFFFFF" stroke-width="1.3898" stroke-linecap="round" stroke-linejoin="round" stroke-miterlimit="10" x1="168.994" y1="77.286" x2="168.994" y2="66.542"/>
			
				<line fill="none" stroke="#FFFFFF" stroke-width="1.3898" stroke-linecap="round" stroke-linejoin="round" stroke-miterlimit="10" x1="244.207" y1="19.624" x2="244.207" y2="8.879"/>
			
				<line fill="none" stroke="#FFFFFF" stroke-width="1.3898" stroke-linecap="round" stroke-linejoin="round" stroke-miterlimit="10" x1="238.118" y1="33.59" x2="238.118" y2="22.846"/>
			
				<line fill="none" stroke="#FFFFFF" stroke-width="1.3898" stroke-linecap="round" stroke-linejoin="round" stroke-miterlimit="10" x1="232.028" y1="47.917" x2="232.028" y2="37.173"/>
			
				<line fill="none" stroke="#FFFFFF" stroke-width="1.3898" stroke-linecap="round" stroke-linejoin="round" stroke-miterlimit="10" x1="162.547" y1="91.614" x2="162.547" y2="80.868"/>
			
				<path fill="none" stroke="#FFFFFF" stroke-width="1.3898" stroke-linecap="round" stroke-linejoin="round" stroke-miterlimit="10" d="
				M178.665,73.765"/>
			
				<line fill="none" stroke="#FFFFFF" stroke-width="1.3898" stroke-linecap="round" stroke-linejoin="round" stroke-miterlimit="10" x1="162.905" y1="80.637" x2="168.775" y2="77.288"/>
			
				<polygon fill="none" stroke="#FFFFFF" stroke-width="1.3898" stroke-linecap="round" stroke-linejoin="round" stroke-miterlimit="10" points="
				290.261,74.884 144.998,158.651 144.998,153.699 295.069,67.106 			"/>
			
				<line fill="none" stroke="#FFFFFF" stroke-width="1.3898" stroke-linecap="round" stroke-linejoin="round" stroke-miterlimit="10" x1="140.252" y1="80.323" x2="155.922" y2="89.369"/>
			
				<line fill="none" stroke="#FFFFFF" stroke-width="1.3898" stroke-linecap="round" stroke-linejoin="round" stroke-miterlimit="10" x1="93.064" y1="117.868" x2="144.818" y2="147.748"/>
			
				<line fill="none" stroke="#FFFFFF" stroke-width="1.3898" stroke-linecap="round" stroke-linejoin="round" stroke-miterlimit="10" x1="169.226" y1="66.746" x2="190.01" y2="78.746"/>
			
				<line fill="none" stroke="#FFFFFF" stroke-width="1.3898" stroke-linecap="round" stroke-linejoin="round" stroke-miterlimit="10" x1="181.318" y1="59.305" x2="202.103" y2="71.304"/>
			
				<line fill="none" stroke="#FFFFFF" stroke-width="1.3898" stroke-linecap="round" stroke-linejoin="round" stroke-miterlimit="10" x1="192.791" y1="52.173" x2="213.574" y2="64.173"/>
			
				<line fill="none" stroke="#FFFFFF" stroke-width="1.3898" stroke-linecap="round" stroke-linejoin="round" stroke-miterlimit="10" x1="213.969" y1="69.061" x2="219.465" y2="72.234"/>
			
				<line fill="none" stroke="#FFFFFF" stroke-width="1.3898" stroke-linecap="round" stroke-linejoin="round" stroke-miterlimit="10" x1="220.171" y1="76.501" x2="225.665" y2="79.676"/>
			
				<line fill="none" stroke="#FFFFFF" stroke-width="1.3898" stroke-linecap="round" stroke-linejoin="round" stroke-miterlimit="10" x1="162.715" y1="81.009" x2="183.499" y2="93.009"/>
			
				<line fill="none" stroke="#FFFFFF" stroke-width="1.3898" stroke-linecap="round" stroke-linejoin="round" stroke-miterlimit="10" x1="156.101" y1="105.939" x2="156.101" y2="95.194"/>
			
				<line fill="none" stroke="#FFFFFF" stroke-width="1.3898" stroke-linecap="round" stroke-linejoin="round" stroke-miterlimit="10" x1="156.459" y1="94.963" x2="162.329" y2="91.615"/>
			
				<line fill="none" stroke="#FFFFFF" stroke-width="1.3898" stroke-linecap="round" stroke-linejoin="round" stroke-miterlimit="10" x1="156.268" y1="95.335" x2="177.053" y2="107.334"/>
			
				<line fill="none" stroke="#FFFFFF" stroke-width="1.3898" stroke-linecap="round" stroke-linejoin="round" stroke-miterlimit="10" x1="162.715" y1="91.602" x2="183.141" y2="103.395"/>
			
				<line fill="none" stroke="#FFFFFF" stroke-width="1.3898" stroke-linecap="round" stroke-linejoin="round" stroke-miterlimit="10" x1="156.101" y1="106.493" x2="177.411" y2="118.795"/>
			
				<line fill="none" stroke="#FFFFFF" stroke-width="1.3898" stroke-linecap="round" stroke-linejoin="round" stroke-miterlimit="10" x1="122.654" y1="91.246" x2="138.014" y2="100.114"/>
			
				<line fill="none" stroke="#FFFFFF" stroke-width="1.3898" stroke-linecap="round" stroke-linejoin="round" stroke-miterlimit="10" x1="122.595" y1="124.879" x2="138.014" y2="133.78"/>
			
				<line fill="none" stroke="#FFFFFF" stroke-width="1.3898" stroke-linecap="round" stroke-linejoin="round" stroke-miterlimit="10" x1="168.916" y1="77.288" x2="189.7" y2="89.288"/>
			
				<polygon fill="none" stroke="#FFFFFF" stroke-width="1.3898" stroke-linecap="round" stroke-linejoin="round" stroke-miterlimit="10" points="
				266.055,53.663 253.876,60.611 253.876,49.501 266.055,42.553 			"/>
			
				<polygon fill="none" stroke="#FFFFFF" stroke-width="1.3898" stroke-linecap="round" stroke-linejoin="round" stroke-miterlimit="10" points="
				277.873,46.715 266.055,53.663 266.055,42.553 277.873,35.606 			"/>
			
				<polygon fill="none" stroke="#FFFFFF" stroke-width="1.3898" stroke-linecap="round" stroke-linejoin="round" stroke-miterlimit="10" points="
				290.051,39.767 277.873,46.715 277.873,35.606 290.051,28.657 			"/>
			
				<polygon fill="none" stroke="#FFFFFF" stroke-width="1.3898" stroke-linecap="round" stroke-linejoin="round" stroke-miterlimit="10" points="
				282.53,32.937 270.712,39.884 270.712,28.776 282.53,21.828 			"/>
			
				<polygon fill="none" stroke="#FFFFFF" stroke-width="1.3898" stroke-linecap="round" stroke-linejoin="round" stroke-miterlimit="10" points="
				276.799,24.854 264.979,31.802 264.979,20.694 276.799,13.745 			"/>
			
				<polygon fill="none" stroke="#FFFFFF" stroke-width="1.3898" stroke-linecap="round" stroke-linejoin="round" stroke-miterlimit="10" points="
				270.712,39.527 258.892,46.475 258.892,35.366 270.712,28.418 			"/>
			
				<line fill="none" stroke="#FFFFFF" stroke-width="1.3898" stroke-linecap="round" stroke-linejoin="round" stroke-miterlimit="10" x1="244.354" y1="8.499" x2="255.624" y2="1.808"/>
			
				<path fill="none" stroke="#FFFFFF" stroke-width="1.3898" stroke-linecap="round" stroke-linejoin="round" stroke-miterlimit="10" d="
				M248.147,18.967"/>
			
				<line fill="none" stroke="#FFFFFF" stroke-width="1.3898" stroke-linecap="round" stroke-linejoin="round" stroke-miterlimit="10" x1="244.354" y1="8.804" x2="265.139" y2="20.804"/>
			
				<line fill="none" stroke="#FFFFFF" stroke-width="1.3898" stroke-linecap="round" stroke-linejoin="round" stroke-miterlimit="10" x1="238.265" y1="22.826" x2="243.784" y2="19.549"/>
			
				<line fill="none" stroke="#FFFFFF" stroke-width="1.3898" stroke-linecap="round" stroke-linejoin="round" stroke-miterlimit="10" x1="232.176" y1="36.794" x2="237.695" y2="33.518"/>
			
				<line fill="none" stroke="#FFFFFF" stroke-width="1.3898" stroke-linecap="round" stroke-linejoin="round" stroke-miterlimit="10" x1="238.265" y1="23.132" x2="259.05" y2="35.129"/>
			
				<line fill="none" stroke="#FFFFFF" stroke-width="1.3898" stroke-linecap="round" stroke-linejoin="round" stroke-miterlimit="10" x1="232.536" y1="37.098" x2="253.318" y2="49.098"/>
			
				<line fill="none" stroke="#FFFFFF" stroke-width="1.3898" stroke-linecap="round" stroke-linejoin="round" stroke-miterlimit="10" x1="237.907" y1="33.518" x2="258.689" y2="45.517"/>
			
				<line fill="none" stroke="#FFFFFF" stroke-width="1.3898" stroke-linecap="round" stroke-linejoin="round" stroke-miterlimit="10" x1="232.028" y1="48.062" x2="253.679" y2="60.559"/>
			
				<line fill="none" stroke="#FFFFFF" stroke-width="1.3898" stroke-linecap="round" stroke-linejoin="round" stroke-miterlimit="10" x1="244.354" y1="19.549" x2="265.139" y2="31.548"/>
			
				<line fill="none" stroke="#FFFFFF" stroke-width="1.3898" stroke-linecap="round" stroke-linejoin="round" stroke-miterlimit="10" x1="255.827" y1="1.673" x2="276.61" y2="13.672"/>
			
				<line fill="none" stroke="#FFFFFF" stroke-width="1.3898" stroke-linecap="round" stroke-linejoin="round" stroke-miterlimit="10" x1="277.004" y1="18.561" x2="282.5" y2="21.734"/>
			
				<line fill="none" stroke="#FFFFFF" stroke-width="1.3898" stroke-linecap="round" stroke-linejoin="round" stroke-miterlimit="10" x1="282.955" y1="24.458" x2="290.023" y2="28.54"/>
			
				<line fill="none" stroke="#FFFFFF" stroke-width="1.3898" stroke-linecap="round" stroke-linejoin="round" stroke-miterlimit="10" x1="93.065" y1="128.613" x2="144.818" y2="158.492"/>
			
				<line fill="none" stroke="#FFFFFF" stroke-width="1.3898" stroke-linecap="round" stroke-linejoin="round" stroke-miterlimit="10" x1="100.944" y1="144.73" x2="152.698" y2="174.61"/>
			
				<line fill="none" stroke="#FFFFFF" stroke-width="1.3898" stroke-linecap="round" stroke-linejoin="round" stroke-miterlimit="10" x1="283.318" y1="22.774" x2="312.438" y2="39.585"/>
			
				<line fill="none" stroke="#FFFFFF" stroke-width="1.3898" stroke-linecap="round" stroke-linejoin="round" stroke-miterlimit="10" x1="213.764" y1="68.451" x2="246.894" y2="87.579"/>
			
				<line fill="none" stroke="#FFFFFF" stroke-width="1.3898" stroke-linecap="round" stroke-linejoin="round" stroke-miterlimit="10" x1="206.942" y1="40.705" x2="258.355" y2="70.387"/>
			<g>
				<g>
					<path fill="#FFFFFF" d="M135.073,89.411c-0.568,0-1.097-0.306-1.379-0.797c-0.212-0.365-0.269-0.793-0.159-1.205
						c0.11-0.409,0.373-0.752,0.74-0.965l7.843-4.528c0.242-0.14,0.517-0.213,0.794-0.213c0.567,0,1.095,0.305,1.378,0.795
						c0.212,0.368,0.269,0.797,0.159,1.207c-0.11,0.411-0.373,0.754-0.741,0.966l-7.841,4.527
						C135.624,89.338,135.35,89.411,135.073,89.411z"/>
					<path fill="#1D1D1D" d="M142.913,82.398c0.31,0,0.611,0.161,0.777,0.448c0.247,0.428,0.1,0.977-0.328,1.223l-7.841,4.528
						c-0.143,0.082-0.296,0.12-0.447,0.12c-0.31,0-0.611-0.16-0.776-0.448c-0.248-0.428-0.101-0.975,0.327-1.223l7.842-4.527
						C142.607,82.437,142.761,82.398,142.913,82.398 M142.913,81.008c-0.399,0-0.794,0.106-1.141,0.306l-7.842,4.527
						c-0.529,0.307-0.907,0.799-1.064,1.388c-0.158,0.59-0.077,1.207,0.23,1.736c0.402,0.702,1.162,1.141,1.979,1.141
						c0.397,0,0.791-0.104,1.137-0.303l7.846-4.531c0.528-0.305,0.906-0.797,1.064-1.387s0.077-1.206-0.228-1.734
						C144.485,81.446,143.727,81.008,142.913,81.008L142.913,81.008z"/>
				</g>
			</g>
			<g>
				<g>
					<path fill="#FFFFFF" d="M135.073,84.039c-0.567,0-1.095-0.305-1.378-0.795c-0.438-0.757-0.177-1.731,0.58-2.171l7.844-4.528
						c0.24-0.14,0.515-0.214,0.794-0.214c0.566,0,1.094,0.305,1.378,0.795c0.438,0.76,0.177,1.734-0.581,2.173l-7.842,4.527
						C135.623,83.966,135.349,84.039,135.073,84.039z"/>
					<path fill="#1D1D1D" d="M142.913,77.025c0.31,0,0.611,0.161,0.777,0.448c0.247,0.428,0.1,0.976-0.328,1.223l-7.841,4.527
						c-0.143,0.082-0.296,0.121-0.447,0.121c-0.31,0-0.611-0.161-0.776-0.448c-0.248-0.429-0.101-0.975,0.327-1.224l7.842-4.527
						C142.607,77.064,142.761,77.025,142.913,77.025 M142.913,75.635L142.913,75.635c-0.401,0-0.798,0.107-1.146,0.31l-7.838,4.524
						c-1.091,0.634-1.465,2.034-0.835,3.123c0.406,0.704,1.165,1.142,1.979,1.142c0.396,0,0.79-0.105,1.137-0.304l7.846-4.53
						c1.091-0.631,1.465-2.031,0.836-3.121C144.484,76.073,143.726,75.635,142.913,75.635L142.913,75.635z"/>
				</g>
			</g>
			
				<line fill="none" stroke="#FFFFFF" stroke-width="1.3898" stroke-linecap="round" stroke-linejoin="round" stroke-miterlimit="10" x1="138.909" y1="92.33" x2="138.909" y2="80.51"/>
		</g>
	</g>
</g>
</svg>
