<?xml version="1.0" encoding="utf-8"?>
<!-- Generator: Adobe Illustrator 15.0.0, SVG Export Plug-In . SVG Version: 6.00 Build 0)  -->
<!DOCTYPE svg PUBLIC "-//W3C//DTD SVG 1.1//EN" "http://www.w3.org/Graphics/SVG/1.1/DTD/svg11.dtd">
<svg version="1.1" id="Layer_1" xmlns="http://www.w3.org/2000/svg" xmlns:xlink="http://www.w3.org/1999/xlink" x="0px" y="0px"
	 width="165px" height="95px" viewBox="0 0 165 95" enable-background="new 0 0 165 95" xml:space="preserve">
<g>
	
		<circle stroke="#FFFFFF" stroke-width="1.3178" stroke-linecap="round" stroke-linejoin="round" stroke-miterlimit="10" cx="8.921" cy="27.481" r="7.921"/>
	<path stroke="#FFFFFF" stroke-width="1.3178" stroke-linecap="round" stroke-linejoin="round" stroke-miterlimit="10" d="
		M10.63,26.074c-0.923-1.557-0.407-3.567,1.149-4.491l19.63-11.623c1.558-0.924,3.567-0.408,4.489,1.148l0.082,0.139
		c0.924,1.558,0.408,3.567-1.148,4.49l-19.63,11.624c-1.558,0.923-3.567,0.408-4.491-1.149L10.63,26.074z"/>
	
		<circle stroke="#FFFFFF" stroke-width="1.3178" stroke-linecap="round" stroke-linejoin="round" stroke-miterlimit="10" cx="33.959" cy="12.985" r="11.721"/>
	<path stroke="#FFFFFF" stroke-width="1.3178" stroke-linecap="round" stroke-linejoin="round" stroke-miterlimit="10" d="
		M36.275,16.249c1.818-1.078,4.164-0.477,5.242,1.34l32.258,55.474c1.078,1.816,0.477,4.162-1.34,5.238l-0.162,0.098
		c-1.817,1.076-4.164,0.477-5.241-1.342L34.773,21.584c-1.077-1.817-0.477-4.164,1.341-5.24L36.275,16.249z"/>
	
		<circle stroke="#FFFFFF" stroke-width="1.3178" stroke-linecap="round" stroke-linejoin="round" stroke-miterlimit="10" cx="73.494" cy="78.215" r="15.521"/>
	<path stroke="#FFFFFF" stroke-width="1.3178" stroke-linecap="round" stroke-linejoin="round" stroke-miterlimit="10" d="
		M145.555,36.879c1.178,1.986,0.521,4.551-1.466,5.728l-60.616,35.25c-1.985,1.176-4.549,0.52-5.726-1.467l-0.104-0.178
		c-1.178-1.984-0.521-4.549,1.465-5.727l60.615-35.25c1.986-1.177,4.551-0.521,5.729,1.465L145.555,36.879z"/>
	
		<circle stroke="#FFFFFF" stroke-width="1.3178" stroke-linecap="round" stroke-linejoin="round" stroke-miterlimit="10" cx="142.02" cy="38.023" r="21.981"/>
</g>
</svg>
