<svg xmlns="http://www.w3.org/2000/svg" viewBox="0 0 617.5 488.21"><defs><style>.cls-1{fill:none;stroke:#1d1d1b;stroke-linecap:round;stroke-linejoin:round;stroke-width:5px;}.cls-2{fill:#1d1d1d;}.cls-3{fill:#fff;}</style></defs><title>Ativo 9</title><g id="Camada_2" data-name="Camada 2"><g id="Layer_1" data-name="Layer 1"><line class="cls-1" x1="614.77" y1="108.03" x2="465.31" y2="194.48"/><line class="cls-1" x1="433.14" y1="244.67" x2="147.5" y2="409.89"/><line class="cls-1" x1="614.77" y1="109.02" x2="494.66" y2="298.47"/><line class="cls-1" x1="464.49" y1="195.79" x2="433.71" y2="244.34"/><line class="cls-1" x1="494.34" y1="298.39" x2="169.89" y2="485.71"/><line class="cls-1" x1="169.5" y1="485.62" x2="169.5" y2="450.62"/><line class="cls-1" x1="169.4" y1="449.95" x2="147.99" y2="440.9"/><line class="cls-1" x1="147.5" y1="439.62" x2="147.5" y2="409.62"/><line class="cls-1" x1="406.51" y1="61.62" x2="320.31" y2="111.48"/><line class="cls-1" x1="84.5" y1="279.46" x2="2.5" y2="326.89"/><line class="cls-1" x1="213.89" y1="204.61" x2="159.57" y2="236.04"/><line class="cls-1" x1="319.49" y1="112.79" x2="295.1" y2="151.25"/><line class="cls-1" x1="24.5" y1="401.62" x2="24.5" y2="370.62"/><line class="cls-1" x1="2.5" y1="356.62" x2="2.5" y2="327.62"/><polygon class="cls-1" points="178.5 341.95 128.5 371.25 128.5 277.7 178.5 248.39 178.5 341.95"/><line class="cls-1" x1="84.5" y1="252.7" x2="128.5" y2="227.07"/><line class="cls-1" x1="84.5" y1="345.62" x2="84.5" y2="252.62"/><polygon class="cls-1" points="272.5 310.06 238.5 329.46 238.5 298.44 272.5 279.04 272.5 310.06"/><polygon class="cls-1" points="306.5 290.66 272.5 310.06 272.5 279.04 306.5 259.64 306.5 290.66"/><polygon class="cls-1" points="339.5 271.26 306.5 290.66 306.5 259.64 339.5 240.24 339.5 271.26"/><polygon class="cls-1" points="373.5 251.86 339.5 271.26 339.5 240.24 373.5 220.84 373.5 251.86"/><polygon class="cls-1" points="355.5 230.79 322.5 250.19 322.5 219.17 355.5 199.77 355.5 230.79"/><polygon class="cls-1" points="339.5 209.22 306.5 228.62 306.5 197.61 339.5 178.21 339.5 209.22"/><polygon class="cls-1" points="162.5 296.97 142.5 307.89 142.5 289.97 162.5 279.06 162.5 296.97"/><polygon class="cls-1" points="306.5 228.26 272.5 247.66 272.5 216.64 306.5 197.24 306.5 228.26"/><polygon class="cls-1" points="322.5 250.19 289.5 269.59 289.5 238.57 322.5 219.17 322.5 250.19"/><polygon class="cls-1" points="289.5 269.59 255.5 288.99 255.5 257.97 289.5 238.57 289.5 269.59"/><line class="cls-1" x1="214.5" y1="183" x2="280.38" y2="143.88"/><line class="cls-1" x1="214.5" y1="213.62" x2="214.5" y2="183.62"/><line class="cls-1" x1="424.5" y1="52.62" x2="424.5" y2="22.62"/><line class="cls-1" x1="407.5" y1="91.62" x2="407.5" y2="61.62"/><line class="cls-1" x1="390.5" y1="131.62" x2="390.5" y2="101.62"/><line class="cls-1" x1="196.5" y1="253.62" x2="196.5" y2="223.62"/><line class="cls-1" x1="197.5" y1="222.97" x2="213.89" y2="213.62"/><polygon class="cls-1" points="553.09 206.91 147.5 440.8 147.5 426.97 566.51 185.19 553.09 206.91"/><line class="cls-1" x1="134.25" y1="222.09" x2="178" y2="247.35"/><line class="cls-1" x1="2.5" y1="326.93" x2="147" y2="410.35"/><line class="cls-1" x1="215.15" y1="184.19" x2="273.18" y2="217.69"/><line class="cls-1" x1="248.91" y1="163.41" x2="306.94" y2="196.92"/><line class="cls-1" x1="280.94" y1="143.5" x2="338.97" y2="177"/><line class="cls-1" x1="340.07" y1="190.65" x2="355.42" y2="199.51"/><line class="cls-1" x1="357.39" y1="211.43" x2="372.74" y2="220.29"/><line class="cls-1" x1="196.97" y1="224.01" x2="255" y2="257.51"/><line class="cls-1" x1="178.5" y1="293.62" x2="178.5" y2="263.62"/><line class="cls-1" x1="179.5" y1="262.97" x2="195.89" y2="253.62"/><line class="cls-1" x1="178.97" y1="264.01" x2="237" y2="297.51"/><line class="cls-1" x1="196.97" y1="253.59" x2="254" y2="286.51"/><line class="cls-1" x1="178.5" y1="295.16" x2="238" y2="329.51"/><line class="cls-1" x1="85.12" y1="252.59" x2="128" y2="277.35"/><line class="cls-1" x1="84.95" y1="346.5" x2="128" y2="371.35"/><line class="cls-1" x1="214.28" y1="213.62" x2="272.31" y2="247.13"/><polygon class="cls-1" points="485.5 147.66 451.5 167.06 451.5 136.04 485.5 116.64 485.5 147.66"/><polygon class="cls-1" points="518.5 128.26 485.5 147.66 485.5 116.64 518.5 97.24 518.5 128.26"/><polygon class="cls-1" points="552.5 108.86 518.5 128.26 518.5 97.24 552.5 77.84 552.5 108.86"/><polygon class="cls-1" points="531.5 89.79 498.5 109.19 498.5 78.17 531.5 58.77 531.5 89.79"/><polygon class="cls-1" points="515.5 67.22 482.5 86.62 482.5 55.61 515.5 36.21 515.5 67.22"/><polygon class="cls-1" points="498.5 108.19 465.5 127.59 465.5 96.57 498.5 77.17 498.5 108.19"/><line class="cls-1" x1="424.91" y1="21.56" x2="456.38" y2="2.88"/><line class="cls-1" x1="424.91" y1="22.41" x2="482.94" y2="55.92"/><line class="cls-1" x1="407.91" y1="61.56" x2="423.32" y2="52.41"/><line class="cls-1" x1="390.91" y1="100.56" x2="406.32" y2="91.41"/><line class="cls-1" x1="407.91" y1="62.41" x2="465.94" y2="95.92"/><line class="cls-1" x1="391.91" y1="101.41" x2="449.94" y2="134.92"/><line class="cls-1" x1="406.91" y1="91.41" x2="464.94" y2="124.92"/><line class="cls-1" x1="390.5" y1="132.02" x2="450.94" y2="166.92"/><line class="cls-1" x1="424.91" y1="52.41" x2="482.94" y2="85.92"/><line class="cls-1" x1="456.94" y1="2.5" x2="514.97" y2="36"/><line class="cls-1" x1="516.07" y1="49.65" x2="531.42" y2="58.51"/><line class="cls-1" x1="532.69" y1="66.12" x2="552.42" y2="77.51"/><line class="cls-1" x1="2.5" y1="356.93" x2="147" y2="440.35"/><line class="cls-1" x1="24.5" y1="401.93" x2="169" y2="485.35"/><line class="cls-1" x1="533.7" y1="61.42" x2="615" y2="108.35"/><line class="cls-1" x1="339.5" y1="188.95" x2="432" y2="242.35"/><line class="cls-1" x1="320.46" y1="111.48" x2="464" y2="194.35"/><path class="cls-2" d="M119.79,246.53a3.5,3.5,0,0,1-3-1.75A3.5,3.5,0,0,1,118,240l21.89-12.64a3.5,3.5,0,0,1,4.78,1.28,3.44,3.44,0,0,1,.35,2.66,3.47,3.47,0,0,1-1.63,2.12l-21.89,12.64A3.48,3.48,0,0,1,119.79,246.53Z"/><path class="cls-3" d="M141.68,227.89a2.5,2.5,0,0,1,1.25,4.66L121,245.2a2.57,2.57,0,0,1-1.25.33,2.52,2.52,0,0,1-2.17-1.25,2.49,2.49,0,0,1,.92-3.41l21.89-12.65a2.6,2.6,0,0,1,1.25-.33m0-2h0a4.57,4.57,0,0,0-2.25.6l-21.89,12.64a4.52,4.52,0,0,0-2.1,2.74,4.47,4.47,0,0,0,.45,3.41,4.51,4.51,0,0,0,6.15,1.65l21.89-12.64a4.5,4.5,0,0,0,1.65-6.15,4.51,4.51,0,0,0-3.9-2.25Z"/><path class="cls-2" d="M119.79,231.53a3.5,3.5,0,0,1-3-1.75A3.5,3.5,0,0,1,118,225l21.89-12.64a3.5,3.5,0,0,1,4.78,1.28,3.44,3.44,0,0,1,.35,2.66,3.47,3.47,0,0,1-1.63,2.12l-21.89,12.64A3.48,3.48,0,0,1,119.79,231.53Z"/><path class="cls-3" d="M141.68,212.89a2.5,2.5,0,0,1,1.25,4.66L121,230.2a2.57,2.57,0,0,1-1.25.33,2.52,2.52,0,0,1-2.17-1.25,2.49,2.49,0,0,1,.92-3.41l21.89-12.65a2.6,2.6,0,0,1,1.25-.33m0-2h0a4.54,4.54,0,0,0-2.25.6l-21.89,12.64a4.52,4.52,0,0,0-2.1,2.74,4.47,4.47,0,0,0,.45,3.41,4.51,4.51,0,0,0,6.15,1.65l21.89-12.64a4.5,4.5,0,0,0,1.65-6.15,4.51,4.51,0,0,0-3.9-2.25Z"/><line class="cls-1" x1="130.5" y1="255.62" x2="130.5" y2="222.62"/></g></g></svg>