<?xml version="1.0" encoding="utf-8"?>
<!-- Generator: Adobe Illustrator 15.0.0, SVG Export Plug-In . SVG Version: 6.00 Build 0)  -->
<!DOCTYPE svg PUBLIC "-//W3C//DTD SVG 1.1//EN" "http://www.w3.org/Graphics/SVG/1.1/DTD/svg11.dtd">
<svg version="1.1" id="Layer_1" xmlns="http://www.w3.org/2000/svg" xmlns:xlink="http://www.w3.org/1999/xlink" x="0px" y="0px"
	 width="91.253px" height="138.922px" viewBox="0 0 91.253 138.922" enable-background="new 0 0 91.253 138.922"
	 xml:space="preserve">
<g>
	<polyline stroke="#FFFFFF" stroke-width="1.3487" stroke-linecap="round" stroke-linejoin="round" stroke-miterlimit="10" points="
		72.733,116.459 45.862,105.341 17.989,121.214 45.239,136.881 72.749,120.998 	"/>
	<polygon stroke="#FFFFFF" stroke-width="1.3487" stroke-linecap="round" stroke-linejoin="round" stroke-miterlimit="10" points="
		45.239,132.304 72.749,116.422 45.862,100.765 17.989,116.638 	"/>
	
		<path fill="#FFFFFF" stroke="#000000" stroke-width="1.3487" stroke-linecap="round" stroke-linejoin="round" stroke-miterlimit="10" d="
		M7.475,127.724L82.024,84.67c1.047-0.604,1.871-1.938,1.871-2.985V8.204"/>
	<path stroke="#FFFFFF" stroke-width="1.3487" stroke-linecap="round" stroke-linejoin="round" stroke-miterlimit="10" d="
		M88.736,5.499l-5.753-3.457c-0.283-0.007-0.615,0.087-0.971,0.292L3.491,47.684c-1.045,0.604-1.863,1.94-1.863,2.985v78.552
		c0,0.26,0.052,0.479,0.146,0.649l5.796,3.795"/>
	<path stroke="#FFFFFF" stroke-width="1.3487" stroke-linecap="round" stroke-linejoin="round" stroke-miterlimit="10" d="
		M7.36,132.697c0,1.045,0.812,1.403,1.857,0.8L87.75,88.146c1.046-0.604,1.876-1.939,1.876-2.984V6.611
		c0-1.046-0.849-1.404-1.894-0.8L9.216,51.162c-1.045,0.604-1.858,1.94-1.858,2.985v78.55H7.36z"/>
	<g>
		<polygon stroke="#FFFFFF" stroke-width="1.3487" stroke-linecap="round" stroke-linejoin="round" stroke-miterlimit="10" points="
			47.366,89.284 56.745,70.11 64.249,65.596 60.149,53.785 53.481,57.537 49.172,46.212 40.003,65.248 32.569,69.833 36.46,81.365 
			43.338,77.753 		"/>
		
			<line stroke="#FFFFFF" stroke-width="1.3487" stroke-linecap="round" stroke-linejoin="round" stroke-miterlimit="10" x1="43.338" y1="77.753" x2="53.481" y2="57.537"/>
		
			<polyline stroke="#FFFFFF" stroke-width="1.3487" stroke-linecap="round" stroke-linejoin="round" stroke-miterlimit="10" points="
			56.745,70.11 50.493,73.445 46.186,61.774 40.003,65.248 		"/>
	</g>
	
		<line fill="none" stroke="#FFFFFF" stroke-width="1.3487" stroke-linecap="round" stroke-linejoin="round" stroke-miterlimit="10" x1="1.969" y1="49.252" x2="7.817" y2="52.627"/>
	
		<line fill="none" stroke="#FFFFFF" stroke-width="1.3487" stroke-linecap="round" stroke-linejoin="round" stroke-miterlimit="10" x1="7.528" y1="120.229" x2="89.291" y2="73.421"/>
	
		<line fill="none" stroke="#FFFFFF" stroke-width="1.3487" stroke-linecap="round" stroke-linejoin="round" stroke-miterlimit="10" x1="72.956" y1="116.626" x2="72.956" y2="120.693"/>
	
		<line stroke="#FFFFFF" stroke-width="1.3487" stroke-linecap="round" stroke-linejoin="round" stroke-miterlimit="10" x1="44.987" y1="132.39" x2="44.987" y2="136.458"/>
</g>
</svg>
