<svg xmlns="http://www.w3.org/2000/svg" viewBox="0 0 266 404.92"><defs><style>.cls-1,.cls-2,.cls-3{fill:#fff;}.cls-1,.cls-3{stroke:#000;stroke-linecap:round;stroke-linejoin:round;}.cls-1{stroke-width:5px;}.cls-3{stroke-width:4px;}</style></defs><title>Ativo 13</title><g id="Camada_2" data-name="Camada 2"><g id="Layer_1" data-name="Layer 1"><polygon class="cls-1" points="131.85 402.42 213.44 355.31 133.7 308.88 51.03 355.95 131.85 402.42"/><polygon points="188.4 354.06 162.16 368.05 159.48 363.41 180.9 349.54 188.4 354.06"/><polygon class="cls-1" points="131.85 388.85 213.44 341.74 133.7 295.3 51.03 342.38 131.85 388.85"/><path class="cls-1" d="M2.5,379.7c0,3.1,2.44,4.17,5.54,2.38L241,247.57c3.1-1.79,5.55-5.76,5.55-8.86V5.74c0-3.1-2.48-4.16-5.58-2.37L8,137.88c-3.1,1.79-5.53,5.75-5.53,8.85Z"/><polygon class="cls-2" points="243.26 5.29 258.11 11.1 201.19 50.53 193.96 37.92 243.26 5.29"/><polygon class="cls-2" points="19.25 389.41 5.25 380.29 6.9 300.92 18.17 302.04 19.25 389.41"/><path class="cls-1" d="M19.5,390c0,3.1,2.41,4.16,5.51,2.37l232.93-134.5c3.1-1.79,5.56-5.76,5.56-8.86v-233c0-3.1-2.51-4.16-5.61-2.37L25,148.19c-3.1,1.79-5.51,5.75-5.51,8.85Z"/><polygon class="cls-3" points="138.16 261.25 165.97 204.39 188.23 191 176.07 155.97 156.29 167.09 143.52 133.51 116.32 189.97 94.27 203.56 105.81 237.77 126.21 227.05 138.16 261.25"/><line class="cls-3" x1="126.21" y1="227.05" x2="156.29" y2="167.09"/><polyline class="cls-3" points="165.97 204.39 147.43 214.28 134.66 179.66 116.32 189.97"/><line class="cls-1" x1="3.52" y1="142.52" x2="20.86" y2="152.54"/><line class="cls-1" x1="2.87" y1="382.15" x2="19.99" y2="392.03"/><line class="cls-1" x1="243.26" y1="2.53" x2="261.28" y2="12.94"/><line class="cls-1" x1="20" y1="353.04" x2="262.5" y2="214.21"/><line class="cls-1" x1="214.05" y1="342.35" x2="214.05" y2="354.41"/><line class="cls-1" x1="131.1" y1="389.1" x2="131.1" y2="401.17"/></g></g></svg>