<?xml version="1.0" encoding="utf-8"?>
<!-- Generator: Adobe Illustrator 15.0.0, SVG Export Plug-In . SVG Version: 6.00 Build 0)  -->
<!DOCTYPE svg PUBLIC "-//W3C//DTD SVG 1.1//EN" "http://www.w3.org/Graphics/SVG/1.1/DTD/svg11.dtd">
<svg version="1.1" id="Layer_1" xmlns="http://www.w3.org/2000/svg" xmlns:xlink="http://www.w3.org/1999/xlink" x="0px" y="0px"
	 width="383px" height="288px" viewBox="0 8.435 383 288" enable-background="new 0 8.435 383 288" xml:space="preserve">
<g>
	<g>
		<polygon stroke="#FFFFFF" stroke-width="1.3898" stroke-linecap="round" stroke-linejoin="round" stroke-miterlimit="10" points="
			190.372,291.262 381.037,181.182 194.688,72.664 1.5,182.672 		"/>
		<polygon stroke="#FFFFFF" stroke-width="1.3898" stroke-linecap="round" stroke-linejoin="round" stroke-miterlimit="10" points="
			190.836,279.217 381.5,169.137 195.15,60.619 1.964,170.628 		"/>
		<polygon stroke="#FFFFFF" stroke-width="1.3898" stroke-linecap="round" stroke-linejoin="round" stroke-miterlimit="10" points="
			190.836,264.967 381.5,154.887 195.15,46.369 1.964,156.378 		"/>
		<g>
			<defs>
				<polygon id="SVGID_1_" points="190.836,264.967 381.5,154.887 195.15,46.369 1.964,156.378 				"/>
			</defs>
			<clipPath id="SVGID_2_">
				<use xlink:href="#SVGID_1_"  overflow="visible"/>
			</clipPath>
			<g clip-path="url(#SVGID_2_)">
				
					<line fill="none" stroke="#FFFFFF" stroke-width="1.3898" stroke-linecap="round" stroke-linejoin="round" stroke-miterlimit="10" x1="29.218" y1="184.728" x2="246.067" y2="60.194"/>
				
					<line fill="none" stroke="#FFFFFF" stroke-width="1.3898" stroke-linecap="round" stroke-linejoin="round" stroke-miterlimit="10" x1="64.533" y1="208.272" x2="281.383" y2="83.738"/>
				
					<line fill="none" stroke="#FFFFFF" stroke-width="1.3898" stroke-linecap="round" stroke-linejoin="round" stroke-miterlimit="10" x1="104.806" y1="228.098" x2="321.654" y2="103.564"/>
				
					<line fill="none" stroke="#FFFFFF" stroke-width="1.3898" stroke-linecap="round" stroke-linejoin="round" stroke-miterlimit="10" x1="141.36" y1="249.783" x2="358.21" y2="125.25"/>
			</g>
			<g clip-path="url(#SVGID_2_)">
				
					<line fill="none" stroke="#FFFFFF" stroke-width="1.3898" stroke-linecap="round" stroke-linejoin="round" stroke-miterlimit="10" x1="356.289" y1="184.208" x2="138.766" y2="60.934"/>
				
					<line fill="none" stroke="#FFFFFF" stroke-width="1.3898" stroke-linecap="round" stroke-linejoin="round" stroke-miterlimit="10" x1="321.251" y1="209.035" x2="103.728" y2="85.759"/>
				
					<line fill="none" stroke="#FFFFFF" stroke-width="1.3898" stroke-linecap="round" stroke-linejoin="round" stroke-miterlimit="10" x1="281.234" y1="230.15" x2="63.711" y2="106.875"/>
				
					<line fill="none" stroke="#FFFFFF" stroke-width="1.3898" stroke-linecap="round" stroke-linejoin="round" stroke-miterlimit="10" x1="244.944" y1="253.096" x2="27.421" y2="129.821"/>
			</g>
		</g>
	</g>
	<g>
		<g>
			<defs>
				<path id="SVGID_3_" d="M248.598,24.251c0,0-19.176-14.297-33.556-11.204c-30.392,6.535-63.771,43.669-74.097,85.266
					c-14.077,50.353,24.163,65.132,24.163,65.132s28.6,15.152,57.783-22.369C252.075,103.554,267.354,67.935,248.598,24.251z"/>
			</defs>
			<use xlink:href="#SVGID_3_"  overflow="visible"/>
			<clipPath id="SVGID_4_">
				<use xlink:href="#SVGID_3_"  overflow="visible"/>
			</clipPath>
			<g clip-path="url(#SVGID_4_)">
				
					<line fill="none" stroke="#FFFFFF" stroke-width="1.3898" stroke-linecap="round" stroke-linejoin="round" stroke-miterlimit="10" x1="131.126" y1="134.718" x2="168.566" y2="156.244"/>
				
					<line fill="none" stroke="#FFFFFF" stroke-width="1.3898" stroke-linecap="round" stroke-linejoin="round" stroke-miterlimit="10" x1="128.715" y1="124.271" x2="166.156" y2="145.797"/>
				
					<line fill="none" stroke="#FFFFFF" stroke-width="1.3898" stroke-linecap="round" stroke-linejoin="round" stroke-miterlimit="10" x1="128.313" y1="113.021" x2="165.755" y2="134.547"/>
				
					<line fill="none" stroke="#FFFFFF" stroke-width="1.3898" stroke-linecap="round" stroke-linejoin="round" stroke-miterlimit="10" x1="128.715" y1="99.763" x2="166.156" y2="121.289"/>
				
					<line fill="none" stroke="#FFFFFF" stroke-width="1.3898" stroke-linecap="round" stroke-linejoin="round" stroke-miterlimit="10" x1="130.322" y1="88.111" x2="167.764" y2="109.637"/>
				
					<line fill="none" stroke="#FFFFFF" stroke-width="1.3898" stroke-linecap="round" stroke-linejoin="round" stroke-miterlimit="10" x1="133.537" y1="76.861" x2="170.979" y2="98.387"/>
				
					<line fill="none" stroke="#FFFFFF" stroke-width="1.3898" stroke-linecap="round" stroke-linejoin="round" stroke-miterlimit="10" x1="137.153" y1="66.415" x2="174.594" y2="87.941"/>
				
					<line fill="none" stroke="#FFFFFF" stroke-width="1.3898" stroke-linecap="round" stroke-linejoin="round" stroke-miterlimit="10" x1="141.975" y1="56.37" x2="179.416" y2="77.896"/>
				
					<line fill="none" stroke="#FFFFFF" stroke-width="1.3898" stroke-linecap="round" stroke-linejoin="round" stroke-miterlimit="10" x1="147.197" y1="47.531" x2="184.639" y2="69.057"/>
				
					<line fill="none" stroke="#FFFFFF" stroke-width="1.3898" stroke-linecap="round" stroke-linejoin="round" stroke-miterlimit="10" x1="153.626" y1="39.496" x2="191.067" y2="61.021"/>
				
					<line fill="none" stroke="#FFFFFF" stroke-width="1.3898" stroke-linecap="round" stroke-linejoin="round" stroke-miterlimit="10" x1="160.054" y1="31.862" x2="197.495" y2="53.387"/>
				
					<line fill="none" stroke="#FFFFFF" stroke-width="1.3898" stroke-linecap="round" stroke-linejoin="round" stroke-miterlimit="10" x1="167.688" y1="25.032" x2="205.129" y2="46.557"/>
				
					<line fill="none" stroke="#FFFFFF" stroke-width="1.3898" stroke-linecap="round" stroke-linejoin="round" stroke-miterlimit="10" x1="175.724" y1="19.005" x2="213.165" y2="40.531"/>
				
					<line fill="none" stroke="#FFFFFF" stroke-width="1.3898" stroke-linecap="round" stroke-linejoin="round" stroke-miterlimit="10" x1="182.554" y1="13.782" x2="219.995" y2="35.308"/>
				
					<line fill="none" stroke="#FFFFFF" stroke-width="1.3898" stroke-linecap="round" stroke-linejoin="round" stroke-miterlimit="10" x1="189.384" y1="9.764" x2="226.825" y2="31.29"/>
				
					<line fill="none" stroke="#FFFFFF" stroke-width="1.3898" stroke-linecap="round" stroke-linejoin="round" stroke-miterlimit="10" x1="197.822" y1="7.755" x2="235.263" y2="29.281"/>
				
					<line fill="none" stroke="#FFFFFF" stroke-width="1.3898" stroke-linecap="round" stroke-linejoin="round" stroke-miterlimit="10" x1="206.259" y1="7.353" x2="243.7" y2="28.879"/>
				
					<line fill="none" stroke="#FFFFFF" stroke-width="1.3898" stroke-linecap="round" stroke-linejoin="round" stroke-miterlimit="10" x1="212.688" y1="7.353" x2="250.129" y2="28.879"/>
			</g>
			
				<use xlink:href="#SVGID_3_"  overflow="visible" fill="none" stroke="#FFFFFF" stroke-width="1.3898" stroke-linecap="round" stroke-linejoin="round" stroke-miterlimit="10"/>
		</g>
		<path stroke="#FFFFFF" stroke-width="1.3898" stroke-linecap="round" stroke-linejoin="round" stroke-miterlimit="10" d="
			M260.797,83.911c-10.108,40.643-42.583,77.943-72.535,83.312c-29.952,5.368-46.039-23.228-35.932-63.871
			c10.107-40.644,42.583-77.944,72.536-83.312C254.817,14.67,270.903,43.267,260.797,83.911z"/>
		
			<path stroke="#FFFFFF" stroke-width="1.3898" stroke-linecap="round" stroke-linejoin="round" stroke-miterlimit="10" stroke-dasharray="1.3898,4.6325" d="
			M255.582,81.696c-9.067,37.127-38.199,72.732-65.067,79.528c-26.868,6.795-41.299-17.793-32.231-54.919
			c9.066-37.128,38.198-72.734,65.067-79.528C250.218,19.98,264.648,44.569,255.582,81.696z"/>
		<g>
			
				<polygon stroke="#FFFFFF" stroke-width="1.3898" stroke-linecap="round" stroke-linejoin="round" stroke-miterlimit="10" points="
				205.201,123.511 218.087,97.167 228.396,90.963 222.764,74.736 213.601,79.891 207.683,64.332 195.084,90.486 184.87,96.785 
				190.215,112.629 199.665,107.666 			"/>
			
				<line stroke="#FFFFFF" stroke-width="1.3898" stroke-linecap="round" stroke-linejoin="round" stroke-miterlimit="10" x1="199.665" y1="107.666" x2="213.601" y2="79.891"/>
			
				<polyline stroke="#FFFFFF" stroke-width="1.3898" stroke-linecap="round" stroke-linejoin="round" stroke-miterlimit="10" points="
				218.087,97.167 209.496,101.749 203.579,85.713 195.084,90.486 			"/>
		</g>
	</g>
</g>
</svg>
