<svg xmlns="http://www.w3.org/2000/svg" viewBox="0 0 237.36 270.73"><defs><style>.cls-1,.cls-2,.cls-3{fill:#fff;stroke:#000;stroke-linecap:round;stroke-linejoin:round;}.cls-1{stroke-width:3px;}.cls-2{stroke-width:3.02px;}.cls-3{stroke-width:3px;}</style></defs><title>Ativo 12</title><g id="Camada_2" data-name="Camada 2"><g id="Layer_1" data-name="Layer 1"><polygon class="cls-1" points="122.3 268.49 54.63 230.4 54.46 169.6 122.12 207.69 122.3 268.49"/><polygon class="cls-2" points="181.68 103.58 115.51 64.14 168.93 32.5 235.09 71.95 181.68 103.58"/><polygon class="cls-3" points="180.57 41.11 180.75 104.48 235.67 72.64 235.86 140.12 180.94 171.96 181.12 235.32 122.62 269.23 122.44 205.87 68.31 237.45 67.32 168.22 122.25 136.38 122.07 75.02 180.57 41.11"/><polygon class="cls-3" points="68.3 168.2 1.5 129.38 55.43 98.24 122.23 137.06 68.3 168.2"/><polygon class="cls-3" points="68.5 238.34 1.7 199.19 1.5 129.38 68.3 168.53 68.5 238.34"/><polygon class="cls-3" points="122.05 75.1 55.25 36.28 115.49 1.5 182.29 40.32 122.05 75.1"/><polygon class="cls-3" points="122.23 137.06 55.43 98.24 55.25 36.28 122.05 75.1 122.23 137.06"/></g></g></svg>