<?xml version="1.0" encoding="utf-8"?>
<!-- Generator: Adobe Illustrator 15.0.0, SVG Export Plug-In . SVG Version: 6.00 Build 0)  -->
<!DOCTYPE svg PUBLIC "-//W3C//DTD SVG 1.1//EN" "http://www.w3.org/Graphics/SVG/1.1/DTD/svg11.dtd">
<svg version="1.1" id="Layer_1" xmlns="http://www.w3.org/2000/svg" xmlns:xlink="http://www.w3.org/1999/xlink" x="0px" y="0px"
	 width="383px" height="267px" viewBox="0 0 383 267" enable-background="new 0 0 383 267" xml:space="preserve">
<g>
	<g>
		
			<polygon fill="#010101" stroke="#FFFFFF" stroke-width="1.3898" stroke-linecap="round" stroke-linejoin="round" stroke-miterlimit="10" points="
			190.372,264.071 381.036,153.991 194.687,45.473 1.5,155.481 		"/>
		
			<polygon fill="#010101" stroke="#FFFFFF" stroke-width="1.3898" stroke-linecap="round" stroke-linejoin="round" stroke-miterlimit="10" points="
			190.835,252.026 381.5,141.946 195.149,33.428 1.963,143.438 		"/>
		
			<polygon fill="#010101" stroke="#FFFFFF" stroke-width="1.3898" stroke-linecap="round" stroke-linejoin="round" stroke-miterlimit="10" points="
			190.835,237.776 381.5,127.696 195.149,19.178 1.963,129.188 		"/>
		<g>
			<defs>
				<polygon id="SVGID_1_" points="190.835,237.776 381.5,127.696 195.149,19.178 1.963,129.188 				"/>
			</defs>
			<clipPath id="SVGID_2_">
				<use xlink:href="#SVGID_1_"  overflow="visible"/>
			</clipPath>
			<g clip-path="url(#SVGID_2_)">
				
					<line fill="none" stroke="#FFFFFF" stroke-width="1.3898" stroke-linecap="round" stroke-linejoin="round" stroke-miterlimit="10" x1="29.217" y1="157.537" x2="246.066" y2="33.003"/>
				
					<line fill="none" stroke="#FFFFFF" stroke-width="1.3898" stroke-linecap="round" stroke-linejoin="round" stroke-miterlimit="10" x1="64.533" y1="181.081" x2="281.383" y2="56.547"/>
				
					<line fill="none" stroke="#FFFFFF" stroke-width="1.3898" stroke-linecap="round" stroke-linejoin="round" stroke-miterlimit="10" x1="104.805" y1="200.907" x2="321.654" y2="76.374"/>
				
					<line fill="none" stroke="#FFFFFF" stroke-width="1.3898" stroke-linecap="round" stroke-linejoin="round" stroke-miterlimit="10" x1="141.359" y1="222.592" x2="358.209" y2="98.059"/>
			</g>
			<g clip-path="url(#SVGID_2_)">
				
					<line fill="none" stroke="#FFFFFF" stroke-width="1.3898" stroke-linecap="round" stroke-linejoin="round" stroke-miterlimit="10" x1="356.288" y1="157.018" x2="138.765" y2="33.743"/>
				
					<line fill="none" stroke="#FFFFFF" stroke-width="1.3898" stroke-linecap="round" stroke-linejoin="round" stroke-miterlimit="10" x1="321.25" y1="181.844" x2="103.728" y2="58.568"/>
				
					<line fill="none" stroke="#FFFFFF" stroke-width="1.3898" stroke-linecap="round" stroke-linejoin="round" stroke-miterlimit="10" x1="281.234" y1="202.959" x2="63.71" y2="79.684"/>
				
					<line fill="none" stroke="#FFFFFF" stroke-width="1.3898" stroke-linecap="round" stroke-linejoin="round" stroke-miterlimit="10" x1="244.943" y1="225.905" x2="27.42" y2="102.63"/>
			</g>
		</g>
	</g>
	<g>
		
			<circle fill="#010101" stroke="#FFFFFF" stroke-width="1.3898" stroke-linecap="round" stroke-linejoin="round" stroke-miterlimit="10" cx="100.913" cy="40.544" r="11.366"/>
		
			<path fill="#010101" stroke="#FFFFFF" stroke-width="1.3898" stroke-linecap="round" stroke-linejoin="round" stroke-miterlimit="10" d="
			M103.364,38.525c-1.324-2.233-0.585-5.118,1.649-6.441l28.166-16.678c2.234-1.324,5.119-0.586,6.442,1.649l0.119,0.199
			c1.324,2.233,0.585,5.118-1.649,6.442l-28.165,16.677c-2.235,1.325-5.12,0.585-6.444-1.647L103.364,38.525z"/>
		
			<circle fill="#010101" stroke="#FFFFFF" stroke-width="1.3898" stroke-linecap="round" stroke-linejoin="round" stroke-miterlimit="10" cx="136.838" cy="19.746" r="16.818"/>
		
			<path fill="#010101" stroke="#FFFFFF" stroke-width="1.3898" stroke-linecap="round" stroke-linejoin="round" stroke-miterlimit="10" d="
			M140.161,24.428c2.607-1.545,5.975-0.683,7.52,1.924l46.285,79.594c1.545,2.607,0.684,5.973-1.924,7.52l-0.233,0.137
			c-2.608,1.544-5.974,0.684-7.52-1.925l-46.286-79.593c-1.545-2.607-0.683-5.974,1.924-7.52L140.161,24.428z"/>
		
			<circle fill="#010101" stroke="#FFFFFF" stroke-width="1.3898" stroke-linecap="round" stroke-linejoin="round" stroke-miterlimit="10" cx="193.561" cy="113.34" r="22.269"/>
		
			<path fill="#010101" stroke="#FFFFFF" stroke-width="1.3898" stroke-linecap="round" stroke-linejoin="round" stroke-miterlimit="10" d="
			M296.956,54.031c1.688,2.849,0.746,6.528-2.104,8.217l-86.974,50.578c-2.849,1.688-6.527,0.747-8.215-2.104l-0.151-0.254
			c-1.688-2.85-0.747-6.529,2.102-8.217l86.974-50.578c2.849-1.689,6.528-0.747,8.217,2.104L296.956,54.031z"/>
		
			<circle fill="#010101" stroke="#FFFFFF" stroke-width="1.3898" stroke-linecap="round" stroke-linejoin="round" stroke-miterlimit="10" cx="291.882" cy="55.671" r="31.538"/>
	</g>
</g>
</svg>
