<?xml version="1.0" encoding="utf-8"?>
<!-- Generator: Adobe Illustrator 15.0.0, SVG Export Plug-In . SVG Version: 6.00 Build 0)  -->
<!DOCTYPE svg PUBLIC "-//W3C//DTD SVG 1.1//EN" "http://www.w3.org/Graphics/SVG/1.1/DTD/svg11.dtd">
<svg version="1.1" id="Layer_1" xmlns="http://www.w3.org/2000/svg" xmlns:xlink="http://www.w3.org/1999/xlink" x="0px" y="0px"
	 width="91.253px" height="138.922px" viewBox="180.054 80.854 91.253 138.922"
	 enable-background="new 180.054 80.854 91.253 138.922" xml:space="preserve">
<g>
	
		<polyline fill="#FFFFFF" stroke="#000000" stroke-width="1.3487" stroke-linecap="round" stroke-linejoin="round" stroke-miterlimit="10" points="
		248.777,199.352 226.086,186.137 198.212,202.01 225.463,217.677 252.972,201.794 	"/>
	
		<polygon fill="#FFFFFF" stroke="#000000" stroke-width="1.3487" stroke-linecap="round" stroke-linejoin="round" stroke-miterlimit="10" points="
		225.463,213.1 252.972,197.218 226.086,181.561 198.212,197.433 	"/>
	
		<path fill="#FFFFFF" stroke="#000000" stroke-width="1.3487" stroke-linecap="round" stroke-linejoin="round" stroke-miterlimit="10" d="
		M187.698,208.52l74.55-43.054c1.046-0.604,1.871-1.939,1.871-2.985V89"/>
	
		<path fill="#FFFFFF" stroke="#000000" stroke-width="1.3487" stroke-linecap="round" stroke-linejoin="round" stroke-miterlimit="10" d="
		M263.207,82.838c-0.283-0.007-0.615,0.087-0.971,0.292l-78.521,45.351c-1.045,0.604-1.864,1.94-1.864,2.985v78.551
		c0,0.261,0.052,0.479,0.146,0.65"/>
	
		<path fill="#FFFFFF" stroke="#000000" stroke-width="1.3487" stroke-linecap="round" stroke-linejoin="round" stroke-miterlimit="10" d="
		M187.583,213.493c0,1.045,0.813,1.403,1.858,0.8l78.533-45.351c1.046-0.604,1.876-1.94,1.876-2.985v-78.55
		c0-1.045-0.848-1.404-1.893-0.8l-78.517,45.351c-1.045,0.604-1.858,1.94-1.858,2.985V213.493z"/>
	<g>
		
			<polygon fill="#FFFFFF" stroke="#000000" stroke-width="1.3487" stroke-linecap="round" stroke-linejoin="round" stroke-miterlimit="10" points="
			227.59,170.08 236.969,150.906 244.472,146.392 240.373,134.581 233.704,138.333 229.396,127.009 220.227,146.044 
			212.793,150.629 216.684,162.161 223.562,158.549 		"/>
		
			<line fill="#FFFFFF" stroke="#000000" stroke-width="1.3487" stroke-linecap="round" stroke-linejoin="round" stroke-miterlimit="10" x1="223.562" y1="158.549" x2="233.704" y2="138.333"/>
		
			<polyline fill="#FFFFFF" stroke="#000000" stroke-width="1.3487" stroke-linecap="round" stroke-linejoin="round" stroke-miterlimit="10" points="
			236.969,150.906 230.717,154.241 226.409,142.57 220.227,146.044 		"/>
	</g>
	
		<line fill="#FFFFFF" stroke="#000000" stroke-width="1.3487" stroke-linecap="round" stroke-linejoin="round" stroke-miterlimit="10" x1="182.193" y1="130.049" x2="188.04" y2="133.424"/>
	
		<line fill="#FFFFFF" stroke="#000000" stroke-width="1.3487" stroke-linecap="round" stroke-linejoin="round" stroke-miterlimit="10" x1="181.975" y1="210.842" x2="187.746" y2="214.174"/>
	
		<line fill="#FFFFFF" stroke="#000000" stroke-width="1.3487" stroke-linecap="round" stroke-linejoin="round" stroke-miterlimit="10" x1="263.493" y1="82.902" x2="269.103" y2="86.356"/>
	
		<line fill="#FFFFFF" stroke="#000000" stroke-width="1.3487" stroke-linecap="round" stroke-linejoin="round" stroke-miterlimit="10" x1="187.751" y1="201.025" x2="269.514" y2="154.217"/>
	
		<line fill="#FFFFFF" stroke="#000000" stroke-width="1.3487" stroke-linecap="round" stroke-linejoin="round" stroke-miterlimit="10" x1="253.179" y1="197.422" x2="253.179" y2="201.489"/>
	
		<line fill="#FFFFFF" stroke="#000000" stroke-width="1.3487" stroke-linecap="round" stroke-linejoin="round" stroke-miterlimit="10" x1="225.21" y1="213.186" x2="225.21" y2="217.254"/>
</g>
</svg>
