<?xml version="1.0" encoding="utf-8"?>
<!-- Generator: Adobe Illustrator 15.0.0, SVG Export Plug-In . SVG Version: 6.00 Build 0)  -->
<!DOCTYPE svg PUBLIC "-//W3C//DTD SVG 1.1//EN" "http://www.w3.org/Graphics/SVG/1.1/DTD/svg11.dtd">
<svg version="1.1" id="Layer_1" xmlns="http://www.w3.org/2000/svg" xmlns:xlink="http://www.w3.org/1999/xlink" x="0px" y="0px"
	 width="109.98px" height="134.95px" viewBox="0 0 109.98 134.95" enable-background="new 0 0 109.98 134.95" xml:space="preserve">
<g>
	<g>
		<g>
			<defs>
				<path id="SVGID_1_" d="M95.564,11.429c0,0-16.286-12.143-28.499-9.516C41.254,7.464,12.902,39.001,4.134,74.33
					c-11.956,42.768,20.521,55.318,20.521,55.318s24.29,12.869,49.076-18.998C98.518,78.783,111.495,48.53,95.564,11.429z"/>
			</defs>
			<clipPath id="SVGID_3_">
				<use xlink:href="#SVGID_1_"  overflow="visible"/>
			</clipPath>
			<g clip-path="url(#SVGID_3_)">
				
					<line fill="none" stroke="#FFFFFF" stroke-width="1.1803" stroke-linecap="round" stroke-linejoin="round" stroke-miterlimit="10" x1="-4.206" y1="105.251" x2="27.593" y2="123.533"/>
				
					<line fill="none" stroke="#FFFFFF" stroke-width="1.1803" stroke-linecap="round" stroke-linejoin="round" stroke-miterlimit="10" x1="-6.254" y1="96.378" x2="25.547" y2="114.662"/>
				
					<line fill="none" stroke="#FFFFFF" stroke-width="1.1803" stroke-linecap="round" stroke-linejoin="round" stroke-miterlimit="10" x1="-6.595" y1="86.824" x2="25.205" y2="105.106"/>
				
					<line fill="none" stroke="#FFFFFF" stroke-width="1.1803" stroke-linecap="round" stroke-linejoin="round" stroke-miterlimit="10" x1="-6.254" y1="75.563" x2="25.547" y2="93.846"/>
				
					<line fill="none" stroke="#FFFFFF" stroke-width="1.1803" stroke-linecap="round" stroke-linejoin="round" stroke-miterlimit="10" x1="-4.889" y1="65.667" x2="26.911" y2="83.949"/>
				
					<line fill="none" stroke="#FFFFFF" stroke-width="1.1803" stroke-linecap="round" stroke-linejoin="round" stroke-miterlimit="10" x1="-2.158" y1="56.111" x2="29.64" y2="74.395"/>
				
					<line fill="none" stroke="#FFFFFF" stroke-width="1.1803" stroke-linecap="round" stroke-linejoin="round" stroke-miterlimit="10" x1="0.912" y1="47.239" x2="32.713" y2="65.521"/>
				
					<line fill="none" stroke="#FFFFFF" stroke-width="1.1803" stroke-linecap="round" stroke-linejoin="round" stroke-miterlimit="10" x1="5.009" y1="38.708" x2="36.807" y2="56.991"/>
				
					<line fill="none" stroke="#FFFFFF" stroke-width="1.1803" stroke-linecap="round" stroke-linejoin="round" stroke-miterlimit="10" x1="9.444" y1="31.202" x2="41.243" y2="49.483"/>
				
					<line fill="none" stroke="#FFFFFF" stroke-width="1.1803" stroke-linecap="round" stroke-linejoin="round" stroke-miterlimit="10" x1="14.903" y1="24.376" x2="46.703" y2="42.659"/>
				
					<line fill="none" stroke="#FFFFFF" stroke-width="1.1803" stroke-linecap="round" stroke-linejoin="round" stroke-miterlimit="10" x1="20.363" y1="17.894" x2="52.162" y2="36.175"/>
				
					<line fill="none" stroke="#FFFFFF" stroke-width="1.1803" stroke-linecap="round" stroke-linejoin="round" stroke-miterlimit="10" x1="26.846" y1="12.091" x2="58.646" y2="30.374"/>
				
					<line fill="none" stroke="#FFFFFF" stroke-width="1.1803" stroke-linecap="round" stroke-linejoin="round" stroke-miterlimit="10" x1="33.673" y1="6.974" x2="65.47" y2="25.255"/>
				
					<line fill="none" stroke="#FFFFFF" stroke-width="1.1803" stroke-linecap="round" stroke-linejoin="round" stroke-miterlimit="10" x1="39.472" y1="2.538" x2="71.272" y2="20.819"/>
				
					<line fill="none" stroke="#FFFFFF" stroke-width="1.1803" stroke-linecap="round" stroke-linejoin="round" stroke-miterlimit="10" x1="45.273" y1="-0.876" x2="77.073" y2="17.407"/>
				
					<line fill="none" stroke="#FFFFFF" stroke-width="1.1803" stroke-linecap="round" stroke-linejoin="round" stroke-miterlimit="10" x1="52.44" y1="-2.581" x2="84.239" y2="15.702"/>
				
					<line fill="none" stroke="#FFFFFF" stroke-width="1.1803" stroke-linecap="round" stroke-linejoin="round" stroke-miterlimit="10" x1="59.605" y1="-2.923" x2="91.405" y2="15.359"/>
				
					<line fill="none" stroke="#FFFFFF" stroke-width="1.1803" stroke-linecap="round" stroke-linejoin="round" stroke-miterlimit="10" x1="65.065" y1="-2.923" x2="96.865" y2="15.359"/>
			</g>
		</g>
		<g>
			
				<path id="SVGID_2_" fill="none" stroke="#FFFFFF" stroke-width="1.1803" stroke-linecap="round" stroke-linejoin="round" stroke-miterlimit="10" d="
				M95.564,11.429c0,0-16.286-12.143-28.499-9.516C41.254,7.464,12.902,39.001,4.134,74.33
				c-11.956,42.768,20.521,55.318,20.521,55.318s24.29,12.869,49.076-18.998C98.518,78.783,111.495,48.53,95.564,11.429z"/>
		</g>
	</g>
	<path stroke="#FFFFFF" stroke-width="1.1803" stroke-linecap="round" stroke-linejoin="round" stroke-miterlimit="10" d="
		M105.926,62.1c-8.585,34.521-36.167,66.199-61.605,70.759S5.219,113.13,13.803,78.612C22.387,44.091,49.97,12.413,75.409,7.854
		C100.846,3.292,114.51,27.579,105.926,62.1z"/>
	
		<path stroke="#FFFFFF" stroke-width="1.1803" stroke-linecap="round" stroke-linejoin="round" stroke-miterlimit="10" stroke-dasharray="1.1803,3.9345" d="
		M101.496,60.218c-7.699,31.534-32.441,61.774-55.262,67.546c-22.82,5.771-35.077-15.112-27.375-46.646
		c7.701-31.534,32.443-61.774,55.262-67.545C96.94,7.802,109.196,28.686,101.496,60.218z"/>
	<g>
		<polygon stroke="#FFFFFF" stroke-width="1.1803" stroke-linecap="round" stroke-linejoin="round" stroke-miterlimit="10" points="
			58.708,95.733 69.651,73.358 78.406,68.089 73.625,54.308 65.842,58.686 60.815,45.472 50.114,67.685 41.439,73.035 45.979,86.49 
			54.006,82.275 		"/>
		
			<line stroke="#FFFFFF" stroke-width="1.1803" stroke-linecap="round" stroke-linejoin="round" stroke-miterlimit="10" x1="54.006" y1="82.275" x2="65.842" y2="58.686"/>
		
			<polyline stroke="#FFFFFF" stroke-width="1.1803" stroke-linecap="round" stroke-linejoin="round" stroke-miterlimit="10" points="
			69.651,73.358 62.355,77.25 57.329,63.63 50.114,67.685 		"/>
	</g>
</g>
</svg>
