<?xml version="1.0" encoding="utf-8"?>
<!-- Generator: Adobe Illustrator 15.0.0, SVG Export Plug-In . SVG Version: 6.00 Build 0)  -->
<!DOCTYPE svg PUBLIC "-//W3C//DTD SVG 1.1//EN" "http://www.w3.org/Graphics/SVG/1.1/DTD/svg11.dtd">
<svg version="1.1" id="Layer_1" xmlns="http://www.w3.org/2000/svg" xmlns:xlink="http://www.w3.org/1999/xlink" x="0px" y="0px"
	 width="383px" height="303.87px" viewBox="0 0 383 303.87" enable-background="new 0 0 383 303.87" xml:space="preserve">
<g>
	<g>
		
			<polygon fill="#010101" stroke="#FFFFFF" stroke-width="1.3898" stroke-linecap="round" stroke-linejoin="round" stroke-miterlimit="10" points="
			190.372,301.641 381.037,191.561 194.688,83.043 1.5,193.053 		"/>
		
			<polygon fill="#010101" stroke="#FFFFFF" stroke-width="1.3898" stroke-linecap="round" stroke-linejoin="round" stroke-miterlimit="10" points="
			190.836,289.598 381.5,179.516 195.15,70.999 1.964,181.008 		"/>
		
			<polygon fill="#010101" stroke="#FFFFFF" stroke-width="1.3898" stroke-linecap="round" stroke-linejoin="round" stroke-miterlimit="10" points="
			190.836,275.348 381.5,165.266 195.15,56.749 1.964,166.758 		"/>
		<g>
			<defs>
				<polygon id="SVGID_1_" points="190.836,275.348 381.5,165.266 195.15,56.749 1.964,166.758 				"/>
			</defs>
			<clipPath id="SVGID_2_">
				<use xlink:href="#SVGID_1_"  overflow="visible"/>
			</clipPath>
			<g clip-path="url(#SVGID_2_)">
				
					<line fill="none" stroke="#FFFFFF" stroke-width="1.3898" stroke-linecap="round" stroke-linejoin="round" stroke-miterlimit="10" x1="29.218" y1="195.108" x2="246.067" y2="70.574"/>
				
					<line fill="none" stroke="#FFFFFF" stroke-width="1.3898" stroke-linecap="round" stroke-linejoin="round" stroke-miterlimit="10" x1="64.533" y1="218.651" x2="281.383" y2="94.118"/>
				
					<line fill="none" stroke="#FFFFFF" stroke-width="1.3898" stroke-linecap="round" stroke-linejoin="round" stroke-miterlimit="10" x1="104.806" y1="238.477" x2="321.654" y2="113.944"/>
				
					<line fill="none" stroke="#FFFFFF" stroke-width="1.3898" stroke-linecap="round" stroke-linejoin="round" stroke-miterlimit="10" x1="141.36" y1="260.163" x2="358.21" y2="135.629"/>
			</g>
			<g clip-path="url(#SVGID_2_)">
				
					<line fill="none" stroke="#FFFFFF" stroke-width="1.3898" stroke-linecap="round" stroke-linejoin="round" stroke-miterlimit="10" x1="356.289" y1="194.588" x2="138.766" y2="71.313"/>
				
					<line fill="none" stroke="#FFFFFF" stroke-width="1.3898" stroke-linecap="round" stroke-linejoin="round" stroke-miterlimit="10" x1="321.251" y1="219.415" x2="103.728" y2="96.139"/>
				
					<line fill="none" stroke="#FFFFFF" stroke-width="1.3898" stroke-linecap="round" stroke-linejoin="round" stroke-miterlimit="10" x1="281.234" y1="240.53" x2="63.711" y2="117.255"/>
				
					<line fill="none" stroke="#FFFFFF" stroke-width="1.3898" stroke-linecap="round" stroke-linejoin="round" stroke-miterlimit="10" x1="244.944" y1="263.475" x2="27.421" y2="140.2"/>
			</g>
		</g>
	</g>
	<g>
		<polygon stroke="#FFFFFF" stroke-width="1.3898" stroke-linecap="round" stroke-linejoin="round" stroke-miterlimit="10" points="
			223.671,158.319 195.374,142.478 153.229,167.612 190.704,189.157 228.534,167.315 228.534,161.022 		"/>
		<polygon stroke="#FFFFFF" stroke-width="1.3898" stroke-linecap="round" stroke-linejoin="round" stroke-miterlimit="10" points="
			190.704,182.864 228.534,161.022 191.561,139.49 153.229,161.317 		"/>
		<path stroke="#FFFFFF" stroke-width="1.3898" stroke-linecap="round" stroke-linejoin="round" stroke-miterlimit="10" d="
			M138.771,176.565l102.521-59.208c1.438-0.83,2.572-2.668,2.572-4.105V12.201"/>
		<path stroke="#FFFFFF" stroke-width="1.3898" stroke-linecap="round" stroke-linejoin="round" stroke-miterlimit="10" d="
			M138.604,183.905l0.564,0.814l-8.24-5.201c-0.129-0.234-0.199-0.535-0.199-0.895V70.601c0-1.438,1.126-3.276,2.563-4.106
			L241.275,4.129c0.489-0.283,0.945-0.413,1.334-0.403l8.444,4.813l-2.465,0.705"/>
		<path stroke="#FFFFFF" stroke-width="1.3898" stroke-linecap="round" stroke-linejoin="round" stroke-miterlimit="10" d="
			M138.61,183.403c0,1.438,1.12,1.93,2.557,1.102l108-62.368c1.438-0.83,2.58-2.668,2.58-4.105V10.009
			c0-1.438-1.166-1.931-2.604-1.101L141.167,71.275c-1.437,0.831-2.557,2.668-2.557,4.106V183.403z"/>
		<g>
			
				<polygon stroke="#FFFFFF" stroke-width="1.3898" stroke-linecap="round" stroke-linejoin="round" stroke-miterlimit="10" points="
				193.63,123.702 206.527,97.334 216.845,91.125 211.209,74.884 202.037,80.043 196.114,64.471 183.503,90.647 173.281,96.952 
				178.631,112.812 188.089,107.844 			"/>
			
				<line stroke="#FFFFFF" stroke-width="1.3898" stroke-linecap="round" stroke-linejoin="round" stroke-miterlimit="10" x1="188.089" y1="107.844" x2="202.037" y2="80.043"/>
			
				<polyline stroke="#FFFFFF" stroke-width="1.3898" stroke-linecap="round" stroke-linejoin="round" stroke-miterlimit="10" points="
				206.527,97.334 197.93,101.92 192.006,85.87 183.503,90.647 			"/>
		</g>
		
			<line stroke="#FFFFFF" stroke-width="1.3898" stroke-linecap="round" stroke-linejoin="round" stroke-miterlimit="10" x1="138.843" y1="166.258" x2="251.283" y2="101.887"/>
		
			<line stroke="#FFFFFF" stroke-width="1.3898" stroke-linecap="round" stroke-linejoin="round" stroke-miterlimit="10" x1="190.357" y1="182.981" x2="190.357" y2="188.575"/>
	</g>
</g>
</svg>
