<svg xmlns="http://www.w3.org/2000/svg" xmlns:xlink="http://www.w3.org/1999/xlink" viewBox="0 0 389.91 360.21"><defs><style>.cls-1,.cls-2{fill:#fff;}.cls-1,.cls-4,.cls-5,.cls-6{stroke:#000;}.cls-1,.cls-4{stroke-miterlimit:10;}.cls-1,.cls-4,.cls-6{stroke-width:5px;}.cls-3{clip-path:url(#clip-path);}.cls-4,.cls-5,.cls-6{fill:none;}.cls-5,.cls-6{stroke-linecap:round;stroke-linejoin:round;}.cls-5{stroke-width:4.39px;stroke-dasharray:5.03 10.06;}</style><clipPath id="clip-path"><path class="cls-1" d="M240.1,357.71H209.51c-82.6,0-149.57-79.52-149.57-177.61S126.91,2.5,209.51,2.5h33Z"/></clipPath></defs><title>Ativo 10</title><g id="Camada_2" data-name="Camada 2"><g id="Layer_1" data-name="Layer 1"><path class="cls-2" d="M240.1,357.71H209.51c-82.6,0-149.57-79.52-149.57-177.61S126.91,2.5,209.51,2.5h33Z"/><g class="cls-3"><line class="cls-4" x1="265" y1="22.22" y2="22.22"/><line class="cls-4" x1="265" y1="46.22" y2="46.22"/><line class="cls-4" x1="265" y1="70.22" y2="70.22"/><line class="cls-4" x1="265" y1="95.22" y2="95.22"/><line class="cls-4" x1="265" y1="119.22" y2="119.22"/><line class="cls-4" x1="265" y1="143.22" y2="143.22"/><line class="cls-4" x1="265" y1="167.22" y2="167.22"/><line class="cls-4" x1="265" y1="191.22" y2="191.22"/><line class="cls-4" x1="265" y1="216.22" y2="216.22"/><line class="cls-4" x1="265" y1="240.22" y2="240.22"/><line class="cls-4" x1="265" y1="264.22" y2="264.22"/><line class="cls-4" x1="265" y1="288.22" y2="288.22"/><line class="cls-4" x1="265" y1="313.22" y2="313.22"/><line class="cls-4" x1="265" y1="337.22" y2="337.22"/></g><path class="cls-4" d="M240.1,357.71H209.51c-82.6,0-149.57-79.52-149.57-177.61S126.91,2.5,209.51,2.5h33Z"/><ellipse class="cls-1" cx="237.84" cy="180.1" rx="149.57" ry="177.6"/><ellipse class="cls-2" cx="237.84" cy="180.1" rx="131.46" ry="156.11"/><ellipse class="cls-5" cx="237.84" cy="180.1" rx="131.46" ry="156.11"/><polyline class="cls-6" points="211.17 210.83 177.55 210.81 157.9 154.06 225.63 154.1"/><polyline class="cls-6" points="192 153.94 239.61 97.47 259.24 154.12"/><polyline class="cls-6" points="278.84 210.87 230.8 267.54 211.17 210.83"/><polyline class="cls-6" points="259.16 154.12 293.36 154.14 312.99 210.89 245.27 210.85 225.62 154.1"/><line class="cls-6" x1="259.22" y1="154.12" x2="211.15" y2="210.83"/></g></g></svg>