<?xml version="1.0" encoding="utf-8"?>
<!-- Generator: Adobe Illustrator 15.0.0, SVG Export Plug-In . SVG Version: 6.00 Build 0)  -->
<!DOCTYPE svg PUBLIC "-//W3C//DTD SVG 1.1//EN" "http://www.w3.org/Graphics/SVG/1.1/DTD/svg11.dtd">
<svg version="1.1" id="Layer_1" xmlns="http://www.w3.org/2000/svg" xmlns:xlink="http://www.w3.org/1999/xlink" x="0px" y="0px"
	 width="383px" height="303.87px" viewBox="0 0 383 303.87" enable-background="new 0 0 383 303.87" xml:space="preserve">
<g>
	<g>
		
			<polygon fill="#010101" stroke="#FFFFFF" stroke-width="1.3898" stroke-linecap="round" stroke-linejoin="round" stroke-miterlimit="10" points="
			190.372,300.548 381.036,190.467 194.687,81.949 1.5,191.958 		"/>
		
			<polygon fill="#010101" stroke="#FFFFFF" stroke-width="1.3898" stroke-linecap="round" stroke-linejoin="round" stroke-miterlimit="10" points="
			190.835,288.503 381.5,178.423 195.149,69.905 1.963,179.915 		"/>
		
			<polygon fill="#010101" stroke="#FFFFFF" stroke-width="1.3898" stroke-linecap="round" stroke-linejoin="round" stroke-miterlimit="10" points="
			190.835,274.253 381.5,164.173 195.149,55.655 1.963,165.665 		"/>
		<g>
			<defs>
				<polygon id="SVGID_1_" points="190.835,274.253 381.5,164.173 195.149,55.655 1.963,165.665 				"/>
			</defs>
			<clipPath id="SVGID_2_">
				<use xlink:href="#SVGID_1_"  overflow="visible"/>
			</clipPath>
			<g clip-path="url(#SVGID_2_)">
				
					<line fill="none" stroke="#FFFFFF" stroke-width="1.3898" stroke-linecap="round" stroke-linejoin="round" stroke-miterlimit="10" x1="29.217" y1="194.014" x2="246.066" y2="69.48"/>
				
					<line fill="none" stroke="#FFFFFF" stroke-width="1.3898" stroke-linecap="round" stroke-linejoin="round" stroke-miterlimit="10" x1="64.533" y1="217.557" x2="281.383" y2="93.024"/>
				
					<line fill="none" stroke="#FFFFFF" stroke-width="1.3898" stroke-linecap="round" stroke-linejoin="round" stroke-miterlimit="10" x1="104.805" y1="237.383" x2="321.654" y2="112.85"/>
				
					<line fill="none" stroke="#FFFFFF" stroke-width="1.3898" stroke-linecap="round" stroke-linejoin="round" stroke-miterlimit="10" x1="141.359" y1="259.069" x2="358.209" y2="134.535"/>
			</g>
			<g clip-path="url(#SVGID_2_)">
				
					<line fill="none" stroke="#FFFFFF" stroke-width="1.3898" stroke-linecap="round" stroke-linejoin="round" stroke-miterlimit="10" x1="356.288" y1="193.495" x2="138.765" y2="70.22"/>
				
					<line fill="none" stroke="#FFFFFF" stroke-width="1.3898" stroke-linecap="round" stroke-linejoin="round" stroke-miterlimit="10" x1="321.25" y1="218.32" x2="103.728" y2="95.045"/>
				
					<line fill="none" stroke="#FFFFFF" stroke-width="1.3898" stroke-linecap="round" stroke-linejoin="round" stroke-miterlimit="10" x1="281.234" y1="239.436" x2="63.71" y2="116.161"/>
				
					<line fill="none" stroke="#FFFFFF" stroke-width="1.3898" stroke-linecap="round" stroke-linejoin="round" stroke-miterlimit="10" x1="244.943" y1="262.381" x2="27.42" y2="139.106"/>
			</g>
		</g>
	</g>
	<g>
		<g>
			
				<polygon stroke="#FFFFFF" stroke-width="1.3898" stroke-linecap="round" stroke-linejoin="round" stroke-miterlimit="10" points="
				190.789,187.66 143.839,161.228 143.715,119.967 190.667,145.464 			"/>
		</g>
		<g>
			
				<polygon stroke="#FFFFFF" stroke-width="1.3898" stroke-linecap="round" stroke-linejoin="round" stroke-miterlimit="10" points="
				231.995,74.159 186.08,46.787 223.146,24.834 269.062,52.207 			"/>
		</g>
		<g>
			
				<polygon stroke="#FFFFFF" stroke-width="1.3898" stroke-linecap="round" stroke-linejoin="round" stroke-miterlimit="10" points="
				231.226,30.807 231.35,74.781 269.463,52.689 269.398,99.882 229.72,122.704 229.743,165.576 191.016,188.171 190.893,144.204 
				153.328,166.121 152.643,119.015 190.76,96.92 190.636,54.334 			"/>
		</g>
		<g>
			
				<polygon stroke="#FFFFFF" stroke-width="1.3898" stroke-linecap="round" stroke-linejoin="round" stroke-miterlimit="10" points="
				153.321,118.996 106.967,92.057 144.388,70.452 190.741,97.39 			"/>
		</g>
		<g>
			
				<polygon stroke="#FFFFFF" stroke-width="1.3898" stroke-linecap="round" stroke-linejoin="round" stroke-miterlimit="10" points="
				153.457,166.74 107.066,140.518 106.967,92.057 153.321,119.227 			"/>
		</g>
		<g>
			
				<polygon stroke="#FFFFFF" stroke-width="1.3898" stroke-linecap="round" stroke-linejoin="round" stroke-miterlimit="10" points="
				190.619,54.392 144.266,27.453 186.065,3.321 232.418,30.258 			"/>
		</g>
		<g>
			
				<polygon stroke="#FFFFFF" stroke-width="1.3898" stroke-linecap="round" stroke-linejoin="round" stroke-miterlimit="10" points="
				190.741,97.39 144.388,70.452 144.266,27.453 190.619,54.392 			"/>
		</g>
	</g>
</g>
</svg>
