<svg width="33" height="27" viewBox="0 0 33 27" fill="none" xmlns="http://www.w3.org/2000/svg">
<path d="M32.7411 8.05892C32.8783 9.86018 32.5781 12.0131 31.3858 12.1246C29.4473 12.2962 30.4595 10.1604 30.4852 8.87377C30.5538 5.14258 27.3716 2.55219 24.258 2.55219C23.3745 2.55219 21.3245 3.15261 21.6419 1.2913C21.7877 0.467868 22.4824 0.485023 23.1772 0.390671C28.418 -0.304103 32.3723 3.29843 32.7411 8.05892Z" fill="white"/>
<path d="M24.1723 12.3991C26.4281 13.6343 29.13 14.2433 28.684 17.9059C28.5725 18.7808 28.0493 19.9559 27.5089 20.7021C23.7005 26.0373 12.2067 28.276 5.03595 24.2275C2.62568 22.8636 0.13822 20.8737 0.524205 16.9109C0.858726 13.4971 3.14891 10.8552 5.3962 8.60791C7.54057 6.46355 9.80501 4.78236 12.8843 4.00182C16.2295 3.16122 17.2159 5.9489 16.3153 8.69368C18.2538 8.56502 22.3538 6.4035 24.1637 8.51356C24.97 9.4485 24.6612 11.1125 24.1723 12.3991ZM21.7363 21.0624C22.4568 20.2475 23.1858 18.9952 23.1773 17.5456C23.1687 13.0596 17.5161 11.4042 13.073 11.7644C10.637 11.9617 9.00731 12.4763 7.29182 13.4799C5.90227 14.2948 4.26398 15.6243 3.86084 17.6314C2.95163 22.1346 7.84935 24.2532 11.4433 24.4934C15.5948 24.7678 19.7549 23.3011 21.7363 21.0624Z" fill="white"/>
<path d="M17.7647 17.091C19.686 22.9065 9.66757 25.6084 7.83199 20.6077C6.60542 17.2711 9.54749 14.6121 12.6182 14.2861C15.2343 14.0202 17.1814 15.3498 17.7647 17.091ZM13.1586 18.086C13.5703 18.7893 14.5053 18.2832 14.4195 17.7257C14.3251 17.0738 13.15 17.1682 13.1586 18.086ZM11.5289 21.1481C13.2101 20.745 13.4417 17.5713 10.8941 18.1717C8.76694 18.6692 9.17866 21.7142 11.5289 21.1481Z" fill="white"/>
</svg>
