<?xml version="1.0" encoding="utf-8"?>
<!-- Generator: Adobe Illustrator 15.0.0, SVG Export Plug-In . SVG Version: 6.00 Build 0)  -->
<!DOCTYPE svg PUBLIC "-//W3C//DTD SVG 1.1//EN" "http://www.w3.org/Graphics/SVG/1.1/DTD/svg11.dtd">
<svg version="1.1" id="Layer_1" xmlns="http://www.w3.org/2000/svg" xmlns:xlink="http://www.w3.org/1999/xlink" x="0px" y="0px"
	 width="118.833px" height="134.836px" viewBox="166.094 82.896 118.833 134.836"
	 enable-background="new 166.094 82.896 118.833 134.836" xml:space="preserve">
<g>
	<g>
		
			<polygon fill="#FFFFFF" stroke="#000000" stroke-width="1.4865" stroke-linecap="round" stroke-linejoin="round" stroke-miterlimit="10" points="
			227.47,216.207 193.98,197.354 193.892,167.258 227.382,186.11 		"/>
	</g>
	<g>
		
			<polygon fill="#FFFFFF" stroke="#000000" stroke-width="1.4947" stroke-linecap="round" stroke-linejoin="round" stroke-miterlimit="10" points="
			256.861,134.584 224.11,115.06 250.55,99.401 283.302,118.926 		"/>
	</g>
	<g>
		
			<polygon fill="#FFFFFF" stroke="#000000" stroke-width="1.4849" stroke-linecap="round" stroke-linejoin="round" stroke-miterlimit="10" points="
			256.312,103.662 256.4,135.027 283.586,119.27 283.681,152.67 256.495,168.428 256.584,199.79 227.631,216.572 227.543,185.21 
			200.749,200.844 200.26,166.579 227.448,150.819 227.36,120.444 		"/>
	</g>
	<g>
		
			<polygon fill="#FFFFFF" stroke="#000000" stroke-width="1.4849" stroke-linecap="round" stroke-linejoin="round" stroke-miterlimit="10" points="
			200.743,166.565 167.681,147.351 194.372,131.94 227.435,151.154 		"/>
	</g>
	<g>
		
			<polygon fill="#FFFFFF" stroke="#000000" stroke-width="1.4849" stroke-linecap="round" stroke-linejoin="round" stroke-miterlimit="10" points="
			200.841,201.285 167.777,181.905 167.681,147.351 200.743,166.73 		"/>
	</g>
	<g>
		
			<polygon fill="#FFFFFF" stroke="#000000" stroke-width="1.4849" stroke-linecap="round" stroke-linejoin="round" stroke-miterlimit="10" points="
			227.349,120.484 194.285,101.27 224.1,84.057 257.162,103.271 		"/>
	</g>
	<g>
		
			<polygon fill="#FFFFFF" stroke="#000000" stroke-width="1.4849" stroke-linecap="round" stroke-linejoin="round" stroke-miterlimit="10" points="
			227.435,151.154 194.372,131.94 194.285,101.27 227.349,120.484 		"/>
	</g>
</g>
</svg>
