<?xml version="1.0" encoding="utf-8"?>
<!-- Generator: Adobe Illustrator 15.0.0, SVG Export Plug-In . SVG Version: 6.00 Build 0)  -->
<!DOCTYPE svg PUBLIC "-//W3C//DTD SVG 1.1//EN" "http://www.w3.org/Graphics/SVG/1.1/DTD/svg11.dtd">
<svg version="1.1" id="Layer_1" xmlns="http://www.w3.org/2000/svg" xmlns:xlink="http://www.w3.org/1999/xlink" x="0px" y="0px"
	 width="118.833px" height="134.836px" viewBox="0 0 118.833 134.836" enable-background="new 0 0 118.833 134.836"
	 xml:space="preserve">
<g>
	<g>
		<polygon stroke="#FFFFFF" stroke-width="1.4865" stroke-linecap="round" stroke-linejoin="round" stroke-miterlimit="10" points="
			61.206,133.311 27.715,114.457 27.627,84.361 61.117,103.213 		"/>
	</g>
	<g>
		<polygon stroke="#FFFFFF" stroke-width="1.4947" stroke-linecap="round" stroke-linejoin="round" stroke-miterlimit="10" points="
			90.596,51.688 57.845,32.164 84.285,16.504 117.037,36.029 		"/>
	</g>
	<g>
		<polygon stroke="#FFFFFF" stroke-width="1.4849" stroke-linecap="round" stroke-linejoin="round" stroke-miterlimit="10" points="
			90.047,20.766 90.135,52.131 117.322,36.373 117.417,69.773 90.23,85.531 90.32,116.894 61.367,133.676 61.279,102.313 
			34.484,117.947 33.996,83.683 61.183,67.922 61.095,37.547 		"/>
	</g>
	<g>
		<polygon stroke="#FFFFFF" stroke-width="1.4849" stroke-linecap="round" stroke-linejoin="round" stroke-miterlimit="10" points="
			34.478,83.668 1.417,64.455 28.107,49.043 61.17,68.258 		"/>
	</g>
	<g>
		<polygon stroke="#FFFFFF" stroke-width="1.4849" stroke-linecap="round" stroke-linejoin="round" stroke-miterlimit="10" points="
			34.576,118.389 1.512,99.009 1.417,64.455 34.478,83.834 		"/>
	</g>
	<g>
		<polygon stroke="#FFFFFF" stroke-width="1.4849" stroke-linecap="round" stroke-linejoin="round" stroke-miterlimit="10" points="
			61.084,37.588 28.021,18.373 57.835,1.16 90.898,20.375 		"/>
	</g>
	<g>
		<polygon stroke="#FFFFFF" stroke-width="1.4849" stroke-linecap="round" stroke-linejoin="round" stroke-miterlimit="10" points="
			61.17,68.258 28.107,49.043 28.021,18.373 61.084,37.588 		"/>
	</g>
</g>
</svg>
