<?xml version="1.0" encoding="utf-8"?>
<!-- Generator: Adobe Illustrator 15.0.0, SVG Export Plug-In . SVG Version: 6.00 Build 0)  -->
<!DOCTYPE svg PUBLIC "-//W3C//DTD SVG 1.1//EN" "http://www.w3.org/Graphics/SVG/1.1/DTD/svg11.dtd">
<svg version="1.1" id="Layer_1" xmlns="http://www.w3.org/2000/svg" xmlns:xlink="http://www.w3.org/1999/xlink" x="0px" y="0px"
	 width="165px" height="95px" viewBox="109 86 165 95" enable-background="new 109 86 165 95" xml:space="preserve">
<g>
	
		<circle fill="#FFFFFF" stroke="#000000" stroke-width="1.3178" stroke-linecap="round" stroke-linejoin="round" stroke-miterlimit="10" cx="118.259" cy="113.25" r="7.921"/>
	
		<path fill="#FFFFFF" stroke="#000000" stroke-width="1.3178" stroke-linecap="round" stroke-linejoin="round" stroke-miterlimit="10" d="
		M119.968,111.843c-0.923-1.557-0.408-3.568,1.149-4.491l19.63-11.624c1.557-0.923,3.568-0.408,4.49,1.149l0.082,0.139
		c0.923,1.557,0.408,3.567-1.149,4.49l-19.63,11.624c-1.557,0.923-3.568,0.408-4.491-1.149L119.968,111.843z"/>
	
		<circle fill="#FFFFFF" stroke="#000000" stroke-width="1.3178" stroke-linecap="round" stroke-linejoin="round" stroke-miterlimit="10" cx="143.297" cy="98.754" r="11.721"/>
	
		<path fill="#FFFFFF" stroke="#000000" stroke-width="1.3178" stroke-linecap="round" stroke-linejoin="round" stroke-miterlimit="10" d="
		M145.614,102.017c1.817-1.077,4.164-0.476,5.241,1.341l32.259,55.473c1.077,1.817,0.476,4.163-1.341,5.24l-0.162,0.096
		c-1.817,1.077-4.164,0.478-5.241-1.341l-32.259-55.472c-1.077-1.818-0.476-4.164,1.341-5.241L145.614,102.017z"/>
	
		<circle fill="#FFFFFF" stroke="#000000" stroke-width="1.3178" stroke-linecap="round" stroke-linejoin="round" stroke-miterlimit="10" cx="182.832" cy="163.984" r="15.521"/>
	
		<path fill="#FFFFFF" stroke="#000000" stroke-width="1.3178" stroke-linecap="round" stroke-linejoin="round" stroke-miterlimit="10" d="
		M254.893,122.649c1.177,1.986,0.521,4.55-1.466,5.727l-60.616,35.25c-1.986,1.177-4.55,0.521-5.726-1.466l-0.105-0.177
		c-1.177-1.986-0.521-4.55,1.465-5.727l60.616-35.25c1.986-1.177,4.551-0.521,5.728,1.465L254.893,122.649z"/>
	
		<circle fill="#FFFFFF" stroke="#000000" stroke-width="1.3178" stroke-linecap="round" stroke-linejoin="round" stroke-miterlimit="10" cx="251.357" cy="123.792" r="21.981"/>
</g>
</svg>
