<svg xmlns="http://www.w3.org/2000/svg" viewBox="0 0 155.82 198.27"><defs><style>.cls-1{isolation:isolate;}.cls-2,.cls-5{fill:#fff;}.cls-2,.cls-6{stroke:#231f20;}.cls-2,.cls-3,.cls-6{stroke-linecap:round;stroke-linejoin:round;}.cls-2,.cls-3,.cls-4,.cls-5,.cls-6{stroke-width:2px;}.cls-3,.cls-4,.cls-6{fill:none;}.cls-3,.cls-4,.cls-5{stroke:#000;}.cls-4,.cls-5{stroke-miterlimit:10;}</style></defs><title>Ativo 11</title><g id="Camada_2" data-name="Camada 2"><g id="Layer_1" data-name="Layer 1"><g class="cls-1"><polygon class="cls-2" points="1.23 38.47 22.38 26.18 22.14 108.73 1 121.02 1.23 38.47"/><polygon class="cls-2" points="1 121.02 22.14 108.73 154.54 184.98 133.4 197.26 1 121.02"/><polygon class="cls-2" points="1.23 38.47 22.38 26.18 154.82 102.48 133.63 114.72 1.23 38.47"/><polygon class="cls-2" points="133.63 114.72 133.4 197.26 1 121.02 1.23 38.47 133.63 114.72"/><polygon class="cls-2" points="133.63 114.72 154.78 102.43 154.54 184.98 133.4 197.26 133.63 114.72"/><polygon class="cls-2" points="134.04 114.83 154.75 102.62 154.46 184.98 133.36 197.27 134.04 114.83"/></g><g class="cls-1"><polyline class="cls-3" points="56.85 118.13 37.99 129.1 38.03 113.23"/><polyline class="cls-3" points="24.54 89.88 10.74 81.91 29.61 70.95"/><polygon class="cls-3" points="51.88 105.66 58.76 101.77 58.72 117.31 51.84 121.2 51.88 105.66"/><polygon class="cls-3" points="38.08 97.69 44.96 93.8 58.76 101.77 51.88 105.66 38.08 97.69"/><polygon class="cls-3" points="38.12 81.83 38.08 97.69 51.88 105.66 51.84 121.2 38.03 113.23 37.99 129.1 24.45 121.28 24.5 105.42 10.7 97.45 10.74 81.91 24.54 89.88 24.59 74.01 38.12 81.83"/><polygon class="cls-3" points="38.12 81.83 45 77.93 44.96 93.8 38.08 97.69 38.12 81.83"/><polygon class="cls-3" points="24.59 74.01 31.47 70.12 45 77.93 38.12 81.83 24.59 74.01"/></g><g class="cls-1"><path class="cls-4" d="M113.78,128.33c0-.12,0-.24,0-.37s0-.11,0-.17a.13.13,0,0,1,0-.06s0-.09,0-.13,0-.24,0-.36,0-.25,0-.38,0-.25-.07-.38,0-.26-.08-.39l0-.14s0,0,0-.08a1.36,1.36,0,0,0,0-.17c0-.13-.07-.26-.1-.4l-.09-.3s0,0,0,0l0,0-.12-.39-.14-.38a.13.13,0,0,0,0-.08s0,0,0,0a2.25,2.25,0,0,0-.08-.24l-.15-.36c0-.09-.08-.18-.11-.27a.08.08,0,0,1,0,0s0,0,0,0l-.17-.36-.19-.4,0-.06s0,0,0-.08a3,3,0,0,1-.16-.31c-.07-.12-.14-.24-.2-.36s-.06-.11-.1-.17l0-.06a.16.16,0,0,1,0-.07l-.18-.28c-.11-.18-.22-.36-.34-.53l0-.08-.46-.65v0h0c-.1-.15-.22-.29-.33-.44s-.17-.21-.26-.32,0,0,0,0h0c-.09-.12-.19-.23-.28-.34l-.3-.33,0,0-.06-.06-.2-.22-.32-.31-.09-.09-.08-.07a1.07,1.07,0,0,0-.16-.14l-.33-.29-.15-.12-.07-.06-.11-.1-.33-.25-.24-.17,0,0s0,0,0,0l-.32-.21-.32-.19-.07,0-.24-.13-.3-.16-.19-.09-.06,0,0,0-.3-.13-.3-.11,0,0-.06,0-.19-.06-.31-.09-.15,0h-.06l-.1,0-.32,0-.21,0h-.13a2,2,0,0,0-.35,0h-.39l-.43.07h0l-.1,0a2.75,2.75,0,0,0-.41.11l0,0a3.28,3.28,0,0,0-.54.24l0,0L96.27,118,93,119.89a3.68,3.68,0,0,1,.57-.26,2.23,2.23,0,0,1,.44-.13l.11,0a3.31,3.31,0,0,1,.55-.07h.76a4.69,4.69,0,0,1,.62.1h.06a5.46,5.46,0,0,1,.66.19h0c.24.08.47.17.72.28l0,0c.24.12.49.24.74.39s.51.31.76.48l0,0c.24.16.47.34.69.52l.08.06c.22.18.43.36.64.56l.07.06c.21.2.41.4.61.62l.07.06c.21.23.42.47.62.71v0A17.11,17.11,0,0,1,103,125l.3.47c.08.15.18.29.26.43l.09.16c.13.24.27.48.39.73l0,.07a19.09,19.09,0,0,1,.79,1.81h0c.12.31.22.62.31.93h0c.1.3.18.6.25.9a.13.13,0,0,0,0,.06,12.54,12.54,0,0,1,.28,1.79v.06q0,.45,0,.87a7.15,7.15,0,0,1,0,.82v.07c0,.24-.06.47-.1.7a.29.29,0,0,0,0,.09c0,.21-.1.42-.16.61a.56.56,0,0,0,0,.12c-.07.19-.14.37-.22.54s0,0,0,0a4.68,4.68,0,0,1-.3.54,3.63,3.63,0,0,1-.52.64.93.93,0,0,1-.14.14,3.28,3.28,0,0,1-.63.48l8-4.67a3.62,3.62,0,0,0,.63-.48l.14-.14a4.14,4.14,0,0,0,.52-.64h0c.1-.16.19-.33.28-.51v0s0,0,0,0,.11-.25.16-.37l.06-.18,0-.12a.3.3,0,0,0,0-.1c0-.12.07-.25.1-.38l0-.15s0,0,0-.07l0-.14c0-.12,0-.24,0-.36a1.49,1.49,0,0,0,0-.21.13.13,0,0,0,0-.06s0-.06,0-.09,0-.23,0-.35,0-.24,0-.36v-.35Z"/><path class="cls-4" d="M98.28,120.41a16.44,16.44,0,0,1,7.46,12.92c0,4.74-3.38,6.66-7.51,4.27a16.43,16.43,0,0,1-7.45-12.91C90.79,120,94.15,118,98.28,120.41Z"/></g><g class="cls-1"><path class="cls-5" d="M83.35,71.49l-.27.14-.13.06,0,0-.09.05-.29.12-.29.12-.3.11-.32.11-.12,0-.06,0-.14,0a1.89,1.89,0,0,1-.34.09l-.25.07h0l0,0-.33.07-.34.06h-.11l-.21,0-.32,0-.25,0H79l-.33,0-.37,0h-.13l-.29,0H77l-.53,0h-.08c-.22,0-.44,0-.66-.06h0l-.45-.06-.34-.06h0l-.37-.07-.35-.08h0l-.07,0a1.05,1.05,0,0,1-.24-.06l-.36-.09-.11,0-.08,0-.17,0-.35-.12L72.52,72l-.07,0-.12,0L72,71.8l-.23-.1,0,0h0l-.28-.15a1.91,1.91,0,0,1-.28-.15l-.06,0-.19-.12-.25-.15a.71.71,0,0,0-.14-.1s0,0,0,0a.05.05,0,0,1,0,0l-.22-.17L70,70.57l0,0,0,0a.69.69,0,0,0-.13-.11,1.7,1.7,0,0,0-.19-.19l-.09-.1,0,0,0-.06-.18-.22-.1-.14,0,0,0-.05a2.13,2.13,0,0,1-.16-.25l-.06-.11,0-.09,0-.09a3.42,3.42,0,0,1-.13-.34h0l0-.09c0-.12-.07-.23-.09-.35v0a2.63,2.63,0,0,1,0-.49s0,0,0,0l0-4.59c0-1.13,0-2.23,0-3.2a3.05,3.05,0,0,0,0,.52,2.62,2.62,0,0,0,.09.38l0,.09a2.62,2.62,0,0,0,.18.43l0,.09a2.42,2.42,0,0,0,.25.4l0,.06.33.41,0,0a4,4,0,0,0,.41.41l0,0c.16.14.33.27.51.4l0,0c.19.13.38.26.59.38s.44.24.67.35h0l.67.28.07,0,.68.23.07,0c.23.06.47.13.71.18l.07,0c.26.06.52.12.78.16h0a13.89,13.89,0,0,0,1.58.18l.47,0h.57l.69,0h.07a14.43,14.43,0,0,0,1.64-.18h0l.81-.17h0l.76-.2,0,0a10.43,10.43,0,0,0,1.42-.54l0,0c.22-.11.44-.22.64-.34s.4-.24.59-.37l0,0a5.72,5.72,0,0,0,.46-.37l.06,0c.14-.12.26-.25.38-.37l.07-.08c.11-.13.22-.25.31-.38l0,0a3.37,3.37,0,0,0,.26-.44,3.23,3.23,0,0,0,.25-.65.75.75,0,0,0,0-.16,2.92,2.92,0,0,0,.09-.66l0,7.79a3,3,0,0,1-.09.66.75.75,0,0,1,0,.16,3.23,3.23,0,0,1-.25.65h0a4.64,4.64,0,0,1-.25.42,0,0,0,0,0,0,0l0,0a2.47,2.47,0,0,1-.21.27l-.1.12-.07.08-.06.06-.23.23-.1.09,0,0-.1.08-.23.19a.71.71,0,0,0-.14.1l0,0-.07,0-.24.17-.26.15h0Z"/><path class="cls-5" d="M71.12,63.55a13.77,13.77,0,0,0,12.5,0c3.44-2,3.42-5.24,0-7.24a13.8,13.8,0,0,0-12.5,0C67.66,58.31,67.67,61.55,71.12,63.55Z"/></g><g class="cls-1"><path class="cls-4" d="M91.44,143.83c0-.12,0-.24,0-.37s0-.11,0-.17v-.06a.57.57,0,0,1,0-.13c0-.12,0-.24,0-.36l-.06-.38-.06-.38c0-.13,0-.26-.08-.39a.57.57,0,0,0,0-.14s0,0,0-.08a.85.85,0,0,1,0-.17c0-.13-.07-.26-.11-.4l-.09-.3a.08.08,0,0,0,0,0s0,0,0-.05-.08-.26-.13-.39-.08-.25-.13-.38l0-.08,0-.05-.09-.24c0-.12-.09-.24-.14-.36l-.12-.27,0,0s0,0,0,0l-.16-.36-.19-.4s0,0,0-.06l0-.08-.16-.31c-.06-.12-.13-.24-.2-.36l-.09-.17,0-.06,0-.07c0-.09-.12-.18-.17-.28s-.22-.36-.34-.53l-.05-.08c-.14-.22-.29-.43-.45-.65l0,0h0l-.33-.44-.26-.32,0,0h0l-.29-.34-.29-.33a.08.08,0,0,1,0,0l-.06-.06-.21-.22-.31-.31-.1-.09a.46.46,0,0,1-.07-.07l-.16-.14-.33-.29-.15-.12-.07-.06-.12-.1-.32-.25-.24-.17,0,0,0,0-.31-.21-.32-.19-.07,0-.24-.13-.31-.16-.19-.09-.06,0,0,0-.3-.13-.3-.11-.05,0,0,0-.2-.06-.3-.09-.16,0h-.06l-.09,0-.33-.05-.2,0H81a2.08,2.08,0,0,0-.35,0h-.39l-.43.07h0l-.1,0a2.75,2.75,0,0,0-.41.11l0,0a3.59,3.59,0,0,0-.53.24l0,0-4.74,2.75-3.3,1.92a3.79,3.79,0,0,1,.58-.26,2.23,2.23,0,0,1,.44-.13l.1,0a3.43,3.43,0,0,1,.56-.07h.76a5,5,0,0,1,.62.1h.06a6,6,0,0,1,.66.19h0c.23.08.47.17.71.28l0,0c.25.12.5.24.75.39l.75.48,0,0c.23.16.46.34.69.52l.07.06c.22.18.43.36.64.56l.07.06c.21.2.42.4.62.62l.06.06c.22.23.43.47.63.71v0c.4.48.77,1,1.13,1.52.1.16.19.32.29.47l.26.43.09.16c.14.24.27.48.4.73l0,.07a19,19,0,0,1,.78,1.81h0c.11.31.21.62.31.93h0q.14.45.24.9a.13.13,0,0,1,0,.06,12.58,12.58,0,0,1,.29,1.79V148a8.71,8.71,0,0,1,0,.87c0,.29,0,.56,0,.82a.17.17,0,0,1,0,.07c0,.24-.06.47-.1.7a.29.29,0,0,1,0,.09,5.43,5.43,0,0,1-.16.61.56.56,0,0,1,0,.12,4.33,4.33,0,0,1-.21.54.05.05,0,0,1,0,0,4.63,4.63,0,0,1-.29.54A4.14,4.14,0,0,1,82,153l-.14.14a4,4,0,0,1-.63.48l8-4.67a3.69,3.69,0,0,0,.64-.48,1.85,1.85,0,0,1,.14-.14,4.1,4.1,0,0,0,.51-.64h0c.1-.16.2-.33.29-.51v0l0,0c0-.12.11-.25.15-.37a1.27,1.27,0,0,0,.06-.18.56.56,0,0,0,0-.12l0-.1c0-.12.07-.25.1-.38a.8.8,0,0,0,0-.15.64.64,0,0,0,0-.07l0-.14c0-.12,0-.24,0-.36s0-.14,0-.21,0,0,0-.06a.28.28,0,0,1,0-.09c0-.11,0-.23,0-.35s0-.24,0-.36v0C91.45,144.05,91.45,143.94,91.44,143.83Z"/><path class="cls-4" d="M76,135.91a16.46,16.46,0,0,1,7.46,12.92c0,4.74-3.38,6.66-7.51,4.27a16.41,16.41,0,0,1-7.45-12.91C68.46,135.45,71.82,133.53,76,135.91Z"/></g><path class="cls-6" d="M77.5,59.5V32.88S75.64,19,87.71,19,99,30.25,99,30.25s-1.39,13.46,10.68,13.46,12.38-12.38,12.38-12.38V1"/></g></g></svg>