<svg width="26" height="27" viewBox="0 0 26 27" fill="none" xmlns="http://www.w3.org/2000/svg">
<g clip-path="url(#clip0)">
<path d="M25.037 22.4047C25.037 23.439 24.6414 24.431 23.9371 25.1624C23.2328 25.8938 22.2775 26.3047 21.2815 26.3047H3.75556C2.75952 26.3047 1.80428 25.8938 1.09998 25.1624C0.395673 24.431 0 23.439 0 22.4047V4.20469C0 3.17034 0.395673 2.17836 1.09998 1.44697C1.80428 0.71558 2.75952 0.304688 3.75556 0.304688H21.2815C22.2775 0.304688 23.2328 0.71558 23.9371 1.44697C24.6414 2.17836 25.037 3.17034 25.037 4.20469V22.4047Z" fill="white"/>
<path d="M16.7581 10.0016C14.7376 10.1117 12.9809 10.747 11.5538 12.1848C10.1125 13.6364 9.45483 15.4157 9.63427 17.6214C8.84476 17.52 8.12537 17.4082 7.4018 17.3449C7.14187 17.3144 6.87894 17.3607 6.64317 17.4784C5.9413 17.89 5.26781 18.3546 4.4733 18.8728C4.62018 18.1847 4.71449 17.5824 4.88224 17.0026C5.00575 16.577 4.949 16.3404 4.57094 16.0622C2.14485 14.2838 1.12251 11.6223 1.88781 8.8819C2.59635 6.3469 4.33476 4.80857 6.69659 4.00863C9.92136 2.9149 13.5451 4.0303 15.5055 6.68923C16.2226 7.64436 16.6578 8.79495 16.7581 10.0016ZM7.45855 9.14796C7.47691 8.64703 7.05879 8.19463 6.56222 8.1799C6.44281 8.1748 6.32361 8.19429 6.21149 8.23726C6.09937 8.28023 5.99655 8.34582 5.90896 8.43026C5.82137 8.51469 5.75074 8.6163 5.70114 8.72921C5.65155 8.84213 5.62397 8.96413 5.61999 9.08816C5.61495 9.21265 5.63409 9.33691 5.67627 9.45354C5.71846 9.57018 5.78282 9.6768 5.86553 9.76706C5.94824 9.85731 6.04759 9.92935 6.15768 9.97889C6.26777 10.0284 6.38633 10.0544 6.50631 10.0554C6.74816 10.065 6.9839 9.97509 7.16224 9.80516C7.34057 9.63522 7.44706 9.39903 7.45855 9.14796ZM12.3099 8.1799C12.0687 8.18548 11.839 8.28792 11.6691 8.4657C11.4991 8.64348 11.4022 8.88275 11.3985 9.13323C11.4012 9.25771 11.4276 9.3804 11.4762 9.49424C11.5248 9.60808 11.5945 9.71081 11.6815 9.79652C11.7684 9.88224 11.8709 9.94924 11.9829 9.99366C12.0949 10.0381 12.2142 10.0591 12.3341 10.0554C12.4549 10.0572 12.5748 10.0339 12.6867 9.98675C12.7987 9.93965 12.9004 9.86972 12.9858 9.7811C13.0713 9.69248 13.1388 9.58696 13.1844 9.47079C13.2299 9.35462 13.2526 9.23015 13.251 9.10473C13.2495 8.97931 13.2237 8.85548 13.1753 8.74057C13.1269 8.62566 13.0567 8.522 12.9691 8.4357C12.8814 8.34941 12.778 8.28223 12.6649 8.23815C12.5519 8.19406 12.4314 8.17396 12.3107 8.17903L12.3099 8.1799Z" fill="#1D1D1B"/>
<path d="M21.2982 23.0834C20.6581 22.7879 20.0714 22.3433 19.4463 22.2757C18.8212 22.2081 18.1694 22.5816 17.5184 22.6501C15.5346 22.8615 13.757 22.2869 12.2915 20.8795C9.50405 18.2023 9.90298 14.0978 13.1261 11.9034C15.992 9.95427 20.1949 10.6034 22.2154 13.3091C23.9788 15.6699 23.7718 18.8038 21.6186 20.7876C20.9961 21.3613 20.7716 21.8337 21.1713 22.5903C21.2473 22.7298 21.2556 22.9066 21.2982 23.0834ZM14.0149 15.7601C14.1135 15.7604 14.2113 15.7406 14.3025 15.7017C14.3938 15.6628 14.4768 15.6056 14.5467 15.5335C14.6167 15.4613 14.6723 15.3755 14.7104 15.281C14.7484 15.1865 14.7682 15.0851 14.7685 14.9827C14.7688 14.8802 14.7497 14.7787 14.7123 14.684C14.6748 14.5892 14.6198 14.503 14.5503 14.4304C14.4808 14.3577 14.3981 14.3 14.3071 14.2604C14.2161 14.2209 14.1185 14.2004 14.0199 14.2001C13.9213 14.1997 13.8235 14.2196 13.7323 14.2584C13.641 14.2973 13.558 14.3545 13.4881 14.4267C13.4181 14.4989 13.3625 14.5847 13.3244 14.6792C13.2864 14.7737 13.2666 14.875 13.2663 14.9775C13.266 15.0799 13.2851 15.1814 13.3225 15.2762C13.3599 15.3709 13.415 15.4571 13.4845 15.5298C13.554 15.6024 13.6366 15.6602 13.7276 15.6997C13.8186 15.7392 13.9163 15.7597 14.0149 15.7601ZM18.7102 14.2001C18.5162 14.1999 18.3297 14.2777 18.1897 14.4171C18.0497 14.5565 17.967 14.7467 17.9591 14.948C17.9541 15.052 17.9695 15.1559 18.0043 15.2536C18.0391 15.3512 18.0926 15.4405 18.1615 15.5161C18.2305 15.5916 18.3134 15.6519 18.4054 15.6933C18.4975 15.7346 18.5966 15.7561 18.6968 15.7566C18.8903 15.7601 19.0774 15.6841 19.2172 15.5452C19.3571 15.4063 19.4385 15.2157 19.4438 15.0147C19.4485 14.9108 19.4331 14.8069 19.3985 14.7093C19.364 14.6116 19.311 14.5221 19.2426 14.446C19.1743 14.3699 19.092 14.3088 19.0005 14.2663C18.9091 14.2238 18.8103 14.2006 18.7102 14.1983V14.2001Z" fill="#1D1D1B"/>
</g>
<defs>
<clipPath id="clip0">
<rect y="0.304688" width="25.037" height="26" fill="white"/>
</clipPath>
</defs>
</svg>
