<?xml version="1.0" encoding="utf-8"?>
<!-- Generator: Adobe Illustrator 15.0.0, SVG Export Plug-In . SVG Version: 6.00 Build 0)  -->
<!DOCTYPE svg PUBLIC "-//W3C//DTD SVG 1.1//EN" "http://www.w3.org/Graphics/SVG/1.1/DTD/svg11.dtd">
<svg version="1.1" id="Layer_1"
  xmlns="http://www.w3.org/2000/svg"
  xmlns:xlink="http://www.w3.org/1999/xlink" x="0px" y="0px" width="530px" height="503px" viewBox="0 0 530 503" enable-background="new 0 0 530 503" xml:space="preserve">
  <g>
    <polygon stroke="#000000" stroke-width="5.7019" stroke-linecap="round" stroke-linejoin="round" stroke-miterlimit="10" points="
		322.824,236.526 258.157,274.107 193.053,236.52 257.719,198.938 	"/>
    <polygon stroke="#000000" stroke-width="5.7019" stroke-linecap="round" stroke-linejoin="round" stroke-miterlimit="10" points="
		229.054,291.022 164.384,328.603 99.279,291.015 163.949,253.433 	"/>
    <polygon stroke="#000000" stroke-width="5.7019" stroke-linecap="round" stroke-linejoin="round" stroke-miterlimit="10" points="
		423.109,294.426 358.438,332.007 293.334,294.419 358.005,256.837 	"/>
    <polygon stroke="#000000" stroke-width="5.7019" stroke-linecap="round" stroke-linejoin="round" stroke-miterlimit="10" points="
		135.28,345.516 70.61,383.096 5.505,345.51 70.175,307.928 	"/>
    <polygon stroke="#000000" stroke-width="5.7019" stroke-linecap="round" stroke-linejoin="round" stroke-miterlimit="10" points="
		523.391,352.323 458.724,389.904 393.631,352.323 458.297,314.743 	"/>
    <polygon stroke="#000000" stroke-width="5.7019" stroke-linecap="round" stroke-linejoin="round" stroke-miterlimit="10" points="
		235.565,403.414 170.895,440.995 105.791,403.407 170.46,365.826 	"/>
    <polygon stroke="#000000" stroke-width="5.7019" stroke-linecap="round" stroke-linejoin="round" stroke-miterlimit="10" points="
		429.62,406.818 364.95,444.399 299.856,406.818 364.526,369.238 	"/>
    <polygon stroke="#000000" stroke-width="5.7019" stroke-linecap="round" stroke-linejoin="round" stroke-miterlimit="10" points="
		335.847,461.312 271.176,498.895 206.086,461.312 270.753,423.731 	"/>
    <path d="M254.49,346.616c-0.026,0.007-0.052,0.015-0.076,0.025C254.438,346.633,254.464,346.623,254.49,346.616z"/>
    <polygon points="223.578,253.682 224.926,254.461 198.512,269.811 197.164,269.033 	"/>
    <polygon fill="#FFFFFF" points="322.824,234.499 258.156,272.079 193.051,234.492 257.719,196.911 	"/>
    <polygon points="291.161,254.461 292.499,253.682 324.984,272.438 323.646,273.215 	"/>
    <path d="M325.108,234.491c0.002,0.155-0.095,0.295-0.274,0.4l-32.335,18.791l-1.338,0.779l-3.099,1.8l-1.351,0.783l-3.64,2.116
		l-1.352,0.785l-3.304,1.919l-1.35,0.785l-3.967,2.306l-1.351,0.783l-12.922,7.512c-0.182,0.105-0.423,0.161-0.678,0.154
		c-0.254,0.007-0.497-0.049-0.677-0.154l-32.547-18.789l-1.348-0.779l-32.546-18.79c-0.182-0.104-0.278-0.246-0.278-0.4
		c-0.002-0.139,0.094-0.28,0.274-0.385l66.007-38.359c0.182-0.105,0.423-0.161,0.677-0.168c0.254,0.006,0.496,0.063,0.678,0.168
		l66.44,38.358C325.011,234.211,325.108,234.352,325.108,234.491z M258.156,272.079l64.668-37.581l-65.105-37.588l-64.668,37.581
		L258.156,272.079"/>
    <polygon points="103.392,323.526 129.819,308.169 131.165,308.948 104.738,324.306 	"/>
    <path d="M203.23,305.559c0.201,0.016,0.396,0.067,0.549,0.158l31.565,18.224l-1.351,0.785l-31.563-18.224
		c-0.156-0.089-0.245-0.204-0.273-0.319L203.23,305.559z"/>
    <polygon fill="#FFFFFF" points="229.052,288.993 164.382,326.574 99.277,288.988 163.947,251.405 	"/>
    <polygon points="323.995,311.658 325.354,312.441 298.686,327.939 297.327,327.156 	"/>
    <path d="M231.337,288.986c0.013,0.146-0.095,0.295-0.264,0.392l-2.339,1.358l-1.351,0.787l-4.46,2.591l-1.338,0.778l-18.355,10.666
		l-1.073,0.624l-9.507,5.523l-1.35,0.785l-3.449,2.005l-1.349,0.785l-3.618,2.102l-1.338,0.777l-3.339,1.939l-1.352,0.787
		l-11.803,6.856c-0.169,0.101-0.421,0.163-0.676,0.156c-0.243,0-0.484-0.056-0.666-0.162l-32.547-18.789l-1.346-0.779
		l-32.547-18.791c-0.182-0.104-0.28-0.245-0.293-0.39c0-0.142,0.107-0.29,0.276-0.387l66.02-38.366
		c0.167-0.099,0.423-0.162,0.665-0.162c0.252,0.007,0.496,0.063,0.678,0.168l32.546,18.792l1.348,0.777l32.545,18.791
		C231.238,288.706,231.335,288.847,231.337,288.986z M164.382,326.574l64.67-37.581l-65.104-37.587l-64.67,37.583L164.382,326.574" />
    <polygon fill="#FFFFFF" points="423.107,292.397 358.437,329.978 293.334,292.392 358.003,254.81 	"/>
    <polygon points="392.782,311.58 425.268,330.334 423.93,331.114 391.444,312.358 	"/>
    <path d="M425.405,292.397c-0.012,0.146-0.108,0.288-0.288,0.392l-32.335,18.791l-1.338,0.778l-32.334,18.789
		c-0.182,0.107-0.423,0.163-0.664,0.163c-0.268,0-0.511-0.056-0.692-0.161l-9.513-5.492l-1.358-0.785l-5.147-2.972l-1.356-0.783
		l-10.146-5.858l-1.36-0.783l-3.52-2.034l-1.358-0.783l-3.083-1.78l-1.358-0.785l-3.398-1.964l-1.162-0.668l-3.402-1.964
		l-1.354-0.783l-3.303-1.908l-1.358-0.783l-3.289-1.898l-1.36-0.785l-9.611-5.55c-0.182-0.104-0.278-0.245-0.267-0.392
		c-0.014-0.146,0.083-0.288,0.264-0.392l32.335-18.791l1.338-0.777l32.335-18.792c0.181-0.104,0.424-0.16,0.687-0.16
		c0.243,0,0.485,0.056,0.667,0.16l66.438,38.36C425.294,292.109,425.392,292.251,425.405,292.397z M358.437,329.978l64.671-37.58
		l-65.104-37.588l-64.669,37.582L358.437,329.978"/>
    <path d="M274.428,346.141c-0.211-0.085-0.468-0.111-0.707-0.085l0.14-0.004C274.069,346.046,274.267,346.08,274.428,346.141z"/>
    <path d="M254.859,346.564c-0.032,0-0.063,0.001-0.097,0.003c0.035-0.003,0.07-0.003,0.106-0.003H254.859z"/>
    <path d="M254.41,346.642c-0.13,0.047-0.24,0.11-0.317,0.186C254.172,346.75,254.282,346.687,254.41,346.642z"/>
    <polygon fill="#FFFFFF" points="135.278,343.486 70.61,381.069 5.505,343.481 70.174,305.9 	"/>
    <polygon points="203.809,381.503 229.969,366.298 231.328,367.085 205.168,382.286 	"/>
    <polygon points="103.628,363.439 104.966,362.664 137.452,381.418 136.113,382.197 	"/>
    <path d="M137.565,343.479c0.013,0.148-0.083,0.289-0.264,0.394l-3.545,2.06l-1.35,0.783l-2.4,1.396l-1.338,0.775l-2.483,1.444
		l-1.351,0.787l-19.868,11.545l-1.338,0.775l-32.346,18.799c-0.169,0.101-0.41,0.156-0.677,0.156c-0.242,0-0.483-0.056-0.665-0.164
		L3.499,343.873c-0.18-0.104-0.278-0.245-0.292-0.392c0.011-0.147,0.107-0.288,0.276-0.385l66.018-38.367
		c0.182-0.105,0.425-0.161,0.666-0.161c0.266,0,0.496,0.062,0.678,0.167l32.546,18.791l1.346,0.779l16.904,9.76l1.36,0.783
		l2.56,1.478l1.36,0.787l2.573,1.484l1.358,0.783l6.432,3.714C137.466,343.201,137.576,343.334,137.565,343.479z M70.61,381.069
		l64.668-37.583L70.174,305.9L5.505,343.481L70.61,381.069"/>
    <polygon points="424.146,369.479 425.492,370.257 399.078,385.609 397.73,384.829 	"/>
    <polygon points="298.451,365.808 331.445,384.859 330.096,385.643 297.103,366.593 	"/>
    <polygon fill="#FFFFFF" points="523.391,350.295 458.722,387.877 393.629,350.295 458.297,312.715 	"/>
    <path d="M525.689,350.297c-0.013,0.146-0.109,0.287-0.289,0.392l-66.007,38.358c-0.182,0.105-0.423,0.163-0.664,0.163
		c-0.268,0-0.509-0.058-0.69-0.163l-32.547-18.79l-1.346-0.777l-20.617-11.903l-1.359-0.785l-4.104-2.368l-1.358-0.783l-5.11-2.951
		c-0.182-0.104-0.278-0.245-0.267-0.392c-0.012-0.146,0.083-0.288,0.264-0.392l14.925-8.676l1.338-0.775l3.979-2.313l1.35-0.785
		l4.631-2.689l1.35-0.786l4.763-2.766l1.338-0.78l32.335-18.789c0.181-0.105,0.422-0.161,0.688-0.161
		c0.241,0,0.482,0.056,0.665,0.161l66.44,38.36C525.578,350.009,525.675,350.15,525.689,350.297z M458.722,387.877l64.669-37.582
		l-65.094-37.58l-64.668,37.58L458.722,387.877"/>
    <polygon fill="#FFFFFF" points="235.563,401.386 170.893,438.968 105.789,401.378 170.458,363.798 	"/>
    <polygon points="303.959,439.324 330.386,423.967 331.733,424.745 305.306,440.103 	"/>
    <polygon points="205.25,420.562 237.735,439.317 236.396,440.095 203.913,421.339 	"/>
    <path d="M237.861,401.386c0,0.141-0.096,0.28-0.276,0.386l-32.335,18.791l-1.336,0.776l-32.348,18.799
		c-0.169,0.098-0.41,0.155-0.665,0.161c-0.254-0.008-0.496-0.063-0.677-0.169l-66.439-38.358c-0.182-0.104-0.28-0.245-0.28-0.386
		c-0.001-0.152,0.095-0.293,0.262-0.392l32.348-18.797l1.338-0.779l32.335-18.791c0.18-0.104,0.423-0.16,0.676-0.152
		c0.254-0.008,0.484,0.056,0.667,0.159l6.772,3.911l1.359,0.785l3.822,2.205l1.358,0.787l4.685,2.702l1.359,0.787l13.325,7.691
		l1.359,0.783l3.519,2.034l1.358,0.784l3.3,1.904l1.36,0.786l3.289,1.897l1.359,0.787l3.3,1.904l1.361,0.783l13.553,7.827
		C237.75,401.1,237.859,401.231,237.861,401.386z M170.893,438.968l64.67-37.582l-65.104-37.588l-64.67,37.58L170.893,438.968"/>
    <polygon fill="#FFFFFF" points="429.618,404.79 364.948,442.372 299.856,404.79 364.525,367.209 	"/>
    <path d="M431.916,404.79c0,0.141-0.107,0.287-0.276,0.386l-66.02,38.365c-0.169,0.099-0.422,0.162-0.663,0.162
		c-0.256-0.006-0.497-0.063-0.679-0.169l-32.545-18.789l-1.348-0.778l-32.547-18.791c-0.182-0.104-0.28-0.245-0.28-0.386
		c-0.013-0.145,0.095-0.294,0.264-0.392l23.026-13.381l1.352-0.787l3.28-1.904l1.349-0.785l3.267-1.898l1.35-0.783l3.341-1.941
		l1.35-0.785l8.235-4.785l1.35-0.785l4.076-2.368l1.35-0.784l3.834-2.229l1.35-0.785l7.512-4.364
		c0.169-0.098,0.423-0.161,0.676-0.153c0.243,0,0.484,0.056,0.666,0.159l32.547,18.791l1.348,0.78l32.545,18.789
		C431.805,404.504,431.903,404.644,431.916,404.79z M364.948,442.372l64.67-37.582l-65.093-37.581l-64.669,37.581L364.948,442.372" />
    <path d="M338.145,459.285c0,0.141-0.095,0.28-0.277,0.386l-66.02,38.365c-0.169,0.099-0.41,0.154-0.662,0.162
		c-0.256-0.008-0.498-0.065-0.68-0.169l-66.439-38.358c-0.182-0.105-0.28-0.245-0.28-0.386c0-0.152,0.095-0.294,0.264-0.392
		l32.346-18.799l1.338-0.777l11.948-6.942l1.349-0.785l3.28-1.906l1.352-0.783l2.964-1.726l1.352-0.784l3.374-1.961l1.352-0.785
		l5.366-3.119c0.18-0.104,0.423-0.159,0.675-0.151c0.255-0.008,0.485,0.056,0.667,0.159l22.219,12.829l1.359,0.783l3.992,2.306
		l1.358,0.785l3.618,2.088l1.347,0.778l32.545,18.789C338.033,458.997,338.143,459.131,338.145,459.285z M271.176,496.867
		l64.669-37.582l-65.092-37.582l-64.668,37.582L271.176,496.867"/>
    <polygon fill="#FFFFFF" points="335.845,459.285 271.176,496.867 206.084,459.285 270.753,421.703 	"/>
  </g>
  <g>
    <path stroke="#000000" stroke-width="5.7019" stroke-linecap="round" stroke-linejoin="round" stroke-miterlimit="10" d="
		M198.799,348.78l65.093,37.58l64.682-37.588l-65.093-37.582L198.799,348.78z"/>
    <path d="M268.453,342.755c0.101,0.156,0.07,0.335-0.08,0.476l0.053-0.066C268.529,343.03,268.531,342.882,268.453,342.755z"/>
    <path fill="#FFFFFF" d="M268.225,342.544c-0.021-0.012-0.039-0.022-0.061-0.033l-4.785-2.763l15.209-0.438l-5.309,6.756
		l-7.289,0.197l2.383-3.033c0.15-0.141,0.181-0.319,0.08-0.476C268.383,342.655,268.314,342.596,268.225,342.544z"/>
    <path d="M268.373,343.23l-2.383,3.033l-2.138,0.058l2.569-3.266l0.272-0.345c0.216-0.282,0.781-0.401,1.268-0.275
		c0.074,0.021,0.144,0.045,0.203,0.075c0.021,0.011,0.04,0.021,0.061,0.033c0.09,0.052,0.158,0.111,0.206,0.178
		c0.008,0.008,0.016,0.019,0.019,0.026c0.082,0.134,0.08,0.282-0.023,0.416L268.373,343.23z"/>
    <path d="M265.502,354.005l1.823,1.053l-18.571,0.509c-0.273,0.005-0.535-0.062-0.729-0.175c-0.037-0.022-0.074-0.045-0.105-0.07
		c-0.182-0.162-0.221-0.364-0.087-0.538l5.936-7.551l0.273-0.348c-0.059,0.074-0.091,0.166-0.083,0.259
		c0.011,0.139,0.115,0.265,0.277,0.359c0.182,0.104,0.436,0.167,0.718,0.16l0.581-0.015l-5.311,6.767L265.502,354.005z"/>
    <polygon fill="#FFFFFF" points="266.421,343.056 263.852,346.321 255.277,346.553 249.69,343.327 255.058,336.495 	"/>
    <path fill="#FFFFFF" d="M273.533,347.162l5.686,3.281l-5.368,6.83l-5.435-3.137c-0.013-0.007-0.029-0.019-0.046-0.027
		c-0.014-0.01-0.03-0.017-0.045-0.024l-5.834-3.367l2.616-3.33L273.533,347.162z"/>
    <path d="M275.019,358.452c-0.132,0.162-0.385,0.28-0.7,0.309c-0.303,0.035-0.618-0.021-0.837-0.146l-6.156-3.557l-1.823-1.053
		l-4.822-2.782c-0.278-0.161-0.364-0.408-0.196-0.618l2.483-3.157l2.14-0.06l-2.616,3.33l5.834,3.367l0.091,0.052l5.435,3.137
		l5.368-6.83l-5.686-3.281l0.418-0.012c0.53-0.015,0.93-0.271,0.903-0.579c-0.011-0.126-0.096-0.241-0.231-0.33l0.433,0.249
		l5.975,3.45c0.278,0.161,0.363,0.406,0.196,0.616L275.019,358.452z"/>
    <path d="M330.87,346.746c-0.011,0.145-0.107,0.285-0.288,0.39l-4.038,2.348l-1.352,0.785l-3.279,1.904l-1.35,0.787l-3.545,2.059
		l-1.339,0.777l-3.277,1.906l-1.352,0.785l-3.279,1.904l-1.35,0.785l-3.28,1.906l-1.349,0.783l-3.342,1.941l-1.349,0.785
		l-3.268,1.899l-1.351,0.783l-3.28,1.908l-1.349,0.783l-3.46,2.012l-1.352,0.783l-3.267,1.9l-1.35,0.783l-3.279,1.906l-1.352,0.785
		l-3.279,1.904l-1.35,0.785l-4.594,2.672c-0.18,0.104-0.421,0.159-0.676,0.167c-0.254-0.008-0.498-0.063-0.679-0.167l-3.724-2.153
		l-1.36-0.783l-3.3-1.906l-1.358-0.785l-3.302-1.904l-1.358-0.787l-3.3-1.904l-1.359-0.783l-3.289-1.901l-1.359-0.783l-3.302-1.906
		l-1.358-0.785l-3.521-2.03l-1.359-0.787l-3.081-1.778l-1.358-0.783l-3.302-1.908l-1.358-0.783l-3.3-1.906l-1.36-0.785l-3.3-1.904
		l-1.359-0.787l-3.289-1.896l-1.358-0.785l-3.3-1.906l-1.358-0.783l-5.463-3.153c-0.182-0.106-0.278-0.245-0.28-0.385
		c0-0.155,0.097-0.295,0.277-0.4l4.594-2.669l1.35-0.783l3.279-1.908l1.35-0.783l3.28-1.906l1.351-0.785l3.267-1.897l1.352-0.786
		l3.459-2.011l1.35-0.785l3.28-1.904l1.349-0.785l3.269-1.898l1.35-0.783l3.339-1.941l1.351-0.785l3.278-1.906l1.351-0.783
		l3.28-1.908l1.35-0.783l3.28-1.906l1.338-0.778l3.545-2.06l1.349-0.784l3.28-1.905l1.35-0.785l4.041-2.347
		c0.18-0.105,0.421-0.161,0.687-0.161c0.243,0,0.484,0.056,0.666,0.161l5.463,3.151l1.358,0.785l3.3,1.906l1.359,0.783l3.289,1.901
		l1.358,0.783l3.3,1.906l1.36,0.785l3.301,1.904l1.358,0.785l3.302,1.906l1.359,0.783l3.081,1.781l1.358,0.783l3.521,2.033
		l1.359,0.785l3.3,1.904l1.36,0.785l3.289,1.898l1.358,0.785l3.301,1.904l1.358,0.785l3.302,1.906l1.359,0.785l3.3,1.904
		l1.358,0.787l3.726,2.149C330.759,346.456,330.857,346.598,330.87,346.746z M263.891,384.332l64.681-37.586l-65.093-37.582
		l-64.682,37.589L263.891,384.332"/>
    <path fill="#FFFFFF" d="M260.483,350.604c-0.167,0.21-0.082,0.457,0.196,0.618l4.822,2.782l-15.279,0.41l5.311-6.767l7.434-0.201
		L260.483,350.604z"/>
    <path fill="#FFFFFF" d="M198.797,346.753l65.094,37.579l64.681-37.586l-65.093-37.582L198.797,346.753z M270.567,317.781
		l43.104,24.885c3.896,2.25,3.914,5.906,0.033,8.163l-42.812,24.88c-3.883,2.257-10.195,2.257-14.091,0.007l-43.104-24.887
		c-3.907-2.255-3.927-5.913-0.044-8.169l42.811-24.879C260.346,315.526,266.66,315.526,270.567,317.781"/>
    <path d="M274.578,346.211c0.015,0.012,0.03,0.019,0.045,0.03c0.134,0.089,0.221,0.204,0.231,0.328
		c0.026,0.311-0.373,0.566-0.903,0.581l-0.418,0.012l-8.428,0.226l-2.138,0.06l-7.434,0.201l-0.581,0.015
		c-0.282,0.007-0.537-0.056-0.718-0.16c-0.162-0.095-0.266-0.221-0.277-0.359c-0.007-0.093,0.024-0.187,0.089-0.264
		c0.024-0.03,0.033-0.041,0.044-0.053c0.08-0.075,0.189-0.139,0.319-0.186c0.028-0.011,0.054-0.019,0.08-0.025
		c0.054-0.012,0.069-0.017,0.085-0.021c0.05-0.01,0.07-0.013,0.091-0.017c0.037-0.004,0.067-0.008,0.097-0.012
		c0.033-0.002,0.065-0.003,0.097-0.003l0.417-0.014l8.575-0.229l2.138-0.058l7.289-0.197l0.441-0.011l0.14-0.004
		c0.209-0.006,0.406,0.028,0.567,0.089c0.035,0.015,0.049,0.021,0.062,0.026C274.521,346.182,274.551,346.196,274.578,346.211z"/>
    <path d="M266.421,343.056l0.272-0.345c0.216-0.282,0.781-0.401,1.268-0.275c0.074,0.021,0.144,0.045,0.203,0.075l-4.785-2.763
		l-2.098,0.06c-0.282,0.008-0.535-0.056-0.72-0.159c-0.162-0.095-0.269-0.223-0.286-0.364c-0.026-0.308,0.382-0.561,0.904-0.583
		l0.368-0.011l-6.122-3.534c-0.219-0.126-0.535-0.182-0.835-0.146c-0.313,0.028-0.568,0.146-0.7,0.309l-6.195,7.902
		c-0.171,0.21-0.083,0.455,0.195,0.617l5.878,3.395l0.292-0.371c0.011-0.012,0.021-0.022,0.034-0.034
		c0.08-0.077,0.189-0.141,0.321-0.186c0.024-0.009,0.05-0.019,0.193-0.052c0.019-0.004,0.039-0.007,0.068-0.011
		c0.028-0.004,0.058-0.008,0.087-0.012c0.035-0.002,0.07-0.003,0.106-0.003l0.408-0.012l-5.587-3.226l5.368-6.832L266.421,343.056z" />
    <path fill="#FFFFFF" d="M312.333,343.445l-43.104-24.886c-1.578-0.912-3.649-1.366-5.717-1.374
		c-2.067,0.008-4.122,0.457-5.702,1.374L215,343.438c-1.58,0.917-2.346,2.108-2.352,3.308c0.019,1.197,0.813,2.395,2.389,3.308
		l43.104,24.883c1.578,0.913,3.649,1.368,5.706,1.366c2.079,0.002,4.12-0.453,5.7-1.372l42.811-24.879
		c1.579-0.919,2.359-2.104,2.352-3.306C314.703,345.555,313.909,344.355,312.333,343.445z M281.227,350.557l-6.208,7.897
		c-0.132,0.16-0.385,0.278-0.7,0.307c-0.303,0.035-0.618-0.021-0.837-0.146l-6.156-3.557l-18.571,0.509
		c-0.273,0.005-0.535-0.062-0.729-0.175c-0.037-0.022-0.074-0.045-0.105-0.07c-0.182-0.162-0.221-0.364-0.087-0.538l5.936-7.551
		l-5.878-3.395c-0.278-0.162-0.366-0.407-0.195-0.617l6.195-7.902c0.132-0.162,0.386-0.28,0.7-0.309
		c0.301-0.035,0.616,0.021,0.835,0.146l6.122,3.534l18.511-0.527c0.264-0.007,0.521,0.049,0.713,0.158
		c0.044,0.025,0.085,0.054,0.122,0.087c0.183,0.16,0.208,0.356,0.074,0.531l-5.911,7.551l5.975,3.45
		C281.309,350.102,281.394,350.347,281.227,350.557"/>
    <path d="M280.967,338.939c0.134-0.175,0.108-0.371-0.074-0.531c-0.037-0.033-0.078-0.062-0.122-0.087
		c-0.191-0.109-0.449-0.165-0.713-0.158l-18.511,0.527l-0.368,0.011c-0.488,0.019-0.878,0.243-0.904,0.525
		c-0.002,0.019-0.002,0.039,0,0.058c0.007,0.074,0.042,0.146,0.096,0.208c0.048,0.058,0.113,0.111,0.189,0.154
		c0.16,0.093,0.371,0.15,0.609,0.161c0.037,0.002,0.074,0.002,0.111,0l2.098-0.06l15.209-0.438l-5.309,6.756l0.441-0.011
		c0.142-0.017,0.288-0.012,0.44,0.015c0,0,0.003,0,0.005,0.002c0.019,0.004,0.041,0.009,0.06,0.013
		c0.072,0.015,0.142,0.033,0.202,0.056c0.035,0.015,0.049,0.021,0.062,0.026c0.031,0.015,0.062,0.029,0.089,0.044
		c0.015,0.012,0.03,0.019,0.045,0.03l0.433,0.249L280.967,338.939z"/>
    <path d="M268.37,354.109c0.017,0.009,0.033,0.021,0.046,0.027l-0.091-0.052C268.34,354.093,268.356,354.1,268.37,354.109z"/>
    <path d="M313.672,342.666c3.896,2.25,3.916,5.906,0.033,8.163l-42.812,24.88c-3.883,2.257-10.195,2.257-14.091,0.007
		l-43.104-24.887c-3.905-2.255-3.927-5.913-0.044-8.169l42.811-24.879c3.881-2.255,10.195-2.255,14.103,0L313.672,342.666z
		 M263.847,376.303c2.079,0.002,4.12-0.453,5.7-1.372l42.811-24.879c1.579-0.919,2.359-2.104,2.352-3.306
		c-0.006-1.191-0.8-2.391-2.376-3.301l-43.104-24.886c-1.578-0.912-3.649-1.366-5.717-1.374c-2.067,0.008-4.122,0.457-5.702,1.374
		L215,343.438c-1.58,0.917-2.346,2.108-2.352,3.308c0.019,1.197,0.813,2.395,2.389,3.308l43.104,24.883
		C259.718,375.85,261.79,376.305,263.847,376.303"/>
  </g>
  <g>
    <polygon points="311.591,304.497 284.926,319.996 283.565,319.211 310.21,303.726 	"/>
    <path d="M211.542,326.581c0.254-0.007,0.51,0.056,0.69,0.162l9.175,5.295l-1.35,0.785l-8.894-5.136h-12.726
		c-0.254-0.008-0.496-0.063-0.678-0.167l-16.213-9.36l1.338-0.777l15.933,9.198H211.542z"/>
    <path d="M209.232,330.806c0.241,0,0.484,0.056,0.667,0.161l6.699,3.867l-1.352,0.786l-6.418-3.708l-12.642-0.089
		c-0.252,0.007-0.496-0.063-0.667-0.164l-18.663-10.772l1.352-0.787l18.385,10.615L209.232,330.806z"/>
    <path d="M203.737,360.203l7.812-4.541l1.359,0.787l-8.089,4.7c-0.182,0.105-0.423,0.161-0.665,0.161l-61.251,0.002
		c-0.254,0.006-0.508-0.056-0.679-0.156l-17.39-10.037l1.351-0.787l17.099,9.871H203.737z"/>
    <path d="M348.553,365.906l7.777,4.49l-1.35,0.785l-7.498-4.33l-12.278-0.008c-0.254,0.008-0.484-0.056-0.666-0.159l-18.858-10.889
		l1.339-0.777l18.579,10.727l12.276-0.008C348.115,365.737,348.371,365.801,348.553,365.906z"/>
    <polygon points="213.346,387.009 239.509,371.807 240.868,372.59 214.706,387.795 	"/>
    <polygon points="293.835,368.492 326.829,387.541 325.48,388.326 292.484,369.275 	"/>
    <path d="M259.826,392.714l-37.94,22.047l29.146,16.829l-1.349,0.785l-29.828-17.221c-0.182-0.105-0.28-0.245-0.28-0.386
		c0-0.154,0.095-0.294,0.275-0.401l37.953-22.054l-12.231-7.061c-0.182-0.108-0.293-0.241-0.293-0.394
		c0-0.142,0.108-0.286,0.277-0.387l7.922-4.603l1.358,0.785l-7.246,4.211l12.231,7.061c0.184,0.106,0.28,0.245,0.293,0.394
		C260.114,392.462,260.006,392.606,259.826,392.714z"/>
  </g>
  <g>
    <path fill="#FFFFFF" stroke="#000000" stroke-width="1.9006" stroke-miterlimit="10" d="M168.664,171.279
		c0,4.133-3.351,7.485-7.484,7.485h-18.12c-4.135,0-7.485-3.352-7.485-7.485v0.061c0-4.135,3.35-7.485,7.484-7.485h18.119
		c4.135,0,7.486,3.35,7.486,7.485V171.279z"/>

    <circle fill="none" stroke="#000000" stroke-width="1.9006" stroke-linecap="round" stroke-linejoin="round" stroke-miterlimit="10" cx="153.514" cy="158.147" r="34.609"/>

    <path fill="none" stroke="#000000" stroke-width="0.9503" stroke-linecap="round" stroke-linejoin="round" stroke-miterlimit="10" d="
		M189.233,158.043h8.603c12.596,0,22.808,10.212,22.808,22.808V347.7"/>
    <path fill="#FFFFFF" stroke="#000000" stroke-width="1.9006" stroke-miterlimit="10" d="M165.855,168.515
		c0,3.693-2.996,6.688-6.689,6.688h-14.093c-3.693,0-6.689-2.994-6.689-6.688v-10.699c0-3.694,2.996-6.688,6.689-6.688h14.093
		c3.694,0,6.689,2.994,6.689,6.688V168.515z"/>
    <path fill="none" stroke="#000000" stroke-width="1.9006" stroke-miterlimit="10" d="M165.908,156.842h2.35
		c2.628,0,4.759,2.131,4.759,4.759l0,0c0,2.63-2.131,4.761-4.759,4.761h-2.35"/>

    <path fill="none" stroke="#000000" stroke-width="1.9006" stroke-linecap="round" stroke-linejoin="round" stroke-miterlimit="10" d="
		M155.601,145.949c2.974,2.973,2.972,7.792,0,10.763l0,0"/>

    <path fill="none" stroke="#000000" stroke-width="1.9006" stroke-linecap="round" stroke-linejoin="round" stroke-miterlimit="10" d="
		M155.608,145.954c-2.973-2.972-2.972-7.792,0-10.764l0,0"/>

    <path fill="none" stroke="#000000" stroke-width="1.9006" stroke-linecap="round" stroke-linejoin="round" stroke-miterlimit="10" d="
		M148.631,145.949c2.974,2.973,2.972,7.792,0,10.763l0,0"/>

    <path fill="none" stroke="#000000" stroke-width="1.9006" stroke-linecap="round" stroke-linejoin="round" stroke-miterlimit="10" d="
		M148.638,145.954c-2.973-2.972-2.971-7.792,0-10.764l0,0"/>
    <path fill="none" stroke="#000000" stroke-width="1.9006" stroke-miterlimit="10" d="M165.861,157.126
		c0,3.693-2.996,6.688-6.689,6.688h-14.094c-3.693,0-6.689-2.994-6.689-6.688"/>
  </g>
  <g>

    <circle fill="none" stroke="#000000" stroke-width="1.9006" stroke-linecap="round" stroke-linejoin="round" stroke-miterlimit="10" cx="194.56" cy="91.924" r="29.402"/>

    <path fill="none" stroke="#000000" stroke-width="0.9503" stroke-linecap="round" stroke-linejoin="round" stroke-miterlimit="10" d="
		M224.07,92.047c10.123,2.329,17.676,11.397,17.674,22.228v224.43"/>
    <g>

      <polygon fill="none" stroke="#000000" stroke-width="1.1726" stroke-linecap="round" stroke-linejoin="round" stroke-miterlimit="10" points="
			194.332,74.125 187.442,76.622 181.153,82.311 176.96,89.796 176.263,101.076 177.36,102.973 182.25,105.169 191.433,102.773
			198.722,97.283 204.212,90.296 207.208,84.207 207.705,78.219 202.816,74.125 		"/>

      <polyline fill="none" stroke="#000000" stroke-width="1.1726" stroke-linecap="round" stroke-linejoin="round" stroke-miterlimit="10" points="
			202.114,74.225 197.524,76.92 195.625,84.707 186.443,93.39 178.757,95.087 176.463,97.981 		"/>

      <polyline fill="none" stroke="#000000" stroke-width="1.1726" stroke-linecap="round" stroke-linejoin="round" stroke-miterlimit="10" points="
			176.96,89.796 182.25,105.169 186.443,93.39 198.722,97.283 195.625,84.707 207.208,84.207 194.231,74.225 		"/>

      <line fill="none" stroke="#000000" stroke-width="1.1726" stroke-linecap="round" stroke-linejoin="round" stroke-miterlimit="10" x1="197.524" y1="76.92" x2="207.661" y2="78.322"/>

      <line fill="none" stroke="#000000" stroke-width="1.1726" stroke-linecap="round" stroke-linejoin="round" stroke-miterlimit="10" x1="195.625" y1="84.707" x2="204.212" y2="90.296"/>

      <line fill="none" stroke="#000000" stroke-width="1.1726" stroke-linecap="round" stroke-linejoin="round" stroke-miterlimit="10" x1="186.443" y1="93.39" x2="191.433" y2="102.773"/>

      <line fill="none" stroke="#000000" stroke-width="1.1726" stroke-linecap="round" stroke-linejoin="round" stroke-miterlimit="10" x1="177.36" y1="102.973" x2="178.557" y2="95.387"/>

      <polyline fill="none" stroke="#000000" stroke-width="1.1726" stroke-linecap="round" stroke-linejoin="round" stroke-miterlimit="10" points="
			207.724,78.322 207.007,104.869 182.254,105.207 		"/>

      <polyline fill="none" stroke="#000000" stroke-width="1.1726" stroke-linecap="round" stroke-linejoin="round" stroke-miterlimit="10" points="
			191.483,102.808 206.985,104.838 204.279,90.318 		"/>

      <line fill="none" stroke="#000000" stroke-width="1.1726" stroke-linecap="round" stroke-linejoin="round" stroke-miterlimit="10" x1="198.742" y1="97.271" x2="206.985" y2="104.9"/>
    </g>
  </g>
  <g>

    <circle fill="none" stroke="#000000" stroke-width="1.9006" stroke-linecap="round" stroke-linejoin="round" stroke-miterlimit="10" cx="364.371" cy="172.169" r="29.879"/>

    <path fill="none" stroke="#000000" stroke-width="0.9503" stroke-linecap="round" stroke-linejoin="round" stroke-miterlimit="10" d="
		M333.905,173.308h-4.264c-12.596,0-22.808,10.212-22.808,22.808V347.7"/>

    <polyline fill="none" stroke="#000000" stroke-width="1.9006" stroke-linecap="round" stroke-linejoin="round" stroke-miterlimit="10" points="
		351.339,160.878 361.163,170.708 351.339,180.532 	"/>

    <line fill="none" stroke="#000000" stroke-width="1.9006" stroke-linecap="round" stroke-linejoin="round" stroke-miterlimit="10" x1="363.749" y1="180.532" x2="377.058" y2="180.532"/>
  </g>
  <g>

    <path fill="#FFFFFF" stroke="#000000" stroke-width="1.9006" stroke-linecap="round" stroke-linejoin="round" stroke-miterlimit="10" d="
		M303.506,104.183c0,18.581,15.062,33.643,33.642,33.643s33.642-15.062,33.642-33.643c0-18.583-15.062-33.645-33.642-33.645
		S303.506,85.599,303.506,104.183z"/>

    <path fill="none" stroke="#000000" stroke-width="0.9503" stroke-linecap="round" stroke-linejoin="round" stroke-miterlimit="10" d="
		M302.288,108.269c-8.15,3.478-13.869,11.568-13.865,20.992v209.445"/>
    <g>

      <path fill="none" stroke="#000000" stroke-width="1.7493" stroke-linecap="round" stroke-linejoin="round" stroke-miterlimit="10" d="
			M327.236,112.137h-6.108c0,0-4.286-1.169-4.286-8.577s4.679-7.408,4.679-7.408h15.07v-2.989h-8.571v-4.679
			c0,0,1.035-4.549,8.839-4.549c7.793,0,8.705,4.419,8.705,4.419v12.347c0,0-0.523,3.248-2.994,3.248c-2.467,0-9.481,0-11.693,0
			c-2.211,0-3.25,2.599-3.25,3.249c0,0.649,0,12.085,0,12.085s0.52,4.549,8.84,4.549c8.317,0,9.224-4.549,9.224-4.549v-4.417h-9.099
			v-2.6h15.597c0,0,4.419-0.26,4.419-8.187s-4.679-8.317-4.679-8.317h-5.455"/>

      <path fill="none" stroke="#000000" stroke-width="1.7493" stroke-linecap="round" stroke-linejoin="round" stroke-miterlimit="10" d="
			M332.849,88.826c0,0.29-0.237,0.525-0.527,0.525c-0.287,0-0.523-0.236-0.523-0.525s0.236-0.525,0.523-0.525
			C332.611,88.301,332.849,88.537,332.849,88.826z"/>

      <circle fill="none" stroke="#000000" stroke-width="1.7493" stroke-linecap="round" stroke-linejoin="round" stroke-miterlimit="10" cx="342.032" cy="118.627" r="0.418"/>
    </g>
  </g>
  <g>

    <circle fill="none" stroke="#000000" stroke-width="2.0341" stroke-linecap="round" stroke-linejoin="round" stroke-miterlimit="10" cx="266.631" cy="44.789" r="43.449"/>

    <line fill="none" stroke="#000000" stroke-width="0.9503" stroke-linecap="round" stroke-linejoin="round" stroke-miterlimit="10" x1="265.951" y1="88.827" x2="265.951" y2="328.578"/>
    <path fill-rule="evenodd" clip-rule="evenodd" stroke="#FFFFFF" stroke-width="0.7603" stroke-miterlimit="10" d="M285.556,56.986
		c-0.352-0.771-0.275-2.032-0.614-2.816c-0.199-0.458-0.721-0.856-0.756-1.154c-0.065-0.51,0.072-1.109,0.105-1.625
		c0.278-4.142-1.039-6.897-2.562-9.46c-1.705-2.862-4.04-5.335-5.523-8.412c-1.525-3.158-1.641-7.672-2.673-11.228
		c-1.078-3.707-3.63-5.695-8.229-5.776c-0.266,0-0.531,0-0.795,0c-3.864,0.248-6.051,2.453-7.04,5.812
		c-0.759,2.583-0.614,5.786-0.614,9.025c0,1.049,0.128,2.232-0.109,3.142c-0.182,0.702-0.746,1.345-1.19,1.984
		c-2.611,3.79-5.038,7.914-5.488,13.684c-0.036,0.449-0.007,0.933-0.073,1.409c-0.039,0.304-0.455,0.506-0.685,0.758
		c-0.241,0.262-0.458,0.507-0.65,0.719c-0.404,0.455-0.95,1.127-1.444,1.302c-0.447,0.158-0.98,0.119-1.409,0.179
		c-1.418,0.2-2.4,0.825-2.707,2.13c0,0.241,0,0.483,0,0.723c0.175,1.228,1.167,2.016,1.012,3.285c-0.054,0.427-0.516,0.8-0.69,1.263
		c-0.119,0.33-0.215,0.74-0.249,1.119c-0.242,2.758,2.541,3.269,4.583,3.719c1.014,0.223,1.982,0.377,3.035,0.686
		c1.821,0.536,3.638,1.576,5.633,1.805c0.371,0,0.746,0,1.117,0c2.118-0.267,3.323-1.442,3.718-3.428c3.525,0,7.052,0,10.578,0
		c0.315,2.152,1.673,3.261,3.972,3.428c0.348,0,0.698,0,1.047,0c1.187-0.134,2.174-0.53,3.033-1.191
		c0.401-0.311,0.731-0.698,1.119-1.013c0.396-0.322,0.841-0.576,1.263-0.865c0.852-0.586,1.676-1.178,2.562-1.696
		c0.892-0.523,1.825-1,2.673-1.591c0.731-0.508,1.355-1.088,1.407-2.163c0.013,0,0.026,0,0.035,0c0-0.135,0-0.267,0-0.398
		C288.845,58.331,286.213,58.427,285.556,56.986z M264.438,18.826c2.517-0.135,4.787,0.446,5.882,1.914
		c0.795,1.063,1.097,2.583,1.444,4.079c0.353,1.513,0.507,3.164,0.829,4.692c0.667,3.142,1.648,5.597,3.178,7.835
		c1.515,2.215,3.155,4.267,4.442,6.609c0.61,1.108,1.232,2.474,1.587,3.934c0.369,1.507,0.282,3.341,0.035,5.017
		c-0.336,0.057-0.574-0.241-0.867-0.36c-0.993-0.409-2.177-0.644-3.571-0.543c-0.2-4.123-1.039-7.409-2.383-10.287
		c-1.348-2.886-3.415-5.094-4.946-7.726c0.462-0.584,0.324-1.355,0.505-2.096c0.058-0.235,0.272-0.495,0.396-0.72
		c0.879-1.626,1.029-4.337,0.109-6.209c-0.453-0.924-1.193-1.791-2.129-2.275c-0.841-0.437-2.465-0.674-3.575-0.037
		c-0.49,0.283-0.774,0.637-1.045,1.263c-0.284-0.326-0.407-0.704-0.761-1.009c-0.883-0.765-2.615-0.838-3.755-0.291
		C260.511,20.428,261.753,18.968,264.438,18.826z M277.218,54.386c0.971-0.327,2.157,0.07,2.959,0.36
		c-0.585,0.802-1.135,2.086-2.563,1.698C277.733,55.617,277.496,54.922,277.218,54.386z M268.152,29.439
		c0.35-1.023,0.062-2.511-0.9-2.599c-0.79-0.072-1.221,0.776-1.229,1.697c-0.319-0.044-0.768-0.264-1.154-0.362
		c-0.004-1.416,0.431-2.628,1.227-3.25c0.212-0.164,0.544-0.325,0.832-0.36c2.188-0.269,3.021,3.219,2.199,5.163
		C268.767,29.669,268.521,29.494,268.152,29.439z M268.262,31.894c-0.002,0.3-0.081,0.519-0.109,0.796
		c-0.52,0.411-1.243,0.682-1.947,1.118c-0.584,0.366-1.366,0.937-2.022,1.046c-0.464,0.08-1.042,0.069-1.479-0.072
		c-0.537-0.169-0.969-0.969-1.409-1.336c-0.254-0.211-1.008-0.53-1.01-0.974c-0.004-0.333,1.008-1.073,1.227-1.262
		c0.594-0.511,1.289-0.996,2.237-0.903c1.199,0.113,2.105,0.864,3.105,1.19C267.34,31.656,267.818,31.642,268.262,31.894z
		 M261.621,24.566c1.425,0.148,2.03,1.87,2.092,3.43c-0.457-0.026-0.835,0.028-1.19,0.108c-0.16-0.651-0.492-1.301-1.156-1.263
		c-0.882,0.05-1.244,1.294-1.01,2.31c-0.227,0.294-0.525,0.511-0.832,0.723C258.605,28.038,259.377,24.335,261.621,24.566z
		 M257.289,37.997c0.69-0.984,1.531-1.9,1.767-3.359c0.312,1.258-0.204,2.149-0.687,3.032c-1.461,2.688-3.17,5.024-4.221,8.052
		c-0.57,1.634-1.128,4.054-0.399,5.849c-0.105,0.066-0.237-0.098-0.36-0.181c-0.262-0.179-0.631-0.409-1.084-0.435
		C252.75,45.33,254.785,41.547,257.289,37.997z M258.803,66.192c-0.371,0.588-1.485,0.928-2.635,0.721
		c-0.893-0.16-1.766-0.612-2.599-0.938c-1.797-0.704-3.339-1.013-5.522-1.517c-0.529-0.119-2.398-0.433-2.567-0.937
		c-0.188-0.575,0.466-1.201,0.687-1.696c0.769-1.699-0.295-3.391-0.757-4.804c1.175-0.416,2.267-0.244,3.141-0.756
		c0.306-0.18,0.546-0.469,0.832-0.724c0.273-0.243,0.561-0.486,0.792-0.721c0.525-0.524,0.945-1.141,1.519-1.517
		c0.466-0.304,1.078,0.638,1.336,0.938c1.015,1.195,1.875,2.613,2.671,3.936c0.787,1.312,1.564,2.797,2.563,4.043
		c0.293,0.369,0.713,0.844,0.832,1.335C259.275,64.319,259.119,65.697,258.803,66.192z M258.911,58.898
		c-0.707-0.879-1.195-1.979-1.875-2.888c0.427,0.23,0.989,0.567,1.696,0.976c0.39,0.226,1.582,0.735,1.552,1.155
		C260.255,58.555,259.256,58.753,258.911,58.898z M272.884,57.707c-0.013,0.66,0.045,1.44-0.107,2.022
		c-0.113,0.429-0.635,1.022-0.975,1.409c-1.766,1.998-5.611,3.157-8.954,1.804c-1.103-0.446-2.138-1.112-2.6-2.058
		c1.36-0.431,2.509-1.309,2.309-3.104c-0.162-1.486-1.448-2.109-2.56-2.745c-1.428-0.811-2.513-1.487-3.432-2.889
		c-0.405-0.62-0.798-1.427-0.865-2.201c-0.119-1.339,0.369-2.603,0.757-3.684c0.41-1.13,0.878-2.104,1.374-3.031
		c1.225-2.301,2.598-4.085,3.5-6.462c0.221-0.011,0.457,0.203,0.83,0.289c0.655,0.151,1.542,0.168,2.236,0.109
		c1.478-0.13,2.79-1.453,3.755-1.771c1.43,2.521,3.4,4.603,4.731,7.292c1.329,2.688,2.059,5.814,2.24,9.748
		c-1.494,0.181-2.179,1.481-2.24,3.104C272.859,56.209,272.898,56.959,272.884,57.707z M285.593,61.354
		c-1.894,1.133-3.915,2.315-5.704,3.646c-0.701,0.52-1.29,1.349-2.021,1.697c-0.818,0.39-2.882,0.417-3.395-0.216
		c-0.327-0.404-0.538-1.543-0.397-2.311c0.227-1.24,0.791-2.559,0.975-4.081c0.195-1.58,0.101-3.175,0.18-4.872
		c0.251,0.557-0.046,1.18,0.073,1.841c0.094,0.527,0.577,0.952,0.903,1.191c0.616,0.452,1.321,0.674,2.419,0.577
		c1.006-0.089,1.781-0.6,2.416-1.264c0.781-0.813,1.069-1.804,1.697-2.455c0.033-0.007,0.035,0.014,0.038,0.038
		c0.03-0.008,0.034,0.012,0.036,0.034c0.235,0.678,0.241,1.345,0.361,1.95c0.348,1.752,1.904,2.755,3.429,3.43
		C286.403,60.962,285.962,61.133,285.593,61.354z"/>
  </g>
  <g>
    <path d="M276.321,308.575c0.002,0.154-0.095,0.295-0.274,0.399l-5.088,2.956l-1.358-0.785l4.809-2.795l-0.087-15.524
		c-0.013-0.148,0.107-0.289,0.276-0.386l36.59-21.264l-24.477-14.133l1.351-0.783l25.144,14.515c0.182,0.106,0.291,0.253,0.28,0.401
		c0.001,0.14-0.093,0.278-0.275,0.386l-36.977,21.486L276.321,308.575z"/>
    <path d="M242.704,312.113l2.524,1.457l3.992,2.305l-1.338,0.778l-3.993-2.304l-2.803-1.618c-0.182-0.106-0.292-0.24-0.292-0.394
		l-0.115-20.291c0-0.14,0.105-0.286,0.274-0.385l37.726-21.922l-6.931-4.002l1.351-0.783l7.608,4.392
		c0.182,0.107,0.28,0.245,0.291,0.394c-0.011,0.146-0.105,0.287-0.285,0.394l-38.123,22.152L242.704,312.113z"/>
    <path d="M316.155,307.129c-0.039,0.097-0.123,0.186-0.253,0.262l-26.317,15.295l-1.358-0.785l26.317-15.295
		c0.13-0.074,0.286-0.122,0.449-0.145L316.155,307.129z"/>
    <polygon points="328.873,314.476 330.233,315.259 303.565,330.758 302.206,329.973 	"/>
    <path d="M205.502,334.017c0.252-0.007,0.506,0.056,0.688,0.16l5.789,3.341l-1.351,0.785l-5.509-3.18H148.9
		c-0.241,0-0.484-0.056-0.666-0.163l-12.753-7.361l-12.479,7.25l-1.36-0.783l13.154-7.646c0.18-0.105,0.423-0.162,0.665-0.162
		c0.266,0,0.509,0.057,0.69,0.164l13.154,7.595H205.502z"/>
    <path d="M393.258,318.771l25.909,15.109l-1.35,0.786l-25.23-14.719l-26.707,15.149c-0.18,0.104-0.423,0.16-0.678,0.167h-41.463
		l-6.207,3.557l-1.358-0.785l6.494-3.725c0.171-0.097,0.423-0.16,0.678-0.152l41.452-0.008l27.104-15.38
		c0.18-0.105,0.423-0.161,0.688-0.161C392.832,318.609,393.089,318.673,393.258,318.771z"/>
    <path d="M396.708,353.64l1.358,0.783l-7.764,4.512c-0.181,0.106-0.422,0.162-0.676,0.154l-48.756,0.008
		c-0.257-0.008-0.498-0.063-0.68-0.167l-14.999-8.661l1.352-0.785l14.719,8.499h47.971L396.708,353.64z"/>
    <path d="M211.881,371.666l13.648-7.93l1.358,0.783l-13.924,8.093c-0.182,0.104-0.423,0.16-0.665,0.162l-20.031-0.002l-1.783,1.039
		l-1.359-0.787l2.062-1.197c0.18-0.105,0.435-0.169,0.687-0.161H211.881z"/>
    <polygon points="303.142,363.083 336.136,382.133 334.786,382.918 301.793,363.866 	"/>
    <path d="M266.796,408.275c0.041-0.044,0.093-0.085,0.155-0.12l32.227-18.73l-20.75-11.979l1.35-0.783l21.431,12.373
		c0.109,0.063,0.191,0.14,0.237,0.223L266.796,408.275z"/>
    <path d="M266.976,392.957l-36.663,21.307l25.351,14.637l-1.352,0.783l-26.028-15.026c-0.171-0.099-0.28-0.245-0.269-0.394
		c-0.013-0.146,0.094-0.294,0.263-0.394l36.664-21.305l-11.372-6.564c-0.182-0.106-0.278-0.247-0.292-0.392
		c0.011-0.148,0.107-0.29,0.288-0.394l4.57-2.654l1.36,0.783l-3.894,2.265l11.37,6.562c0.181,0.106,0.279,0.245,0.279,0.401
		C267.252,392.714,267.156,392.852,266.976,392.957z"/>
    <path d="M301.488,389.433c0,0.141-0.107,0.289-0.274,0.386l-32.228,18.729l34.462,19.897c0.171,0.096,0.28,0.245,0.28,0.386
		c0.002,0.152-0.095,0.293-0.274,0.397l-8.464,4.918l-1.359-0.783l7.788-4.524l-34.462-19.897c-0.171-0.101-0.28-0.245-0.269-0.394
		c-0.01-0.097,0.029-0.189,0.107-0.271l34.649-19.018C301.477,389.313,301.492,389.373,301.488,389.433z"/>
  </g>
  <g>
    <path d="M254.963,296.342l0.069,11.854l3.712,2.145l-1.35,0.783l-3.992-2.304c-0.182-0.105-0.28-0.245-0.292-0.392l-0.071-12.317
		c0.011-0.148,0.108-0.287,0.288-0.394l45.03-26.167l-16.638-9.605l1.352-0.785l17.315,9.997c0.169,0.101,0.28,0.247,0.28,0.386
		c0.002,0.154-0.095,0.294-0.276,0.399L254.963,296.342z"/>
    <polygon points="300.926,298.339 302.286,299.124 275.618,314.62 274.259,313.837 	"/>
    <path d="M236.647,295.528l0.106,18.498l7.85,4.533l-1.35,0.783l-8.143-4.7c-0.171-0.098-0.28-0.245-0.28-0.386l-0.104-18.494
		l-7.343-4.239l1.351-0.785l7.622,4.4C236.538,295.243,236.634,295.384,236.647,295.528z"/>
    <polygon points="319.554,309.093 320.912,309.878 294.246,325.375 292.887,324.592 	"/>
    <path d="M213.295,322.23c0.268,0,0.509,0.056,0.692,0.161l12.048,6.957l-1.349,0.785l-11.771-6.797l-12.022,0.015
		c-0.267,0-0.508-0.056-0.69-0.161l-13.7-7.909l1.349-0.785l13.421,7.749L213.295,322.23z"/>
    <path d="M202.449,337.617c0.254-0.007,0.508,0.056,0.677,0.152l4.223,2.439l-1.35,0.783l-3.944-2.275l-54.854,0.007
		c-0.252-0.007-0.496-0.062-0.677-0.167l-11.079-6.397l-8.523,4.954l-1.36-0.787l9.199-5.346c0.169-0.097,0.423-0.16,0.678-0.152
		c0.252-0.008,0.508,0.056,0.677,0.152l11.48,6.63L202.449,337.617z"/>
    <path d="M392.884,331.808l14.974,8.646l-1.338,0.775l-14.294-8.252l-16.267,9.511c-0.183,0.104-0.424,0.159-0.691,0.159h-45.646
		l-2.77,1.556l-1.358-0.787l3.046-1.713c0.18-0.106,0.423-0.162,0.676-0.169l45.661,0.007l16.666-9.74
		c0.169-0.099,0.422-0.162,0.663-0.162C392.471,331.639,392.702,331.702,392.884,331.808z"/>
    <path d="M342.592,374.755l3.129,1.808l-1.35,0.785l-2.84-1.639h-9.555c-0.255-0.008-0.498-0.063-0.678-0.168l-24.877-14.364
		l1.35-0.785l24.599,14.203l9.542,0.006C342.166,374.595,342.423,374.658,342.592,374.755z"/>
    <polygon points="208.687,384.32 234.849,369.115 236.207,369.9 210.045,385.104 	"/>
    <path d="M238.729,414.122l21.249,12.269l-1.352,0.784l-21.928-12.659c-0.18-0.104-0.278-0.245-0.292-0.394
		c-0.002-0.139,0.108-0.285,0.288-0.39l42.861-24.909l-10.389-5.997l1.35-0.785l11.067,6.389c0.182,0.108,0.28,0.245,0.28,0.401
		c0.002,0.142-0.095,0.28-0.276,0.386L238.729,414.122z"/>
    <path d="M315.062,428.444c0.014,0.148-0.097,0.293-0.266,0.392l-14.455,8.4l-1.358-0.785l13.779-8.007l-33.454-19.316
		c-0.171-0.099-0.282-0.245-0.282-0.385c-0.011-0.148,0.097-0.293,0.278-0.4l30.851-17.929l-27.11-15.652l1.352-0.783l27.789,16.044
		c0.182,0.104,0.278,0.245,0.292,0.39c-0.012,0.148-0.108,0.29-0.288,0.394l-30.863,17.938l33.456,19.314
		C314.95,428.156,315.071,428.296,315.062,428.444z"/>
  </g>
  <g>
    <polygon points="305.575,301.022 306.934,301.806 280.266,317.305 278.907,316.521 	"/>
    <path d="M216.044,318.455c0.254,0.006,0.498,0.063,0.677,0.167l13.932,8.045l-1.35,0.783l-13.653-7.881l-11.695-0.008
		c-0.252,0.008-0.508-0.056-0.679-0.156l-11.976-6.914l1.35-0.785l11.686,6.749H216.044z"/>
    <path d="M346.883,324.872l1.358,0.785l-5.34,3.104c-0.169,0.096-0.423,0.159-0.666,0.159h-16.958l-12.404,7.211l-1.358-0.785
		l12.681-7.37c0.183-0.106,0.435-0.169,0.688-0.162h16.936L346.883,324.872z"/>
    <path d="M197.045,353.309l5.197-3.018l1.358,0.783l-5.474,3.182c-0.18,0.104-0.423,0.159-0.688,0.161h-51.286
		c-0.254,0.008-0.506-0.056-0.69-0.161l-13.056-7.54l1.35-0.783l12.777,7.376H197.045z"/>
    <path d="M402.17,356.791l1.359,0.785l-8.874,5.156c-0.181,0.105-0.424,0.161-0.688,0.161l-55.797,0.008
		c-0.254-0.008-0.495-0.063-0.679-0.169l-16.928-9.772l1.35-0.787l16.648,9.615h55.012L402.17,356.791z"/>
    <path d="M209.283,367.777l11.586-6.732l1.358,0.783l-11.862,6.894c-0.182,0.106-0.423,0.164-0.676,0.171l-22.778-0.007
		l-2.471,1.437l-1.358-0.787l2.749-1.597c0.18-0.104,0.421-0.161,0.688-0.159L209.283,367.777z"/>
    <polygon points="289.204,371.184 322.2,390.23 320.849,391.018 287.855,371.967 	"/>
    <polygon points="222.654,392.384 248.816,377.179 250.174,377.966 224.015,393.167 	"/>
  </g>
  <g>
    <path d="M248.849,294.99l0.085,15.05l5.18,2.991l-1.349,0.784l-5.461-3.152c-0.182-0.104-0.28-0.245-0.293-0.394l-0.076-15.517
		c0-0.142,0.097-0.282,0.276-0.386l42.258-24.557l-12.402-7.161l1.35-0.785l13.082,7.553c0.182,0.104,0.28,0.245,0.28,0.386
		c0.001,0.154-0.095,0.294-0.277,0.399L248.849,294.99z"/>
    <path d="M229.672,298.235l0.108,17.13l10.193,5.886l-1.351,0.783l-10.483-6.053c-0.169-0.099-0.28-0.247-0.28-0.385l-0.096-17.139
		l-6.177-3.565l1.338-0.778l6.468,3.734C229.561,297.947,229.672,298.094,229.672,298.235z"/>
    <path d="M341.735,321.9l-3.856,2.242c-0.18,0.105-0.422,0.161-0.676,0.154l-13.245,0.007l-15.732,9.144l-1.36-0.785l16.011-9.303
		c0.182-0.106,0.423-0.164,0.676-0.171l13.247,0.007l3.556-2.065L341.735,321.9z"/>
    <path d="M392.669,325.664l20.518,11.691l-1.35,0.785l-19.838-11.3l-20.074,11.666c-0.18,0.105-0.421,0.161-0.688,0.161h-43.939
		l-5.104,2.844l-1.359-0.785l5.381-3.005c0.182-0.104,0.424-0.16,0.676-0.167l43.954,0.007l20.471-11.897
		c0.167-0.097,0.424-0.159,0.665-0.159C392.234,325.497,392.487,325.561,392.669,325.664z"/>
    <path d="M199.262,341.141c0.254-0.008,0.51,0.056,0.69,0.159l2.768,1.601l-1.35,0.783l-2.487-1.437h-54.746
		c-0.265,0-0.506-0.056-0.69-0.16l-8.651-4.996l-3.942,2.29l-1.358-0.783l4.616-2.684c0.182-0.104,0.436-0.167,0.677-0.167
		c0.252,0.005,0.496,0.062,0.678,0.167l9.052,5.227H199.262z"/>
    <path d="M200.572,356.657l6.329-3.677l1.358,0.785l-6.605,3.839c-0.18,0.105-0.423,0.161-0.689,0.163h-56.535
		c-0.254-0.008-0.496-0.063-0.678-0.169l-15.084-8.711l1.338-0.775l14.806,8.547L200.572,356.657z"/>
    <path d="M206.515,363.987l9.693-5.634l1.36,0.785l-9.971,5.793c-0.18,0.106-0.434,0.171-0.675,0.171h-23.829l-3.833,2.228
		l-1.359-0.785l4.123-2.396c0.169-0.098,0.421-0.161,0.676-0.152L206.515,363.987z"/>
    <path d="M345.929,370.398l5.218,3.012l-1.35,0.784l-4.926-2.844h-11.153c-0.255-0.008-0.496-0.063-0.68-0.169l-21.987-12.694
		l1.352-0.785l21.709,12.534l11.14,0.008C345.504,370.236,345.758,370.3,345.929,370.398z"/>
    <polygon points="217.995,389.692 244.157,374.491 245.516,375.274 219.354,390.479 	"/>
    <path d="M248.14,414.081l16.564,9.563l-1.352,0.785l-17.243-9.955c-0.182-0.107-0.291-0.252-0.291-0.394
		c0-0.141,0.105-0.287,0.288-0.394l42.762-24.849l-15.071-8.702l1.352-0.785l15.751,9.094c0.169,0.098,0.28,0.245,0.269,0.394
		c0.012,0.146-0.097,0.293-0.266,0.392L248.14,414.081z"/>
  </g>
</svg>
