<svg width="310" height="93" viewBox="0 0 310 93" fill="none" xmlns="http://www.w3.org/2000/svg">
<g filter="url(#filter0_d)">
<path fill-rule="evenodd" clip-rule="evenodd" d="M33.0532 39.5302C28.0122 45.174 28.171 53.9629 33.5297 59.4084C39.0418 65.0098 48.026 65.0098 53.5381 59.4084C59.0569 53.8001 59.0605 44.6457 53.5487 39.0328C46.3852 32.3623 54.5868 21.9492 53.1835 27.1711C52.0814 31.2722 55.093 34.8015 56.8845 36.901L56.8848 36.9014C56.9637 36.9938 57.0402 37.0835 57.1139 37.1703C57.1713 37.2379 57.2202 37.3116 57.2609 37.39C63.2597 44.5576 62.9296 55.3643 56.2705 62.1314C49.2537 69.2619 37.8141 69.2619 30.7973 62.1314C23.7909 55.0113 23.7909 43.4191 30.7973 36.2991C30.8869 36.2081 30.9833 36.1279 31.0848 36.0585C32.7943 33.9147 34.9103 30.7613 33.9934 27.1838C32.624 21.841 40.9397 32.8679 33.0532 39.5302Z" fill="white"/>
<path fill-rule="evenodd" clip-rule="evenodd" d="M34.9188 49.2152C34.9188 54.0722 38.7895 57.9848 43.5341 57.9848C48.2788 57.9848 52.1495 54.0722 52.1495 49.2152C52.1495 44.3583 48.2788 40.4457 43.5341 40.4457C38.7895 40.4457 34.9188 44.3583 34.9188 49.2152ZM43.5341 60.9402C37.1405 60.9402 31.9819 55.6771 31.9819 49.2152C31.9819 42.7534 37.1405 37.4903 43.5341 37.4903C49.9277 37.4903 55.0864 42.7534 55.0864 49.2152C55.0864 55.6771 49.9277 60.9402 43.5341 60.9402Z" fill="white"/>
<path d="M48.9688 49.2153C48.9688 46.165 46.5355 43.6921 43.5337 43.6921C40.532 43.6921 38.0986 46.165 38.0986 49.2153C38.0986 52.2657 40.532 54.7385 43.5337 54.7385C46.5355 54.7385 48.9688 52.2657 48.9688 49.2153Z" fill="white"/>
<path fill-rule="evenodd" clip-rule="evenodd" d="M41.998 51.736C41.998 51.0683 42.5359 50.5271 43.1993 50.5271C44.0571 50.5271 44.3751 50.1825 44.5478 49.883C44.7745 49.4898 44.8128 49.0178 44.8128 48.8756C44.8128 48.208 45.3506 47.6668 46.014 47.6668C46.6775 47.6668 47.2153 48.208 47.2153 48.8756C47.2153 49.2238 47.153 50.182 46.6258 51.0964C46.0445 52.1045 44.9551 52.9448 43.1993 52.9448C42.5359 52.9448 41.998 52.4036 41.998 51.736Z" fill="#0C0C0C"/>
</g>
<g filter="url(#filter1_d)">
<path d="M86.6932 62.0418C84.4518 62.0418 82.7464 61.5024 81.5769 60.4236C80.4075 59.3253 79.8228 57.8248 79.8228 55.9222C79.8228 55.3338 79.8812 54.716 79.9982 54.0687C80.2321 52.6565 80.6024 50.9108 81.1091 48.8317C81.7328 46.3408 82.8243 44.3892 84.3836 42.977C85.9623 41.5647 88.0478 40.8586 90.6401 40.8586C92.1993 40.8586 93.5052 41.1038 94.5577 41.5942C95.6297 42.0845 96.4288 42.7514 96.9551 43.5948C97.4813 44.4186 97.7445 45.3405 97.7445 46.3604C97.7445 46.7134 97.7152 47.0665 97.6567 47.4195C97.5983 47.8118 97.4034 48.008 97.072 48.008H95.5225C95.0547 48.008 94.8306 47.7922 94.8501 47.3607C94.8696 47.2234 94.8793 47.0371 94.8793 46.8017C94.8793 44.448 93.4273 43.2712 90.5231 43.2712C88.8664 43.2712 87.4631 43.7419 86.3132 44.6834C85.1632 45.6052 84.3543 47.0371 83.8866 48.9789C83.4773 50.6068 83.1264 52.2544 82.8341 53.9216C82.7171 54.5689 82.6587 55.1671 82.6587 55.7163C82.6587 58.3053 84.0327 59.5999 86.7809 59.5999C88.2622 59.5999 89.5194 59.2958 90.5524 58.6878C91.6049 58.0798 92.4527 57.0304 93.0959 55.5397C93.1934 55.3044 93.3006 55.1377 93.4175 55.0396C93.554 54.9415 93.7196 54.8925 93.9145 54.8925H95.464C95.6395 54.8925 95.7759 54.9513 95.8733 55.069C95.9708 55.1671 95.9903 55.3044 95.9318 55.4809C95.4056 57.3442 94.3921 58.9036 92.8913 60.1589C91.41 61.4142 89.344 62.0418 86.6932 62.0418Z" fill="white"/>
<path d="M113.212 61.7476C113.017 61.7476 112.871 61.6887 112.774 61.5711C112.696 61.4338 112.676 61.267 112.715 61.0709L116.75 41.859C116.789 41.6432 116.886 41.4765 117.042 41.3588C117.198 41.2215 117.373 41.1529 117.568 41.1529H124.702C126.593 41.1529 128.054 41.5353 129.087 42.3003C130.14 43.0652 130.666 44.193 130.666 45.6837C130.666 46.174 130.608 46.7134 130.491 47.3019C130.179 48.7925 129.555 50.0184 128.62 50.9795C127.684 51.9406 126.505 52.6074 125.082 52.9801L127.947 60.8355C127.986 60.9728 127.996 61.0807 127.976 61.1592C127.937 61.3161 127.84 61.4534 127.684 61.5711C127.548 61.6887 127.401 61.7476 127.245 61.7476H125.959C125.667 61.7476 125.452 61.6789 125.316 61.5416C125.199 61.4043 125.092 61.2082 124.994 60.9532L122.305 53.4214H117.071L115.463 61.0709C115.424 61.267 115.317 61.4338 115.142 61.5711C114.986 61.6887 114.81 61.7476 114.615 61.7476H113.212ZM122.509 51.0089C125.452 51.0089 127.177 49.7634 127.684 47.2724C127.762 46.939 127.801 46.5859 127.801 46.2133C127.801 44.4284 126.554 43.536 124.059 43.536H119.147L117.598 51.0089H122.509Z" fill="white"/>
<path d="M145.556 61.7476C145.361 61.7476 145.215 61.6887 145.117 61.5711C145.02 61.4338 144.991 61.267 145.03 61.0709L149.064 41.859C149.103 41.6432 149.201 41.4765 149.357 41.3588C149.513 41.2215 149.688 41.1529 149.883 41.1529H161.899C162.113 41.1529 162.259 41.2215 162.337 41.3588C162.435 41.4765 162.464 41.6432 162.425 41.859L162.22 42.9181C162.181 43.1143 162.084 43.2712 161.928 43.3889C161.772 43.5065 161.597 43.5654 161.402 43.5654H151.432L150.029 50.1263H159.355C159.55 50.1263 159.696 50.1949 159.794 50.3322C159.891 50.4499 159.921 50.6166 159.882 50.8324L159.677 51.8327C159.638 52.0288 159.54 52.1956 159.385 52.3329C159.248 52.4505 159.073 52.5094 158.858 52.5094H149.532L148.099 59.3056H158.303C158.498 59.3056 158.644 59.3743 158.741 59.5116C158.839 59.6293 158.868 59.796 158.829 60.0117L158.624 61.0709C158.585 61.267 158.488 61.4338 158.332 61.5711C158.176 61.6887 158.001 61.7476 157.806 61.7476H145.556Z" fill="white"/>
<path d="M176.795 61.7476C176.6 61.7476 176.454 61.6887 176.357 61.5711C176.259 61.4338 176.23 61.267 176.269 61.0709L180.303 41.859C180.342 41.6432 180.44 41.4765 180.596 41.3588C180.752 41.2215 180.927 41.1529 181.122 41.1529H193.138C193.352 41.1529 193.499 41.2215 193.577 41.3588C193.674 41.4765 193.703 41.6432 193.664 41.859L193.46 42.9181C193.421 43.1143 193.323 43.2712 193.167 43.3889C193.011 43.5065 192.836 43.5654 192.641 43.5654H182.672L181.268 50.1263H190.595C190.789 50.1263 190.936 50.1949 191.033 50.3322C191.131 50.4499 191.16 50.6166 191.121 50.8324L190.916 51.8327C190.877 52.0288 190.78 52.1956 190.624 52.3329C190.487 52.4505 190.312 52.5094 190.097 52.5094H180.771L179.339 59.3056H189.542C189.737 59.3056 189.883 59.3743 189.981 59.5116C190.078 59.6293 190.107 59.796 190.068 60.0117L189.864 61.0709C189.825 61.267 189.727 61.4338 189.571 61.5711C189.415 61.6887 189.24 61.7476 189.045 61.7476H176.795Z" fill="white"/>
<path d="M208.034 61.7476C207.839 61.7476 207.693 61.6887 207.596 61.5711C207.498 61.4338 207.469 61.267 207.508 61.0709L211.543 41.859C211.582 41.6432 211.679 41.4765 211.835 41.3588C211.991 41.2215 212.166 41.1529 212.361 41.1529H219.553C221.483 41.1529 222.984 41.5549 224.056 42.3591C225.147 43.1437 225.693 44.3009 225.693 45.8308C225.693 46.3212 225.634 46.8507 225.517 47.4195C225.089 49.479 224.173 51.0383 222.769 52.0975C221.385 53.137 219.583 53.6568 217.361 53.6568H211.864L210.285 61.0709C210.246 61.267 210.149 61.4338 209.993 61.5711C209.857 61.6887 209.691 61.7476 209.496 61.7476H208.034ZM217.302 51.2737C218.725 51.2737 219.914 50.9403 220.869 50.2734C221.843 49.6065 222.457 48.6552 222.711 47.4195C222.828 46.89 222.886 46.4192 222.886 46.0073C222.886 45.1835 222.613 44.5657 222.068 44.1538C221.522 43.7419 220.586 43.536 219.261 43.536H213.998L212.332 51.2737H217.302Z" fill="white"/>
<path d="M244.772 61.7476C244.577 61.7476 244.431 61.6887 244.334 61.5711C244.236 61.4338 244.207 61.267 244.246 61.0709L247.93 43.6831H242.287C242.092 43.6831 241.946 43.6242 241.849 43.5065C241.751 43.3692 241.722 43.2025 241.761 43.0064L241.995 41.859C242.034 41.6432 242.122 41.4765 242.258 41.3588C242.414 41.2215 242.599 41.1529 242.814 41.1529H256.818C257.032 41.1529 257.188 41.2215 257.285 41.3588C257.383 41.4765 257.412 41.6432 257.373 41.859L257.11 43.0064C257.071 43.2025 256.974 43.3692 256.818 43.5065C256.681 43.6242 256.515 43.6831 256.321 43.6831H250.707L246.994 61.0709C246.955 61.267 246.858 61.4338 246.702 61.5711C246.565 61.6887 246.4 61.7476 246.205 61.7476H244.772Z" fill="white"/>
<path d="M276.707 62.0418C275.186 62.0418 273.9 61.826 272.847 61.3945C271.814 60.9434 271.035 60.3452 270.509 59.5999C269.982 58.8545 269.719 58.0307 269.719 57.1285C269.719 56.8931 269.729 56.7068 269.748 56.5695C269.787 56.393 269.856 56.2557 269.953 56.1576C270.07 56.0399 270.216 55.9811 270.392 55.9811H271.912C272.263 55.9811 272.477 56.1772 272.555 56.5695C272.536 57.3933 272.877 58.1092 273.578 58.7172C274.299 59.3056 275.371 59.5999 276.794 59.5999C278.451 59.5999 279.776 59.3056 280.77 58.7172C281.764 58.1288 282.378 57.3148 282.612 56.2753C282.651 56.138 282.671 55.9418 282.671 55.6869C282.671 55.1573 282.486 54.716 282.115 54.3629C281.745 54.0099 281.219 53.6862 280.536 53.392C279.854 53.0978 278.841 52.7349 277.496 52.3034C275.742 51.7542 274.455 51.1168 273.637 50.3911C272.818 49.6457 272.409 48.6846 272.409 47.5078C272.409 46.9978 272.458 46.5369 272.555 46.125C272.906 44.5167 273.763 43.2417 275.128 42.3003C276.512 41.3392 278.305 40.8586 280.507 40.8586C281.872 40.8586 283.041 41.094 284.016 41.5647C284.99 42.0159 285.721 42.6141 286.208 43.3594C286.715 44.0852 286.968 44.8305 286.968 45.5954C286.968 45.7327 286.949 45.9191 286.91 46.1544C286.832 46.5663 286.618 46.7723 286.267 46.7723H284.717C284.561 46.7723 284.425 46.7232 284.308 46.6252C284.191 46.5271 284.123 46.38 284.103 46.1839C284.162 45.3601 283.84 44.6736 283.139 44.1244C282.437 43.5556 281.521 43.2712 280.39 43.2712C279.045 43.2712 277.905 43.536 276.97 44.0655C276.054 44.5951 275.488 45.3601 275.274 46.3604C275.216 46.5957 275.186 46.8213 275.186 47.0371C275.186 47.7824 275.537 48.3806 276.239 48.8317C276.94 49.2829 278.168 49.783 279.923 50.3322C281.872 50.9206 283.285 51.5777 284.162 52.3034C285.058 53.0292 285.507 53.9902 285.507 55.1867C285.507 55.5397 285.458 55.9615 285.36 56.4518C284.971 58.2955 284.035 59.6881 282.554 60.6296C281.072 61.5711 279.123 62.0418 276.707 62.0418Z" fill="white"/>
</g>
<defs>
<filter id="filter0_d" x="0.54248" y="0.755005" width="85.9828" height="91.7243" filterUnits="userSpaceOnUse" color-interpolation-filters="sRGB">
<feFlood flood-opacity="0" result="BackgroundImageFix"/>
<feColorMatrix in="SourceAlpha" type="matrix" values="0 0 0 0 0 0 0 0 0 0 0 0 0 0 0 0 0 0 127 0"/>
<feOffset/>
<feGaussianBlur stdDeviation="12.5"/>
<feColorMatrix type="matrix" values="0 0 0 0 1 0 0 0 0 1 0 0 0 0 1 0 0 0 0.8 0"/>
<feBlend mode="normal" in2="BackgroundImageFix" result="effect1_dropShadow"/>
<feBlend mode="normal" in="SourceGraphic" in2="effect1_dropShadow" result="shape"/>
</filter>
<filter id="filter1_d" x="56.8228" y="17.8586" width="253.146" height="67.1832" filterUnits="userSpaceOnUse" color-interpolation-filters="sRGB">
<feFlood flood-opacity="0" result="BackgroundImageFix"/>
<feColorMatrix in="SourceAlpha" type="matrix" values="0 0 0 0 0 0 0 0 0 0 0 0 0 0 0 0 0 0 127 0"/>
<feOffset/>
<feGaussianBlur stdDeviation="11.5"/>
<feColorMatrix type="matrix" values="0 0 0 0 1 0 0 0 0 1 0 0 0 0 1 0 0 0 0.8 0"/>
<feBlend mode="normal" in2="BackgroundImageFix" result="effect1_dropShadow"/>
<feBlend mode="normal" in="SourceGraphic" in2="effect1_dropShadow" result="shape"/>
</filter>
</defs>
</svg>
