<?xml version="1.0" encoding="utf-8"?>
<!-- Generator: Adobe Illustrator 22.1.0, SVG Export Plug-In . SVG Version: 6.00 Build 0)  -->
<svg version="1.1" id="Camada_1" xmlns="http://www.w3.org/2000/svg" xmlns:xlink="http://www.w3.org/1999/xlink" x="0px" y="0px"
	 viewBox="0 0 317.1 186.1" style="enable-background:new 0 0 317.1 186.1;" xml:space="preserve">
<style type="text/css">
	.st0{stroke:#000000;stroke-width:3;stroke-linecap:round;stroke-linejoin:round;}
	.st1{fill:#FFFFFF;}
	.st2{fill:none;stroke:#231F20;stroke-width:0.8;stroke-linecap:round;stroke-linejoin:round;}
</style>
<title>Ativo 66</title>
<g id="Camada_2_1_">
	<g id="Layer_1">
		<g id="blockchain">
			<polygon points="158.5,128.2 172.4,120.2 173.1,120.6 159.2,128.6 			"/>
			<polygon points="106.6,118.4 123.7,128.2 123,128.6 105.9,118.8 			"/>
			<g>
				<g>
					<path class="st0" d="M85.1,69.8l34-19.8L84.9,30.3l-34,19.8L85.1,69.8"/>
					<polygon class="st0" points="119.1,50.1 85.1,69.9 50.8,50.1 84.9,30.3 					"/>
				</g>
				<polygon class="st0" points="221.2,51.9 187.2,71.7 152.9,51.9 187,32.1 				"/>
				<polygon class="st0" points="69.8,78.8 35.8,98.5 1.5,78.8 35.5,59 				"/>
				<polygon class="st0" points="171.5,80.5 137.4,100.2 103.2,80.5 137.2,60.7 				"/>
				<polygon class="st0" points="274,82.3 239.9,102.1 205.7,82.3 239.7,62.6 				"/>
				<polygon class="st0" points="122.5,109.2 88.5,129 54.3,109.2 88.3,89.4 				"/>
				<polygon class="st0" points="224.6,111 190.6,130.8 156.4,111 190.4,91.2 				"/>
				<polygon class="st0" points="175.3,139.7 141.3,159.4 107,139.7 141.1,119.9 				"/>
				<polygon class="st0" points="168.4,21.4 134.4,41.2 100.2,21.4 134.2,1.6 				"/>
				<g>
					<polygon points="116.2,30.6 116.9,31 103,39 102.3,38.6 					"/>
					<path d="M120.3,49.1c0,0.1-0.1,0.2-0.2,0.2l-17,9.9l-0.7,0.4l-17,9.9c-0.1,0.1-0.2,0.1-0.4,0.1c-0.1,0-0.2,0-0.3-0.1l-17.2-9.9
						l-0.7-0.4l-17.1-9.9c-0.1-0.1-0.2-0.1-0.2-0.2c0-0.1,0.1-0.2,0.2-0.2l34.7-20.2c0.1-0.1,0.2-0.1,0.4-0.1c0.1,0,0.2,0,0.3,0.1
						l17.1,9.9L103,39l17.1,9.9C120.2,49,120.3,49,120.3,49.1z M85.1,68.9l34-19.8L84.9,29.4l-34,19.8L85.1,68.9"/>
					<polygon class="st1" points="119.1,49.1 85.1,68.9 50.8,49.2 84.9,29.4 					"/>
				</g>
				<path d="M169.6,20.5c0,0.1-0.1,0.2-0.1,0.2l-17,9.9l-0.7,0.4l-17,9.9c-0.2,0.1-0.5,0.1-0.7,0L116.9,31l-0.7-0.4l-17.1-9.9
					c-0.1,0-0.1-0.1-0.2-0.2c0-0.1,0.1-0.2,0.1-0.2l34.7-20.2c0.2-0.1,0.5-0.1,0.7,0l34.9,20.2C169.6,20.3,169.6,20.4,169.6,20.5z
					 M134.4,40.2l34-19.8L134.2,0.7l-34,19.8L134.4,40.2"/>
				<polygon points="102.4,59.6 103.2,59.2 120,68.9 119.3,69.4 				"/>
				<polygon points="105.8,97.8 119.5,89.8 120.2,90.2 106.5,98.2 				"/>
				<polygon points="221.8,91.5 222.5,91.9 208.6,100 207.9,99.6 				"/>
				<polygon points="151.8,31 152.5,30.6 169.6,40.4 168.9,40.8 				"/>
				<polygon points="169,61 169.7,61.4 155.7,69.6 155,69.2 				"/>
				<polygon class="st1" points="221.2,50.9 187.2,70.7 152.9,50.9 187,31.2 				"/>
				<polygon points="205.2,61 222.4,70.9 221.6,71.3 204.6,61.4 				"/>
				<path d="M222.4,50.9c0,0.1-0.1,0.2-0.1,0.2l-17,9.9l-0.7,0.4l-17,9.9c-0.1,0.1-0.2,0.1-0.4,0.1c-0.1,0-0.2,0-0.4-0.1l-17.1-9.9
					L169,61l-17.1-9.9c-0.1-0.1-0.1-0.1-0.1-0.2c0-0.1,0.1-0.2,0.1-0.2l17-9.9l0.7-0.4l17-9.9c0.1-0.1,0.2-0.1,0.4-0.1
					c0.1,0,0.2,0,0.4,0.1l35,20.2C222.4,50.7,222.4,50.8,222.4,50.9z M187.2,70.7l34-19.8L187,31.2L153,51L187.2,70.7"/>
				<polygon class="st1" points="69.8,77.8 35.8,97.6 1.5,77.8 35.5,58 				"/>
				<polygon points="53.1,88.3 53.8,87.9 70.9,97.8 70.2,98.2 				"/>
				<path d="M71,77.8c0,0.1-0.1,0.2-0.2,0.2l-17,9.9l-0.7,0.4l-17,9.9c-0.1,0.1-0.2,0.1-0.3,0.1s-0.3,0-0.4-0.1L0.4,78
					c-0.1,0-0.1-0.1-0.1-0.2s0.1-0.2,0.1-0.2l34.7-20.2c0.1-0.1,0.2-0.1,0.4-0.1c0.1,0,0.2,0,0.3,0.1L53,67.3l0.7,0.4l17.1,9.9
					C70.9,77.6,71,77.7,71,77.8z M35.8,97.6l34-19.8L35.5,58l-34,19.8L35.8,97.6"/>
				<polygon class="st1" points="171.5,79.5 137.4,99.3 103.2,79.5 137.2,59.8 				"/>
				<polygon points="155.6,89.5 173,99.6 172.3,100 154.9,89.9 				"/>
				<path d="M172.7,79.5c0,0.1-0.1,0.2-0.1,0.2l-16.9,9.8L155,90l-17.2,10c-0.1,0.1-0.2,0.1-0.4,0.1c-0.1,0-0.2,0-0.4-0.1l-16.9-9.7
					l-0.7-0.4l-17.4-10c-0.1,0-0.2-0.2-0.1-0.3c0-0.1,0.1-0.1,0.1-0.1l17.2-10L120,69l16.9-9.8c0.1-0.1,0.2-0.1,0.4-0.1
					c0.1,0,0.2,0,0.4,0.1l17.4,10l0.7,0.4l16.9,9.7C172.6,79.4,172.7,79.5,172.7,79.5z M137.4,99.3l34-19.8l-34.2-19.8l-34,19.8
					L137.4,99.3"/>
				<path d="M275.2,81.4c0,0.1-0.1,0.2-0.1,0.2l-34.7,20.2c-0.1,0.1-0.2,0.1-0.4,0.1c-0.1,0-0.2,0-0.4-0.1l-17.1-9.9l-0.7-0.4
					l-17.1-9.9c-0.1,0-0.1-0.1-0.1-0.2s0.1-0.2,0.2-0.2l17-9.9l0.7-0.4l17-9.9c0.1-0.1,0.2-0.1,0.3-0.1s0.3,0,0.4,0.1l35,20.2
					C275.1,81.2,275.2,81.3,275.2,81.4z M239.9,101.2L274,81.4l-34.3-19.8l-34,19.8L239.9,101.2"/>
				<polygon class="st1" points="274,81.4 239.9,101.2 205.7,81.4 239.7,61.6 				"/>
				<path d="M123.7,108.3c0,0.1-0.1,0.2-0.2,0.2l-17,9.9l-0.7,0.4l-17,9.9c-0.1,0.1-0.2,0.1-0.3,0.1c-0.1,0-0.2,0-0.3-0.1l-35-20.2
					c-0.1,0-0.1-0.1-0.2-0.2c0-0.1,0.1-0.2,0.2-0.2l17-9.9l0.7-0.4l17-9.9c0.1-0.1,0.2-0.1,0.3-0.1c0.1,0,0.2,0,0.3,0.1l17.1,9.9
					l0.7,0.4l17.1,9.9C123.7,108.1,123.7,108.2,123.7,108.3z M88.5,128.1l34-19.8L88.3,88.5l-34,19.8L88.5,128.1"/>
				<polygon class="st1" points="122.5,108.3 88.5,128.1 54.3,108.3 88.3,88.5 				"/>
				<polygon class="st1" points="224.6,110.1 190.6,129.8 156.4,110.1 190.4,90.3 				"/>
				<path d="M225.8,110.1c0,0.1-0.1,0.2-0.1,0.2l-17,9.9l-0.7,0.4l-17,9.9c-0.2,0.1-0.5,0.1-0.7,0l-17.1-9.9l-0.7-0.4l-17.1-9.9
					c-0.1,0-0.1-0.1-0.1-0.2s0.1-0.2,0.1-0.2l17-9.9l0.7-0.4l17-9.9c0.1-0.1,0.2-0.1,0.4-0.1c0.1,0,0.2,0,0.4,0.1l17.1,9.9l0.7,0.4
					l17.1,9.9C225.8,109.9,225.8,110,225.8,110.1z M190.6,129.8l34-19.8l-34.2-19.8l-34,19.8L190.6,129.8"/>
				<polygon class="st1" points="175.3,138.7 141.3,158.5 107,138.7 141.1,119 				"/>
				<path d="M176.5,138.7c0,0.1-0.1,0.2-0.1,0.2l-34.7,20.2c-0.1,0.1-0.2,0.1-0.4,0.1c-0.1,0-0.3,0-0.4-0.1L106,139
					c-0.1-0.1-0.2-0.1-0.1-0.2c0-0.1,0.1-0.2,0.1-0.2l17-9.9l0.7-0.4l17-9.9c0.1-0.1,0.2-0.1,0.4-0.1c0.1,0,0.2,0,0.4,0.1l17.1,9.9
					l0.7,0.4l17.1,9.9L176.5,138.7z M141.3,158.5l34-19.8L141.1,119l-34,19.8L141.3,158.5"/>
				<polygon points="53,67.3 66.9,59.2 67.6,59.6 53.7,67.7 				"/>
				<polygon class="st1" points="168.4,20.5 134.4,40.2 100.2,20.5 134.2,0.7 				"/>
			</g>
		</g>
		<g id="lock">
			<path d="M226.5,130.4c0.2,0.1,0.2,0.3,0,0.4c-0.2,0.1-0.5,0.1-0.7,0L208,120.6l0.7-0.4L226.5,130.4z"/>
			<path d="M242.5,140.1c0.2-0.1,0.5-0.1,0.7,0l18.6,10.8l-0.7,0.4l-18.6-10.8c-0.1,0-0.2-0.2-0.1-0.3
				C242.4,140.1,242.4,140.1,242.5,140.1z"/>
			<rect x="227.9" y="131.2" class="st2" width="12.8" height="9.8"/>
			<path class="st2" d="M229.4,131v-3.7c0-2.7,2.2-4.9,4.9-4.9l0,0c2.7,0,4.9,2.2,4.9,4.9l0,0"/>
			<path class="st2" d="M235.6,135.1c0-0.7-0.6-1.4-1.3-1.4s-1.4,0.6-1.4,1.3c0,0.4,0.2,0.8,0.5,1.1v2.3h1.7v-2.3
				C235.4,135.9,235.6,135.5,235.6,135.1z"/>
		</g>
		<g id="chip">
			<path d="M315.3,159.8c0,0.2-0.2,0.4-0.4,0.4l0,0l0,0c-0.2,0-0.4-0.2-0.4-0.4l0,0v-1.4c0-0.2,0.2-0.4,0.4-0.4l0,0l0,0
				c0.2,0,0.4,0.2,0.4,0.4l0,0V159.8z"/>
			<path d="M312.8,158.4c0,0.2-0.2,0.4-0.4,0.4l0,0l0,0c-0.2,0-0.4-0.2-0.4-0.4V157c0-0.2,0.2-0.4,0.4-0.4l0,0
				c0.2,0,0.4,0.2,0.4,0.4l0,0V158.4z"/>
			<path d="M310.4,157c0,0.2-0.2,0.4-0.4,0.4l0,0l0,0c-0.2,0-0.4-0.2-0.4-0.4l0,0v-1.4c0-0.2,0.2-0.4,0.4-0.4l0,0l0,0
				c0.2,0,0.4,0.2,0.4,0.4l0,0V157z"/>
			<path d="M307.9,155.6c0,0.2-0.2,0.4-0.4,0.4l0,0l0,0c-0.2,0-0.4-0.2-0.4-0.4l0,0v-1.4c0-0.2,0.2-0.4,0.4-0.4l0,0l0,0
				c0.2,0,0.4,0.2,0.4,0.4l0,0V155.6z"/>
			<path d="M305.5,154.1c0,0.2-0.2,0.4-0.4,0.4l0,0l0,0c-0.2,0-0.4-0.2-0.4-0.4l0,0v-1.4c0-0.2,0.2-0.4,0.4-0.4l0,0l0,0
				c0.2,0,0.4,0.2,0.4,0.4l0,0V154.1z"/>
			<path d="M249.1,156.6c0,0.2,0.2,0.3,0.4,0.3l0,0c0.2,0,0.4-0.1,0.4-0.3v-1.1c0-0.2-0.2-0.3-0.4-0.3l0,0l0,0
				c-0.2,0-0.4,0.1-0.4,0.3l0,0V156.6z"/>
			<path d="M251.6,155.2c0,0.2,0.2,0.3,0.4,0.3l0,0c0.2,0,0.4-0.1,0.4-0.3v-1.1c0-0.2-0.2-0.3-0.4-0.3l0,0c-0.2,0-0.4,0.1-0.4,0.3
				V155.2z"/>
			<path d="M254,153.8c0,0.2,0.2,0.3,0.4,0.3l0,0c0.2,0,0.4-0.1,0.4-0.3v-1.1c0-0.2-0.2-0.3-0.4-0.3l0,0c-0.2,0-0.4,0.1-0.4,0.3
				V153.8z"/>
			<path class="st0" d="M314.5,162.4c0,0.1-0.1,0.2-0.1,0.2l-2.1,1.2l-0.7,0.4l-1.7,1l-0.7,0.4l-1.9,1.1l-0.7,0.4l-1.7,1l-0.7,0.4
				l-1.7,1l-0.7,0.4l-1.7,1l-0.7,0.4l-1.7,1l-0.7,0.4l-1.7,1l-0.7,0.4l-1.7,1l-0.7,0.4l-1.7,1l-0.7,0.4l-1.7,1l-0.7,0.4l-1.7,1
				l-0.7,0.4l-1.7,1l-0.7,0.4l-2.5,1.5c-0.1,0.1-0.2,0.1-0.4,0.1c-0.1,0-0.2,0-0.4-0.1l-2-1.1l-0.7-0.4l-1.7-1l-0.7-0.4l-1.7-1
				l-0.7-0.4l-1.7-1l-0.7-0.4l-1.7-1l-0.7-0.4l-1.7-1l-0.7-0.4l-1.9-1.1l-0.7-0.4l-1.6-0.9l-0.7-0.4l-1.7-1l-0.7-0.4l-1.7-1
				l-0.7-0.4l-1.7-1l-0.7-0.4l-1.7-1l-0.7-0.4l-1.7-1l-0.7-0.4l-2.8-1.6c-0.1,0-0.1-0.1-0.1-0.2c0-0.1,0.1-0.2,0.1-0.2l2.5-1.5
				l0.7-0.4l1.7-1l0.7-0.4l1.7-1l0.7-0.4l1.7-1l0.7-0.4l1.7-1l0.7-0.4l1.7-1l0.7-0.4l1.7-1l0.7-0.4l1.7-1l0.7-0.4l1.7-1l0.7-0.4
				l1.7-1l0.7-0.4l1.7-1l0.7-0.4l1.9-1.1l0.7-0.4l1.7-1l0.7-0.4l2.1-1.2c0.1-0.1,0.2-0.1,0.4-0.1c0.1,0,0.2,0,0.4,0.1l2.9,1.7
				l0.7,0.4l1.7,1l0.7,0.4l1.7,1l0.7,0.4l1.7,1l0.7,0.4l1.7,1l0.7,0.4l1.7,1l0.7,0.4l1.6,0.9l0.7,0.4l1.9,1.1l0.7,0.4l1.7,1l0.7,0.4
				l1.7,1l0.7,0.4l1.7,1l0.7,0.4l1.7,1l0.7,0.4l1.7,1l0.7,0.4l2,1.1C314.5,162.2,314.5,162.3,314.5,162.4z M279.3,182.1l34-19.8
				L279,142.6l-34,19.8L279.3,182.1"/>
			<path d="M315.1,158.1c0.1,0,0.2,0.2,0.1,0.3c0,0.1-0.1,0.1-0.1,0.1l-2.7,1.6l-0.7-0.4l2.7-1.6C314.6,158,314.9,158,315.1,158.1z"
				/>
			<path d="M254.1,152.5c0.2-0.1,0.5-0.1,0.7,0l2.1,1.2l-0.7,0.4l-2.1-1.2c-0.1,0-0.2-0.2-0.1-0.3
				C254,152.5,254.1,152.5,254.1,152.5z"/>
			<path d="M305.3,152.5c0.2,0.1,0.2,0.3,0,0.4l-2.7,1.6l-0.7-0.4l2.7-1.6C304.8,152.3,305.1,152.3,305.3,152.5z"/>
			<path d="M251.7,153.9c0.2-0.1,0.5-0.1,0.7,0l2.1,1.2l-0.7,0.4l-2.1-1.2c-0.1-0.1-0.2-0.2-0.1-0.3
				C251.6,153.9,251.7,153.9,251.7,153.9z"/>
			<path d="M307.7,153.9c0.1,0,0.2,0.2,0.1,0.3c0,0.1-0.1,0.1-0.1,0.1l-2.7,1.6l-0.7-0.4l2.7-1.6
				C307.2,153.8,307.5,153.8,307.7,153.9z"/>
			<path d="M249.3,155.3c0.2-0.1,0.5-0.1,0.7,0l2.1,1.2l-0.7,0.4l-2.1-1.2c-0.1,0-0.2-0.2-0.1-0.3
				C249.2,155.4,249.2,155.3,249.3,155.3z"/>
			<path d="M310.2,155.3c0.2,0.1,0.2,0.3,0,0.4l-2.7,1.6l-0.7-0.4l2.7-1.6C309.7,155.2,310,155.2,310.2,155.3z"/>
			<path d="M246.8,156.7c0.2-0.1,0.5-0.1,0.7,0l2.1,1.2l-0.7,0.4l-2.1-1.2C246.6,157,246.6,156.8,246.8,156.7z"/>
			<path d="M312.6,156.7c0.1,0,0.2,0.2,0.1,0.3c0,0.1-0.1,0.1-0.1,0.1l-2.6,1.6l-0.7-0.4l2.7-1.6
				C312.2,156.6,312.4,156.6,312.6,156.7z"/>
			<path class="st1" d="M304.8,159.7c0.7,0.3,1.2,1,1.3,1.7c-0.1,0.8-0.5,1.4-1.2,1.7l-22.5,13.1l0.4,0.2l-0.4-0.2c-1.9,1-4.1,1-6,0
				l-22.7-13.1c-0.7-0.3-1.2-1-1.2-1.7c0.1-0.8,0.5-1.4,1.2-1.7l22.5-13.1c0.9-0.5,2-0.7,3-0.7s2.1,0.2,3,0.7L304.8,159.7z"/>
			<path d="M305.5,159.3c2.1,1.2,2.1,3.1,0,4.3L283,176.7c-2.3,1.2-5.1,1.2-7.4,0l-22.7-13.1c-2.1-1.2-2.1-3.1,0-4.3l22.5-13.1
				c2.3-1.2,5.1-1.2,7.4,0L305.5,159.3z M279.3,177c1,0,2.1-0.2,3-0.7l22.5-13.1c0.7-0.3,1.2-1,1.2-1.7c-0.1-0.8-0.6-1.4-1.3-1.7
				L282,146.7c-0.9-0.5-2-0.7-3-0.7s-2.1,0.2-3,0.7l-22.5,13.1c-0.7,0.3-1.2,1-1.2,1.7c0.1,0.8,0.5,1.4,1.2,1.7l22.7,13.1
				C277.2,176.7,278.2,177,279.3,177"/>
			<path class="st1" d="M279.1,141.6l34.2,19.8l-34,19.8L245,161.4L279.1,141.6z M283,176.6l22.5-13.1c2-1.2,2-3.1,0-4.3l-22.7-13.1
				c-2.3-1.2-5.1-1.2-7.4,0l-22.5,13.1c-2,1.2-2,3.1,0,4.3l22.7,13.1C277.9,177.8,280.6,177.8,283,176.6"/>
			<path d="M314.5,161.4c0,0.1-0.1,0.2-0.1,0.2l-2.1,1.2l-0.7,0.4l-1.7,1l-0.7,0.4l-1.9,1.1l-0.7,0.4l-1.7,1l-0.7,0.4l-1.7,1
				l-0.7,0.4l-1.7,1l-0.7,0.4l-1.7,1l-0.7,0.4l-1.7,1l-0.7,0.4l-1.7,1l-0.7,0.4l-1.7,1l-0.7,0.4l-1.7,1l-0.7,0.4l-1.7,1l-0.7,0.4
				l-1.7,1l-0.7,0.4l-2.5,1.5c-0.1,0.1-0.2,0.1-0.4,0.1c-0.1,0-0.2,0-0.4-0.1l-2-1.1l-0.7-0.4l-1.7-1l-0.7-0.4l-1.7-1l-0.7-0.4
				l-1.7-1l-0.7-0.4l-1.7-1l-0.7-0.4l-1.7-1l-0.7-0.4l-1.9-1.1l-0.7-0.4l-1.6-0.9l-0.7-0.4l-1.7-1l-0.7-0.4l-1.7-1l-0.7-0.4l-1.7-1
				l-0.7-0.4l-1.7-1l-0.7-0.4l-1.7-1l-0.7-0.4l-2.8-1.7c-0.1-0.1-0.1-0.1-0.1-0.2c0-0.1,0.1-0.2,0.1-0.2l2.5-1.5l0.7-0.4l1.7-1
				l0.7-0.4l1.7-1l0.7-0.4l1.7-1l0.7-0.4l1.7-1l0.7-0.4l1.7-1l0.7-0.4l1.7-1l0.7-0.4l1.7-1l0.7-0.4l1.7-1l0.7-0.4l1.7-1l0.7-0.4
				l1.7-1l0.7-0.4l1.9-1.1l0.7-0.4l1.7-1l0.7-0.4l2.1-1.3c0.1-0.1,0.2-0.1,0.4-0.1c0.1,0,0.2,0,0.4,0.1l2.9,1.7l0.7,0.4l1.7,1
				l0.7,0.4l1.7,1l0.7,0.4l1.7,1l0.7,0.4l1.7,1l0.7,0.4l1.7,1l0.7,0.4l1.6,0.9l0.7,0.4l1.9,1.1l0.7,0.4l1.7,1l0.7,0.4l1.7,1l0.7,0.4
				l1.7,1l0.7,0.4l1.7,1l0.7,0.4l1.7,1l0.7,0.4l2,1.1C314.5,161.2,314.5,161.3,314.5,161.4z M279.3,181.2l34-19.8L279,141.6
				l-34,19.8L279.3,181.2"/>
			<path d="M251,167.8l-0.7-0.4l-2.3,1.4l0,0l-0.1,0.1l0,0c-0.1,0.1-0.1,0.2-0.1,0.2v1.6c0,0.2,0.1,0.4,0.4,0.4
				c0.2,0,0.4-0.2,0.4-0.4l0,0v-1.1c0,0,0-0.3,0.2-0.4L251,167.8z"/>
			<path d="M253.9,169.4l-0.7-0.4l-2.4,1.4l0,0l-0.1,0.1l0,0c-0.1,0.1-0.1,0.2-0.1,0.2v1.6c0,0.2,0.1,0.4,0.3,0.4s0.4-0.1,0.4-0.3
				v-0.1v-1.1c0,0,0-0.3,0.2-0.4L253.9,169.4z"/>
			<path d="M256.9,171.1l-0.7-0.4l-2.4,1.4l0,0h-0.1l0,0c-0.1,0.1-0.1,0.2-0.1,0.2v1.7c0,0.2,0.2,0.4,0.3,0.4s0.4-0.2,0.4-0.3l0,0
				V173c0,0,0-0.3,0.2-0.4L256.9,171.1z"/>
			<path d="M259.8,172.8l-0.7-0.4l-2.3,1.4l0,0c0,0,0,0,0,0.1l0,0c-0.1,0.1-0.1,0.2-0.1,0.2v1.6c0,0.2,0.2,0.4,0.4,0.4
				s0.4-0.2,0.4-0.4v-1.1c0,0,0-0.3,0.2-0.4L259.8,172.8z"/>
			<path d="M262.8,174.4l-0.7-0.4l-2.3,1.4l0,0l-0.1,0.1l0,0c-0.1,0.1-0.1,0.2-0.1,0.2v1.6c0,0.2,0.1,0.4,0.3,0.4
				c0.2,0,0.4-0.1,0.4-0.3v-0.1v-1.1c0,0,0-0.3,0.2-0.4L262.8,174.4z"/>
			<path d="M265.8,176.1l-0.7-0.4l-2.4,1.4l0,0h-0.1l0,0c-0.1,0.1-0.1,0.2-0.1,0.2v1.7c0,0.2,0.1,0.4,0.3,0.4l0,0
				c0.2,0,0.4-0.2,0.4-0.4l0,0v-1.1c0,0,0-0.3,0.2-0.4L265.8,176.1z"/>
			<path d="M268.7,177.8l-0.7-0.4l-2.3,1.4l0,0v0.1l0,0c-0.1,0.1-0.1,0.2-0.1,0.2v1.6c0,0.2,0.2,0.4,0.4,0.4s0.4-0.2,0.4-0.4v-1.1
				c0,0,0-0.3,0.2-0.4L268.7,177.8z"/>
			<path d="M271.7,179.4L271,179l-2.3,1.4l0,0l-0.1,0.1l0,0c-0.1,0.1-0.1,0.2-0.1,0.2v1.6c0,0.2,0.1,0.4,0.4,0.4
				c0.2,0,0.4-0.2,0.4-0.4l0,0v-1.1c0,0,0-0.3,0.2-0.4L271.7,179.4z"/>
			<path d="M274.6,181.1l-0.7-0.4l-2.4,1.4l0,0h-0.1l0,0c-0.1,0.1-0.1,0.2-0.1,0.2v1.7c0,0.2,0.1,0.4,0.3,0.4l0,0
				c0.2,0,0.4-0.2,0.4-0.4l0,0v-1.1c0,0,0-0.3,0.2-0.4L274.6,181.1z"/>
			<path d="M277.6,182.8l-0.7-0.4l-2.4,1.4l0,0l-0.1,0.1l0,0c-0.1,0.1-0.1,0.2-0.1,0.2v1.6c0,0.2,0.2,0.4,0.4,0.4s0.4-0.2,0.4-0.4
				v-1.1c0,0,0-0.3,0.2-0.4L277.6,182.8z"/>
			<path d="M313.9,164.2l0.7-0.4l2.3,1.4l0,0c0,0,0,0,0,0.1s0,0,0,0c0.1,0.1,0.1,0.2,0.1,0.2v1.6c0,0.2-0.2,0.4-0.4,0.4
				s-0.4-0.2-0.4-0.4V166c0,0,0-0.3-0.2-0.4L313.9,164.2z"/>
			<path d="M310.9,165.9l0.7-0.4l2.3,1.4l0,0h0.1l0,0c0.1,0.1,0.1,0.2,0.1,0.2v1.6c0,0.2-0.1,0.4-0.3,0.4c-0.2,0-0.4-0.1-0.4-0.3
				v-0.1v-1.1c0,0,0-0.3-0.2-0.4L310.9,165.9z"/>
			<path d="M308,167.6l0.7-0.4l2.4,1.4l0,0l0.1,0.1l0,0c0.1,0.1,0.1,0.2,0.1,0.2v1.6c0,0.2-0.1,0.4-0.3,0.4l0,0
				c-0.2,0-0.4-0.2-0.4-0.4v-1.1c0,0,0-0.3-0.2-0.4L308,167.6z"/>
			<path d="M305,169.2l0.7-0.4l2.4,1.4l0,0c0,0,0,0,0,0.1l0,0c0.1,0.1,0.1,0.2,0.1,0.2v1.6c0,0.2-0.2,0.4-0.4,0.4s-0.4-0.2-0.4-0.4
				V171c0,0,0-0.3-0.2-0.4L305,169.2z"/>
			<path d="M302,170.9l0.7-0.4l2.3,1.4l0,0c0,0,0,0,0.1,0l0,0c0.1,0.1,0.1,0.2,0.1,0.2v1.6c0,0.2-0.1,0.4-0.4,0.4
				c-0.2,0-0.4-0.2-0.4-0.4l0,0v-1.1c0,0,0-0.3-0.2-0.4L302,170.9z"/>
			<path d="M299.1,172.6l0.7-0.4l2.4,1.4l0,0l0.1,0.1l0,0c0.1,0.1,0.1,0.2,0.1,0.2v1.6c0,0.2-0.1,0.4-0.3,0.4
				c-0.2,0-0.4-0.1-0.4-0.3v-0.1v-1.1c0,0,0-0.3-0.2-0.4L299.1,172.6z"/>
			<path d="M296.1,174.2l0.7-0.4l2.4,1.4l0,0l0.1,0.1l0,0c0.1,0.1,0.1,0.2,0.1,0.2v1.6c0,0.2-0.2,0.4-0.4,0.4s-0.4-0.2-0.4-0.4V176
				c0,0,0-0.3-0.2-0.4L296.1,174.2z"/>
			<path d="M293.1,175.9l0.7-0.4l2.3,1.4l0,0l0,0l0,0c0.1,0.1,0.1,0.2,0.1,0.2v1.6c0,0.2-0.2,0.4-0.4,0.4s-0.4-0.2-0.4-0.4v-1.1
				c0,0,0-0.3-0.2-0.4L293.1,175.9z"/>
			<path d="M290.2,177.6l0.7-0.4l2.3,1.4l0,0l0.1,0.1l0,0c0.1,0.1,0.1,0.2,0.1,0.2v1.6c0,0.2-0.1,0.4-0.3,0.4
				c-0.2,0-0.4-0.1-0.4-0.3v-0.1v-1.1c0,0,0-0.3-0.2-0.4L290.2,177.6z"/>
			<path d="M287.2,179.2l0.7-0.4l2.4,1.4l0,0l0.1,0.1l0,0c0.1,0.1,0.1,0.2,0.1,0.2v1.6c0,0.2-0.1,0.4-0.3,0.4l0,0
				c-0.2,0-0.4-0.2-0.4-0.4V181c0,0,0-0.3-0.2-0.4L287.2,179.2z"/>
			<path d="M284.2,180.9l0.7-0.4l2.3,1.4l0,0l0,0l0,0c0,0.1,0.1,0.2,0.1,0.2v1.6c0,0.2-0.2,0.4-0.4,0.4s-0.4-0.2-0.4-0.4v-1.1
				c0,0,0-0.3-0.2-0.4L284.2,180.9z"/>
			<path d="M281.3,182.6l0.7-0.4l2.3,1.4l0,0l0.1,0.1l0,0c0.1,0.1,0.1,0.2,0.1,0.2v1.6c0,0.2-0.1,0.4-0.4,0.4
				c-0.2,0-0.4-0.2-0.4-0.4l0,0v-1.1c0,0,0-0.3-0.2-0.4L281.3,182.6z"/>
			<path d="M303,152.8c0,0.2-0.2,0.4-0.4,0.4l0,0l0,0c-0.2,0-0.4-0.2-0.4-0.4l0,0v-1.4c0-0.2,0.2-0.4,0.4-0.4l0,0l0,0
				c0.2,0,0.4,0.2,0.4,0.4l0,0V152.8z"/>
			<path d="M300.5,151.3c0,0.2-0.2,0.4-0.4,0.4l0,0l0,0c-0.2,0-0.4-0.2-0.4-0.4l0,0v-1.4c0-0.2,0.2-0.4,0.4-0.4l0,0l0,0
				c0.2,0,0.4,0.2,0.4,0.4l0,0V151.3z"/>
			<path d="M298.1,149.9c0,0.2-0.2,0.4-0.4,0.4l0,0l0,0c-0.2,0-0.4-0.2-0.4-0.4l0,0v-1.4c0-0.2,0.2-0.4,0.4-0.4l0,0l0,0
				c0.2,0,0.4,0.2,0.4,0.4l0,0V149.9z"/>
			<path d="M295.7,148.5c0,0.2-0.2,0.4-0.4,0.4l0,0l0,0c-0.2,0-0.4-0.2-0.4-0.4l0,0v-1.4c0-0.2,0.2-0.4,0.4-0.4l0,0l0,0
				c0.2,0,0.4,0.2,0.4,0.4l0,0V148.5z"/>
			<path d="M293.2,147.1c0,0.2-0.2,0.4-0.4,0.4l0,0l0,0c-0.2,0-0.4-0.2-0.4-0.4l0,0v-1.4c0-0.2,0.2-0.4,0.4-0.4l0,0l0,0
				c0.2,0,0.4,0.2,0.4,0.4l0,0V147.1z"/>
			<path d="M290.8,145.7c0,0.2-0.2,0.4-0.4,0.4l0,0l0,0c-0.2,0-0.4-0.2-0.4-0.4l0,0v-1.4c0-0.2,0.2-0.4,0.4-0.4l0,0l0,0
				c0.2,0,0.4,0.2,0.4,0.4l0,0V145.7z"/>
			<path d="M288.3,144.2c0,0.2-0.2,0.4-0.4,0.4l0,0c-0.2,0-0.4-0.2-0.4-0.4l0,0v-1.4c0-0.2,0.2-0.4,0.4-0.4l0,0l0,0
				c0.2,0,0.4,0.2,0.4,0.4V144.2z"/>
			<path d="M285.9,142.8c0,0.2-0.2,0.4-0.4,0.4l0,0l0,0c-0.2,0-0.4-0.2-0.4-0.4v-1.4c0-0.2,0.2-0.4,0.4-0.4l0,0
				c0.2,0,0.4,0.2,0.4,0.4l0,0V142.8z"/>
			<path d="M244.3,159.4c0,0.2,0.2,0.3,0.4,0.3l0,0c0.2,0,0.4-0.1,0.4-0.3v-1.1c0-0.2-0.2-0.3-0.4-0.3l0,0c-0.2,0-0.4,0.1-0.4,0.3
				V159.4z"/>
			<path d="M246.7,158c0,0.2,0.2,0.3,0.4,0.3l0,0c0.2,0,0.4-0.1,0.4-0.3v-1.1c0-0.2-0.2-0.3-0.4-0.3l0,0c-0.2,0-0.4,0.1-0.4,0.3V158
				z"/>
			<path d="M256.4,152.3c0,0.2,0.2,0.3,0.4,0.3l0,0c0.2,0,0.4-0.1,0.4-0.3v-1.1c0-0.2-0.2-0.3-0.4-0.3l0,0c-0.2,0-0.4,0.1-0.4,0.3
				V152.3z"/>
			<path d="M261.3,149.5c0,0.2,0.2,0.3,0.4,0.3l0,0c0.2,0,0.4-0.1,0.4-0.3v-1.1c0-0.2-0.2-0.3-0.4-0.3l0,0c-0.2,0-0.4,0.1-0.4,0.3
				V149.5z"/>
			<path d="M263.7,148.1c0,0.2,0.2,0.3,0.4,0.3l0,0c0.2,0,0.4-0.1,0.4-0.3V147c0-0.2-0.2-0.3-0.4-0.3l0,0c-0.2,0-0.4,0.1-0.4,0.3
				V148.1z"/>
			<path d="M266.2,146.7c0,0.2,0.2,0.3,0.4,0.3l0,0c0.2,0,0.4-0.1,0.4-0.3v-1.1c0-0.2-0.2-0.3-0.4-0.3l0,0c-0.2,0-0.4,0.1-0.4,0.3
				V146.7z"/>
			<path d="M268.6,145.3c0,0.2,0.2,0.3,0.4,0.3l0,0c0.2,0,0.4-0.1,0.4-0.3v-1.1c0-0.2-0.2-0.3-0.4-0.3l0,0c-0.2,0-0.4,0.1-0.4,0.3
				V145.3z"/>
			<path d="M271.2,143.8c0,0.2,0.2,0.3,0.4,0.3l0,0c0.2,0,0.4-0.1,0.4-0.3v-1.1c0-0.2-0.2-0.3-0.4-0.3l0,0c-0.2,0-0.4,0.1-0.4,0.3
				V143.8z"/>
			<path d="M273.6,142.4c0,0.2,0.2,0.3,0.4,0.3l0,0c0.2,0,0.4-0.1,0.4-0.3v-1.1c0-0.2-0.2-0.3-0.4-0.3l0,0c-0.2,0-0.4,0.1-0.4,0.3
				V142.4z"/>
			<path d="M297.9,148.2c0.2,0.1,0.2,0.3,0,0.4l-2.7,1.6l-0.7-0.4l2.7-1.6C297.4,148.1,297.7,148.1,297.9,148.2z"/>
			<path d="M273.8,141.1c0.2-0.1,0.5-0.1,0.7,0l2.1,1.2l-0.7,0.4l-2.1-1.2c-0.1,0-0.2-0.2-0.1-0.3
				C273.7,141.1,273.7,141.1,273.8,141.1z"/>
			<path d="M285.7,141.1c0.1,0,0.2,0.2,0.1,0.3c0,0.1-0.1,0.1-0.1,0.1l-2.7,1.6l-0.7-0.4l2.7-1.6C285.2,141,285.5,141,285.7,141.1z"
				/>
			<path d="M271.3,142.5c0.2-0.1,0.5-0.1,0.7,0l2.1,1.2l-0.7,0.4l-2.1-1.2C271.1,142.8,271.1,142.6,271.3,142.5z"/>
			<path d="M288.1,142.6c0.1,0,0.2,0.2,0.1,0.3c0,0.1-0.1,0.1-0.1,0.1l-2.7,1.6l-0.7-0.4l2.7-1.6
				C287.6,142.4,287.9,142.4,288.1,142.6z"/>
			<path d="M268.8,144c0.2-0.1,0.5-0.1,0.7,0l2.1,1.2l-0.7,0.4l-2.1-1.2c-0.1,0-0.2-0.2-0.1-0.3C268.7,144.1,268.7,144,268.8,144z"
				/>
			<path d="M290.6,144c0.2,0.1,0.2,0.3,0,0.4l-2.7,1.6l-0.7-0.4l2.7-1.6C290.1,143.9,290.4,143.9,290.6,144z"/>
			<path d="M266.3,145.4c0.2-0.1,0.5-0.1,0.7,0l2.1,1.2l-0.7,0.4l-2.1-1.2C266.1,145.7,266.1,145.5,266.3,145.4z"/>
			<path d="M293,145.4c0.1,0,0.2,0.2,0.1,0.3c0,0.1-0.1,0.1-0.1,0.1l-2.7,1.6l-0.7-0.4l2.7-1.6C292.5,145.3,292.8,145.3,293,145.4z"
				/>
			<path d="M263.9,146.8c0.2-0.1,0.5-0.1,0.7,0l2.1,1.2l-0.7,0.4l-2.1-1.2c-0.1,0-0.2-0.2-0.1-0.3
				C263.8,146.9,263.8,146.8,263.9,146.8z"/>
			<path d="M295.5,146.8c0.2,0.1,0.2,0.3,0,0.4l-2.7,1.6l-0.7-0.4l2.7-1.6C295,146.7,295.3,146.7,295.5,146.8z"/>
			<path d="M261.5,148.2c0.2-0.1,0.5-0.1,0.7,0l2.1,1.2l-0.7,0.4l-2.1-1.2C261.2,148.5,261.2,148.3,261.5,148.2z"/>
			<path d="M300.3,149.6c0.1,0,0.2,0.2,0.1,0.3c0,0.1-0.1,0.1-0.1,0.1l-2.7,1.6l-0.7-0.4l2.7-1.6C299.8,149.4,300,149.4,300.3,149.6
				z"/>
			<path d="M256.6,151c0.2-0.1,0.5-0.1,0.7,0l2.1,1.2l-0.7,0.4l-2.1-1.2C256.4,151.3,256.4,151.2,256.6,151z"/>
			<path d="M302.8,151c0.1,0.1,0.2,0.2,0.1,0.3c0,0.1-0.1,0.1-0.1,0.1l-2.7,1.6l-0.7-0.4l2.7-1.6C302.3,150.9,302.6,150.9,302.8,151
				z"/>
			<path d="M244.4,158.1c0.2-0.1,0.5-0.1,0.7,0l2.1,1.2l-0.7,0.4l-2.1-1.2c-0.1,0-0.2-0.2-0.1-0.3
				C244.3,158.2,244.4,158.1,244.4,158.1z"/>
			<path d="M245,164.4l-0.7-0.4l-2.3,1.4l0,0l-0.1,0.1l0,0c-0.1,0.1-0.1,0.2-0.1,0.2v1.6c0,0.2,0.1,0.4,0.3,0.4l0,0
				c0.2,0,0.4-0.2,0.4-0.4v-1.1c0,0,0-0.3,0.2-0.4L245,164.4z"/>
			<path d="M248,166.1l-0.7-0.4l-2.3,1.4l0,0c0,0,0,0-0.1,0l0,0c0,0.1-0.1,0.2-0.1,0.2v1.7c0,0.2,0.2,0.4,0.3,0.4s0.4-0.2,0.4-0.3
				l0,0V168c0,0,0-0.3,0.2-0.4L248,166.1z"/>
		</g>
	</g>
</g>
</svg>
