<svg xmlns="http://www.w3.org/2000/svg" viewBox="0 0 317.12 186.06"><defs><style>.cls-1{isolation:isolate;}.cls-2{stroke:#000;stroke-width:3px;}.cls-2,.cls-4{stroke-linecap:round;stroke-linejoin:round;}.cls-3{fill:#fff;}.cls-4{fill:none;stroke:#231f20;stroke-width:0.8px;}</style></defs><title>Ativo 66</title><g id="Camada_2" data-name="Camada 2"><g id="Layer_1" data-name="Layer 1"><path d="M315.27,159.83a.38.38,0,0,1-.38.38h0a.38.38,0,0,1-.39-.38v-1.4a.38.38,0,0,1,.39-.38h0a.38.38,0,0,1,.38.38Z"/><path d="M312.81,158.41a.38.38,0,0,1-.38.38h0a.39.39,0,0,1-.39-.38V157a.39.39,0,0,1,.39-.38h0a.38.38,0,0,1,.38.38Z"/><path d="M310.35,157a.38.38,0,0,1-.38.38h0a.38.38,0,0,1-.38-.38v-1.4a.38.38,0,0,1,.38-.38h0a.38.38,0,0,1,.38.38Z"/><path d="M307.91,155.57a.38.38,0,0,1-.38.38h0a.38.38,0,0,1-.38-.38v-1.4a.38.38,0,0,1,.38-.38h0a.38.38,0,0,1,.38.38Z"/><path d="M305.45,154.15a.38.38,0,0,1-.38.38h0a.38.38,0,0,1-.38-.38v-1.4a.38.38,0,0,1,.38-.38h0a.38.38,0,0,1,.38.38Z"/><path d="M303,152.77a.38.38,0,0,1-.39.38h0a.38.38,0,0,1-.38-.38v-1.4a.38.38,0,0,1,.38-.38h0a.38.38,0,0,1,.39.38Z"/><path d="M300.45,151.27a.38.38,0,0,1-.38.38h0a.38.38,0,0,1-.38-.38v-1.4a.38.38,0,0,1,.38-.38h0a.38.38,0,0,1,.38.38Z"/><path d="M298.12,149.91a.38.38,0,0,1-.38.38h0a.38.38,0,0,1-.38-.38v-1.4a.38.38,0,0,1,.38-.38h0a.38.38,0,0,1,.38.38Z"/><path d="M295.66,148.51a.38.38,0,0,1-.38.38h0a.38.38,0,0,1-.38-.38v-1.4a.38.38,0,0,1,.38-.38h0a.38.38,0,0,1,.38.38Z"/><path d="M293.2,147.09a.38.38,0,0,1-.38.38h0a.38.38,0,0,1-.38-.38v-1.4a.38.38,0,0,1,.38-.38h0a.38.38,0,0,1,.38.38Z"/><path d="M290.76,145.67a.38.38,0,0,1-.38.38h0a.38.38,0,0,1-.38-.38v-1.4a.38.38,0,0,1,.38-.38h0a.38.38,0,0,1,.38.38Z"/><path d="M288.31,144.25a.39.39,0,0,1-.39.38h0a.38.38,0,0,1-.38-.38v-1.4a.38.38,0,0,1,.38-.38h0a.39.39,0,0,1,.39.38Z"/><path d="M285.87,142.83a.38.38,0,0,1-.38.38h0a.39.39,0,0,1-.39-.38v-1.4a.39.39,0,0,1,.39-.38h0a.38.38,0,0,1,.38.38Z"/><path d="M244.26,159.41a.34.34,0,0,0,.38.29h0c.21,0,.39-.13.39-.29v-1.07c0-.16-.18-.29-.39-.29h0a.34.34,0,0,0-.38.29Z"/><path d="M246.7,158a.34.34,0,0,0,.38.29h0c.21,0,.39-.13.39-.29v-1.07c0-.16-.18-.29-.39-.29h0a.34.34,0,0,0-.38.29Z"/><path d="M249.12,156.59a.34.34,0,0,0,.38.29h0a.34.34,0,0,0,.38-.29v-1.06a.34.34,0,0,0-.38-.3h0a.34.34,0,0,0-.38.3Z"/><path d="M251.56,155.16a.34.34,0,0,0,.38.29h0c.21,0,.39-.13.39-.29V154.1c0-.16-.18-.29-.39-.29h0a.34.34,0,0,0-.38.29Z"/><path d="M254,153.76a.34.34,0,0,0,.38.29h0c.21,0,.39-.13.39-.29v-1.07c0-.16-.18-.29-.39-.29h0a.34.34,0,0,0-.38.29Z"/><path d="M256.44,152.33a.34.34,0,0,0,.38.29h0c.22,0,.39-.13.39-.29v-1.07c0-.16-.17-.29-.39-.29h0a.34.34,0,0,0-.38.29Z"/><path d="M261.3,149.51a.34.34,0,0,0,.38.29h0a.34.34,0,0,0,.38-.29v-1.06a.34.34,0,0,0-.38-.29h0a.34.34,0,0,0-.38.29Z"/><path d="M263.72,148.11a.34.34,0,0,0,.38.29h0a.34.34,0,0,0,.38-.29V147a.34.34,0,0,0-.38-.29h0a.34.34,0,0,0-.38.29Z"/><path d="M266.16,146.68a.34.34,0,0,0,.38.29h0a.34.34,0,0,0,.38-.29v-1.07a.34.34,0,0,0-.38-.29h0a.34.34,0,0,0-.38.29Z"/><path d="M268.6,145.27a.34.34,0,0,0,.38.29h0a.34.34,0,0,0,.38-.29V144.2a.34.34,0,0,0-.38-.29h0a.34.34,0,0,0-.38.29Z"/><path d="M271.17,143.78a.34.34,0,0,0,.38.29h0a.34.34,0,0,0,.38-.29v-1.07a.34.34,0,0,0-.38-.29h0a.34.34,0,0,0-.38.29Z"/><path d="M273.61,142.37a.34.34,0,0,0,.38.29h0a.34.34,0,0,0,.38-.29V141.3A.34.34,0,0,0,274,141h0a.34.34,0,0,0-.38.29Z"/><g class="cls-1"><path class="cls-2" d="M85.08,69.85l34-19.77L84.86,30.31l-34,19.77L85.08,69.85"/><polygon class="cls-2" points="119.11 50.08 85.08 69.86 50.83 50.08 84.86 30.3 119.11 50.08"/></g><polygon class="cls-2" points="221.2 51.87 187.18 71.65 152.93 51.87 186.96 32.1 221.2 51.87"/><polygon class="cls-2" points="69.77 78.75 35.75 98.52 1.5 78.75 35.52 58.98 69.77 78.75"/><polygon class="cls-2" points="171.47 80.47 137.44 100.24 103.19 80.47 137.22 60.7 171.47 80.47"/><polygon class="cls-2" points="273.97 82.33 239.94 102.11 205.69 82.34 239.72 62.56 273.97 82.33"/><polygon class="cls-2" points="122.53 109.21 88.51 128.99 54.26 109.21 88.29 89.44 122.53 109.21"/><polygon class="cls-2" points="224.64 111 190.6 130.78 156.36 111.01 190.39 91.23 224.64 111"/><polygon class="cls-2" points="175.3 139.68 141.27 159.45 107.03 139.68 141.05 119.9 175.3 139.68"/><polygon class="cls-2" points="168.44 21.41 134.41 41.18 100.17 21.41 134.19 1.64 168.44 21.41"/><path class="cls-2" d="M314.52,162.36a.26.26,0,0,1-.14.21l-2.13,1.23-.71.41-1.72,1-.71.41-1.87,1.08-.71.42-1.73,1-.71.41-1.72,1-.71.42-1.73,1-.71.41-1.72,1-.71.41-1.72,1-.71.41-1.73,1-.71.42-1.72,1-.71.41-1.73,1-.71.42-1.72,1-.72.41-1.72,1-.71.42-2.54,1.47a.75.75,0,0,1-.35.09.9.9,0,0,1-.35-.09l-2-1.13-.72-.42-1.74-1-.71-.41-1.74-1-.71-.42-1.74-1-.71-.41-1.74-1-.71-.4-1.74-1-.71-.41-1.85-1.07-.72-.41-1.62-.94-.72-.41-1.73-1-.72-.42-1.73-1-.72-.41-1.74-1-.71-.42-1.74-1-.71-.41-1.73-1-.72-.42L244,162.57a.25.25,0,0,1-.15-.21.23.23,0,0,1,.14-.2l2.54-1.48.71-.41,1.72-1,.71-.42,1.73-1,.71-.41,1.73-1,.71-.42,1.72-1,.71-.41,1.73-1,.71-.41,1.72-1,.71-.41,1.72-1,.71-.41,1.73-1,.71-.41,1.72-1,.71-.42,1.73-1,.71-.41,1.86-1.09.71-.41,1.73-1,.7-.41L278.7,142a.8.8,0,0,1,.36-.08.75.75,0,0,1,.35.08l2.87,1.66.72.42,1.74,1,.71.41,1.73,1,.72.41,1.73,1,.72.41,1.73,1,.72.42,1.74,1,.71.41,1.62.94.72.41,1.85,1.07.72.41,1.73,1,.71.41,1.74,1,.71.41,1.74,1,.71.41,1.74,1,.72.41,1.73,1,.72.41,2,1.14A.29.29,0,0,1,314.52,162.36Zm-35.23,19.78,34-19.78-34.25-19.77-34,19.77,34.26,19.78"/><g class="cls-1"><polygon points="116.23 30.56 116.94 30.97 103.04 39.05 102.33 38.64 116.23 30.56"/><path d="M120.32,49.14a.3.3,0,0,1-.15.21l-17,9.88-.7.41-17,9.89a.8.8,0,0,1-.36.09.65.65,0,0,1-.35-.09L67.6,59.64l-.71-.41L49.77,49.35c-.1-.06-.15-.13-.15-.2a.23.23,0,0,1,.15-.21L84.5,28.75a.77.77,0,0,1,.36-.08.78.78,0,0,1,.35.08l17.12,9.89.71.41,17.12,9.89A.26.26,0,0,1,120.32,49.14ZM85.08,68.92l34-19.78L84.86,29.37l-34,19.78L85.08,68.92"/><polygon class="cls-3" points="119.11 49.14 85.08 68.92 50.83 49.15 84.86 29.37 119.11 49.14"/></g><path d="M169.65,20.47a.25.25,0,0,1-.15.21l-17,9.88-.7.41-17,9.89a.76.76,0,0,1-.72,0L116.94,31l-.71-.41L99.11,20.68a.25.25,0,0,1-.15-.21.26.26,0,0,1,.14-.21L133.83.08a.85.85,0,0,1,.72,0L169.5,20.26A.25.25,0,0,1,169.65,20.47ZM134.41,40.25l34-19.78L134.19.7l-34,19.77,34.24,19.78"/><polygon points="102.45 59.64 103.15 59.23 119.98 68.95 119.28 69.36 102.45 59.64"/><polygon points="105.76 97.77 119.52 89.78 120.23 90.18 106.47 98.18 105.76 97.77"/><polygon points="221.75 91.49 222.47 91.9 208.57 99.98 207.86 99.56 221.75 91.49"/><polygon points="151.79 30.97 152.49 30.56 169.59 40.44 168.89 40.84 151.79 30.97"/><polygon points="168.99 61.03 169.7 61.44 155.66 69.59 154.96 69.18 168.99 61.03"/><polygon class="cls-3" points="221.2 50.94 187.18 70.71 152.93 50.94 186.96 31.16 221.2 50.94"/><polygon points="205.25 61.03 222.35 70.9 221.65 71.31 204.55 61.44 205.25 61.03"/><path d="M222.41,50.94a.26.26,0,0,1-.14.2l-17,9.89-.7.4-17,9.89a.69.69,0,0,1-.36.09.75.75,0,0,1-.35-.08l-17.13-9.9L169,61l-17.12-9.89c-.1-.06-.15-.13-.15-.2a.27.27,0,0,1,.15-.21l17-9.89.7-.41,17-9.88a.68.68,0,0,1,.35-.09.8.8,0,0,1,.36.08l35,20.19A.23.23,0,0,1,222.41,50.94ZM187.18,70.71l34-19.77L187,31.16l-34,19.78,34.25,19.77"/><polygon class="cls-3" points="69.77 77.81 35.75 97.59 1.5 77.81 35.52 58.04 69.77 77.81"/><polygon points="53.11 88.32 53.82 87.91 70.92 97.78 70.21 98.19 53.11 88.32"/><path d="M71,77.81a.27.27,0,0,1-.15.21l-17,9.89-.71.41-17,9.88a.65.65,0,0,1-.35.09.66.66,0,0,1-.36-.09L.43,78a.25.25,0,0,1-.14-.21.21.21,0,0,1,.14-.2L35.16,57.42a.77.77,0,0,1,.36-.08.75.75,0,0,1,.35.08L53,67.31l.7.41,17.13,9.89A.26.26,0,0,1,71,77.81ZM35.75,97.59l34-19.78L35.53,58,1.5,77.81,35.75,97.59"/><polygon class="cls-3" points="171.47 79.53 137.44 99.3 103.19 79.53 137.22 59.76 171.47 79.53"/><polygon points="155.65 89.54 173.01 99.57 172.31 99.98 154.95 89.95 155.65 89.54"/><path d="M172.67,79.53a.25.25,0,0,1-.14.2l-16.88,9.81L155,90l-17.16,10a.75.75,0,0,1-.35.08.78.78,0,0,1-.35-.08l-16.86-9.74-.71-.41-17.39-10a.21.21,0,0,1,0-.4l17.15-10L120,69l16.88-9.81a.78.78,0,0,1,.35-.08.75.75,0,0,1,.35.08l17.39,10,.71.41,16.87,9.74A.25.25,0,0,1,172.67,79.53ZM137.44,99.3l34-19.77L137.22,59.76l-34,19.77L137.44,99.3"/><path d="M275.17,81.4a.25.25,0,0,1-.14.2L240.3,101.78a.65.65,0,0,1-.35.09.8.8,0,0,1-.36-.08L222.47,91.9l-.72-.41L204.63,81.6a.29.29,0,0,1-.15-.2.29.29,0,0,1,.16-.21l17-9.88.7-.41,17-9.89a.74.74,0,0,1,.34-.08.66.66,0,0,1,.36.08l35,20.18A.23.23,0,0,1,275.17,81.4Zm-35.23,19.77L274,81.4,239.72,61.63l-34,19.77,34.25,19.77"/><polygon class="cls-3" points="273.97 81.4 239.94 101.17 205.69 81.4 239.72 61.63 273.97 81.4"/><path d="M123.74,108.28a.24.24,0,0,1-.15.2l-17,9.89-.7.41-17,9.88a.65.65,0,0,1-.35.09.75.75,0,0,1-.35-.08l-35-20.19a.24.24,0,0,1-.15-.2.25.25,0,0,1,.15-.21l17-9.88.7-.41,17-9.89a.72.72,0,0,1,.35-.09.65.65,0,0,1,.35.09l17.13,9.88.71.41,17.13,9.89A.26.26,0,0,1,123.74,108.28ZM88.51,128.05l34-19.77L88.29,88.5l-34,19.78,34.25,19.77"/><polygon class="cls-3" points="122.53 108.28 88.51 128.05 54.26 108.28 88.29 88.5 122.53 108.28"/><polygon points="158.52 128.24 172.42 120.16 173.13 120.57 159.24 128.65 158.52 128.24"/><polygon points="106.58 118.37 123.68 128.24 122.97 128.65 105.88 118.78 106.58 118.37"/><polygon class="cls-3" points="224.64 110.07 190.6 129.84 156.36 110.07 190.39 90.29 224.64 110.07"/><path d="M225.84,110.07a.24.24,0,0,1-.15.2l-17,9.89-.7.41-17,9.89a.81.81,0,0,1-.7,0l-17.13-9.89-.71-.41-17.13-9.89a.27.27,0,0,1-.14-.2.25.25,0,0,1,.15-.21l17-9.88.7-.41,17-9.89a.9.9,0,0,1,.35-.09.72.72,0,0,1,.35.09l17.13,9.88.71.42,17.13,9.88A.26.26,0,0,1,225.84,110.07ZM190.6,129.84l34-19.77L190.39,90.29l-34,19.78,34.24,19.77"/><path d="M226.49,130.44c.19.11.2.3,0,.41a.8.8,0,0,1-.71,0L208,120.57l.7-.41Z"/><polygon class="cls-3" points="175.3 138.74 141.27 158.51 107.03 138.74 141.05 118.97 175.3 138.74"/><path d="M176.51,138.74a.27.27,0,0,1-.15.2l-34.73,20.19a.82.82,0,0,1-.35.08.66.66,0,0,1-.36-.08L106,139c-.09-.06-.15-.13-.14-.21a.25.25,0,0,1,.14-.2l17-9.89.71-.41,17-9.89a1,1,0,0,1,.36-.09.79.79,0,0,1,.35.09l17.12,9.89.72.41,17.12,9.89A.25.25,0,0,1,176.51,138.74Zm-35.24,19.77,34-19.77L141.05,119l-34,19.77,34.24,19.77"/><polygon points="52.99 67.31 66.89 59.23 67.6 59.64 53.7 67.72 52.99 67.31"/><polygon class="cls-3" points="168.44 20.47 134.41 40.25 100.17 20.47 134.19 0.7 168.44 20.47"/><path d="M297.93,148.21c.2.12.2.3,0,.41l-2.69,1.56-.71-.41,2.68-1.56A.8.8,0,0,1,297.93,148.21Z"/><path d="M315.09,158.12a.22.22,0,0,1,0,.41l-2.68,1.56-.72-.41,2.69-1.56A.75.75,0,0,1,315.09,158.12Z"/><path d="M273.76,141.06a.8.8,0,0,1,.71,0l2.1,1.21-.7.41-2.1-1.21A.22.22,0,0,1,273.76,141.06Z"/><path d="M285.68,141.14a.22.22,0,0,1,0,.41L283,143.11l-.72-.41,2.69-1.56A.75.75,0,0,1,285.68,141.14Z"/><path d="M271.33,142.47a.81.81,0,0,1,.71,0l2.1,1.21-.71.42-2.1-1.22C271.14,142.77,271.13,142.59,271.33,142.47Z"/><path d="M288.13,142.55a.22.22,0,0,1,0,.41l-2.68,1.56-.71-.41,2.68-1.56A.81.81,0,0,1,288.13,142.55Z"/><path d="M268.76,144a.75.75,0,0,1,.71,0l2.1,1.21-.71.41-2.1-1.21A.22.22,0,0,1,268.76,144Z"/><path d="M290.58,144c.2.11.2.29,0,.41l-2.68,1.56-.72-.42,2.69-1.55A.75.75,0,0,1,290.58,144Z"/><path d="M266.32,145.38a.81.81,0,0,1,.71,0l2.1,1.22-.71.41-2.1-1.21C266.12,145.68,266.12,145.5,266.32,145.38Z"/><path d="M293,145.38a.22.22,0,0,1,0,.41l-2.68,1.56-.72-.41,2.69-1.56A.8.8,0,0,1,293,145.38Z"/><path d="M263.88,146.8a.83.83,0,0,1,.72,0l2.1,1.21-.71.42-2.1-1.22A.22.22,0,0,1,263.88,146.8Z"/><path d="M295.48,146.8c.2.11.2.29,0,.41l-2.68,1.56-.72-.41,2.69-1.56A.75.75,0,0,1,295.48,146.8Z"/><path d="M261.45,148.22a.75.75,0,0,1,.71,0l2.1,1.21-.71.41-2.1-1.21C261.25,148.51,261.25,148.33,261.45,148.22Z"/><path d="M242.48,140.08a.75.75,0,0,1,.71,0l18.64,10.76-.71.42-18.64-10.77A.22.22,0,0,1,242.48,140.08Z"/><path d="M300.27,149.56a.22.22,0,0,1,0,.41l-2.68,1.56-.72-.41,2.69-1.56A.8.8,0,0,1,300.27,149.56Z"/><path d="M256.58,151a.83.83,0,0,1,.72,0l2.1,1.22-.71.41-2.1-1.21C256.39,151.34,256.39,151.16,256.58,151Z"/><path d="M302.84,151a.23.23,0,0,1,0,.42L300.16,153l-.72-.41,2.68-1.56A.83.83,0,0,1,302.84,151Z"/><path d="M254.15,152.46a.75.75,0,0,1,.71,0l2.1,1.21-.71.41-2.1-1.21A.22.22,0,0,1,254.15,152.46Z"/><path d="M305.29,152.46c.19.11.19.29,0,.41l-2.68,1.56-.71-.41,2.69-1.56A.75.75,0,0,1,305.29,152.46Z"/><path d="M251.71,153.87a.8.8,0,0,1,.71,0l2.11,1.22-.71.41-2.11-1.21A.23.23,0,0,1,251.71,153.87Z"/><path d="M307.73,153.87a.22.22,0,0,1,0,.41l-2.69,1.56-.71-.41,2.68-1.56A.8.8,0,0,1,307.73,153.87Z"/><path d="M249.28,155.29a.75.75,0,0,1,.71,0l2.1,1.21-.71.42-2.1-1.22A.22.22,0,0,1,249.28,155.29Z"/><path d="M310.19,155.29c.19.11.19.29,0,.41l-2.69,1.56-.71-.42,2.68-1.55A.76.76,0,0,1,310.19,155.29Z"/><path d="M246.84,156.71a.75.75,0,0,1,.71,0l2.1,1.21-.71.41-2.1-1.21C246.65,157,246.64,156.82,246.84,156.71Z"/><path d="M312.64,156.7a.22.22,0,0,1,0,.41L310,158.67l-.72-.41,2.68-1.56A.83.83,0,0,1,312.64,156.7Z"/><path d="M244.41,158.12a.8.8,0,0,1,.71,0l2.1,1.21-.71.42-2.1-1.22A.22.22,0,0,1,244.41,158.12Z"/><path class="cls-3" d="M304.77,159.68a2.17,2.17,0,0,1,1.26,1.74,2.12,2.12,0,0,1-1.24,1.74l-22.53,13.1.35.2-.35-.2a6.57,6.57,0,0,1-6,0l-22.68-13.09a2.11,2.11,0,0,1-1.25-1.74,2.08,2.08,0,0,1,1.23-1.73l22.53-13.1a6.08,6.08,0,0,1,3-.72,6.17,6.17,0,0,1,3,.72Z"/><path d="M305.47,159.27c2.06,1.19,2.07,3.11,0,4.3L283,176.67a8.22,8.22,0,0,1-7.42,0l-22.68-13.09c-2.05-1.19-2.06-3.11,0-4.3l22.53-13.1a8.22,8.22,0,0,1,7.42,0ZM279.26,177a6.11,6.11,0,0,0,3-.72l22.53-13.1a2.12,2.12,0,0,0,1.24-1.74,2.17,2.17,0,0,0-1.26-1.74L282.1,146.59a6.17,6.17,0,0,0-3-.72,6.08,6.08,0,0,0-3,.72l-22.53,13.1a2.08,2.08,0,0,0-1.23,1.73,2.11,2.11,0,0,0,1.25,1.74l22.68,13.09a6.11,6.11,0,0,0,3,.73"/><path class="cls-3" d="M279.06,141.65l34.25,19.78-34,19.77L245,161.42Zm3.91,35,22.53-13.1c2-1.19,2-3.11,0-4.3L282.8,146.18a8.22,8.22,0,0,0-7.42,0l-22.53,13.1c-2,1.19-2,3.11,0,4.3l22.68,13.09a8.22,8.22,0,0,0,7.42,0"/><path d="M314.52,161.43a.25.25,0,0,1-.14.2l-2.13,1.24-.71.41-1.72,1-.71.41-1.87,1.09-.71.41-1.73,1-.71.41-1.72,1-.71.41-1.73,1-.71.42-1.72,1-.71.41-1.72,1-.71.41-1.73,1-.71.41-1.72,1-.71.41-1.73,1-.71.41-1.72,1-.72.41-1.72,1-.71.41-2.54,1.48a.75.75,0,0,1-.35.08.65.65,0,0,1-.35-.09l-2-1.13-.72-.41-1.74-1-.71-.41-1.74-1-.71-.41-1.74-1-.71-.41-1.74-1-.71-.41-1.74-1-.71-.42-1.85-1.07-.72-.41-1.62-.94-.72-.41-1.73-1-.72-.41-1.73-1-.72-.41-1.74-1-.71-.41-1.74-1-.71-.41-1.73-1-.72-.41L244,161.63c-.1-.06-.15-.13-.15-.2a.23.23,0,0,1,.14-.21l2.54-1.47.71-.42,1.72-1,.71-.41,1.73-1,.71-.42,1.73-1,.71-.41,1.72-1,.71-.41,1.73-1,.71-.41,1.72-1,.71-.42,1.72-1,.71-.41,1.73-1,.71-.42,1.72-1,.71-.41,1.73-1,.71-.41,1.86-1.08.71-.42,1.73-1,.7-.41L278.7,141a.8.8,0,0,1,.36-.08.65.65,0,0,1,.35.09l2.87,1.66.72.41,1.74,1,.71.41,1.73,1,.72.42,1.73,1,.72.41,1.73,1,.72.41,1.74,1,.71.41,1.62.94.72.41,1.85,1.07.72.41,1.73,1,.71.41,1.74,1,.71.41,1.74,1,.71.42,1.74,1,.72.41,1.73,1,.72.41,2,1.13A.3.3,0,0,1,314.52,161.43ZM279.29,181.2l34-19.77-34.25-19.78-34,19.77,34.26,19.78"/><rect class="cls-4" x="227.95" y="131.17" width="12.82" height="9.75"/><path class="cls-4" d="M229.36,131v-3.66a4.94,4.94,0,0,1,4.93-4.94h0a4.94,4.94,0,0,1,4.94,4.94"/><path class="cls-4" d="M235.56,135.13a1.34,1.34,0,1,0-2.19,1v2.3h1.71v-2.3A1.33,1.33,0,0,0,235.56,135.13Z"/><path d="M245,164.45l-.69-.4L242,165.41l0,0-.06.05v0a.38.38,0,0,0-.08.24v1.59a.36.36,0,0,0,.35.38.37.37,0,0,0,.35-.38v-1.11s0-.32.19-.43Z"/><path d="M248,166.12l-.7-.4L245,167.08l0,0a.12.12,0,0,0-.05,0h0a.49.49,0,0,0-.08.24V169a.35.35,0,1,0,.7,0v-1.1s0-.32.19-.43Z"/><path d="M251,167.78l-.7-.4-2.34,1.37,0,0-.06.05v0a.42.42,0,0,0-.09.24v1.59a.37.37,0,0,0,.35.38.36.36,0,0,0,.35-.38v-1.11s0-.32.19-.42Z"/><path d="M253.91,169.45l-.69-.4-2.35,1.36s0,0,0,0l-.06.05s0,0,0,0a.38.38,0,0,0-.08.24v1.59a.35.35,0,1,0,.69,0v-1.11s0-.32.2-.43Z"/><path d="M256.87,171.12l-.69-.4-2.35,1.36,0,0-.06,0a0,0,0,0,1,0,0,.41.41,0,0,0-.08.24V174a.35.35,0,1,0,.7,0v-1.1s0-.32.19-.43Z"/><path d="M259.84,172.78l-.7-.4-2.34,1.37-.05,0s0,0-.05.05v0a.42.42,0,0,0-.09.24v1.59a.35.35,0,1,0,.7,0v-1.11s0-.32.19-.42Z"/><path d="M262.8,174.45l-.7-.4-2.34,1.36s0,0,0,0l-.06.05s0,0,0,0a.38.38,0,0,0-.08.24v1.59a.35.35,0,1,0,.69,0v-1.11s0-.32.19-.43Z"/><path d="M265.76,176.12l-.69-.4-2.35,1.36s0,0,0,0l-.06,0a0,0,0,0,1,0,0,.41.41,0,0,0-.08.24V179a.36.36,0,0,0,.35.39.37.37,0,0,0,.35-.39v-1.1s0-.32.19-.43Z"/><path d="M268.73,177.78l-.7-.4-2.34,1.37-.05,0-.05.05v0a.42.42,0,0,0-.09.24v1.59a.35.35,0,1,0,.7,0v-1.11s0-.32.19-.42Z"/><path d="M271.69,179.45l-.7-.4-2.34,1.36s0,0,0,0l-.06.05v0a.39.39,0,0,0-.09.24v1.59a.37.37,0,0,0,.35.38.36.36,0,0,0,.35-.38v-1.11s0-.32.19-.43Z"/><path d="M274.65,181.12l-.69-.4-2.35,1.36a.08.08,0,0,0,0,0l-.06,0h0a.41.41,0,0,0-.08.24V184a.36.36,0,0,0,.35.39.37.37,0,0,0,.35-.39v-1.1s0-.32.19-.43Z"/><path d="M277.61,182.78l-.69-.4-2.35,1.37,0,0-.06.05v0a.41.41,0,0,0-.08.24v1.59a.35.35,0,1,0,.7,0v-1.11s0-.32.19-.42Z"/><path d="M313.88,164.23l.7-.4,2.34,1.36.05,0s0,0,0,.05,0,0,0,0a.39.39,0,0,1,.09.24v1.59a.35.35,0,1,1-.7,0V166s0-.32-.19-.43Z"/><path d="M310.92,165.9l.7-.4,2.34,1.36a.08.08,0,0,1,0,0l.06,0h0a.41.41,0,0,1,.08.24v1.59a.35.35,0,1,1-.69,0v-1.1s0-.32-.19-.43Z"/><path d="M308,167.56l.69-.4,2.35,1.37,0,0,.06.05v0a.41.41,0,0,1,.08.24v1.59a.36.36,0,0,1-.35.38.37.37,0,0,1-.35-.38v-1.11s0-.32-.19-.42Z"/><path d="M305,169.23l.69-.4,2.35,1.36s0,0,0,0,0,0,.05.05l0,0a.38.38,0,0,1,.08.24v1.59a.35.35,0,1,1-.7,0V171s0-.32-.19-.43Z"/><path d="M302,170.9l.7-.4,2.34,1.36a.08.08,0,0,1,0,0,.15.15,0,0,1,.06,0,0,0,0,0,1,0,0,.42.42,0,0,1,.09.24v1.59a.38.38,0,0,1-.35.39.37.37,0,0,1-.35-.39v-1.1s0-.32-.19-.43Z"/><path d="M299.07,172.56l.69-.4,2.35,1.37,0,0,.06.05v0a.41.41,0,0,1,.08.24v1.59a.35.35,0,1,1-.69,0v-1.11s0-.32-.2-.42Z"/><path d="M296.11,174.23l.69-.4,2.35,1.36,0,0,.06.05v0a.38.38,0,0,1,.08.24v1.59a.35.35,0,1,1-.7,0V176s0-.32-.19-.43Z"/><path d="M293.14,175.9l.7-.4,2.34,1.36.05,0,0,0a0,0,0,0,1,0,0,.42.42,0,0,1,.09.24v1.59a.35.35,0,1,1-.7,0v-1.1s0-.32-.19-.43Z"/><path d="M290.18,177.56l.7-.4,2.34,1.37,0,0,.06.05v0a.41.41,0,0,1,.08.24v1.59a.35.35,0,1,1-.69,0v-1.11s0-.32-.19-.42Z"/><path d="M287.22,179.23l.69-.4,2.35,1.36,0,0,.06.05v0a.38.38,0,0,1,.08.24v1.59a.36.36,0,0,1-.35.38.37.37,0,0,1-.35-.38V181s0-.32-.19-.43Z"/><path d="M284.25,180.9l.7-.4,2.34,1.36,0,0a.12.12,0,0,1,.05,0h0a.49.49,0,0,1,.08.24v1.59a.35.35,0,1,1-.7,0v-1.1s0-.32-.19-.43Z"/><path d="M281.29,182.56l.7-.4,2.34,1.37,0,0,.06.05v0a.42.42,0,0,1,.09.24v1.59a.37.37,0,0,1-.35.38.36.36,0,0,1-.35-.38v-1.11s0-.32-.19-.42Z"/></g></g></svg>