<?xml version="1.0" encoding="utf-8"?>
<!-- Generator: Adobe Illustrator 22.1.0, SVG Export Plug-In . SVG Version: 6.00 Build 0)  -->
<svg version="1.1" id="Layer_1" xmlns="http://www.w3.org/2000/svg" xmlns:xlink="http://www.w3.org/1999/xlink" x="0px" y="0px"
	 viewBox="0 0 1930.2 82.7" style="enable-background:new 0 0 1930.2 82.7;" xml:space="preserve">
<style type="text/css">
	.st0{fill:none;stroke:#282829;stroke-width:2.539;stroke-linecap:round;stroke-linejoin:round;stroke-miterlimit:10;}
</style>
<polyline class="st0" points="170.5,1.6 146.3,28.2 136.4,1.6 "/>
<line class="st0" x1="204.4" y1="1.6" x2="187.5" y2="1.6"/>
<polyline class="st0" points="238.6,1.6 214.3,28.2 204.4,1.6 "/>
<line class="st0" x1="146.6" y1="28.2" x2="180.7" y2="28.2"/>
<polyline class="st0" points="163.7,28.1 187.8,1.6 197.7,28.2 "/>
<line class="st0" x1="207.5" y1="54.8" x2="183.3" y2="81.4"/>
<line class="st0" x1="190.6" y1="54.8" x2="180.7" y2="28.2"/>
<polyline class="st0" points="197.6,28.2 214.9,28.2 224.7,54.8 "/>
<path class="st0" d="M197.6,28.2"/>
<line class="st0" x1="214.6" y1="28.2" x2="248.8" y2="28.2"/>
<line class="st0" x1="241.5" y1="54.8" x2="224.5" y2="54.8"/>
<polyline class="st0" points="231.8,28.1 255.8,1.6 265.7,28.2 "/>
<path class="st0" d="M241.5,54.8"/>
<path class="st0" d="M275.6,54.8"/>
<polyline class="st0" points="265.7,28.2 282.9,28.2 292.8,54.8 258.7,54.8 248.8,28.2 "/>
<path class="st0" d="M241.5,54.8"/>
<path class="st0" d="M265.7,28.2"/>
<polyline class="st0" points="34.1,1.6 9.9,28.2 0,1.6 "/>
<line class="st0" x1="68.1" y1="1.6" x2="51.1" y2="1.6"/>
<polyline class="st0" points="102.2,1.6 78,28.2 68.1,1.6 "/>
<polyline class="st0" points="37,54.8 20.1,54.8 10.2,28.2 44.3,28.2 "/>
<polyline class="st0" points="27.4,28.1 51.4,1.6 61.3,28.2 "/>
<path class="st0" d="M37,54.8"/>
<path class="st0" d="M71.2,54.8"/>
<line class="st0" x1="54.2" y1="54.8" x2="44.3" y2="28.2"/>
<polyline class="st0" points="61.2,28.2 78.5,28.2 88.4,54.8 "/>
<line class="st0" x1="61.3" y1="28.2" x2="37" y2="54.8"/>
<line class="st0" x1="78.3" y1="28.2" x2="112.4" y2="28.2"/>
<line class="st0" x1="105.1" y1="54.8" x2="88.2" y2="54.8"/>
<polyline class="st0" points="95.5,28.1 119.5,1.6 129.4,28.2 "/>
<line class="st0" x1="115" y1="81.4" x2="105.1" y2="54.8"/>
<line class="st0" x1="122.3" y1="54.8" x2="112.4" y2="28.2"/>
<line class="st0" x1="129.3" y1="28.2" x2="146.6" y2="28.2"/>
<line class="st0" x1="129.4" y1="28.2" x2="105.1" y2="54.8"/>
<polyline class="st0" points="443.4,1.6 419.2,28.2 409.3,1.6 "/>
<line class="st0" x1="477.3" y1="1.6" x2="460.4" y2="1.6"/>
<polyline class="st0" points="511.5,1.6 487.2,28.2 477.3,1.6 "/>
<polyline class="st0" points="429.3,54.8 419.5,28.2 453.6,28.2 "/>
<polyline class="st0" points="436.6,28.1 460.7,1.6 470.6,28.2 "/>
<path class="st0" d="M480.4,54.8"/>
<path class="st0" d="M453.6,28.2"/>
<polyline class="st0" points="470.5,28.2 487.8,28.2 497.6,54.8 463.5,54.8 "/>
<path class="st0" d="M470.5,28.2"/>
<line class="st0" x1="487.5" y1="28.2" x2="521.7" y2="28.2"/>
<line class="st0" x1="514.4" y1="54.8" x2="497.4" y2="54.8"/>
<polyline class="st0" points="504.7,28.1 528.8,1.6 538.6,28.2 "/>
<line class="st0" x1="524.3" y1="81.4" x2="514.4" y2="54.8"/>
<line class="st0" x1="531.6" y1="54.8" x2="521.7" y2="28.2"/>
<line class="st0" x1="538.6" y1="28.2" x2="555.8" y2="28.2"/>
<line class="st0" x1="538.6" y1="28.2" x2="514.4" y2="54.8"/>
<polyline class="st0" points="307,1.6 282.8,28.2 272.9,1.6 "/>
<line class="st0" x1="341" y1="1.6" x2="324" y2="1.6"/>
<polyline class="st0" points="375.1,1.6 350.9,28.2 341,1.6 "/>
<polyline class="st0" points="309.9,54.8 293,54.8 283.1,28.2 317.2,28.2 "/>
<polyline class="st0" points="300.3,28.1 324.3,1.6 334.2,28.2 "/>
<line class="st0" x1="319.8" y1="81.4" x2="309.9" y2="54.8"/>
<line class="st0" x1="327.1" y1="54.8" x2="317.2" y2="28.2"/>
<line class="st0" x1="334.1" y1="28.2" x2="351.4" y2="28.2"/>
<line class="st0" x1="334.2" y1="28.2" x2="309.9" y2="54.8"/>
<line class="st0" x1="351.2" y1="28.2" x2="385.3" y2="28.2"/>
<path class="st0" d="M378,54.8"/>
<polyline class="st0" points="368.4,28.1 392.4,1.6 402.3,28.2 "/>
<line class="st0" x1="387.9" y1="81.4" x2="378" y2="54.8"/>
<path class="st0" d="M385.3,28.2"/>
<polyline class="st0" points="402.2,28.2 419.5,28.2 429.4,54.8 "/>
<line class="st0" x1="402.3" y1="28.2" x2="378" y2="54.8"/>
<polyline class="st0" points="716.3,1.6 692.1,28.2 682.2,1.6 "/>
<line class="st0" x1="750.2" y1="1.6" x2="733.3" y2="1.6"/>
<polyline class="st0" points="784.4,1.6 760.1,28.2 750.2,1.6 "/>
<polyline class="st0" points="719.2,54.8 702.2,54.8 692.3,28.2 726.5,28.2 "/>
<polyline class="st0" points="709.5,28.1 733.6,1.6 743.5,28.2 "/>
<path class="st0" d="M719.2,54.8"/>
<path class="st0" d="M726.5,28.2"/>
<line class="st0" x1="743.4" y1="28.2" x2="760.7" y2="28.2"/>
<path class="st0" d="M719.2,54.8"/>
<path class="st0" d="M743.4,28.2"/>
<line class="st0" x1="760.4" y1="28.2" x2="794.6" y2="28.2"/>
<path class="st0" d="M787.3,54.8"/>
<polyline class="st0" points="777.6,28.1 801.6,1.6 811.5,28.2 "/>
<path class="st0" d="M787.3,54.8"/>
<path class="st0" d="M821.4,54.8"/>
<polyline class="st0" points="811.5,28.2 828.7,28.2 838.6,54.8 804.5,54.8 794.6,28.2 "/>
<line class="st0" x1="811.5" y1="28.2" x2="787.3" y2="54.8"/>
<polyline class="st0" points="579.9,1.6 555.7,28.2 545.8,1.6 "/>
<line class="st0" x1="613.9" y1="1.6" x2="596.9" y2="1.6"/>
<polyline class="st0" points="648,1.6 623.8,28.2 613.9,1.6 "/>
<line class="st0" x1="556" y1="28.2" x2="590.1" y2="28.2"/>
<path class="st0" d="M582.8,54.8"/>
<polyline class="st0" points="573.2,28.1 597.2,1.6 607.1,28.2 "/>
<path class="st0" d="M582.8,54.8"/>
<path class="st0" d="M616.9,54.8"/>
<polyline class="st0" points="607,28.2 624.3,28.2 634.2,54.8 600,54.8 590.1,28.2 "/>
<line class="st0" x1="607.1" y1="28.2" x2="582.8" y2="54.8"/>
<line class="st0" x1="624.1" y1="28.2" x2="658.2" y2="28.2"/>
<path class="st0" d="M633.9,54.8"/>
<polyline class="st0" points="641.3,28.1 665.3,1.6 675.2,28.2 "/>
<path class="st0" d="M660.8,81.4"/>
<path class="st0" d="M685,54.8"/>
<path class="st0" d="M658.2,28.2"/>
<polyline class="st0" points="675.1,28.2 692.4,28.2 702.3,54.8 668.1,54.8 "/>
<path class="st0" d="M675.2,28.2"/>
<polyline class="st0" points="989.2,1.6 965,28.2 955.1,1.6 "/>
<line class="st0" x1="1023.1" y1="1.6" x2="1006.2" y2="1.6"/>
<polyline class="st0" points="1057.3,1.6 1033,28.2 1023.1,1.6 "/>
<polyline class="st0" points="975.1,54.8 965.3,28.2 999.4,28.2 "/>
<polyline class="st0" points="982.4,28.1 1006.5,1.6 1016.4,28.2 "/>
<path class="st0" d="M1026.2,54.8"/>
<path class="st0" d="M999.4,28.2"/>
<polyline class="st0" points="1016.3,28.2 1033.6,28.2 1043.4,54.8 "/>
<path class="st0" d="M1016.3,28.2"/>
<line class="st0" x1="1033.3" y1="28.2" x2="1067.5" y2="28.2"/>
<line class="st0" x1="1060.2" y1="54.8" x2="1043.2" y2="54.8"/>
<polyline class="st0" points="1050.5,28.1 1074.5,1.6 1084.4,28.2 "/>
<line class="st0" x1="1070.1" y1="81.4" x2="1060.2" y2="54.8"/>
<line class="st0" x1="1077.4" y1="54.8" x2="1067.5" y2="28.2"/>
<polyline class="st0" points="1084.4,28.2 1101.6,28.2 1111.5,54.8 "/>
<line class="st0" x1="1084.4" y1="28.2" x2="1060.2" y2="54.8"/>
<polyline class="st0" points="852.8,1.6 828.6,28.2 818.7,1.6 "/>
<line class="st0" x1="886.8" y1="1.6" x2="869.8" y2="1.6"/>
<polyline class="st0" points="920.9,1.6 896.7,28.2 886.8,1.6 "/>
<line class="st0" x1="838.8" y1="54.8" x2="828.9" y2="28.2"/>
<line class="st0" x1="870.1" y1="1.6" x2="880" y2="28.2"/>
<path class="st0" d="M846.1,28.1"/>
<path class="st0" d="M889.9,54.8"/>
<polyline class="st0" points="879.9,28.2 897.2,28.2 907.1,54.8 872.9,54.8 "/>
<path class="st0" d="M880,28.2"/>
<line class="st0" x1="897" y1="28.2" x2="931.1" y2="28.2"/>
<line class="st0" x1="923.8" y1="54.8" x2="906.8" y2="54.8"/>
<line class="st0" x1="914.2" y1="28.1" x2="938.2" y2="1.6"/>
<line class="st0" x1="933.7" y1="81.4" x2="923.8" y2="54.8"/>
<path class="st0" d="M957.9,54.8"/>
<line class="st0" x1="941" y1="54.8" x2="931.1" y2="28.2"/>
<line class="st0" x1="965.3" y1="28.2" x2="975.2" y2="54.8"/>
<path class="st0" d="M923.8,54.8"/>
<polyline class="st0" points="1262.1,1.6 1237.9,28.2 1228,1.6 "/>
<line class="st0" x1="1296" y1="1.6" x2="1279.1" y2="1.6"/>
<polyline class="st0" points="1330.2,1.6 1305.9,28.2 1296,1.6 "/>
<line class="st0" x1="1238.1" y1="28.2" x2="1272.3" y2="28.2"/>
<path class="st0" d="M1265,54.8"/>
<polyline class="st0" points="1255.3,28.1 1279.4,1.6 1289.3,28.2 "/>
<polyline class="st0" points="1299.1,54.8 1274.9,81.4 1265,54.8 "/>
<line class="st0" x1="1282.2" y1="54.8" x2="1272.3" y2="28.2"/>
<line class="st0" x1="1289.2" y1="28.2" x2="1306.5" y2="28.2"/>
<line class="st0" x1="1289.2" y1="28.2" x2="1265" y2="54.8"/>
<line class="st0" x1="1306.2" y1="28.2" x2="1340.4" y2="28.2"/>
<polyline class="st0" points="1323.4,28.1 1347.4,1.6 1357.3,28.2 "/>
<line class="st0" x1="1367.2" y1="54.8" x2="1343" y2="81.4"/>
<polyline class="st0" points="1357.3,28.2 1374.5,28.2 1384.4,54.8 1350.3,54.8 1340.4,28.2 "/>
<path class="st0" d="M1357.3,28.2"/>
<polyline class="st0" points="1125.7,1.6 1101.5,28.2 1091.6,1.6 "/>
<line class="st0" x1="1159.7" y1="1.6" x2="1142.7" y2="1.6"/>
<polyline class="st0" points="1193.8,1.6 1169.6,28.2 1159.7,1.6 "/>
<polyline class="st0" points="1128.6,54.8 1111.7,54.8 1101.8,28.2 1135.9,28.2 "/>
<polyline class="st0" points="1119,28.1 1143,1.6 1152.9,28.2 "/>
<line class="st0" x1="1138.5" y1="81.4" x2="1128.6" y2="54.8"/>
<path class="st0" d="M1162.8,54.8"/>
<line class="st0" x1="1145.8" y1="54.8" x2="1135.9" y2="28.2"/>
<polyline class="st0" points="1152.8,28.2 1170.1,28.2 1180,54.8 "/>
<line class="st0" x1="1152.9" y1="28.2" x2="1128.6" y2="54.8"/>
<line class="st0" x1="1169.9" y1="28.2" x2="1204" y2="28.2"/>
<path class="st0" d="M1179.7,54.8"/>
<path class="st0" d="M1196.7,54.8"/>
<polyline class="st0" points="1187.1,28.1 1211.1,1.6 1221,28.2 "/>
<path class="st0" d="M1196.7,54.8"/>
<path class="st0" d="M1230.8,54.8"/>
<line class="st0" x1="1213.9" y1="54.8" x2="1204" y2="28.2"/>
<line class="st0" x1="1220.9" y1="28.2" x2="1238.2" y2="28.2"/>
<line class="st0" x1="1220.9" y1="28.2" x2="1196.7" y2="54.8"/>
<polyline class="st0" points="1535,1.6 1510.8,28.2 1500.9,1.6 "/>
<line class="st0" x1="1568.9" y1="1.6" x2="1552" y2="1.6"/>
<polyline class="st0" points="1603.1,1.6 1578.8,28.2 1568.9,1.6 "/>
<polyline class="st0" points="1537.9,54.8 1520.9,54.8 1511,28.2 1545.2,28.2 "/>
<polyline class="st0" points="1528.2,28.1 1552.3,1.6 1562.2,28.2 "/>
<line class="st0" x1="1547.8" y1="81.4" x2="1537.9" y2="54.8"/>
<line class="st0" x1="1555.1" y1="54.8" x2="1545.2" y2="28.2"/>
<line class="st0" x1="1562.1" y1="28.2" x2="1579.4" y2="28.2"/>
<line class="st0" x1="1562.1" y1="28.2" x2="1537.9" y2="54.8"/>
<line class="st0" x1="1579.1" y1="28.2" x2="1613.3" y2="28.2"/>
<polyline class="st0" points="1596.3,28.1 1620.3,1.6 1630.2,28.2 "/>
<path class="st0" d="M1615.9,81.4"/>
<path class="st0" d="M1640.1,54.8"/>
<polyline class="st0" points="1630.2,28.2 1647.4,28.2 1657.3,54.8 1623.2,54.8 1613.3,28.2 "/>
<path class="st0" d="M1630.2,28.2"/>
<polyline class="st0" points="1398.6,1.6 1374.4,28.2 1364.5,1.6 "/>
<line class="st0" x1="1432.6" y1="1.6" x2="1415.6" y2="1.6"/>
<polyline class="st0" points="1466.7,1.6 1442.5,28.2 1432.6,1.6 "/>
<polyline class="st0" points="1384.6,54.8 1374.7,28.2 1408.8,28.2 "/>
<polyline class="st0" points="1391.9,28.1 1415.9,1.6 1425.8,28.2 "/>
<line class="st0" x1="1435.6" y1="54.8" x2="1411.4" y2="81.4"/>
<line class="st0" x1="1418.7" y1="54.8" x2="1408.8" y2="28.2"/>
<polyline class="st0" points="1425.7,28.2 1443,28.2 1452.9,54.8 "/>
<path class="st0" d="M1425.8,28.2"/>
<line class="st0" x1="1442.8" y1="28.2" x2="1476.9" y2="28.2"/>
<line class="st0" x1="1469.6" y1="54.8" x2="1452.6" y2="54.8"/>
<polyline class="st0" points="1460,28.1 1484,1.6 1493.9,28.2 "/>
<line class="st0" x1="1479.5" y1="81.4" x2="1469.6" y2="54.8"/>
<line class="st0" x1="1486.8" y1="54.8" x2="1476.9" y2="28.2"/>
<polyline class="st0" points="1493.8,28.2 1511.1,28.2 1521,54.8 "/>
<line class="st0" x1="1493.8" y1="28.2" x2="1469.6" y2="54.8"/>
<polyline class="st0" points="1807.9,1.6 1783.7,28.2 1773.8,1.6 "/>
<line class="st0" x1="1841.8" y1="1.6" x2="1824.9" y2="1.6"/>
<polyline class="st0" points="1876,1.6 1851.7,28.2 1841.8,1.6 "/>
<polyline class="st0" points="1810.8,54.8 1793.8,54.8 1783.9,28.2 1818.1,28.2 "/>
<polyline class="st0" points="1801.1,28.1 1825.2,1.6 1835.1,28.2 "/>
<line class="st0" x1="1820.7" y1="81.4" x2="1810.8" y2="54.8"/>
<path class="st0" d="M1844.9,54.8"/>
<line class="st0" x1="1828" y1="54.8" x2="1818.1" y2="28.2"/>
<polyline class="st0" points="1835,28.2 1852.3,28.2 1862.1,54.8 "/>
<line class="st0" x1="1835" y1="28.2" x2="1810.8" y2="54.8"/>
<line class="st0" x1="1852" y1="28.2" x2="1886.2" y2="28.2"/>
<line class="st0" x1="1878.9" y1="54.8" x2="1861.9" y2="54.8"/>
<polyline class="st0" points="1869.2,28.1 1893.2,1.6 1903.1,28.2 "/>
<path class="st0" d="M1878.9,54.8"/>
<path class="st0" d="M1913,54.8"/>
<polyline class="st0" points="1903.1,28.2 1920.3,28.2 1930.2,54.8 1896.1,54.8 1886.2,28.2 "/>
<line class="st0" x1="1903.1" y1="28.2" x2="1878.9" y2="54.8"/>
<polyline class="st0" points="1671.5,1.6 1647.3,28.2 1637.4,1.6 "/>
<line class="st0" x1="1705.5" y1="1.6" x2="1688.5" y2="1.6"/>
<polyline class="st0" points="1739.6,1.6 1715.4,28.2 1705.5,1.6 "/>
<polyline class="st0" points="1657.5,54.8 1647.6,28.2 1681.7,28.2 "/>
<path class="st0" d="M1674.4,54.8"/>
<polyline class="st0" points="1664.8,28.1 1688.8,1.6 1698.7,28.2 "/>
<path class="st0" d="M1674.4,54.8"/>
<line class="st0" x1="1691.6" y1="54.8" x2="1681.7" y2="28.2"/>
<polyline class="st0" points="1698.6,28.2 1715.9,28.2 1725.8,54.8 "/>
<line class="st0" x1="1698.7" y1="28.2" x2="1674.4" y2="54.8"/>
<line class="st0" x1="1715.7" y1="28.2" x2="1749.8" y2="28.2"/>
<line class="st0" x1="1742.5" y1="54.8" x2="1725.5" y2="54.8"/>
<polyline class="st0" points="1732.9,28.1 1756.9,1.6 1766.8,28.2 "/>
<path class="st0" d="M1742.5,54.8"/>
<line class="st0" x1="1776.6" y1="54.8" x2="1752.4" y2="81.4"/>
<path class="st0" d="M1749.8,28.2"/>
<polyline class="st0" points="1766.7,28.2 1784,28.2 1793.9,54.8 "/>
<line class="st0" x1="1766.7" y1="28.2" x2="1742.5" y2="54.8"/>
</svg>
