<svg xmlns="http://www.w3.org/2000/svg" viewBox="0 0 832.88 577.54"><defs><style>.cls-1{fill:#010101;stroke-miterlimit:10;stroke-width:4px;}.cls-1,.cls-3{stroke:#fff;}.cls-2{fill:#030303;}.cls-3{fill:none;stroke-linecap:round;stroke-linejoin:round;stroke-width:3.92px;}.cls-4{fill:#fff;}.cls-5{fill:#1d1d1d;}</style></defs><title>Ativo 17</title><g id="Camada_2" data-name="Camada 2"><g id="Layer_1" data-name="Layer 1"><polygon class="cls-1" points="413.74 575.23 825.31 337.6 423.05 103.35 6.03 340.82 413.74 575.23"/><polygon class="cls-1" points="414.74 549.23 826.31 311.6 424.05 77.35 7.03 314.82 414.74 549.23"/><polygon class="cls-1" points="412.74 523.05 824.31 285.42 422.05 51.17 5.03 288.64 412.74 523.05"/><polygon class="cls-1" points="85.38 334.67 167.5 287.26 87.24 240.52 4.03 287.9 85.38 334.67"/><polygon class="cls-1" points="168.73 287.34 250.85 239.93 170.59 193.18 87.38 240.57 168.73 287.34"/><polygon class="cls-1" points="252.07 240 334.2 192.59 253.93 145.85 170.72 193.23 252.07 240"/><polygon class="cls-1" points="335.42 192.67 417.55 145.26 337.28 98.52 254.07 145.9 335.42 192.67"/><polygon class="cls-1" points="418.77 145.34 500.89 97.92 420.63 51.18 337.42 98.56 418.77 145.34"/><polygon class="cls-1" points="167.38 380.67 249.5 333.26 169.24 286.52 86.03 333.9 167.38 380.67"/><polygon class="cls-1" points="250.73 333.34 332.85 285.93 252.59 239.18 169.38 286.57 250.73 333.34"/><polygon class="cls-1" points="334.07 286 416.2 238.59 335.93 191.85 252.72 239.23 334.07 286"/><polygon class="cls-1" points="417.42 238.67 499.55 191.26 419.28 144.52 336.07 191.9 417.42 238.67"/><polygon class="cls-1" points="500.77 191.34 582.89 143.92 502.63 97.18 419.42 144.56 500.77 191.34"/><polygon class="cls-1" points="249.38 426.67 331.5 379.26 251.24 332.52 168.03 379.9 249.38 426.67"/><polygon class="cls-1" points="332.73 379.34 414.85 331.93 334.58 285.18 251.38 332.57 332.73 379.34"/><polygon class="cls-1" points="416.07 332 498.2 284.59 417.93 237.85 334.72 285.23 416.07 332"/><polygon class="cls-1" points="499.42 284.67 581.55 237.26 501.28 190.52 418.07 237.9 499.42 284.67"/><polygon class="cls-1" points="582.77 237.34 664.89 189.92 584.63 143.18 501.42 190.56 582.77 237.34"/><polygon class="cls-1" points="331.38 472.67 413.5 425.26 333.24 378.52 250.03 425.9 331.38 472.67"/><polygon class="cls-1" points="414.73 425.34 496.85 377.93 416.58 331.18 333.38 378.57 414.73 425.34"/><polygon class="cls-1" points="498.07 378 580.2 330.59 499.93 283.85 416.72 331.23 498.07 378"/><polygon class="cls-1" points="581.42 330.67 663.55 283.26 583.28 236.52 500.07 283.9 581.42 330.67"/><polygon class="cls-1" points="664.77 283.34 746.89 235.92 666.63 189.18 583.42 236.56 664.77 283.34"/><polygon class="cls-1" points="413.38 518.67 495.5 471.26 415.24 424.52 332.03 471.9 413.38 518.67"/><polygon class="cls-1" points="496.73 471.34 578.85 423.93 498.58 377.18 415.38 424.57 496.73 471.34"/><polygon class="cls-1" points="580.08 424 662.2 376.59 581.93 329.85 498.72 377.23 580.08 424"/><polygon class="cls-1" points="663.42 376.67 745.55 329.26 665.28 282.52 582.07 329.9 663.42 376.67"/><polygon class="cls-1" points="746.77 329.34 828.89 281.92 748.63 235.18 665.42 282.56 746.77 329.34"/><path class="cls-2" d="M606,26.66a2,2,0,0,0-.52-.19L560.09.26A2,2,0,0,0,557.8.5l-.16.07L533,15.2c-.53.32-.55.84-.63,1.4-.22.32-.05.7-.05,1.12V39.39l-12,7h-.21a2.21,2.21,0,0,0-1.42.22L451.1,85.63a2,2,0,0,0-.93,1.22,2.57,2.57,0,0,0-.42.45L431.5,116.09l-9.31-5.37a2,2,0,0,0-2.28.23l-.15.07-51.6,30.65a1.76,1.76,0,0,0-.64,2c0,.07.28.14.28.21v15l-41.84,24-15.67-9,3.66-2.16a3.51,3.51,0,0,0,1.23-4.79,3.53,3.53,0,0,0-3.07-1.73h0a3.47,3.47,0,0,0-1.76.45l-17.15,9.88a3.53,3.53,0,0,0-1.29,4.81,3.39,3.39,0,0,0,.51.67l-25.7,15a1.94,1.94,0,0,0-1.35,1.75s.29,0,.29.06.3,0,.3,0v19.9L202.4,254.38a2.12,2.12,0,0,0-1.1,1.43s-.09.05-.09.07a1.55,1.55,0,0,0,0,.21c0,.07,0,.14,0,.21s0,.05,0,.07h.29c0,.09.27.18.27.27v22.71s-.29.08-.29.12a2.09,2.09,0,0,0,1.12,1.82l16.4,9.39v23.93s-.29.07-.28.11a1.82,1.82,0,0,0,.82,1.82l113.12,65.36.19.09a3.35,3.35,0,0,0,1.42.45,1.88,1.88,0,0,0,1-.26L588.84,235.75a1.93,1.93,0,0,0,1.44-.88l45-71.05.06,0a2,2,0,0,0,.69-.66l10.51-17a2.12,2.12,0,0,0,.11-.21l37.68-59.44a1.9,1.9,0,0,0,.27-.68,2.28,2.28,0,0,0-1.59-3.07L620.49,46.41a2.61,2.61,0,0,1-.45-.25V46c0-.22-.34-.43-.41-.63a2,2,0,0,0-1-1.27L607.17,37.5"/><line class="cls-3" x1="682.53" y1="84.89" x2="565.45" y2="152.62"/><line class="cls-3" x1="540.24" y1="191.93" x2="316.48" y2="321.37"/><line class="cls-3" x1="682.53" y1="85.67" x2="588.44" y2="234.09"/><line class="cls-3" x1="564.8" y1="153.64" x2="540.69" y2="191.68"/><line class="cls-3" x1="588.19" y1="234.02" x2="334.02" y2="380.76"/><line class="cls-3" x1="333.72" y1="380.69" x2="333.72" y2="353.27"/><line class="cls-3" x1="333.64" y1="352.74" x2="316.86" y2="345.66"/><line class="cls-3" x1="316.48" y1="344.65" x2="316.48" y2="321.15"/><line class="cls-3" x1="519.39" y1="48.54" x2="451.86" y2="87.6"/><line class="cls-3" x1="267.13" y1="219.19" x2="202.89" y2="256.35"/><line class="cls-3" x1="368.49" y1="160.56" x2="325.94" y2="185.17"/><line class="cls-3" x1="451.21" y1="88.62" x2="432.11" y2="118.76"/><line class="cls-3" x1="220.13" y1="314.89" x2="220.13" y2="290.6"/><line class="cls-3" x1="202.89" y1="279.63" x2="202.89" y2="256.92"/><polygon class="cls-3" points="340.77 268.14 301.6 291.1 301.6 217.81 340.77 194.85 340.77 268.14"/><line class="cls-3" x1="267.13" y1="198.23" x2="301.6" y2="178.15"/><line class="cls-3" x1="267.13" y1="271.02" x2="267.13" y2="198.16"/><polygon class="cls-3" points="414.41 243.16 387.77 258.36 387.77 234.06 414.41 218.86 414.41 243.16"/><polygon class="cls-3" points="441.04 227.96 414.41 243.16 414.41 218.86 441.04 203.66 441.04 227.96"/><polygon class="cls-3" points="466.89 212.76 441.04 227.96 441.04 203.66 466.89 188.47 466.89 212.76"/><polygon class="cls-3" points="493.53 197.57 466.89 212.76 466.89 188.47 493.53 173.27 493.53 197.57"/><polygon class="cls-3" points="479.43 181.06 453.57 196.26 453.57 171.96 479.43 156.76 479.43 181.06"/><polygon class="cls-3" points="466.89 164.17 441.04 179.37 441.04 155.07 466.89 139.87 466.89 164.17"/><polygon class="cls-3" points="328.24 232.91 312.57 241.46 312.57 227.43 328.24 218.87 328.24 232.91"/><polygon class="cls-3" points="441.04 179.08 414.41 194.28 414.41 169.98 441.04 154.78 441.04 179.08"/><polygon class="cls-3" points="453.57 196.26 427.72 211.46 427.72 187.16 453.57 171.96 453.57 196.26"/><polygon class="cls-3" points="427.72 211.46 401.09 226.66 401.09 202.36 427.72 187.16 427.72 211.46"/><line class="cls-3" x1="368.97" y1="143.62" x2="420.58" y2="112.98"/><line class="cls-3" x1="368.97" y1="167.61" x2="368.97" y2="144.11"/><line class="cls-3" x1="533.48" y1="41.49" x2="533.48" y2="17.99"/><line class="cls-3" x1="520.16" y1="72.04" x2="520.16" y2="48.54"/><line class="cls-3" x1="506.84" y1="103.37" x2="506.84" y2="79.87"/><line class="cls-3" x1="354.87" y1="198.95" x2="354.87" y2="175.45"/><line class="cls-3" x1="355.65" y1="174.94" x2="368.49" y2="167.61"/><polygon class="cls-3" points="634.21 162.36 316.49 345.58 316.49 334.75 644.73 145.34 634.21 162.36"/><line class="cls-3" x1="306.1" y1="174.25" x2="340.38" y2="194.04"/><line class="cls-3" x1="202.89" y1="256.37" x2="316.09" y2="321.73"/><line class="cls-3" x1="369.48" y1="144.56" x2="414.94" y2="170.8"/><line class="cls-3" x1="395.93" y1="128.28" x2="441.39" y2="154.53"/><line class="cls-3" x1="421.02" y1="112.68" x2="466.48" y2="138.93"/><line class="cls-3" x1="467.34" y1="149.62" x2="479.36" y2="156.56"/><line class="cls-3" x1="480.9" y1="165.9" x2="492.93" y2="172.84"/><line class="cls-3" x1="355.24" y1="175.75" x2="400.7" y2="202"/><line class="cls-3" x1="340.77" y1="230.28" x2="340.77" y2="206.78"/><line class="cls-3" x1="341.55" y1="206.27" x2="354.39" y2="198.95"/><line class="cls-3" x1="341.14" y1="207.09" x2="386.6" y2="233.33"/><line class="cls-3" x1="355.24" y1="198.92" x2="399.91" y2="224.72"/><line class="cls-3" x1="340.77" y1="231.49" x2="387.38" y2="258.4"/><line class="cls-3" x1="267.61" y1="198.14" x2="301.21" y2="217.54"/><line class="cls-3" x1="267.48" y1="271.71" x2="301.21" y2="291.18"/><line class="cls-3" x1="368.8" y1="167.61" x2="414.26" y2="193.86"/><polygon class="cls-3" points="581.27 115.94 554.63 131.14 554.63 106.84 581.27 91.64 581.27 115.94"/><polygon class="cls-3" points="607.12 100.74 581.27 115.94 581.27 91.64 607.12 76.44 607.12 100.74"/><polygon class="cls-3" points="633.75 85.55 607.12 100.74 607.12 76.44 633.75 61.25 633.75 85.55"/><polygon class="cls-3" points="617.3 70.61 591.45 85.8 591.45 61.51 617.3 46.31 617.3 70.61"/><polygon class="cls-3" points="604.77 52.93 578.92 68.13 578.92 43.83 604.77 28.63 604.77 52.93"/><polygon class="cls-3" points="591.45 85.02 565.6 100.22 565.6 75.92 591.45 60.72 591.45 85.02"/><line class="cls-3" x1="533.8" y1="17.16" x2="558.45" y2="2.52"/><line class="cls-3" x1="533.8" y1="17.82" x2="579.26" y2="44.07"/><line class="cls-3" x1="520.48" y1="48.49" x2="532.55" y2="41.32"/><line class="cls-3" x1="507.17" y1="79.04" x2="519.24" y2="71.88"/><line class="cls-3" x1="520.48" y1="49.16" x2="565.94" y2="75.4"/><line class="cls-3" x1="507.95" y1="79.71" x2="553.41" y2="105.96"/><line class="cls-3" x1="519.7" y1="71.88" x2="565.16" y2="98.12"/><line class="cls-3" x1="506.84" y1="103.69" x2="554.19" y2="131.03"/><line class="cls-3" x1="533.8" y1="41.32" x2="579.26" y2="67.57"/><line class="cls-3" x1="558.89" y1="2.23" x2="604.35" y2="28.47"/><line class="cls-3" x1="605.22" y1="39.16" x2="617.24" y2="46.11"/><line class="cls-3" x1="618.23" y1="52.06" x2="633.69" y2="60.99"/><line class="cls-3" x1="202.89" y1="279.88" x2="316.09" y2="345.23"/><line class="cls-3" x1="220.13" y1="315.13" x2="333.33" y2="380.48"/><line class="cls-3" x1="619.03" y1="48.38" x2="682.71" y2="85.15"/><line class="cls-3" x1="466.89" y1="148.29" x2="539.36" y2="190.12"/><line class="cls-3" x1="451.97" y1="87.6" x2="564.42" y2="152.52"/><path class="cls-4" d="M294.78,193.39A2.75,2.75,0,0,1,292.4,192a2.75,2.75,0,0,1,1-3.74l17.16-9.91a2.71,2.71,0,0,1,1.36-.36,2.75,2.75,0,0,1,2.38,1.37,2.7,2.7,0,0,1,.27,2.08,2.66,2.66,0,0,1-1.27,1.66L296.15,193A2.78,2.78,0,0,1,294.78,193.39Z"/><path class="cls-5" d="M311.92,178.79a2,2,0,0,1,1,3.66l-17.16,9.9a1.91,1.91,0,0,1-1,.26,2,2,0,0,1-1-3.65L311,179.05a2,2,0,0,1,1-.26m0-1.57h0a3.55,3.55,0,0,0-1.76.48L293,187.6a3.5,3.5,0,0,0-1.64,2.14,3.52,3.52,0,0,0,3.41,4.44,3.48,3.48,0,0,0,1.75-.47l17.16-9.91a3.5,3.5,0,0,0,1.64-2.14A3.46,3.46,0,0,0,315,179a3.54,3.54,0,0,0-3.06-1.77Z"/><path class="cls-4" d="M294.78,181.64a2.74,2.74,0,0,1-1.38-5.11l17.16-9.91a2.69,2.69,0,0,1,1.36-.36,2.74,2.74,0,0,1,1.38,5.11l-17.15,9.91A2.75,2.75,0,0,1,294.78,181.64Z"/><path class="cls-5" d="M311.92,167a2,2,0,0,1,1,3.66l-17.16,9.9a1.91,1.91,0,0,1-1,.26,2,2,0,0,1-1-3.65L311,167.3a1.91,1.91,0,0,1,1-.26m0-1.57h0a3.55,3.55,0,0,0-1.76.48L293,175.85a3.53,3.53,0,0,0,1.77,6.58,3.58,3.58,0,0,0,1.75-.47l17.16-9.91a3.53,3.53,0,0,0-1.77-6.58Z"/><line class="cls-3" x1="303.17" y1="200.51" x2="303.17" y2="174.66"/></g></g></svg>