<svg xmlns="http://www.w3.org/2000/svg" width="590" height="875"><path stroke="#FFF" stroke-width="1.575" stroke-linecap="round" stroke-linejoin="round" stroke-miterlimit="10" d="M274.886 872.222l274.528-158.499-268.317-156.25L2.937 715.868z"/><path stroke="#FFF" stroke-width="1.575" stroke-linecap="round" stroke-linejoin="round" stroke-miterlimit="10" d="M274.886 715.667l274.528-158.499-268.317-156.251L2.937 559.315z"/><g data-stellar-ratio="2"><path stroke="#FFF" stroke-width="1.575" stroke-linecap="round" stroke-linejoin="round" stroke-miterlimit="10" d="M114.405 430.82l235.472-133.686M52.561 400.111l235.472-133.686M163.711 467.814l234.244-133.452m-177.349 165.98l235.472-133.687m-183.011 168.66l235.472-133.686m-339.131-65.923l226.123 131.871m-170.25-165.993l226.123 131.872M107.43 369.694l227.874 130.648m-53.43-230.451l227.874 130.647m-462.029 3.277l227.874 130.648m-227.414-104.3l44.986-25.972-43.967-25.605-45.581 25.956zm58.511-33.227l44.986-25.974-43.968-25.604-45.579 25.956zm58.512-33.23l44.985-25.973-43.968-25.603-45.579 25.955zm58.51-33.229l44.985-25.972-43.967-25.602-45.58 25.953zm58.511-33.228l44.986-25.972-43.967-25.605-45.581 25.956zM105.744 463.157l44.985-25.972-43.968-25.604-45.579 25.955zm58.51-33.929l44.985-25.974-43.966-25.604-45.581 25.956zm58.512-33.231l44.985-25.972-43.967-25.602-45.58 25.954zm58.511-33.228l44.986-25.972-43.968-25.602-45.581 25.953zm58.51-33.227l44.985-25.972-43.966-25.606-45.58 25.956zM163.308 494.747l44.985-25.972-43.967-25.605-45.579 25.957zm58.511-33.227l44.985-25.974-43.967-25.603-45.58 25.956zm58.512-33.231l44.983-25.972-43.966-25.602-45.58 25.955zm58.51-33.227l44.985-25.972-43.967-25.603-45.579 25.953zm58.51-33.229l44.986-25.971-43.966-25.606-45.581 25.957zM220.872 527.04l44.985-25.972-43.966-25.605-45.581 25.956zm58.511-33.228l44.986-25.975-43.968-25.602-45.579 25.956zm58.512-33.231l44.984-25.972-43.966-25.602-45.58 25.955zm58.511-33.227l44.985-25.972-43.968-25.604-45.579 25.954zm58.51-33.228l44.986-25.972-43.967-25.605-45.58 25.956zM278.437 559.332l44.986-25.972-43.968-25.605-45.58 25.956zm58.511-33.228l44.985-25.974-43.967-25.603-45.58 25.956zm58.51-33.231l44.986-25.971-43.967-25.602-45.58 25.954zm58.512-33.227l44.984-25.972-43.967-25.604-45.58 25.955zm58.51-33.228l44.986-25.972-43.967-25.605-45.58 25.956z"/><g stroke="#FFF" stroke-width="1.575" stroke-linecap="round" stroke-linejoin="round" stroke-miterlimit="10"><path d="M450.896 372.425c0 1.725 1.345 2.317 3.071 1.32L583.66 298.85c1.727-.997 3.098-3.205 3.098-4.931V164.2c0-1.727-1.4-2.319-3.126-1.322l-129.665 74.895c-1.727.996-3.071 3.204-3.071 4.93v129.722z"/><path d="M516.969 300.731l15.485-31.663 12.394-7.459-6.772-19.504-11.012 6.195-7.116-18.699-15.142 31.436-12.276 7.571 6.424 19.045 11.359-5.967zm-6.656-19.045l16.751-33.386"/><path d="M532.454 269.068l-10.322 5.505-7.116-19.273-10.21 5.737m-53.631 90.797l135.026-77.301"/></g><g stroke-linecap="round" stroke-linejoin="round" stroke-miterlimit="10"><path stroke="#FFF" stroke-width="1.575" d="M335.128 296.625c0 1.725 1.345 2.317 3.071 1.32l129.693-74.895c1.727-.997 3.098-3.205 3.098-4.931V88.399c0-1.727-1.4-2.319-3.127-1.322l-129.664 74.895c-1.727.996-3.071 3.204-3.071 4.93v129.723z"/><path fill-rule="evenodd" clip-rule="evenodd" fill="#FFF" stroke="#000" stroke-width=".977" d="M432.305 190.565c-.398-.771-.311-2.485-.695-3.279-.228-.463-.821-.624-.861-.993-.075-.623.083-1.511.12-2.212.316-5.651-1.179-8.358-2.913-10.664-1.938-2.574-4.593-4.194-6.28-7.208-1.737-3.089-1.866-8.953-3.039-12.914-1.225-4.128-4.128-4.957-9.362-1.838-.299.183-.6.371-.9.554-4.396 3.034-6.882 7.475-8.007 12.589-.862 3.933-.7 8.052-.7 12.318 0 1.381.146 2.849-.123 4.212-.207 1.054-.849 2.294-1.352 3.45-2.97 6.821-5.73 13.952-6.241 21.865-.041.618-.011 1.232-.083 1.906-.043.429-.519.986-.778 1.479-.275.516-.523.989-.738 1.403-.462.881-1.082 2.151-1.644 2.728-.51.52-1.112.841-1.602 1.222-1.612 1.257-2.729 2.766-3.079 4.702v.951c.198 1.497 1.329 1.835 1.151 3.619-.061.6-.588 1.416-.782 2.145a9.343 9.343 0 0 0-.286 1.651c-.273 3.8 2.892 2.521 5.212 1.686 1.153-.417 2.254-.894 3.449-1.222 2.074-.572 4.141-.476 6.407-1.571.424-.262.848-.521 1.271-.785 2.409-1.834 3.78-4.225 4.228-7.119l12.029-7.413c.358 2.614 1.901 3.125 4.518 1.732.396-.245.792-.488 1.189-.732 1.351-1.008 2.476-2.223 3.451-3.696.455-.688.83-1.431 1.271-2.114.451-.703.957-1.351 1.436-2.023.969-1.371 1.906-2.729 2.915-4.033 1.015-1.315 2.074-2.596 3.039-3.966.833-1.183 1.54-2.383 1.599-3.839l.043-.024v-.523c-.121-2.579-3.113-.607-3.863-2.044zm-24.013-35.459c2.86-1.941 5.442-2.768 6.689-1.603.902.843 1.248 2.634 1.641 4.36.401 1.743.577 3.812.944 5.599.759 3.668 1.876 6.216 3.616 8.09 1.722 1.857 3.585 3.413 5.046 5.594a12.451 12.451 0 0 1 1.809 4.068c.417 1.726.321 4.202.04 6.582-.38.311-.651.084-.986.132-1.13.158-2.475.677-4.063 1.789-.228-5.288-1.181-9.028-2.71-11.878-1.529-2.858-3.88-4.317-5.623-6.71.526-1.094.369-2.011.573-3.114.066-.35.312-.845.453-1.227.997-2.755 1.169-6.433.123-8.256-.516-.899-1.359-1.52-2.422-1.505-.956.015-2.804.84-4.065 2.458-.557.716-.882 1.382-1.189 2.397-.323-.232-.461-.643-.864-.797-1.003-.388-2.971.729-4.27 2.248.791-3.368 2.204-6.157 5.258-8.227zm14.532 37.878c1.104-1.109 2.454-1.418 3.366-1.6-.666 1.466-1.292 3.542-2.917 4.033.14-1.176-.13-1.924-.449-2.433zm-10.307-26.505c.397-1.588.069-3.348-1.024-2.791-.898.458-1.388 1.878-1.397 3.096-.364.167-.873.19-1.313.337-.003-1.868.491-3.767 1.396-5.142.241-.363.618-.81.948-1.059 2.486-1.885 3.434 2.122 2.501 5.257-.412.175-.692.118-1.111.302zm.125 3.157c-.003.397-.094.74-.125 1.125-.592.905-1.415 1.772-2.215 2.839-.667.891-1.553 2.189-2.301 2.795-.529.431-1.182.817-1.683.942-.609.151-1.103-.597-1.601-.772-.289-.102-1.146.008-1.147-.577-.005-.435 1.145-2.119 1.393-2.519.675-1.092 1.466-2.217 2.544-2.759 1.365-.692 2.392-.335 3.533-.609.551-.13 1.096-.485 1.602-.465zm-7.553-4.998c1.62-.805 2.31 1.04 2.38 3.049-.519.29-.952.626-1.355.98-.179-.747-.559-1.37-1.312-.855-1.003.685-1.417 2.577-1.149 3.751-.257.544-.597 1.042-.946 1.534-1.048-1.774-.173-7.189 2.382-8.459zm-4.929 20.727c.788-1.782 1.743-3.577 2.013-5.664.353 1.438-.233 2.974-.781 4.474-1.662 4.563-3.605 8.841-4.803 13.563-.646 2.552-1.284 6.13-.45 7.98-.123.165-.272.039-.409.016-.3-.049-.721-.095-1.234.188.504-7.721 2.819-14.128 5.664-20.557zm1.724 36.071c-.423 1.036-1.687 2.262-2.996 2.796-1.016.414-2.008.431-2.955.586-2.044.332-3.798 1.004-6.281 1.869-.6.214-2.725 1.111-2.917.563-.215-.623.528-1.905.781-2.714.873-2.772-.335-4.257-.862-5.793 1.338-1.374 2.577-1.911 3.57-3.199.352-.454.624-1 .945-1.534.311-.514.64-1.037.903-1.508.597-1.057 1.072-2.162 1.725-3.059.53-.728 1.229.082 1.521.297 1.155.863 2.13 2.128 3.037 3.311.897 1.176 1.778 2.588 2.913 3.531.337.278.812.611.946 1.176.208.879.03 2.803-.33 3.678zm.124-9.681c-.806-.66-1.361-1.771-2.134-2.491.486.003 1.125.054 1.93.096.443.024 1.8-.142 1.767.434-.037.567-1.172 1.525-1.563 1.961zm15.889-11.361c-.016.878.049 1.868-.125 2.737-.127.645-.718 1.791-1.107 2.539-2.008 3.871-6.381 8.093-10.183 8.651-1.254.186-2.43.032-2.957-.888 1.548-1.522 2.855-3.485 2.628-5.708-.185-1.841-1.646-1.762-2.913-1.818-1.621-.069-2.856-.199-3.9-1.402-.463-.532-.909-1.318-.984-2.29-.134-1.682.417-3.688.86-5.382.468-1.78 1-3.388 1.562-4.956 1.393-3.889 2.956-7.202 3.98-10.962.251-.172.52-.054.944-.203.743-.258 1.753-.858 2.545-1.425 1.678-1.205 3.171-3.865 4.27-4.96 1.627 2.317 3.867 3.677 5.381 6.287 1.51 2.611 2.34 6.216 2.546 11.269-1.698 1.286-2.477 3.477-2.546 5.657-.031.9.013 1.86-.001 2.854zm14.451-4.103c-2.15 2.817-4.451 5.792-6.484 8.799-.798 1.174-1.469 2.682-2.301 3.652-.933 1.088-3.275 2.568-3.858 2.093-.373-.302-.611-1.657-.453-2.764.258-1.791.899-3.925 1.108-6.059.22-2.217.112-4.25.206-6.542.283.559-.056 1.588.083 2.374.106.628.654.85 1.026.936.701.162 1.502-.039 2.749-.936 1.146-.82 2.026-2.039 2.75-3.359.888-1.617 1.216-3.125 1.93-4.42.035-.031.04-.006.043.023.035-.031.037-.006.038.023.27.725.277 1.599.412 2.311.396 2.063 2.167 2.295 3.9 2.116-.226.669-.729 1.203-1.149 1.753z"/></g><path d="M281.129 274.585l44.984-25.971-43.967-25.603-45.58 25.955zm2.123-44.908l-34.006 19.363m42.475-14.637l-34.006 19.364m42.474-14.637l-34.006 19.363m42.475-14.637l-34.006 19.364" stroke="#FFF" stroke-width="1.575" stroke-linecap="round" stroke-linejoin="round" stroke-miterlimit="10"/><path d="M281.129 249.792l44.984-25.971-43.967-25.603-45.58 25.955zm3.305-44.339l-34.006 19.363m42.475-14.637l-34.007 19.364m42.475-14.637l-34.006 19.364m42.475-14.637l-34.007 19.363" stroke="#FFF" stroke-width="1.575" stroke-linecap="round" stroke-linejoin="round" stroke-miterlimit="10"/><path stroke="#FFF" stroke-width="1.575" stroke-linecap="round" stroke-linejoin="round" stroke-miterlimit="10" d="M326.736 192.444l-44.581-18.468-46.03 26.212 45.004 25.874 45.431-26.227"/><path stroke="#FFF" stroke-width="1.575" stroke-linecap="round" stroke-linejoin="round" stroke-miterlimit="10" d="M281.129 218.505l45.431-26.229-44.405-25.858-46.03 26.212z"/><path stroke="#FFF" stroke-width="1.575" stroke-linecap="round" stroke-linejoin="round" stroke-miterlimit="10" d="M209.105 213.414c0 1.725 1.359 2.317 3.086 1.32l129.686-74.893c1.727-.997 3.09-3.205 3.09-4.931V5.188c0-1.727-1.382-2.317-3.111-1.323L212.185 78.761c-1.727.997-3.079 3.205-3.079 4.932v129.721z"/><path d="M343.164 4.934l8.268 3.239-31.693 21.956-4.028-7.025zM218.431 218.819l-8.242-4.535 1.365-44.738 6.274.621z"/><path stroke="#FFF" stroke-width="1.575" stroke-linecap="round" stroke-linejoin="round" stroke-miterlimit="10" d="M218.569 219.154c0 1.725 1.345 2.317 3.071 1.32l129.695-74.895c1.727-.997 3.097-3.205 3.097-4.931V10.928c0-1.726-1.399-2.318-3.126-1.321L221.641 84.501c-1.727.996-3.071 3.204-3.071 4.93v129.723zm-8.897-137.807l9.655 5.576m-10.017 127.85l9.53 5.506M343.164 3.401l10.035 5.792M218.85 198.563l135.026-77.301m-26.975 71.349v7.048m-46.189 18.987v6.718"/><path stroke="#FFF" stroke-width="1.575" stroke-linecap="round" stroke-linejoin="round" stroke-miterlimit="10" d="M218.569 219.154c0 1.725 1.345 2.317 3.071 1.32l129.695-74.895c1.727-.997 3.097-3.205 3.097-4.931V10.928c0-1.726-1.399-2.318-3.126-1.321L221.641 84.501c-1.727.996-3.071 3.204-3.071 4.93v129.723z"/><path stroke="#FFF" stroke-width="1.575" stroke-linecap="round" stroke-linejoin="round" stroke-miterlimit="10" d="M258.863 157.4c0 .702.547.942 1.249.537l52.768-30.472c.703-.406 1.26-1.303 1.26-2.006V72.682c0-.703-.569-.943-1.272-.538l-52.755 30.472c-.702.405-1.249 1.303-1.249 2.006V157.4z"/><path stroke="#FFF" stroke-width="1.575" stroke-linecap="round" stroke-linejoin="round" stroke-miterlimit="10" d="M263.26 148.7c0 .542.422.726.963.414l43.746-24.841c1.642-1.453.971-1.006.971-1.548V82.014c0-.543-.438-.728-.981-.416l-43.735 24.841c-.542.312-.963 1.004-.963 1.548V148.7zm2.217-49.563V87.335l-10.701-7.862V66.914m18.531 27.33V82.443l-10.701-7.862v-12.56m18.529 27.33V77.55l-10.699-7.862v-12.56m18.105 28.898V57.438l33.001-19.183v-10.83"/><path stroke="#FFF" stroke-width="1.575" stroke-linecap="round" stroke-linejoin="round" stroke-miterlimit="10" d="M297.023 81.296V61.744l36.656-21.531V19.726"/><path fill="none" stroke="#FFF" stroke-width="1.575" stroke-linecap="round" stroke-linejoin="round" stroke-miterlimit="10" d="M304.363 76.75V65.417l41.059-23.769V12.941"/><path stroke="#FFF" stroke-width="1.575" stroke-linecap="round" stroke-linejoin="round" stroke-miterlimit="10" d="M258.666 107.173l-29.582 17.511h-10.615m40.197-8.169l-28.732 16.662h-11.465m40.197-7.32l-27.671 15.174v53.084l-12.314 7.218"/><path fill="none" stroke="#FFF" stroke-width="1.575" stroke-linecap="round" stroke-linejoin="round" stroke-miterlimit="10" d="M258.666 135.2l-19.178 11.141v53.293l-20.807 12.315"/><path fill="none" stroke="#FFF" stroke-width="1.575" stroke-linecap="round" stroke-linejoin="round" stroke-miterlimit="10" d="M258.666 144.542l-12.808 7.206v54.68"/><path fill="none" stroke="#FFF" stroke-width="1.575" stroke-linecap="round" stroke-linejoin="round" stroke-miterlimit="10" d="M258.666 153.885l-5.376 3.285v43.95"/><path stroke="#FFF" stroke-width="1.575" stroke-linecap="round" stroke-linejoin="round" stroke-miterlimit="10" d="M314.353 77.287l11.364-6.565 17.227 1.129 11.112-6.724m-39.703 21.085l11.364-6.565 17.812 1.27 10.82-6.141m-39.996 20.362l11.364-6.565 18.396 1.407 9.651-5.848m-39.411 19.933l11.364-6.565 18.981 1.544v49.414"/><path stroke="#FFF" stroke-width="1.575" stroke-linecap="round" stroke-linejoin="round" stroke-miterlimit="10" d="M314.353 112.99l11.364-6.565 10.21.806.292 47.368"/><path stroke="#FFF" stroke-width="1.575" stroke-linecap="round" stroke-linejoin="round" stroke-miterlimit="10" d="M314.353 121.916l11.364-6.565v43.927m-56.77-5.679v17.964l-6.41 7.62v16.937m14.595-46.908v22.053l-6.116 7.013v12.285m14.303-45.737v38.72m8.187-43.107v37.844m8.186-43.108v39.015m8.188-44.278v39.596"/><path fill="none" stroke="#FFF" stroke-width="1.575" stroke-linecap="round" stroke-linejoin="round" stroke-miterlimit="10" d="M259.038 103.556l4.056 3.548m45.37-25.346l4.816-9.125m-50.186 76.291l-3.801 8.872m49.171-34.217l4.816 2.534"/><text transform="matrix(.8355 -.4548 .017 .9999 271.01 129.91)" fill="#FFF" font-family="'Rubik-Regular'" font-size="11.74">RISC-V</text></g></svg>