<svg xmlns="http://www.w3.org/2000/svg" width="128.971" height="174.072" viewBox="-4.338 -15.347 128.971 174.072"><path stroke="#FFF" stroke-width="1.589" stroke-linecap="round" stroke-linejoin="round" stroke-miterlimit="10" d="M120.3 18.565l-16.8-9.763.186 65.587 16.8 9.763z"/><path stroke="#FFF" stroke-width="1.589" stroke-linecap="round" stroke-linejoin="round" stroke-miterlimit="10" d="M120.486 84.152l-16.8-9.763-105.2 60.586 16.801 9.762zm-.186-65.587l-16.8-9.763L-1.441 69.593l16.773 9.569z"/><path stroke="#FFF" stroke-width="1.589" stroke-linecap="round" stroke-linejoin="round" stroke-miterlimit="10" d="M15.287 79.152L120.3 18.565l.186 65.587-105.199 60.585"/><path fill="none" stroke="#FFF" stroke-width="1.589" stroke-linecap="round" stroke-linejoin="round" stroke-miterlimit="10" d="M76.105 81.861l14.993 8.712-.036-12.604m10.717-18.555l10.968-6.333-14.992-8.712"/><path fill="none" stroke="#FFF" stroke-width="1.589" stroke-linecap="round" stroke-linejoin="round" stroke-miterlimit="10" d="M80.059 71.953l-5.47-3.093.036 12.35 5.468 3.092zm10.968-6.332l-5.468-3.093-10.97 6.332 5.47 3.093z"/><path fill="none" stroke="#FFF" stroke-width="1.589" stroke-linecap="round" stroke-linejoin="round" stroke-miterlimit="10" d="M90.992 53.012l.035 12.609-10.968 6.332.034 12.349 10.969-6.333.036 12.604 10.752-6.207-.038-12.603 10.97-6.333-.035-12.349-10.968 6.333-.036-12.609z"/><path fill="none" stroke="#FFF" stroke-width="1.589" stroke-linecap="round" stroke-linejoin="round" stroke-miterlimit="10" d="M90.992 53.012l-5.469-3.093.036 12.609 5.468 3.093z"/><path fill="none" stroke="#FFF" stroke-width="1.589" stroke-linecap="round" stroke-linejoin="round" stroke-miterlimit="10" d="M101.743 46.805l-5.47-3.093-10.75 6.207 5.469 3.093z"/><g fill="none" stroke="#FFF" stroke-width="1.589" stroke-miterlimit="10"><path d="M30.877 89.96c.002-.095.007-.189.013-.287.002-.046.007-.092.01-.137l.005-.048c.002-.034.004-.069.008-.104.009-.097.019-.191.032-.291.012-.099.027-.197.042-.298l.052-.3c.02-.104.04-.206.062-.31l.028-.117.013-.058c.011-.046.02-.092.032-.139a9.545 9.545 0 0 1 .153-.554c.003-.011.005-.021.009-.03l.012-.043c.032-.103.064-.206.099-.309.034-.102.069-.201.105-.303a1.1 1.1 0 0 1 .023-.061.595.595 0 0 1 .016-.045l.07-.188c.038-.097.077-.191.117-.289l.09-.211c.005-.013.011-.022.016-.034l.016-.038c.043-.099.087-.193.131-.288l.152-.315.025-.048.033-.062c.042-.083.084-.165.128-.246.051-.098.105-.191.16-.286.025-.044.047-.09.072-.133.01-.02.022-.034.031-.053.011-.017.02-.035.03-.053.045-.076.095-.149.141-.225.087-.144.175-.286.267-.427l.037-.059a12.51 12.51 0 0 1 .373-.534l.003-.005c.086-.116.174-.23.263-.345.068-.087.138-.172.208-.257.006-.009.014-.017.02-.023l.002-.003a11.998 11.998 0 0 1 .461-.527c.012-.012.023-.021.033-.034.016-.019.031-.033.047-.05l.163-.171c.082-.085.166-.167.25-.247l.076-.07.061-.056.125-.118c.088-.077.175-.154.265-.229.038-.033.077-.063.116-.095l.056-.047.092-.074c.085-.068.173-.135.26-.198.063-.047.128-.092.191-.137l.031-.022.036-.024c.083-.058.167-.112.251-.166.083-.055.167-.104.251-.153l.058-.034a4.95 4.95 0 0 1 .188-.104 5.668 5.668 0 0 1 .483-.239c.08-.036.159-.07.237-.101.08-.032.161-.062.239-.092l.04-.013.042-.014c.052-.019.104-.035.156-.052.083-.023.164-.048.245-.067.041-.01.082-.019.122-.026a6.466 6.466 0 0 1 .382-.072c.055-.007.109-.011.162-.017l.048-.005c.018-.001.036-.005.053-.005.095-.007.188-.01.28-.009.04 0 .079.003.119.006l.097.003c.03.004.062.003.092.005a3.2 3.2 0 0 1 .342.05l.007.002c.029.006.054.018.082.023.111.024.222.053.327.09.009.003.017.009.026.012.148.055.29.12.426.196.009.006.021.009.031.014l3.762 2.188 2.624 1.524a3.047 3.047 0 0 0-.456-.211 3.304 3.304 0 0 0-.351-.101c-.028-.008-.055-.019-.084-.023a3.32 3.32 0 0 0-.441-.056c-.032-.003-.063-.003-.096-.005a3.53 3.53 0 0 0-.447.009c-.021.001-.04.004-.061.006a4.897 4.897 0 0 0-1.066.233l-.03.01c-.186.063-.375.14-.568.229l-.033.015a7.438 7.438 0 0 0-.591.307 8.764 8.764 0 0 0-.6.382l-.021.016a9.62 9.62 0 0 0-.549.414c-.02.016-.039.03-.059.048-.173.142-.341.29-.508.444l-.055.051c-.166.155-.329.318-.488.487-.017.019-.035.035-.051.055a13.376 13.376 0 0 0-.508.576c-.316.383-.614.789-.894 1.21-.082.122-.158.25-.235.375-.07.112-.143.226-.208.34l-.07.125c-.109.19-.214.385-.314.58l-.03.06c-.237.47-.447.949-.625 1.435l-.003.006a13.61 13.61 0 0 0-.248.738l-.001.001c-.073.24-.136.48-.192.721-.003.015-.007.028-.009.044-.111.479-.188.957-.227 1.426l-.004.047a7.6 7.6 0 0 0 .004 1.344l.006.049a6.016 6.016 0 0 0 .097.63 5.265 5.265 0 0 0 .156.581 4.64 4.64 0 0 0 .182.464 3.297 3.297 0 0 0 .65.939c.037.037.073.073.111.108.156.145.321.276.502.382l-6.387-3.712a2.746 2.746 0 0 1-.502-.383 3.022 3.022 0 0 1-.523-.617l-.006-.008a3.959 3.959 0 0 1-.231-.422c-.005-.01-.007-.018-.011-.024a4.036 4.036 0 0 1-.125-.298c-.017-.045-.031-.095-.047-.142-.011-.03-.02-.062-.03-.092-.008-.026-.019-.053-.026-.079a5.143 5.143 0 0 1-.08-.303c-.009-.037-.015-.078-.022-.117a.523.523 0 0 1-.012-.057c-.007-.039-.017-.076-.023-.117a5.774 5.774 0 0 1-.042-.282c-.007-.054-.011-.108-.017-.164l-.005-.048c-.001-.023-.005-.049-.007-.071a6.703 6.703 0 0 1-.024-.564v-.018a3.83 3.83 0 0 1 .001-.262z"/><path d="M43.188 83.67c-3.281 1.896-5.939 6.499-5.928 10.271.01 3.763 2.686 5.287 5.966 3.394 3.281-1.895 5.934-6.496 5.923-10.259-.01-3.771-2.681-5.299-5.961-3.406z"/></g><g stroke="#FFF" stroke-width="1.589" stroke-miterlimit="10"><path d="M55.054 44.799c.07.038.141.075.213.111l.104.05c.012.005.023.012.036.017l.079.038.224.098.234.094c.079.029.158.06.24.087.083.029.167.059.251.084.031.011.064.021.096.029l.047.014.113.035c.087.025.175.049.264.071.068.018.136.034.204.05a.943.943 0 0 1 .025.006l.037.009c.087.021.176.039.265.058.088.018.175.035.264.05l.053.008.04.007c.055.01.109.02.164.027.087.014.172.025.259.037.064.008.127.016.191.022.011 0 .021.001.032.003l.035.005c.088.01.177.018.264.024.097.008.195.016.292.021.015.002.03.002.045.002l.06.003c.077.003.154.008.232.01.091.003.183.003.274.003.043 0 .084.004.128.004l.049-.001h.051c.074 0 .149-.006.222-.009.141-.003.281-.007.421-.016.021 0 .04 0 .059-.002.177-.012.352-.026.525-.048l.017-.001h.005c.121-.014.24-.028.36-.046.092-.013.184-.026.274-.043l.026-.004.001-.001c.099-.017.195-.035.291-.054.096-.02.189-.039.284-.062.014-.003.025-.007.039-.009l.055-.014c.064-.016.129-.03.192-.047.096-.024.191-.052.285-.078.027-.009.055-.019.082-.025.021-.008.045-.014.065-.021.046-.015.093-.027.138-.042a5.023 5.023 0 0 0 .394-.141l.057-.021.094-.035c.086-.034.17-.07.254-.106.061-.025.119-.054.18-.082a.334.334 0 0 0 .027-.014 7.98 7.98 0 0 0 .477-.246l.049-.027c.053-.031.105-.062.154-.093.066-.042.132-.083.193-.124.039-.025.076-.053.115-.081l.035-.024c.011-.006.021-.015.031-.021a6 6 0 0 0 .338-.265l.025-.023.027-.024.104-.092a5.294 5.294 0 0 0 .221-.227c.008-.009.019-.02.024-.028l.045-.048c.049-.057.096-.113.142-.171l.079-.11c.007-.013.016-.022.023-.033.008-.014.018-.024.025-.037.044-.066.085-.132.123-.199.018-.029.029-.059.046-.089l.037-.071.035-.068c.041-.09.077-.179.106-.27.002-.001.002-.004.002-.006.008-.023.012-.046.019-.069.026-.092.054-.183.071-.274 0-.007 0-.017.002-.023.021-.13.033-.261.035-.391l.002-.029-.014-3.646-.011-2.543a2.578 2.578 0 0 1-.108.716c-.008.022-.012.046-.02.07-.039.116-.09.23-.145.345l-.037.07a3.4 3.4 0 0 1-.192.321c-.011.015-.021.027-.03.041a3.458 3.458 0 0 1-.289.356 4.5 4.5 0 0 1-.749.654l-.024.019a5.87 5.87 0 0 1-.471.301 7.5 7.5 0 0 1-.527.276c-.006.004-.014.006-.019.009a8.696 8.696 0 0 1-.53.226c-.02.007-.039.017-.06.022-.175.065-.353.126-.534.183l-.061.02a9.99 9.99 0 0 1-.56.149c-.021.005-.04.012-.06.015-.203.048-.41.091-.617.126l-.014.002c-.411.069-.83.115-1.253.143-.122.008-.246.01-.37.014-.112.004-.224.011-.335.011l-.12-.002c-.184 0-.368-.005-.552-.016l-.057-.002c-.44-.023-.875-.073-1.302-.146h-.005a11.01 11.01 0 0 1-.641-.13h-.001a11.076 11.076 0 0 1-.603-.161c-.012-.004-.024-.007-.036-.013a8.182 8.182 0 0 1-1.13-.432c-.013-.005-.024-.011-.036-.017a6.937 6.937 0 0 1-.514-.27 5.728 5.728 0 0 1-.462-.296l-.033-.023a5.958 5.958 0 0 1-.37-.292l-.047-.042a5.004 5.004 0 0 1-.355-.358 3.359 3.359 0 0 1-.244-.305l-.017-.022a2.695 2.695 0 0 1-.443-.991 2.336 2.336 0 0 1-.067-.523l.022 6.188c.001.176.028.352.069.524l.031.125c.049.173.111.345.198.513l.003.008c.058.112.125.225.201.333.002.006.006.009.009.012.003.007.009.012.013.018.051.072.104.145.164.215.026.031.056.062.083.093l.054.062.046.052c.059.062.122.124.187.186.024.021.05.043.077.064.011.011.021.022.035.032.025.021.049.044.076.066.061.049.123.1.187.148.036.027.075.054.112.08a.717.717 0 0 0 .033.025l.049.034a6.602 6.602 0 0 0 .399.254.163.163 0 0 1 .013.006l.207.111z"/><path d="M64.768 38.491c-2.747 1.59-7.202 1.594-9.933.01-2.729-1.582-2.717-4.162.031-5.751 2.748-1.59 7.197-1.591 9.926-.01 2.729 1.585 2.724 4.163-.024 5.751z"/></g><g fill="none" stroke="#FFF" stroke-width="1.589" stroke-miterlimit="10"><path d="M48.623 102.276c.002-.095.007-.191.013-.287.002-.046.007-.092.01-.138l.005-.047c.002-.034.004-.069.008-.104.009-.096.019-.192.032-.29.012-.1.027-.198.042-.298a11.164 11.164 0 0 1 .114-.612l.028-.117c.003-.019.008-.037.013-.057.011-.046.02-.091.032-.138.025-.104.053-.21.083-.315.022-.08.045-.16.07-.24.003-.011.005-.021.009-.029l.012-.044a13.753 13.753 0 0 1 .204-.612l.023-.061.016-.046.07-.187.117-.288c.029-.071.06-.142.09-.211l.016-.035c.006-.014.011-.024.016-.039.043-.097.087-.192.131-.288a15.1 15.1 0 0 1 .152-.313c.008-.018.017-.033.025-.048l.033-.063c.042-.082.084-.164.128-.246.051-.096.105-.189.16-.285.025-.044.047-.09.072-.134.01-.018.022-.034.031-.051l.03-.053c.045-.076.095-.15.141-.227a12.578 12.578 0 0 1 .304-.485c.116-.176.237-.348.361-.516l.012-.018.003-.004a17.497 17.497 0 0 1 .471-.604l.02-.022.002-.003c.075-.092.152-.181.229-.27a9.39 9.39 0 0 1 .232-.256c.012-.013.023-.023.033-.036l.047-.049.163-.171c.082-.084.166-.166.25-.247l.076-.07a3.29 3.29 0 0 0 .06-.056c.042-.039.083-.079.126-.117.087-.079.175-.155.265-.229l.116-.096c.019-.015.037-.029.056-.046l.092-.075c.085-.066.173-.135.26-.197l.192-.138.031-.021c.012-.009.024-.019.036-.025a9.885 9.885 0 0 1 .502-.319c.02-.013.039-.022.059-.034a7.099 7.099 0 0 1 .431-.23 3.56 3.56 0 0 1 .153-.07 21.205 21.205 0 0 1 .324-.144c.08-.031.161-.062.239-.09.013-.005.026-.008.04-.014a.541.541 0 0 0 .043-.014c.052-.018.104-.036.156-.052.083-.024.164-.047.245-.067.041-.01.082-.019.122-.025l.046-.012.075-.017a4.17 4.17 0 0 1 .261-.043c.054-.008.109-.012.162-.017l.048-.005c.018-.002.036-.006.053-.007.095-.006.188-.009.28-.009.04 0 .079.004.119.006l.096.004c.03.004.062.003.093.006a2.965 2.965 0 0 1 .349.052c.028.006.054.017.081.021.112.025.222.054.328.091.009.003.017.01.026.013.148.054.29.119.426.195.009.007.021.01.031.014l3.762 2.188 2.624 1.525a2.86 2.86 0 0 0-.807-.314c-.028-.008-.056-.017-.084-.022a3.364 3.364 0 0 0-.441-.056l-.098-.006a3.497 3.497 0 0 0-.506.017 4.177 4.177 0 0 0-.541.086 5.259 5.259 0 0 0-.526.146l-.03.01c-.186.062-.376.14-.568.229l-.032.015a7.472 7.472 0 0 0-.592.308 9.281 9.281 0 0 0-1.171.81c-.019.017-.039.031-.058.049-.173.142-.341.289-.508.443l-.055.052c-.166.155-.329.319-.488.487-.017.02-.035.036-.051.054-.17.183-.337.369-.498.563l-.011.014c-.316.382-.614.789-.894 1.209-.082.123-.158.25-.235.375-.07.114-.143.227-.208.341l-.07.125c-.11.19-.214.385-.314.579l-.03.062c-.237.469-.447.948-.625 1.433l-.003.006c-.091.246-.173.493-.248.74l-.001.001c-.073.24-.137.479-.192.72-.003.015-.007.028-.009.043-.111.479-.188.958-.227 1.428l-.005.046a8.522 8.522 0 0 0-.027.691c0 .227.012.443.031.653l.006.049a5.967 5.967 0 0 0 .097.63 4.967 4.967 0 0 0 .326 1.014c.004.012.007.021.012.03.071.152.151.295.237.431a3.498 3.498 0 0 0 .524.617c.156.146.321.276.502.383l-6.387-3.712a2.797 2.797 0 0 1-.502-.384 3.012 3.012 0 0 1-.523-.617c-.002-.003-.005-.005-.006-.009a3.762 3.762 0 0 1-.225-.405c-.003-.005-.004-.012-.006-.017l-.011-.022a4.46 4.46 0 0 1-.125-.299c-.017-.046-.031-.095-.047-.142l-.03-.092c-.008-.027-.019-.052-.026-.079a4.944 4.944 0 0 1-.08-.303c-.009-.037-.015-.077-.023-.117l-.011-.056c-.007-.04-.017-.077-.023-.117a6.375 6.375 0 0 1-.042-.282c-.007-.054-.011-.109-.017-.165l-.005-.048c-.001-.024-.005-.048-.007-.072a6.75 6.75 0 0 1-.024-.563v-.018a3.88 3.88 0 0 1 .001-.264z"/><path d="M60.934 95.986c-3.281 1.895-5.938 6.498-5.928 10.269.01 3.764 2.686 5.288 5.966 3.396 3.281-1.896 5.935-6.496 5.922-10.259-.01-3.771-2.681-5.299-5.96-3.406z"/></g><path fill="none" stroke="#FFF" stroke-width="1.589" stroke-linecap="round" stroke-linejoin="round" stroke-miterlimit="10" d="M59.702 35.273v-21.15s1.476-11.067-8.116-11.067c-9.592 0-8.977 8.977-8.977 8.977s1.106 10.699-8.485 10.699-9.837-9.837-9.837-9.837v-24.104"/><path stroke="#FFF" stroke-width="1.589" stroke-linecap="round" stroke-linejoin="round" stroke-miterlimit="10" d="M-1.514 134.975V69.593L15.2 79.07v65.553z"/></svg>