<svg width="33" height="27" fill="none" xmlns="http://www.w3.org/2000/svg"><path d="M32.741 8.059c.137 1.801-.163 3.954-1.355 4.066-1.939.171-.927-1.965-.9-3.251.068-3.731-3.114-6.322-6.228-6.322-.883 0-2.933.6-2.616-1.26.146-.824.84-.807 1.535-.901 5.241-.695 9.195 2.907 9.564 7.668zM24.172 12.4c2.256 1.234 4.958 1.843 4.512 5.506-.111.875-.635 2.05-1.175 2.796-3.808 5.335-15.302 7.574-22.473 3.525-2.41-1.363-4.898-3.353-4.512-7.316.335-3.414 2.625-6.056 4.872-8.303 2.145-2.144 4.409-3.826 7.488-4.606 3.346-.84 4.332 1.947 3.431 4.692 1.939-.129 6.039-2.29 7.849-.18.806.934.497 2.599.008 3.885zm-2.436 8.662c.72-.815 1.45-2.067 1.441-3.516-.008-4.486-5.66-6.142-10.104-5.782-2.436.198-4.066.712-5.781 1.716-1.39.815-3.028 2.144-3.431 4.151-.91 4.504 3.988 6.622 7.582 6.862 4.152.275 8.312-1.192 10.293-3.43z" fill="#fff"/><path d="M17.765 17.091c1.921 5.816-8.097 8.517-9.933 3.517-1.227-3.337 1.715-5.996 4.786-6.322 2.616-.266 4.563 1.064 5.147 2.805zm-4.606.995c.411.703 1.346.197 1.26-.36-.094-.652-1.269-.558-1.26.36zm-1.63 3.062c1.681-.403 1.913-3.577-.635-2.976-2.127.497-1.715 3.542.635 2.976z" fill="#fff"/></svg>