<svg xmlns="http://www.w3.org/2000/svg" width="165" height="95"><g stroke="#FFF" stroke-width="1.318" stroke-linecap="round" stroke-linejoin="round" stroke-miterlimit="10"><circle cx="8.921" cy="27.481" r="7.921"/><path d="M10.63 26.074a3.28 3.28 0 0 1 1.149-4.491L31.409 9.96a3.275 3.275 0 0 1 4.489 1.148l.082.139a3.277 3.277 0 0 1-1.148 4.49l-19.63 11.624a3.278 3.278 0 0 1-4.491-1.149l-.081-.138z"/><circle cx="33.959" cy="12.985" r="11.721"/><path d="M36.275 16.249a3.826 3.826 0 0 1 5.242 1.34l32.258 55.474a3.821 3.821 0 0 1-1.34 5.238l-.162.098a3.825 3.825 0 0 1-5.241-1.342L34.773 21.584a3.824 3.824 0 0 1 1.341-5.24l.161-.095z"/><circle cx="73.494" cy="78.215" r="15.521"/><path d="M145.555 36.879a4.18 4.18 0 0 1-1.466 5.728l-60.616 35.25a4.18 4.18 0 0 1-5.726-1.467l-.104-.178a4.18 4.18 0 0 1 1.465-5.727l60.615-35.25a4.183 4.183 0 0 1 5.729 1.465l.103.179z"/><circle cx="142.02" cy="38.023" r="21.981"/></g></svg>