<svg xmlns="http://www.w3.org/2000/svg" xmlns:xlink="http://www.w3.org/1999/xlink" width="383" height="303.87"><path fill="#010101" stroke="#FFF" stroke-width="1.39" stroke-linecap="round" stroke-linejoin="round" stroke-miterlimit="10" d="M190.372 300.548l190.664-110.081L194.687 81.949 1.5 191.958z"/><path fill="#010101" stroke="#FFF" stroke-width="1.39" stroke-linecap="round" stroke-linejoin="round" stroke-miterlimit="10" d="M190.835 288.503L381.5 178.423 195.149 69.905 1.963 179.915z"/><path fill="#010101" stroke="#FFF" stroke-width="1.39" stroke-linecap="round" stroke-linejoin="round" stroke-miterlimit="10" d="M190.835 274.253L381.5 164.173 195.149 55.655 1.963 165.665z"/><defs><path id="a" d="M190.835 274.253L381.5 164.173 195.149 55.655 1.963 165.665z"/></defs><clipPath id="b"><use xlink:href="#a" overflow="visible"/></clipPath><g clip-path="url(#b)" fill="none" stroke="#FFF" stroke-width="1.39" stroke-linecap="round" stroke-linejoin="round" stroke-miterlimit="10"><path d="M29.217 194.014L246.066 69.48M64.533 217.557l216.85-124.533M104.805 237.383L321.654 112.85M141.359 259.069l216.85-124.534"/></g><g clip-path="url(#b)" fill="none" stroke="#FFF" stroke-width="1.39" stroke-linecap="round" stroke-linejoin="round" stroke-miterlimit="10"><path d="M356.288 193.495L138.765 70.22m182.485 148.1L103.728 95.045m177.506 144.391L63.71 116.161m181.233 146.22L27.42 139.106"/></g><g stroke="#FFF" stroke-width="1.39" stroke-linecap="round" stroke-linejoin="round" stroke-miterlimit="10"><path d="M190.789 187.66l-46.95-26.432-.124-41.261 46.952 25.497zm41.206-113.501L186.08 46.787l37.066-21.953 45.916 27.373z"/><path d="M231.226 30.807l.124 43.974 38.113-22.092-.065 47.193-39.678 22.822.023 42.872-38.727 22.595-.123-43.967-37.565 21.917-.685-47.106L190.76 96.92l-.124-42.586z"/><path d="M153.321 118.996l-46.354-26.939 37.421-21.605 46.353 26.938zm.136 47.744l-46.391-26.222-.099-48.461 46.354 27.17zm37.162-112.348l-46.353-26.939 41.799-24.132 46.353 26.937z"/><path d="M190.741 97.39l-46.353-26.938-.122-42.999 46.353 26.939z"/></g></svg>