<svg xmlns="http://www.w3.org/2000/svg" width="91.253" height="138.922"><g stroke-width="1.349" stroke-linecap="round" stroke-linejoin="round" stroke-miterlimit="10"><path stroke="#FFF" d="M72.733 116.459l-26.871-11.118-27.873 15.873 27.25 15.667 27.51-15.883"/><path stroke="#FFF" d="M45.239 132.304l27.51-15.882-26.887-15.657-27.873 15.873z"/><path fill="#FFF" stroke="#000" d="M7.475 127.724L82.024 84.67c1.047-.604 1.871-1.938 1.871-2.985V8.204"/><path stroke="#FFF" d="M88.736 5.499l-5.753-3.457c-.283-.007-.615.087-.971.292L3.491 47.684c-1.045.604-1.863 1.94-1.863 2.985v78.552c0 .26.052.479.146.649l5.796 3.795"/><path stroke="#FFF" d="M7.36 132.697c0 1.045.812 1.403 1.857.8L87.75 88.146c1.046-.604 1.876-1.939 1.876-2.984V6.611c0-1.046-.849-1.404-1.894-.8L9.216 51.162c-1.045.604-1.858 1.94-1.858 2.985v78.55h.002z"/><g stroke="#FFF"><path d="M47.366 89.284l9.379-19.174 7.504-4.514-4.1-11.811-6.668 3.752-4.309-11.325-9.169 19.036-7.434 4.585 3.891 11.532 6.878-3.612zm-4.028-11.531l10.143-20.216"/><path d="M56.745 70.11l-6.252 3.335-4.307-11.671-6.183 3.474"/></g><path fill="none" stroke="#FFF" d="M1.969 49.252l5.848 3.375m-.289 67.602l81.763-46.808m-16.335 43.205v4.067"/><path stroke="#FFF" d="M44.987 132.39v4.068"/></g></svg>