<svg xmlns="http://www.w3.org/2000/svg" width="130" height="130"><path fill="#FFF" d="M127.48 85.518l-15.382-41.421a1.788 1.788 0 0 0-1.678-1.167H84.902L69.954 2.743a1.787 1.787 0 0 0-3.004-.576L30.022 42.929H4.151a1.79 1.79 0 0 0-1.677 2.414l15.39 41.421c.261.701.93 1.167 1.678 1.167H44.67l14.947 40.234a1.793 1.793 0 0 0 1.678 1.167c.499 0 .981-.208 1.324-.585l37.185-40.816h26a1.79 1.79 0 0 0 1.676-2.413zM67.626 6.751l13.969 37.552-16.024 17.589-6.593-17.75a1.779 1.779 0 0 0-1.23-1.146l-.053-.017c-.068-.016-.139-.022-.21-.03-.052-.006-.104-.015-.157-.016l-.036-.003H34.854L67.626 6.751zm-60.9 39.758h49.312l6.819 18.361-17.748 19.48H20.786L6.726 46.509zm55.223 77.656L47.967 86.529 64.26 68.646l6.729 18.118c.261.701.93 1.167 1.678 1.167h22.295l-33.013 36.234zm11.963-39.814l-6.939-18.684 17.454-19.158h24.751l14.051 37.842H73.912z"/></svg>