<svg xmlns="http://www.w3.org/2000/svg" width="248.5" height="50"><path d="M34.915 33.062h-1.3c-.78 0-1.258.455-1.431 1.365-.823 3.685-2.318 6.284-4.486 7.802-2.167 1.519-5.094 2.277-8.777 2.277-4.075 0-7.239-1.148-9.493-3.446-2.255-2.298-3.468-5.83-3.641-10.6-.043-1.257-.064-3.099-.064-5.526s.021-4.228.064-5.397c.173-4.767 1.386-8.299 3.641-10.598 2.253-2.297 5.418-3.445 9.493-3.445 3.684 0 6.61.759 8.777 2.275 2.168 1.519 3.663 4.118 4.486 7.802.173.91.651 1.366 1.431 1.366h1.3c.391 0 .716-.107.976-.326.26-.216.391-.497.391-.846v-.129c-.131-2.253-.813-4.453-2.049-6.599S31.1 5.113 28.544 3.704c-2.558-1.407-5.766-2.112-9.623-2.112-5.635 0-9.861 1.593-12.678 4.778-2.82 3.188-4.336 7.469-4.553 12.843-.044 1.214-.065 3.164-.065 5.852 0 2.645.021 4.553.065 5.722.217 5.376 1.733 9.657 4.552 12.841 2.817 3.186 7.043 4.78 12.678 4.78 3.857 0 7.065-.704 9.623-2.114 2.556-1.407 4.453-3.186 5.689-5.331s1.918-4.345 2.049-6.6c.042-.39-.077-.704-.358-.943a1.513 1.513 0 0 0-1.008-.358zM63.457 3.543c-.348-.867-.975-1.3-1.885-1.3h-2.211c-.91 0-1.54.433-1.885 1.3L41.027 45.741l-.13.715c0 .348.13.649.389.909.261.261.564.393.911.393h1.3c.391 0 .704-.107.943-.326.238-.217.4-.434.487-.649l4.031-10.403h23.019l4.029 10.403c.088.216.25.433.488.649.238.219.553.326.941.326h1.303c.346 0 .648-.132.908-.393.26-.26.391-.562.391-.909l-.131-.715L63.457 3.543zM50.519 32.478L60.467 6.86l9.949 25.618H50.519zm58.907-4.552c3.164-.737 5.592-2.156 7.283-4.259 1.689-2.104 2.535-4.866 2.535-8.291 0-4.333-1.322-7.607-3.965-9.817-2.646-2.211-6.309-3.315-10.99-3.315H89.141c-.434 0-.781.141-1.041.422-.26.282-.389.641-.389 1.073v42.587c0 .435.129.78.389 1.04.26.261.607.393 1.041.393h1.17c.434 0 .791-.132 1.072-.393.281-.26.424-.605.424-1.04V28.512H105.2l10.34 17.489c.346.608.682 1.051 1.006 1.333.326.281.814.424 1.465.424h.779c.346 0 .65-.132.91-.393.26-.26.391-.562.391-.909 0-.217-.066-.455-.197-.715l-10.468-17.815zm-5.461-3.317H91.807V6.144h12.158c3.771 0 6.576.771 8.42 2.309 1.842 1.539 2.764 3.847 2.764 6.924 0 3.079-.922 5.388-2.764 6.925-1.844 1.538-4.649 2.307-8.42 2.307zM155.59 2.243h-29.779c-.434 0-.779.141-1.039.422-.262.282-.391.641-.391 1.073v.976c0 .434.129.779.391 1.039.26.261.605.391 1.039.391h12.873v40.182c0 .435.131.78.391 1.04.26.261.607.393 1.041.393h1.17c.434 0 .791-.132 1.072-.393.281-.26.422-.605.422-1.04V6.144h12.811c.432 0 .789-.13 1.072-.391.281-.26.422-.605.422-1.039v-.976c0-.476-.129-.845-.391-1.105-.26-.26-.628-.39-1.104-.39zm36.67 41.611h-23.213V26.625h21.262c.434 0 .791-.13 1.074-.39.281-.261.422-.607.422-1.041v-.976c0-.477-.129-.846-.389-1.105-.262-.26-.631-.39-1.107-.39h-21.262V6.144h22.691c.434 0 .791-.13 1.074-.391.281-.26.422-.605.422-1.039v-.976c0-.476-.129-.845-.391-1.105-.26-.26-.627-.39-1.105-.39h-25.355c-.436 0-.781.141-1.041.422-.26.282-.389.641-.389 1.073v42.587c0 .435.129.78.389 1.04.26.261.605.393 1.041.393h25.877c.432 0 .791-.132 1.072-.393.281-.26.424-.605.424-1.04v-.974c0-.479-.131-.846-.391-1.106-.26-.26-.629-.391-1.105-.391zm35.111-17.358c-1.996-1.041-4.771-2.125-8.324-3.252-3.467-1.128-6.09-2.091-7.867-2.895-1.777-.801-3.111-1.755-3.998-2.86-.889-1.105-1.332-2.503-1.332-4.193 0-2.601.984-4.552 2.957-5.852 1.973-1.301 4.627-1.95 7.965-1.95 3.121 0 5.711.704 7.77 2.112 2.059 1.409 3.219 3.197 3.479 5.364.043.477.217.812.52 1.008s.607.293.912.293h1.299c.434 0 .77-.131 1.008-.391.238-.261.357-.563.357-.91-.086-1.777-.715-3.544-1.885-5.299-1.17-1.756-2.904-3.207-5.201-4.356-2.299-1.147-5.051-1.723-8.258-1.723-3.121 0-5.809.51-8.062 1.528-2.254 1.018-3.977 2.416-5.168 4.193-1.193 1.777-1.789 3.771-1.789 5.981 0 2.341.455 4.27 1.365 5.787.91 1.517 2.309 2.795 4.193 3.836 1.885 1.04 4.498 2.104 7.836 3.186 3.771 1.216 6.586 2.223 8.453 3.024 1.863.803 3.283 1.733 4.258 2.795.977 1.063 1.463 2.418 1.463 4.064 0 2.688-1.008 4.778-3.023 6.274s-5.082 2.244-9.199 2.244c-3.902 0-6.893-.781-8.975-2.343-2.08-1.562-3.271-3.381-3.574-5.461-.174-.867-.65-1.301-1.432-1.301h-1.299a1.33 1.33 0 0 0-.977.39 1.25 1.25 0 0 0-.389.911c.086 2.038.789 3.945 2.111 5.722 1.322 1.778 3.23 3.219 5.723 4.324s5.43 1.658 8.811 1.658c5.07 0 9.059-1.095 11.963-3.283 2.902-2.19 4.355-5.234 4.355-9.136 0-2.342-.51-4.248-1.527-5.723-1.021-1.469-2.527-2.727-4.519-3.766zm19.113-23.863c-.26-.26-.607-.39-1.039-.39h-1.236c-.434 0-.781.13-1.041.39-.26.261-.389.607-.389 1.04v42.652c0 .435.129.78.389 1.04.26.261.607.393 1.041.393h1.236c.432 0 .779-.132 1.039-.393.26-.26.391-.605.391-1.04V3.673c0-.433-.131-.779-.391-1.04z" fill="#FFF"/></svg>