<svg version="1.1" id="Layer_1" xmlns="http://www.w3.org/2000/svg" x="0" y="0" viewBox="0 0 390 571.5" xml:space="preserve"><style>.st0,.st1{stroke:#fff;stroke-linecap:round;stroke-linejoin:round;stroke-miterlimit:10}.st1{fill:none}</style><path class="st0" d="M185 560.9l174.3-100.6L189 361.1 12.4 461.7z"/><path class="st0" d="M185.4 461.5l174.3-100.6-170.3-99.1L12.8 362.3zm-71.8-156.9l149-84.4M149.8 325.3l149.4-84.9M115 221.2l144.7 82.9M77.9 242.4l144.6 82.9"/><path class="st1" d="M188.8 179.2l145.1 82-148 84.3-145.6-82.4z"/><path class="st0" d="M40.3 280.7l28.6-16.4L41 248l-29 16.5zm37.1-21l28.6-16.5-27.9-16.3-28.9 16.5zm37.2-21.1l28.5-16.5-27.9-16.3-28.9 16.5zm37.1-21.1l28.6-16.5-27.9-16.3-29 16.5zm37.2-21.1l28.5-16.5-27.9-16.3-28.9 16.5zM76.8 301.7l28.6-16.5L77.5 269l-28.9 16.4zm37.2-21.5l28.5-16.5-27.9-16.3-28.9 16.5zm37.1-21.1l28.6-16.5-27.9-16.3-29 16.5zm37.2-21.1l28.5-16.5-27.9-16.3-28.9 16.5zm37.1-21.1l28.5-16.5-27.9-16.3-28.9 16.5zm-112 104.8l28.5-16.4L114 289l-28.9 16.5zm37.1-21.1l28.6-16.4-27.9-16.3-29 16.5zm37.2-21l28.5-16.5-27.9-16.3-28.9 16.5zm37.1-21.1l28.5-16.5-27.9-16.3-28.9 16.5zm37.1-21.1l28.6-16.5-27.9-16.3-29 16.5zm-112 104.8l28.6-16.5-27.9-16.2-29 16.5zm37.2-21.1l28.5-16.4-27.9-16.3-28.9 16.5zm37.1-21l28.5-16.5-27.9-16.3-28.9 16.5zm37.1-21.1l28.6-16.5-27.9-16.3-29 16.5zm37.2-21.1l28.5-16.5-27.9-16.3-28.9 16.5zm-112 104.8l28.5-16.5-27.9-16.2-28.9 16.5zm37.1-21.1l28.5-16.4-27.9-16.3-28.9 16.5zm37.1-21.1l28.6-16.4-27.9-16.3-29 16.5zm37.2-21l28.5-16.5-27.9-16.3-28.9 16.5zm37.1-21.1l28.6-16.5-27.9-16.3-29 16.5z"/><path class="st0" d="M188.2 182l28.5-16.5-27.9-16.2-28.9 16.4zm1.3-28.5l-21.6 12.3m27-9.3l-21.6 12.3m27-9.3l-21.6 12.3m26.9-9.3l-21.5 12.3"/><path class="st0" d="M188.2 166.3l28.5-16.5-27.9-16.3-28.9 16.5zm2.1-28.2l-21.6 12.3m26.9-9.3l-21.5 12.3m26.9-9.3l-21.6 12.3m27-9.3l-21.6 12.3"/><path class="st0" d="M212.7 132.1l-23.9-14-29.2 16.7 28.6 16.4 28.8-16.6"/><path class="st0" d="M188.2 146.4l28.8-16.6-28.2-16.5-29.2 16.7z"/><path class="st0" d="M142.5 143.2c0 1.1.9 1.5 2 .8l82.3-47.5c1.1-.6 2-2 2-3.1V11c0-1.1-.9-1.5-2-.8l-82.3 47.5c-1.1.6-2 2-2 3.1v82.4z"/><path d="M227.5 10.8l5.3 2.1-20.1 13.9-2.6-4.4zm-79.1 135.8l-5.3-2.9.9-28.4 4 .4z"/><path class="st0" d="M148.5 146.8c0 1.1.9 1.5 1.9.8l82.3-47.5c1.1-.6 2-2 2-3.1V14.7c0-1.1-.9-1.5-2-.8l-82.3 47.5c-1.1.6-1.9 2-1.9 3.1v82.3zm-5.7-87.5l6.1 3.6m-6.3 81.1l6 3.5M227.5 9.9l6.4 3.7m-85.3 120.1l85.7-49M217.2 130v4.2m-29.3 12.3v4.3"/><path class="st0" d="M148.5 146.8c0 1.1.9 1.5 1.9.8l82.3-47.5c1.1-.6 2-2 2-3.1V14.7c0-1.1-.9-1.5-2-.8l-82.3 47.5c-1.1.6-1.9 2-1.9 3.1v82.3z"/><path class="st0" d="M174 107.6c0 .4.3.6.8.3l33.5-19.3c.4-.3.8-.8.8-1.3V53.8c0-.4-.4-.6-.8-.3l-33.5 19.3c-.4.3-.8.8-.8 1.3v33.5z"/><path class="st0" d="M176.8 102.1c0 .3.3.5.6.3l27.8-15.8c1-.9.6-.6.6-1V59.8c0-.3-.3-.5-.6-.3l-27.8 15.8c-.3.2-.6.6-.6 1v25.8zm1.4-31.5v-7.5l-6.8-4.9v-8m11.8 17.3V60l-6.8-4.9v-8m11.8 17.3v-7.5l-6.8-5V44m11.5 18.3V44.2L213.8 32v-6.9"/><path class="st0" d="M198.3 59.3V46.9l23.2-13.7v-13"/><path class="st1" d="M202.9 56.4v-7.2l26.1-15V15.9"/><path class="st0" d="M173.9 75.7l-18.8 11.2h-6.7m25.5-5.2l-18.2 10.5h-7.3m25.5-4.6l-17.6 9.6v33.7l-7.8 4.6"/><path class="st1" d="M173.9 93.5l-12.2 7.1v33.8l-13.2 7.8"/><path class="st1" d="M173.9 99.5l-8.1 4.5v34.7"/><path class="st1" d="M173.9 105.4l-3.4 2.1v27.9"/><path class="st0" d="M209.3 56.8l7.2-4.2 10.9.7 7.1-4.2m-25.2 13.3l7.2-4.1 11.3.8 6.8-3.9m-25.3 12.9l7.2-4.2 11.6.9 6.2-3.7m-25 12.7l7.2-4.2 12 1v31.3"/><path class="st0" d="M209.3 79.4l7.2-4.1 6.4.5.2 30"/><path class="st0" d="M209.3 85.1l7.2-4.2v27.9m-36.1-3.6v11.4l-4 4.8v10.8m9.2-29.8v14l-3.9 4.5v7.8m9.1-29.1v24.6m5.2-27.3v24m5.2-27.4v24.8m5.2-28.1v25.1"/><path class="st1" d="M174.1 73.4l2.6 2.3m28.8-16.1l3.1-5.8m-31.9 48.4l-2.4 5.7m31.2-21.7l3.1 1.6"/><path class="st0" d="M222.4 196c0 1.1.9 1.5 1.9.8l82.3-47.5c1.1-.6 2-2 2-3.1V63.8c0-1.1-.9-1.5-2-.8l-82.3 47.5c-1.1.6-1.9 2-1.9 3.1V196zm73.5 48.1c0 1.1.9 1.5 1.9.8l82.3-47.5c1.1-.6 2-2 2-3.1V112c0-1.1-.9-1.5-2-.8l-82.3 47.5c-1.1.6-1.9 2-1.9 3.1v82.3z"/><path class="st0" d="M337.9 198.6l9.8-20.1 7.8-4.7-4.2-12.4-7 3.9-4.6-11.9-9.6 20-7.8 4.8 4.1 12.1 7.2-3.8zm-4.3-12.1l10.7-21.2"/><path class="st0" d="M347.7 178.5l-6.6 3.5-4.5-12.2-6.5 3.6m-34 57.6l85.7-49"/><path d="M284.1 128.7c-.3-.5-.2-1.6-.4-2.1-.1-.3-.5-.4-.5-.6 0-.4.1-1 .1-1.4.2-3.6-.7-5.3-1.8-6.8-1.2-1.6-2.9-2.7-4-4.6-1.1-2-1.2-5.7-1.9-8.2-.8-2.6-2.6-3.1-5.9-1.2-.2.1-.4.2-.6.4-2.8 1.9-4.4 4.7-5.1 8-.5 2.5-.4 5.1-.4 7.8 0 .9.1 1.8-.1 2.7-.1.7-.5 1.5-.9 2.2-1.9 4.3-3.6 8.9-4 13.9 0 .4 0 .8-.1 1.2 0 .3-.3.6-.5.9-.2.3-.3.6-.5.9-.3.6-.7 1.4-1 1.7-.3.3-.7.5-1 .8-1 .8-1.7 1.8-2 3v.6c.1 1 .8 1.2.7 2.3 0 .4-.4.9-.5 1.4-.1.3-.2.7-.2 1-.2 2.4 1.8 1.6 3.3 1.1.7-.3 1.4-.6 2.2-.8 1.3-.4 2.6-.3 4.1-1 .3-.2.5-.3.8-.5 1.5-1.2 2.4-2.7 2.7-4.5 2.5-1.6 5.1-3.1 7.6-4.7.2 1.7 1.2 2 2.9 1.1.3-.2.5-.3.8-.5.9-.6 1.6-1.4 2.2-2.3.3-.4.5-.9.8-1.3.3-.4.6-.9.9-1.3.6-.9 1.2-1.7 1.9-2.6.6-.8 1.3-1.6 1.9-2.5.5-.8 1-1.5 1-2.4 0 0 0 0 0 0v-.3c-.1-1.8-2-.5-2.5-1.4zm-15.2-22.5c1.8-1.2 3.5-1.8 4.2-1 .6.5.8 1.7 1 2.8.3 1.1.4 2.4.6 3.6.5 2.3 1.2 3.9 2.3 5.1 1.1 1.2 2.3 2.2 3.2 3.6.4.7.9 1.5 1.1 2.6.3 1.1.2 2.7 0 4.2-.2.2-.4.1-.6.1-.7.1-1.6.4-2.6 1.1-.1-3.4-.7-5.7-1.7-7.5-1-1.8-2.5-2.7-3.6-4.3.3-.7.2-1.3.4-2 0-.2.2-.5.3-.8.6-1.7.7-4.1.1-5.2-.3-.6-.9-1-1.5-1s-1.8.5-2.6 1.6c-.4.5-.6.9-.8 1.5-.2-.1-.3-.4-.5-.5-.6-.2-1.9.5-2.7 1.4.5-2.3 1.4-4 3.4-5.3zm9.2 24c.7-.7 1.6-.9 2.1-1-.4.9-.8 2.2-1.9 2.6.2-.8 0-1.3-.2-1.6zm-6.5-16.8c.3-1 0-2.1-.7-1.8-.6.3-.9 1.2-.9 2-.2.1-.6.1-.8.2 0-1.2.3-2.4.9-3.3.2-.2.4-.5.6-.7 1.6-1.2 2.2 1.3 1.6 3.3-.3.2-.5.2-.7.3zm0 2c0 .3-.1.5-.1.7-.4.6-.9 1.1-1.4 1.8-.4.6-1 1.4-1.5 1.8-.3.3-.8.5-1.1.6-.4.1-.7-.4-1-.5-.2-.1-.7 0-.7-.4 0-.3.7-1.3.9-1.6.4-.7.9-1.4 1.6-1.8.9-.4 1.5-.2 2.2-.4.5 0 .8-.2 1.1-.2zm-4.8-3.2c1-.5 1.5.7 1.5 1.9l-.9.6c-.1-.5-.4-.9-.8-.5-.6.4-.9 1.6-.7 2.4-.2.3-.4.7-.6 1-.6-1.1-.1-4.6 1.5-5.4zm-3.1 13.2c.5-1.1 1.1-2.3 1.3-3.6.2.9-.1 1.9-.5 2.8-1.1 2.9-2.3 5.6-3 8.6-.4 1.6-.8 3.9-.3 5.1-.1.1-.2 0-.3 0-.2 0-.5-.1-.8.1.3-4.9 1.8-9 3.6-13zm1.1 22.9c-.3.7-1.1 1.4-1.9 1.8-.6.3-1.3.3-1.9.4-1.3.2-2.4.6-4 1.2-.4.1-1.7.7-1.9.4-.1-.4.3-1.2.5-1.7.6-1.8-.2-2.7-.5-3.7.8-.9 1.6-1.2 2.3-2 .2-.3.4-.6.6-1 .2-.3.4-.7.6-1 .4-.7.7-1.4 1.1-1.9.3-.5.8.1 1 .2.7.5 1.4 1.4 1.9 2.1.6.7 1.1 1.6 1.8 2.2.2.2.5.4.6.7.2.5 0 1.7-.2 2.3zm.1-6.2c-.5-.4-.9-1.1-1.4-1.6.3 0 .7 0 1.2.1.3 0 1.1-.1 1.1.3.1.3-.7.9-.9 1.2zm10.1-7.2c0 .6 0 1.2-.1 1.7-.1.4-.5 1.1-.7 1.6-1.3 2.5-4 5.1-6.5 5.5-.8.1-1.5 0-1.9-.6 1-1 1.8-2.2 1.7-3.6-.1-1.2-1-1.1-1.8-1.2-1 0-1.8-.1-2.5-.9-.3-.3-.6-.8-.6-1.5-.1-1.1.3-2.3.5-3.4.3-1.1.6-2.2 1-3.1.9-2.5 1.9-4.6 2.5-7 .2-.1.3 0 .6-.1.5-.2 1.1-.5 1.6-.9 1.1-.8 2-2.5 2.7-3.1 1 1.5 2.5 2.3 3.4 4 1 1.7 1.5 3.9 1.6 7.2-1.1.8-1.6 2.2-1.6 3.6.1.6.1 1.2.1 1.8zm9.1-2.6c-1.4 1.8-2.8 3.7-4.1 5.6-.5.7-.9 1.7-1.5 2.3-.6.7-2.1 1.6-2.4 1.3-.2-.2-.4-1.1-.3-1.8.2-1.1.6-2.5.7-3.8.1-1.4.1-2.7.1-4.2.2.4 0 1 .1 1.5.1.4.4.5.7.6.4.1 1 0 1.7-.6.7-.5 1.3-1.3 1.7-2.1.6-1 .8-2 1.2-2.8 0 0 0 0 0 0s0 0 0 0c.2.5.2 1 .3 1.5.3 1.3 1.4 1.5 2.5 1.3-.1.5-.4.9-.7 1.2z" fill-rule="evenodd" clip-rule="evenodd" fill="#fff" stroke="#000" stroke-width=".62" stroke-linecap="round" stroke-linejoin="round" stroke-miterlimit="10"/><text transform="matrix(.8355 -.4548 .01703 .9999 181.742 90.172)" font-size="7.451" font-family="Rubik-Regular" fill="#fff">RISC-V</text></svg>