<svg version="1.1" id="Camada_1" xmlns="http://www.w3.org/2000/svg" x="0" y="0" viewBox="0 0 317.1 186.1" xml:space="preserve"><style>.st0{stroke:#000;stroke-width:3;stroke-linecap:round;stroke-linejoin:round}.st1{fill:#fff}.st2{fill:none;stroke:#231f20;stroke-width:.8;stroke-linecap:round;stroke-linejoin:round}</style><g id="Camada_2_1_"><g id="Layer_1"><g id="blockchain"><path d="M158.5 128.2l13.9-8 .7.4-13.9 8zm-51.9-9.8l17.1 9.8-.7.4-17.1-9.8z"/><path class="st0" d="M85.1 69.8l34-19.8-34.2-19.7-34 19.8 34.2 19.7"/><path class="st0" d="M119.1 50.1l-34 19.8-34.3-19.8 34.1-19.8zm102.1 1.8l-34 19.8-34.3-19.8L187 32.1zM69.8 78.8l-34 19.7L1.5 78.8l34-19.8zm101.7 1.7l-34.1 19.7-34.2-19.7 34-19.8zM274 82.3l-34.1 19.8-34.2-19.8 34-19.7zm-151.5 26.9l-34 19.8-34.2-19.8 34-19.8zm102.1 1.8l-34 19.8-34.2-19.8 34-19.8zm-49.3 28.7l-34 19.7-34.3-19.7 34.1-19.8zm-6.9-118.3l-34 19.8-34.2-19.8 34-19.8z"/><path d="M116.2 30.6l.7.4-13.9 8-.7-.4z"/><path d="M120.3 49.1c0 .1-.1.2-.2.2l-17 9.9-.7.4-17 9.9c-.1.1-.2.1-.4.1-.1 0-.2 0-.3-.1l-17.2-9.9-.7-.4-17.1-9.9c-.1-.1-.2-.1-.2-.2s.1-.2.2-.2l34.7-20.2c.1-.1.2-.1.4-.1.1 0 .2 0 .3.1l17.1 9.9.8.4 17.1 9.9c.1.1.2.1.2.2zM85.1 68.9l34-19.8-34.2-19.7-34 19.8 34.2 19.7"/><path class="st1" d="M119.1 49.1l-34 19.8-34.3-19.7 34.1-19.8z"/><path d="M169.6 20.5c0 .1-.1.2-.1.2l-17 9.9-.7.4-17 9.9c-.2.1-.5.1-.7 0L116.9 31l-.7-.4-17.1-9.9c-.1 0-.1-.1-.2-.2 0-.1.1-.2.1-.2L133.7.1c.2-.1.5-.1.7 0l34.9 20.2c.3 0 .3.1.3.2zm-35.2 19.7l34-19.8L134.2.7l-34 19.8 34.2 19.7m-32 19.4l.8-.4 16.8 9.7-.7.5zm3.4 38.2l13.7-8 .7.4-13.7 8zm116-6.3l.7.4-13.9 8.1-.7-.4z"/><path d="M151.8 31l.7-.4 17.1 9.8-.7.4zM169 61l.7.4-14 8.2-.7-.4z"/><path class="st1" d="M221.2 50.9l-34 19.8-34.3-19.8L187 31.2z"/><path d="M205.2 61l17.2 9.9-.8.4-17-9.9z"/><path d="M222.4 50.9c0 .1-.1.2-.1.2l-17 9.9-.7.4-17 9.9c-.1.1-.2.1-.4.1-.1 0-.2 0-.4-.1l-17.1-9.9-.7-.4-17.1-9.9c-.1-.1-.1-.1-.1-.2s.1-.2.1-.2l17-9.9.7-.4 17-9.9c.1-.1.2-.1.4-.1.1 0 .2 0 .4.1l35 20.2v.2zm-35.2 19.8l34-19.8L187 31.2 153 51l34.2 19.7"/><path class="st1" d="M69.8 77.8l-34 19.8L1.5 77.8l34-19.8z"/><path d="M53.1 88.3l.7-.4 17.1 9.9-.7.4z"/><path d="M71 77.8c0 .1-.1.2-.2.2l-17 9.9-.7.4-17 9.9c-.1.1-.2.1-.3.1s-.3 0-.4-.1L.4 78c-.1 0-.1-.1-.1-.2s.1-.2.1-.2l34.7-20.2c.1-.1.2-.1.4-.1.1 0 .2 0 .3.1L53 67.3l.7.4 17.1 9.9c.1 0 .2.1.2.2zM35.8 97.6l34-19.8L35.5 58l-34 19.8 34.3 19.8"/><path class="st1" d="M171.5 79.5l-34.1 19.8-34.2-19.8 34-19.7z"/><path d="M155.6 89.5L173 99.6l-.7.4-17.4-10.1z"/><path d="M172.7 79.5c0 .1-.1.2-.1.2l-16.9 9.8-.7.5-17.2 10c-.1.1-.2.1-.4.1-.1 0-.2 0-.4-.1l-16.9-9.7-.7-.4-17.4-10c-.1 0-.2-.2-.1-.3 0-.1.1-.1.1-.1l17.2-10 .8-.5 16.9-9.8c.1-.1.2-.1.4-.1.1 0 .2 0 .4.1l17.4 10 .7.4 16.9 9.7c-.1.1 0 .2 0 .2zm-35.3 19.8l34-19.8-34.2-19.8-34 19.8 34.2 19.8m137.8-17.9c0 .1-.1.2-.1.2l-34.7 20.2c-.1.1-.2.1-.4.1-.1 0-.2 0-.4-.1l-17.1-9.9-.7-.4-17.1-9.9c-.1 0-.1-.1-.1-.2s.1-.2.2-.2l17-9.9.7-.4 17-9.9c.1-.1.2-.1.3-.1s.3 0 .4.1l35 20.2c-.1 0 0 .1 0 .2zm-35.3 19.8L274 81.4l-34.3-19.8-34 19.8 34.2 19.8"/><path class="st1" d="M274 81.4l-34.1 19.8-34.2-19.8 34-19.8z"/><path d="M123.7 108.3c0 .1-.1.2-.2.2l-17 9.9-.7.4-17 9.9c-.1.1-.2.1-.3.1-.1 0-.2 0-.3-.1l-35-20.2c-.1 0-.1-.1-.2-.2 0-.1.1-.2.2-.2l17-9.9.7-.4 17-9.9c.1-.1.2-.1.3-.1.1 0 .2 0 .3.1l17.1 9.9.7.4 17.1 9.9c.3 0 .3.1.3.2zm-35.2 19.8l34-19.8-34.2-19.8-34 19.8 34.2 19.8"/><path class="st1" d="M122.5 108.3l-34 19.8-34.2-19.8 34-19.8zm102.1 1.8l-34 19.7-34.2-19.7 34-19.8z"/><path d="M225.8 110.1c0 .1-.1.2-.1.2l-17 9.9-.7.4-17 9.9c-.2.1-.5.1-.7 0l-17.1-9.9-.7-.4-17.1-9.9c-.1 0-.1-.1-.1-.2s.1-.2.1-.2l17-9.9.7-.4 17-9.9c.1-.1.2-.1.4-.1.1 0 .2 0 .4.1l17.1 9.9.7.4 17.1 9.9v.2zm-35.2 19.7l34-19.8-34.2-19.8-34 19.8 34.2 19.8"/><path class="st1" d="M175.3 138.7l-34 19.8-34.3-19.8 34.1-19.7z"/><path d="M176.5 138.7c0 .1-.1.2-.1.2l-34.7 20.2c-.1.1-.2.1-.4.1-.1 0-.3 0-.4-.1L106 139c-.1-.1-.2-.1-.1-.2 0-.1.1-.2.1-.2l17-9.9.7-.4 17-9.9c.1-.1.2-.1.4-.1.1 0 .2 0 .4.1l17.1 9.9.7.4 17.1 9.9.1.1zm-35.2 19.8l34-19.8-34.2-19.7-34 19.8 34.2 19.7M53 67.3l13.9-8.1.7.4-13.9 8.1z"/><path class="st1" d="M168.4 20.5l-34 19.7-34.2-19.7 34-19.8z"/></g><g id="lock"><path d="M226.5 130.4c.2.1.2.3 0 .4-.2.1-.5.1-.7 0L208 120.6l.7-.4 17.8 10.2zm16 9.7c.2-.1.5-.1.7 0l18.6 10.8-.7.4-18.6-10.8c-.1 0-.2-.2-.1-.3 0-.1 0-.1.1-.1z"/><path class="st2" d="M227.9 131.2h12.8v9.8h-12.8zm1.5-.2v-3.7c0-2.7 2.2-4.9 4.9-4.9s4.9 2.2 4.9 4.9"/><path class="st2" d="M235.6 135.1c0-.7-.6-1.4-1.3-1.4s-1.4.6-1.4 1.3c0 .4.2.8.5 1.1v2.3h1.7v-2.3c.3-.2.5-.6.5-1z"/></g><g id="chip"><path d="M315.3 159.8c0 .2-.2.4-.4.4s-.4-.2-.4-.4v-1.4c0-.2.2-.4.4-.4s.4.2.4.4v1.4zm-2.5-1.4c0 .2-.2.4-.4.4s-.4-.2-.4-.4V157c0-.2.2-.4.4-.4s.4.2.4.4v1.4zm-2.4-1.4c0 .2-.2.4-.4.4s-.4-.2-.4-.4v-1.4c0-.2.2-.4.4-.4s.4.2.4.4v1.4zm-2.5-1.4c0 .2-.2.4-.4.4s-.4-.2-.4-.4v-1.4c0-.2.2-.4.4-.4s.4.2.4.4v1.4zm-2.4-1.5c0 .2-.2.4-.4.4s-.4-.2-.4-.4v-1.4c0-.2.2-.4.4-.4s.4.2.4.4v1.4zm-56.4 2.5c0 .2.2.3.4.3s.4-.1.4-.3v-1.1c0-.2-.2-.3-.4-.3s-.4.1-.4.3v1.1zm2.5-1.4c0 .2.2.3.4.3s.4-.1.4-.3v-1.1c0-.2-.2-.3-.4-.3s-.4.1-.4.3v1.1zm2.4-1.4c0 .2.2.3.4.3s.4-.1.4-.3v-1.1c0-.2-.2-.3-.4-.3s-.4.1-.4.3v1.1z"/><path class="st0" d="M314.5 162.4c0 .1-.1.2-.1.2l-2.1 1.2-.7.4-1.7 1-.7.4-1.9 1.1-.7.4-1.7 1-.7.4-1.7 1-.7.4-1.7 1-.7.4-1.7 1-.7.4-1.7 1-.7.4-1.7 1-.7.4-1.7 1-.7.4-1.7 1-.7.4-1.7 1-.7.4-1.7 1-.7.4-2.5 1.5c-.1.1-.2.1-.4.1-.1 0-.2 0-.4-.1l-2-1.1-.7-.4-1.7-1-.7-.4-1.7-1-.7-.4-1.7-1-.7-.4-1.7-1-.7-.4-1.7-1-.7-.4-1.9-1.1-.7-.4-1.6-.9-.7-.4-1.7-1-.7-.4-1.7-1-.7-.4-1.7-1-.7-.4-1.7-1-.7-.4-1.7-1-.7-.4-2.8-1.6c-.1 0-.1-.1-.1-.2s.1-.2.1-.2l2.5-1.5.7-.4 1.7-1 .7-.4 1.7-1 .7-.4 1.7-1 .7-.4 1.7-1 .7-.4 1.7-1 .7-.4 1.7-1 .7-.4 1.7-1 .7-.4 1.7-1 .7-.4 1.7-1 .7-.4 1.7-1 .7-.4 1.9-1.1.7-.4 1.7-1 .7-.4 2.1-1.2c.1-.1.2-.1.4-.1.1 0 .2 0 .4.1l2.9 1.7.7.4 1.7 1 .7.4 1.7 1 .7.4 1.7 1 .7.4 1.7 1 .7.4 1.7 1 .7.4 1.6.9.7.4 1.9 1.1.7.4 1.7 1 .7.4 1.7 1 .7.4 1.7 1 .7.4 1.7 1 .7.4 1.7 1 .7.4 2 1.1v.1zm-35.2 19.7l34-19.8-34.3-19.7-34 19.8 34.3 19.7"/><path d="M315.1 158.1c.1 0 .2.2.1.3 0 .1-.1.1-.1.1l-2.7 1.6-.7-.4 2.7-1.6c.2-.1.5-.1.7 0zm-61-5.6c.2-.1.5-.1.7 0l2.1 1.2-.7.4-2.1-1.2c-.1 0-.2-.2-.1-.3 0-.1.1-.1.1-.1zm51.2 0c.2.1.2.3 0 .4l-2.7 1.6-.7-.4 2.7-1.6c.2-.2.5-.2.7 0zm-53.6 1.4c.2-.1.5-.1.7 0l2.1 1.2-.7.4-2.1-1.2c-.1-.1-.2-.2-.1-.3 0-.1.1-.1.1-.1zm56 0c.1 0 .2.2.1.3 0 .1-.1.1-.1.1l-2.7 1.6-.7-.4 2.7-1.6c.2-.1.5-.1.7 0zm-58.4 1.4c.2-.1.5-.1.7 0l2.1 1.2-.7.4-2.1-1.2c-.1 0-.2-.2-.1-.3 0 0 0-.1.1-.1zm60.9 0c.2.1.2.3 0 .4l-2.7 1.6-.7-.4 2.7-1.6c.2-.1.5-.1.7 0zm-63.4 1.4c.2-.1.5-.1.7 0l2.1 1.2-.7.4-2.1-1.2c-.2-.1-.2-.3 0-.4zm65.8 0c.1 0 .2.2.1.3 0 .1-.1.1-.1.1l-2.6 1.6-.7-.4 2.7-1.6c.2-.1.4-.1.6 0z"/><path class="st1" d="M304.8 159.7c.7.3 1.2 1 1.3 1.7-.1.8-.5 1.4-1.2 1.7l-22.5 13.1.4.2-.4-.2c-1.9 1-4.1 1-6 0l-22.7-13.1c-.7-.3-1.2-1-1.2-1.7.1-.8.5-1.4 1.2-1.7l22.5-13.1c.9-.5 2-.7 3-.7s2.1.2 3 .7l22.6 13.1z"/><path d="M305.5 159.3c2.1 1.2 2.1 3.1 0 4.3L283 176.7c-2.3 1.2-5.1 1.2-7.4 0l-22.7-13.1c-2.1-1.2-2.1-3.1 0-4.3l22.5-13.1c2.3-1.2 5.1-1.2 7.4 0l22.7 13.1zM279.3 177c1 0 2.1-.2 3-.7l22.5-13.1c.7-.3 1.2-1 1.2-1.7-.1-.8-.6-1.4-1.3-1.7L282 146.7c-.9-.5-2-.7-3-.7s-2.1.2-3 .7l-22.5 13.1c-.7.3-1.2 1-1.2 1.7.1.8.5 1.4 1.2 1.7l22.7 13.1c1 .4 2 .7 3.1.7"/><path class="st1" d="M279.1 141.6l34.2 19.8-34 19.8-34.3-19.8 34.1-19.8zm3.9 35l22.5-13.1c2-1.2 2-3.1 0-4.3l-22.7-13.1c-2.3-1.2-5.1-1.2-7.4 0l-22.5 13.1c-2 1.2-2 3.1 0 4.3l22.7 13.1c2.3 1.2 5 1.2 7.4 0"/><path d="M314.5 161.4c0 .1-.1.2-.1.2l-2.1 1.2-.7.4-1.7 1-.7.4-1.9 1.1-.7.4-1.7 1-.7.4-1.7 1-.7.4-1.7 1-.7.4-1.7 1-.7.4-1.7 1-.7.4-1.7 1-.7.4-1.7 1-.7.4-1.7 1-.7.4-1.7 1-.7.4-1.7 1-.7.4-2.5 1.5c-.1.1-.2.1-.4.1-.1 0-.2 0-.4-.1l-2-1.1-.7-.4-1.7-1-.7-.4-1.7-1-.7-.4-1.7-1-.7-.4-1.7-1-.7-.4-1.7-1-.7-.4-1.9-1.1-.7-.4-1.6-.9-.7-.4-1.7-1-.7-.4-1.7-1-.7-.4-1.7-1-.7-.4-1.7-1-.7-.4-1.7-1-.7-.4-2.8-1.7c-.1-.1-.1-.1-.1-.2s.1-.2.1-.2l2.5-1.5.7-.4 1.7-1 .7-.4 1.7-1 .7-.4 1.7-1 .7-.4 1.7-1 .7-.4 1.7-1 .7-.4 1.7-1 .7-.4 1.7-1 .7-.4 1.7-1 .7-.4 1.7-1 .7-.4 1.7-1 .7-.4 1.9-1.1.7-.4 1.7-1 .7-.4 2.1-1.3c.1-.1.2-.1.4-.1.1 0 .2 0 .4.1l2.9 1.7.7.4 1.7 1 .7.4 1.7 1 .7.4 1.7 1 .7.4 1.7 1 .7.4 1.7 1 .7.4 1.6.9.7.4 1.9 1.1.7.4 1.7 1 .7.4 1.7 1 .7.4 1.7 1 .7.4 1.7 1 .7.4 1.7 1 .7.4 2 1.1v.3zm-35.2 19.8l34-19.8-34.3-19.8-34 19.8 34.3 19.8M251 167.8l-.7-.4-2.3 1.4-.1.1c-.1.1-.1.2-.1.2v1.6c0 .2.1.4.4.4.2 0 .4-.2.4-.4v-1.1s0-.3.2-.4l2.2-1.4zm2.9 1.6l-.7-.4-2.4 1.4-.1.1c-.1.1-.1.2-.1.2v1.6c0 .2.1.4.3.4s.4-.1.4-.3v-1.2s0-.3.2-.4l2.4-1.4zm3 1.7l-.7-.4-2.4 1.4h-.1c-.1.1-.1.2-.1.2v1.7c0 .2.2.4.3.4s.4-.2.4-.3V173s0-.3.2-.4l2.4-1.5zm2.9 1.7l-.7-.4-2.3 1.4v.1c-.1.1-.1.2-.1.2v1.6c0 .2.2.4.4.4s.4-.2.4-.4v-1.1s0-.3.2-.4l2.1-1.4zm3 1.6l-.7-.4-2.3 1.4-.1.1c-.1.1-.1.2-.1.2v1.6c0 .2.1.4.3.4.2 0 .4-.1.4-.3v-1.2s0-.3.2-.4l2.3-1.4zm3 1.7l-.7-.4-2.4 1.4h-.1c-.1.1-.1.2-.1.2v1.7c0 .2.1.4.3.4.2 0 .4-.2.4-.4v-1.1s0-.3.2-.4l2.4-1.4zm2.9 1.7l-.7-.4-2.3 1.4v.1c-.1.1-.1.2-.1.2v1.6c0 .2.2.4.4.4s.4-.2.4-.4v-1.1s0-.3.2-.4l2.1-1.4zm3 1.6l-.7-.4-2.3 1.4-.1.1c-.1.1-.1.2-.1.2v1.6c0 .2.1.4.4.4.2 0 .4-.2.4-.4v-1.1s0-.3.2-.4l2.2-1.4zm2.9 1.7l-.7-.4-2.4 1.4h-.1c-.1.1-.1.2-.1.2v1.7c0 .2.1.4.3.4.2 0 .4-.2.4-.4v-1.1s0-.3.2-.4l2.4-1.4zm3 1.7l-.7-.4-2.4 1.4-.1.1c-.1.1-.1.2-.1.2v1.6c0 .2.2.4.4.4s.4-.2.4-.4v-1.1s0-.3.2-.4l2.3-1.4zm36.3-18.6l.7-.4 2.3 1.4v.1c0 .1 0 0 0 0 .1.1.1.2.1.2v1.6c0 .2-.2.4-.4.4s-.4-.2-.4-.4V166s0-.3-.2-.4l-2.1-1.4zm-3 1.7l.7-.4 2.3 1.4h.1c.1.1.1.2.1.2v1.6c0 .2-.1.4-.3.4-.2 0-.4-.1-.4-.3v-1.2s0-.3-.2-.4l-2.3-1.3zm-2.9 1.7l.7-.4 2.4 1.4.1.1c.1.1.1.2.1.2v1.6c0 .2-.1.4-.3.4-.2 0-.4-.2-.4-.4v-1.1s0-.3-.2-.4l-2.4-1.4zm-3 1.6l.7-.4 2.4 1.4v.1c.1.1.1.2.1.2v1.6c0 .2-.2.4-.4.4s-.4-.2-.4-.4V171s0-.3-.2-.4l-2.2-1.4zm-3 1.7l.7-.4 2.3 1.4h.1c.1.1.1.2.1.2v1.6c0 .2-.1.4-.4.4-.2 0-.4-.2-.4-.4v-1.1s0-.3-.2-.4l-2.2-1.3zm-2.9 1.7l.7-.4 2.4 1.4.1.1c.1.1.1.2.1.2v1.6c0 .2-.1.4-.3.4-.2 0-.4-.1-.4-.3v-1.2s0-.3-.2-.4l-2.4-1.4zm-3 1.6l.7-.4 2.4 1.4.1.1c.1.1.1.2.1.2v1.6c0 .2-.2.4-.4.4s-.4-.2-.4-.4V176s0-.3-.2-.4l-2.3-1.4zm-3 1.7l.7-.4 2.3 1.4c.1.1.1.2.1.2v1.6c0 .2-.2.4-.4.4s-.4-.2-.4-.4v-1.1s0-.3-.2-.4l-2.1-1.3zm-2.9 1.7l.7-.4 2.3 1.4.1.1c.1.1.1.2.1.2v1.6c0 .2-.1.4-.3.4-.2 0-.4-.1-.4-.3v-1.2s0-.3-.2-.4l-2.3-1.4zm-3 1.6l.7-.4 2.4 1.4.1.1c.1.1.1.2.1.2v1.6c0 .2-.1.4-.3.4-.2 0-.4-.2-.4-.4V181s0-.3-.2-.4l-2.4-1.4zm-3 1.7l.7-.4 2.3 1.4c0 .1.1.2.1.2v1.6c0 .2-.2.4-.4.4s-.4-.2-.4-.4v-1.1s0-.3-.2-.4l-2.1-1.3zm-2.9 1.7l.7-.4 2.3 1.4.1.1c.1.1.1.2.1.2v1.6c0 .2-.1.4-.4.4-.2 0-.4-.2-.4-.4v-1.1s0-.3-.2-.4l-2.2-1.4zm21.7-29.8c0 .2-.2.4-.4.4s-.4-.2-.4-.4v-1.4c0-.2.2-.4.4-.4s.4.2.4.4v1.4zm-2.5-1.5c0 .2-.2.4-.4.4s-.4-.2-.4-.4v-1.4c0-.2.2-.4.4-.4s.4.2.4.4v1.4zm-2.4-1.4c0 .2-.2.4-.4.4s-.4-.2-.4-.4v-1.4c0-.2.2-.4.4-.4s.4.2.4.4v1.4zm-2.4-1.4c0 .2-.2.4-.4.4s-.4-.2-.4-.4v-1.4c0-.2.2-.4.4-.4s.4.2.4.4v1.4zm-2.5-1.4c0 .2-.2.4-.4.4s-.4-.2-.4-.4v-1.4c0-.2.2-.4.4-.4s.4.2.4.4v1.4zm-2.4-1.4c0 .2-.2.4-.4.4s-.4-.2-.4-.4v-1.4c0-.2.2-.4.4-.4s.4.2.4.4v1.4zm-2.5-1.5c0 .2-.2.4-.4.4s-.4-.2-.4-.4v-1.4c0-.2.2-.4.4-.4s.4.2.4.4v1.4zm-2.4-1.4c0 .2-.2.4-.4.4s-.4-.2-.4-.4v-1.4c0-.2.2-.4.4-.4s.4.2.4.4v1.4zm-41.6 16.6c0 .2.2.3.4.3s.4-.1.4-.3v-1.1c0-.2-.2-.3-.4-.3s-.4.1-.4.3v1.1zm2.4-1.4c0 .2.2.3.4.3s.4-.1.4-.3v-1.1c0-.2-.2-.3-.4-.3s-.4.1-.4.3v1.1zm9.7-5.7c0 .2.2.3.4.3s.4-.1.4-.3v-1.1c0-.2-.2-.3-.4-.3s-.4.1-.4.3v1.1zm4.9-2.8c0 .2.2.3.4.3s.4-.1.4-.3v-1.1c0-.2-.2-.3-.4-.3s-.4.1-.4.3v1.1zm2.4-1.4c0 .2.2.3.4.3s.4-.1.4-.3V147c0-.2-.2-.3-.4-.3s-.4.1-.4.3v1.1zm2.5-1.4c0 .2.2.3.4.3s.4-.1.4-.3v-1.1c0-.2-.2-.3-.4-.3s-.4.1-.4.3v1.1zm2.4-1.4c0 .2.2.3.4.3s.4-.1.4-.3v-1.1c0-.2-.2-.3-.4-.3s-.4.1-.4.3v1.1zm2.6-1.5c0 .2.2.3.4.3s.4-.1.4-.3v-1.1c0-.2-.2-.3-.4-.3s-.4.1-.4.3v1.1zm2.4-1.4c0 .2.2.3.4.3s.4-.1.4-.3v-1.1c0-.2-.2-.3-.4-.3s-.4.1-.4.3v1.1z"/><path d="M297.9 148.2c.2.1.2.3 0 .4l-2.7 1.6-.7-.4 2.7-1.6c.2-.1.5-.1.7 0zm-24.1-7.1c.2-.1.5-.1.7 0l2.1 1.2-.7.4-2.1-1.2c-.1 0-.2-.2-.1-.3 0-.1 0-.1.1-.1zm11.9 0c.1 0 .2.2.1.3 0 .1-.1.1-.1.1l-2.7 1.6-.7-.4 2.7-1.6c.2-.1.5-.1.7 0zm-14.4 1.4c.2-.1.5-.1.7 0l2.1 1.2-.7.4-2.1-1.2c-.2-.1-.2-.3 0-.4zm16.8.1c.1 0 .2.2.1.3 0 .1-.1.1-.1.1l-2.7 1.6-.7-.4 2.7-1.6c.2-.2.5-.2.7 0zm-19.3 1.4c.2-.1.5-.1.7 0l2.1 1.2-.7.4-2.1-1.2c-.1 0-.2-.2-.1-.3 0 0 0-.1.1-.1zm21.8 0c.2.1.2.3 0 .4l-2.7 1.6-.7-.4 2.7-1.6c.2-.1.5-.1.7 0zm-24.3 1.4c.2-.1.5-.1.7 0l2.1 1.2-.7.4-2.1-1.2c-.2-.1-.2-.3 0-.4zm26.7 0c.1 0 .2.2.1.3 0 .1-.1.1-.1.1l-2.7 1.6-.7-.4 2.7-1.6c.2-.1.5-.1.7 0zm-29.1 1.4c.2-.1.5-.1.7 0l2.1 1.2-.7.4-2.1-1.2c-.1 0-.2-.2-.1-.3 0 0 0-.1.1-.1zm31.6 0c.2.1.2.3 0 .4l-2.7 1.6-.7-.4 2.7-1.6c.2-.1.5-.1.7 0zm-34 1.4c.2-.1.5-.1.7 0l2.1 1.2-.7.4-2.1-1.2c-.3-.1-.3-.3 0-.4zm38.8 1.4c.1 0 .2.2.1.3 0 .1-.1.1-.1.1l-2.7 1.6-.7-.4 2.7-1.6c.2-.2.4-.2.7 0zm-43.7 1.4c.2-.1.5-.1.7 0l2.1 1.2-.7.4-2.1-1.2c-.2-.1-.2-.2 0-.4zm46.2 0c.1.1.2.2.1.3 0 .1-.1.1-.1.1l-2.7 1.6-.7-.4 2.7-1.6c.2-.1.5-.1.7 0zm-58.4 7.1c.2-.1.5-.1.7 0l2.1 1.2-.7.4-2.1-1.2c-.1 0-.2-.2-.1-.3l.1-.1zm.6 6.3l-.7-.4-2.3 1.4-.1.1c-.1.1-.1.2-.1.2v1.6c0 .2.1.4.3.4.2 0 .4-.2.4-.4v-1.1s0-.3.2-.4l2.3-1.4zm3 1.7l-.7-.4-2.3 1.4h-.1c0 .1-.1.2-.1.2v1.7c0 .2.2.4.3.4s.4-.2.4-.3V168s0-.3.2-.4l2.3-1.5z"/></g></g></g></svg>