<svg version="1.1" id="Layer_1" xmlns="http://www.w3.org/2000/svg" x="0" y="0" viewBox="0 0 1930.2 82.7" xml:space="preserve"><style>.st0{fill:none;stroke:#282829;stroke-width:2.539;stroke-linecap:round;stroke-linejoin:round;stroke-miterlimit:10}</style><path class="st0" d="M170.5 1.6l-24.2 26.6-9.9-26.6m68 0h-16.9m51.1 0l-24.3 26.6-9.9-26.6m-57.8 26.6h34.1m-17-.1l24.1-26.5 9.9 26.6m9.8 26.6l-24.2 26.6m7.3-26.6l-9.9-26.6"/><path class="st0" d="M197.6 28.2h17.3l9.8 26.6m-10.1-26.6h34.2m-7.3 26.6h-17m7.3-26.7l24-26.5 9.9 26.6"/><path class="st0" d="M265.7 28.2h17.2l9.9 26.6h-34.1l-9.9-26.6M34.1 1.6L9.9 28.2 0 1.6m68.1 0h-17m51.1 0L78 28.2 68.1 1.6M37 54.8H20.1l-9.9-26.6h34.1m-16.9-.1l24-26.5 9.9 26.6m-7.1 26.6l-9.9-26.6"/><path class="st0" d="M61.2 28.2h17.3l9.9 26.6M61.3 28.2L37 54.8m41.3-26.6h34.1m-7.3 26.6H88.2m7.3-26.7l24-26.5 9.9 26.6M115 81.4l-9.9-26.6m17.2 0l-9.9-26.6m16.9 0h17.3m-17.2 0l-24.3 26.6M443.4 1.6l-24.2 26.6-9.9-26.6m68 0h-16.9m51.1 0l-24.3 26.6-9.9-26.6m-48 53.2l-9.8-26.6h34.1m-17-.1l24.1-26.5 9.9 26.6"/><path class="st0" d="M470.5 28.2h17.3l9.8 26.6h-34.1m24-26.6h34.2m-7.3 26.6h-17m7.3-26.7l24.1-26.5 9.8 26.6m-14.3 53.2l-9.9-26.6m17.2 0l-9.9-26.6m16.9 0h17.2m-17.2 0l-24.2 26.6M307 1.6l-24.2 26.6-9.9-26.6m68.1 0h-17m51.1 0l-24.2 26.6L341 1.6m-31.1 53.2H293l-9.9-26.6h34.1m-16.9-.1l24-26.5 9.9 26.6m-14.4 53.2l-9.9-26.6m17.2 0l-9.9-26.6m16.9 0h17.3m-17.2 0l-24.3 26.6m41.3-26.6h34.1m-16.9-.1l24-26.5 9.9 26.6m-14.4 53.2L378 54.8"/><path class="st0" d="M402.2 28.2h17.3l9.9 26.6m-27.1-26.6L378 54.8M716.3 1.6l-24.2 26.6-9.9-26.6m68 0h-16.9m51.1 0l-24.3 26.6-9.9-26.6m-31 53.2h-17l-9.9-26.6h34.2m-17-.1l24.1-26.5 9.9 26.6m-.1 0h17.3m-.3 0h34.2m-17-.1l24-26.5 9.9 26.6"/><path class="st0" d="M811.5 28.2h17.2l9.9 26.6h-34.1l-9.9-26.6m16.9 0l-24.2 26.6M579.9 1.6l-24.2 26.6-9.9-26.6m68.1 0h-17m51.1 0l-24.2 26.6-9.9-26.6M556 28.2h34.1m-16.9-.1l24-26.5 9.9 26.6"/><path class="st0" d="M607 28.2h17.3l9.9 26.6H600l-9.9-26.6m17 0l-24.3 26.6m41.3-26.6h34.1m-16.9-.1l24-26.5 9.9 26.6m-.1 0h17.3l9.9 26.6h-34.2M989.2 1.6L965 28.2l-9.9-26.6m68 0h-16.9m51.1 0L1033 28.2l-9.9-26.6m-48 53.2l-9.8-26.6h34.1m-17-.1l24.1-26.5 9.9 26.6"/><path class="st0" d="M1016.3 28.2h17.3l9.8 26.6m-10.1-26.6h34.2m-7.3 26.6h-17m7.3-26.7l24-26.5 9.9 26.6m-14.3 53.2l-9.9-26.6m17.2 0l-9.9-26.6m16.9 0h17.2l9.9 26.6m-27.1-26.6l-24.2 26.6M852.8 1.6l-24.2 26.6-9.9-26.6m68.1 0h-17m51.1 0l-24.2 26.6-9.9-26.6m-48 53.2l-9.9-26.6m41.2-26.6l9.9 26.6"/><path class="st0" d="M879.9 28.2h17.3l9.9 26.6h-34.2M897 28.2h34.1m-7.3 26.6h-17m7.4-26.7l24-26.5m-4.5 79.8l-9.9-26.6m17.2 0l-9.9-26.6m34.2 0l9.9 26.6m286.9-53.2l-24.2 26.6-9.9-26.6m68 0h-16.9m51.1 0l-24.3 26.6-9.9-26.6m-57.9 26.6h34.2m-17-.1l24.1-26.5 9.9 26.6m9.8 26.6l-24.2 26.6-9.9-26.6m17.2 0l-9.9-26.6m16.9 0h17.3m-17.3 0L1265 54.8m41.2-26.6h34.2m-17-.1l24-26.5 9.9 26.6m9.9 26.6L1343 81.4m14.3-53.2h17.2l9.9 26.6h-34.1l-9.9-26.6M1125.7 1.6l-24.2 26.6-9.9-26.6m68.1 0h-17m51.1 0l-24.2 26.6-9.9-26.6m-31.1 53.2h-16.9l-9.9-26.6h34.1m-16.9-.1l24-26.5 9.9 26.6m-14.4 53.2l-9.9-26.6m17.2 0l-9.9-26.6"/><path class="st0" d="M1152.8 28.2h17.3l9.9 26.6m-27.1-26.6l-24.3 26.6m41.3-26.6h34.1m-16.9-.1l24-26.5 9.9 26.6m-7.1 26.6l-9.9-26.6m16.9 0h17.3m-17.3 0l-24.2 26.6M1535 1.6l-24.2 26.6-9.9-26.6m68 0H1552m51.1 0l-24.3 26.6-9.9-26.6m-31 53.2h-17l-9.9-26.6h34.2m-17-.1l24.1-26.5 9.9 26.6m-14.4 53.2l-9.9-26.6m17.2 0l-9.9-26.6m16.9 0h17.3m-17.3 0l-24.2 26.6m41.2-26.6h34.2m-17-.1l24-26.5 9.9 26.6"/><path class="st0" d="M1630.2 28.2h17.2l9.9 26.6h-34.1l-9.9-26.6M1398.6 1.6l-24.2 26.6-9.9-26.6m68.1 0h-17m51.1 0l-24.2 26.6-9.9-26.6m-48 53.2l-9.9-26.6h34.1m-16.9-.1l24-26.5 9.9 26.6m9.8 26.6l-24.2 26.6m7.3-26.6l-9.9-26.6"/><path class="st0" d="M1425.7 28.2h17.3l9.9 26.6m-10.1-26.6h34.1m-7.3 26.6h-17m7.4-26.7l24-26.5 9.9 26.6m-14.4 53.2l-9.9-26.6m17.2 0l-9.9-26.6"/><path class="st0" d="M1493.8 28.2h17.3l9.9 26.6m-27.2-26.6l-24.2 26.6m338.3-53.2l-24.2 26.6-9.9-26.6m68 0h-16.9m51.1 0l-24.3 26.6-9.9-26.6m-31 53.2h-17l-9.9-26.6h34.2m-17-.1l24.1-26.5 9.9 26.6m-14.4 53.2l-9.9-26.6m17.2 0l-9.9-26.6m16.9 0h17.3l9.8 26.6M1835 28.2l-24.2 26.6m41.2-26.6h34.2m-7.3 26.6h-17m7.3-26.7l24-26.5 9.9 26.6"/><path class="st0" d="M1903.1 28.2h17.2l9.9 26.6h-34.1l-9.9-26.6m16.9 0l-24.2 26.6M1671.5 1.6l-24.2 26.6-9.9-26.6m68.1 0h-17m51.1 0l-24.2 26.6-9.9-26.6m-48 53.2l-9.9-26.6h34.1m-16.9-.1l24-26.5 9.9 26.6m-7.1 26.6l-9.9-26.6"/><path class="st0" d="M1698.6 28.2h17.3l9.9 26.6m-27.1-26.6l-24.3 26.6m41.3-26.6h34.1m-7.3 26.6h-17m7.4-26.7l24-26.5 9.9 26.6m9.8 26.6l-24.2 26.6"/><path class="st0" d="M1766.7 28.2h17.3l9.9 26.6m-27.2-26.6l-24.2 26.6"/></svg>